G04 #@! TF.GenerationSoftware,KiCad,Pcbnew,(5.1.12)-1*
G04 #@! TF.CreationDate,2022-11-12T20:16:50+02:00*
G04 #@! TF.ProjectId,MagicLightsPCBNeo,4d616769-634c-4696-9768-74735043424e,rev?*
G04 #@! TF.SameCoordinates,Original*
G04 #@! TF.FileFunction,Copper,L1,Top*
G04 #@! TF.FilePolarity,Positive*
%FSLAX46Y46*%
G04 Gerber Fmt 4.6, Leading zero omitted, Abs format (unit mm)*
G04 Created by KiCad (PCBNEW (5.1.12)-1) date 2022-11-12 20:16:50*
%MOMM*%
%LPD*%
G01*
G04 APERTURE LIST*
G04 #@! TA.AperFunction,ComponentPad*
%ADD10R,1.700000X1.700000*%
G04 #@! TD*
G04 #@! TA.AperFunction,ComponentPad*
%ADD11O,1.700000X1.700000*%
G04 #@! TD*
G04 #@! TA.AperFunction,SMDPad,CuDef*
%ADD12R,2.500000X1.000000*%
G04 #@! TD*
G04 #@! TA.AperFunction,ComponentPad*
%ADD13O,2.400000X2.400000*%
G04 #@! TD*
G04 #@! TA.AperFunction,ComponentPad*
%ADD14C,2.400000*%
G04 #@! TD*
G04 #@! TA.AperFunction,ComponentPad*
%ADD15R,1.600000X1.600000*%
G04 #@! TD*
G04 #@! TA.AperFunction,ComponentPad*
%ADD16C,1.600000*%
G04 #@! TD*
G04 #@! TA.AperFunction,SMDPad,CuDef*
%ADD17R,1.800000X3.500000*%
G04 #@! TD*
G04 #@! TA.AperFunction,SMDPad,CuDef*
%ADD18R,0.510000X0.700000*%
G04 #@! TD*
G04 #@! TA.AperFunction,ViaPad*
%ADD19C,0.800000*%
G04 #@! TD*
G04 #@! TA.AperFunction,Conductor*
%ADD20C,0.250000*%
G04 #@! TD*
G04 #@! TA.AperFunction,Conductor*
%ADD21C,0.750000*%
G04 #@! TD*
G04 #@! TA.AperFunction,Conductor*
%ADD22C,0.500000*%
G04 #@! TD*
G04 #@! TA.AperFunction,Conductor*
%ADD23C,0.254000*%
G04 #@! TD*
G04 #@! TA.AperFunction,Conductor*
%ADD24C,0.100000*%
G04 #@! TD*
G04 APERTURE END LIST*
G04 #@! TA.AperFunction,SMDPad,CuDef*
G36*
G01*
X44900000Y-65662500D02*
X44900000Y-66137500D01*
G75*
G02*
X44662500Y-66375000I-237500J0D01*
G01*
X44162500Y-66375000D01*
G75*
G02*
X43925000Y-66137500I0J237500D01*
G01*
X43925000Y-65662500D01*
G75*
G02*
X44162500Y-65425000I237500J0D01*
G01*
X44662500Y-65425000D01*
G75*
G02*
X44900000Y-65662500I0J-237500D01*
G01*
G37*
G04 #@! TD.AperFunction*
G04 #@! TA.AperFunction,SMDPad,CuDef*
G36*
G01*
X43075000Y-65662500D02*
X43075000Y-66137500D01*
G75*
G02*
X42837500Y-66375000I-237500J0D01*
G01*
X42337500Y-66375000D01*
G75*
G02*
X42100000Y-66137500I0J237500D01*
G01*
X42100000Y-65662500D01*
G75*
G02*
X42337500Y-65425000I237500J0D01*
G01*
X42837500Y-65425000D01*
G75*
G02*
X43075000Y-65662500I0J-237500D01*
G01*
G37*
G04 #@! TD.AperFunction*
G04 #@! TA.AperFunction,SMDPad,CuDef*
G36*
G01*
X37850000Y-57849999D02*
X37850000Y-58750001D01*
G75*
G02*
X37600001Y-59000000I-249999J0D01*
G01*
X36949999Y-59000000D01*
G75*
G02*
X36700000Y-58750001I0J249999D01*
G01*
X36700000Y-57849999D01*
G75*
G02*
X36949999Y-57600000I249999J0D01*
G01*
X37600001Y-57600000D01*
G75*
G02*
X37850000Y-57849999I0J-249999D01*
G01*
G37*
G04 #@! TD.AperFunction*
G04 #@! TA.AperFunction,SMDPad,CuDef*
G36*
G01*
X39900000Y-57849999D02*
X39900000Y-58750001D01*
G75*
G02*
X39650001Y-59000000I-249999J0D01*
G01*
X38999999Y-59000000D01*
G75*
G02*
X38750000Y-58750001I0J249999D01*
G01*
X38750000Y-57849999D01*
G75*
G02*
X38999999Y-57600000I249999J0D01*
G01*
X39650001Y-57600000D01*
G75*
G02*
X39900000Y-57849999I0J-249999D01*
G01*
G37*
G04 #@! TD.AperFunction*
G04 #@! TA.AperFunction,SMDPad,CuDef*
G36*
G01*
X34837500Y-42400000D02*
X34362500Y-42400000D01*
G75*
G02*
X34125000Y-42162500I0J237500D01*
G01*
X34125000Y-41587500D01*
G75*
G02*
X34362500Y-41350000I237500J0D01*
G01*
X34837500Y-41350000D01*
G75*
G02*
X35075000Y-41587500I0J-237500D01*
G01*
X35075000Y-42162500D01*
G75*
G02*
X34837500Y-42400000I-237500J0D01*
G01*
G37*
G04 #@! TD.AperFunction*
G04 #@! TA.AperFunction,SMDPad,CuDef*
G36*
G01*
X34837500Y-40650000D02*
X34362500Y-40650000D01*
G75*
G02*
X34125000Y-40412500I0J237500D01*
G01*
X34125000Y-39837500D01*
G75*
G02*
X34362500Y-39600000I237500J0D01*
G01*
X34837500Y-39600000D01*
G75*
G02*
X35075000Y-39837500I0J-237500D01*
G01*
X35075000Y-40412500D01*
G75*
G02*
X34837500Y-40650000I-237500J0D01*
G01*
G37*
G04 #@! TD.AperFunction*
D10*
X49300000Y-58500000D03*
D11*
X49300000Y-61040000D03*
X49300000Y-63580000D03*
X49300000Y-66120000D03*
G04 #@! TA.AperFunction,SMDPad,CuDef*
G36*
G01*
X62800000Y-66662500D02*
X62800000Y-67137500D01*
G75*
G02*
X62562500Y-67375000I-237500J0D01*
G01*
X61987500Y-67375000D01*
G75*
G02*
X61750000Y-67137500I0J237500D01*
G01*
X61750000Y-66662500D01*
G75*
G02*
X61987500Y-66425000I237500J0D01*
G01*
X62562500Y-66425000D01*
G75*
G02*
X62800000Y-66662500I0J-237500D01*
G01*
G37*
G04 #@! TD.AperFunction*
G04 #@! TA.AperFunction,SMDPad,CuDef*
G36*
G01*
X61050000Y-66662500D02*
X61050000Y-67137500D01*
G75*
G02*
X60812500Y-67375000I-237500J0D01*
G01*
X60237500Y-67375000D01*
G75*
G02*
X60000000Y-67137500I0J237500D01*
G01*
X60000000Y-66662500D01*
G75*
G02*
X60237500Y-66425000I237500J0D01*
G01*
X60812500Y-66425000D01*
G75*
G02*
X61050000Y-66662500I0J-237500D01*
G01*
G37*
G04 #@! TD.AperFunction*
G04 #@! TA.AperFunction,SMDPad,CuDef*
G36*
G01*
X34850001Y-61400000D02*
X33949999Y-61400000D01*
G75*
G02*
X33700000Y-61150001I0J249999D01*
G01*
X33700000Y-60499999D01*
G75*
G02*
X33949999Y-60250000I249999J0D01*
G01*
X34850001Y-60250000D01*
G75*
G02*
X35100000Y-60499999I0J-249999D01*
G01*
X35100000Y-61150001D01*
G75*
G02*
X34850001Y-61400000I-249999J0D01*
G01*
G37*
G04 #@! TD.AperFunction*
G04 #@! TA.AperFunction,SMDPad,CuDef*
G36*
G01*
X34850001Y-59350000D02*
X33949999Y-59350000D01*
G75*
G02*
X33700000Y-59100001I0J249999D01*
G01*
X33700000Y-58449999D01*
G75*
G02*
X33949999Y-58200000I249999J0D01*
G01*
X34850001Y-58200000D01*
G75*
G02*
X35100000Y-58449999I0J-249999D01*
G01*
X35100000Y-59100001D01*
G75*
G02*
X34850001Y-59350000I-249999J0D01*
G01*
G37*
G04 #@! TD.AperFunction*
D10*
X69000000Y-48700000D03*
D11*
X69000000Y-51240000D03*
X69000000Y-53780000D03*
D12*
X53600000Y-40100000D03*
X53600000Y-42100000D03*
X53600000Y-44100000D03*
X53600000Y-46100000D03*
X53600000Y-48100000D03*
X53600000Y-50100000D03*
X53600000Y-52100000D03*
X53600000Y-54100000D03*
X38400000Y-54100000D03*
X38400000Y-52100000D03*
X38400000Y-50100000D03*
X38400000Y-48100000D03*
X38400000Y-46100000D03*
X38400000Y-44100000D03*
X38400000Y-42100000D03*
X38400000Y-40100000D03*
D13*
X35600000Y-69280000D03*
D14*
X35600000Y-64200000D03*
G04 #@! TA.AperFunction,SMDPad,CuDef*
G36*
G01*
X55300000Y-58337500D02*
X55300000Y-57862500D01*
G75*
G02*
X55537500Y-57625000I237500J0D01*
G01*
X56112500Y-57625000D01*
G75*
G02*
X56350000Y-57862500I0J-237500D01*
G01*
X56350000Y-58337500D01*
G75*
G02*
X56112500Y-58575000I-237500J0D01*
G01*
X55537500Y-58575000D01*
G75*
G02*
X55300000Y-58337500I0J237500D01*
G01*
G37*
G04 #@! TD.AperFunction*
G04 #@! TA.AperFunction,SMDPad,CuDef*
G36*
G01*
X57050000Y-58337500D02*
X57050000Y-57862500D01*
G75*
G02*
X57287500Y-57625000I237500J0D01*
G01*
X57862500Y-57625000D01*
G75*
G02*
X58100000Y-57862500I0J-237500D01*
G01*
X58100000Y-58337500D01*
G75*
G02*
X57862500Y-58575000I-237500J0D01*
G01*
X57287500Y-58575000D01*
G75*
G02*
X57050000Y-58337500I0J237500D01*
G01*
G37*
G04 #@! TD.AperFunction*
G04 #@! TA.AperFunction,SMDPad,CuDef*
G36*
G01*
X57050000Y-61237500D02*
X57050000Y-60762500D01*
G75*
G02*
X57287500Y-60525000I237500J0D01*
G01*
X57862500Y-60525000D01*
G75*
G02*
X58100000Y-60762500I0J-237500D01*
G01*
X58100000Y-61237500D01*
G75*
G02*
X57862500Y-61475000I-237500J0D01*
G01*
X57287500Y-61475000D01*
G75*
G02*
X57050000Y-61237500I0J237500D01*
G01*
G37*
G04 #@! TD.AperFunction*
G04 #@! TA.AperFunction,SMDPad,CuDef*
G36*
G01*
X55300000Y-61237500D02*
X55300000Y-60762500D01*
G75*
G02*
X55537500Y-60525000I237500J0D01*
G01*
X56112500Y-60525000D01*
G75*
G02*
X56350000Y-60762500I0J-237500D01*
G01*
X56350000Y-61237500D01*
G75*
G02*
X56112500Y-61475000I-237500J0D01*
G01*
X55537500Y-61475000D01*
G75*
G02*
X55300000Y-61237500I0J237500D01*
G01*
G37*
G04 #@! TD.AperFunction*
D15*
X30700000Y-50700000D03*
D16*
X30700000Y-48200000D03*
X40000000Y-75500000D03*
D15*
X40000000Y-73000000D03*
D11*
X27000000Y-61080000D03*
X27000000Y-58540000D03*
D10*
X27000000Y-56000000D03*
X27000000Y-72000000D03*
D11*
X27000000Y-69460000D03*
G04 #@! TA.AperFunction,SMDPad,CuDef*
G36*
G01*
X34362500Y-45750000D02*
X34837500Y-45750000D01*
G75*
G02*
X35075000Y-45987500I0J-237500D01*
G01*
X35075000Y-46562500D01*
G75*
G02*
X34837500Y-46800000I-237500J0D01*
G01*
X34362500Y-46800000D01*
G75*
G02*
X34125000Y-46562500I0J237500D01*
G01*
X34125000Y-45987500D01*
G75*
G02*
X34362500Y-45750000I237500J0D01*
G01*
G37*
G04 #@! TD.AperFunction*
G04 #@! TA.AperFunction,SMDPad,CuDef*
G36*
G01*
X34362500Y-44000000D02*
X34837500Y-44000000D01*
G75*
G02*
X35075000Y-44237500I0J-237500D01*
G01*
X35075000Y-44812500D01*
G75*
G02*
X34837500Y-45050000I-237500J0D01*
G01*
X34362500Y-45050000D01*
G75*
G02*
X34125000Y-44812500I0J237500D01*
G01*
X34125000Y-44237500D01*
G75*
G02*
X34362500Y-44000000I237500J0D01*
G01*
G37*
G04 #@! TD.AperFunction*
G04 #@! TA.AperFunction,SMDPad,CuDef*
G36*
G01*
X34837500Y-52850000D02*
X34362500Y-52850000D01*
G75*
G02*
X34125000Y-52612500I0J237500D01*
G01*
X34125000Y-52037500D01*
G75*
G02*
X34362500Y-51800000I237500J0D01*
G01*
X34837500Y-51800000D01*
G75*
G02*
X35075000Y-52037500I0J-237500D01*
G01*
X35075000Y-52612500D01*
G75*
G02*
X34837500Y-52850000I-237500J0D01*
G01*
G37*
G04 #@! TD.AperFunction*
G04 #@! TA.AperFunction,SMDPad,CuDef*
G36*
G01*
X34837500Y-54600000D02*
X34362500Y-54600000D01*
G75*
G02*
X34125000Y-54362500I0J237500D01*
G01*
X34125000Y-53787500D01*
G75*
G02*
X34362500Y-53550000I237500J0D01*
G01*
X34837500Y-53550000D01*
G75*
G02*
X35075000Y-53787500I0J-237500D01*
G01*
X35075000Y-54362500D01*
G75*
G02*
X34837500Y-54600000I-237500J0D01*
G01*
G37*
G04 #@! TD.AperFunction*
D17*
X33900000Y-79400000D03*
X33900000Y-74400000D03*
G04 #@! TA.AperFunction,SMDPad,CuDef*
G36*
G01*
X59075000Y-45125000D02*
X58125000Y-45125000D01*
G75*
G02*
X57875000Y-44875000I0J250000D01*
G01*
X57875000Y-44200000D01*
G75*
G02*
X58125000Y-43950000I250000J0D01*
G01*
X59075000Y-43950000D01*
G75*
G02*
X59325000Y-44200000I0J-250000D01*
G01*
X59325000Y-44875000D01*
G75*
G02*
X59075000Y-45125000I-250000J0D01*
G01*
G37*
G04 #@! TD.AperFunction*
G04 #@! TA.AperFunction,SMDPad,CuDef*
G36*
G01*
X59075000Y-43050000D02*
X58125000Y-43050000D01*
G75*
G02*
X57875000Y-42800000I0J250000D01*
G01*
X57875000Y-42125000D01*
G75*
G02*
X58125000Y-41875000I250000J0D01*
G01*
X59075000Y-41875000D01*
G75*
G02*
X59325000Y-42125000I0J-250000D01*
G01*
X59325000Y-42800000D01*
G75*
G02*
X59075000Y-43050000I-250000J0D01*
G01*
G37*
G04 #@! TD.AperFunction*
G04 #@! TA.AperFunction,SMDPad,CuDef*
G36*
G01*
X43362500Y-57600000D02*
X43837500Y-57600000D01*
G75*
G02*
X44075000Y-57837500I0J-237500D01*
G01*
X44075000Y-58412500D01*
G75*
G02*
X43837500Y-58650000I-237500J0D01*
G01*
X43362500Y-58650000D01*
G75*
G02*
X43125000Y-58412500I0J237500D01*
G01*
X43125000Y-57837500D01*
G75*
G02*
X43362500Y-57600000I237500J0D01*
G01*
G37*
G04 #@! TD.AperFunction*
G04 #@! TA.AperFunction,SMDPad,CuDef*
G36*
G01*
X43362500Y-59350000D02*
X43837500Y-59350000D01*
G75*
G02*
X44075000Y-59587500I0J-237500D01*
G01*
X44075000Y-60162500D01*
G75*
G02*
X43837500Y-60400000I-237500J0D01*
G01*
X43362500Y-60400000D01*
G75*
G02*
X43125000Y-60162500I0J237500D01*
G01*
X43125000Y-59587500D01*
G75*
G02*
X43362500Y-59350000I237500J0D01*
G01*
G37*
G04 #@! TD.AperFunction*
D10*
X61600000Y-60900000D03*
D11*
X61600000Y-58360000D03*
G04 #@! TA.AperFunction,SMDPad,CuDef*
G36*
G01*
X44900000Y-62762500D02*
X44900000Y-63237500D01*
G75*
G02*
X44662500Y-63475000I-237500J0D01*
G01*
X44162500Y-63475000D01*
G75*
G02*
X43925000Y-63237500I0J237500D01*
G01*
X43925000Y-62762500D01*
G75*
G02*
X44162500Y-62525000I237500J0D01*
G01*
X44662500Y-62525000D01*
G75*
G02*
X44900000Y-62762500I0J-237500D01*
G01*
G37*
G04 #@! TD.AperFunction*
G04 #@! TA.AperFunction,SMDPad,CuDef*
G36*
G01*
X43075000Y-62762500D02*
X43075000Y-63237500D01*
G75*
G02*
X42837500Y-63475000I-237500J0D01*
G01*
X42337500Y-63475000D01*
G75*
G02*
X42100000Y-63237500I0J237500D01*
G01*
X42100000Y-62762500D01*
G75*
G02*
X42337500Y-62525000I237500J0D01*
G01*
X42837500Y-62525000D01*
G75*
G02*
X43075000Y-62762500I0J-237500D01*
G01*
G37*
G04 #@! TD.AperFunction*
G04 #@! TA.AperFunction,SMDPad,CuDef*
G36*
G01*
X62100000Y-53937500D02*
X62100000Y-53462500D01*
G75*
G02*
X62337500Y-53225000I237500J0D01*
G01*
X62837500Y-53225000D01*
G75*
G02*
X63075000Y-53462500I0J-237500D01*
G01*
X63075000Y-53937500D01*
G75*
G02*
X62837500Y-54175000I-237500J0D01*
G01*
X62337500Y-54175000D01*
G75*
G02*
X62100000Y-53937500I0J237500D01*
G01*
G37*
G04 #@! TD.AperFunction*
G04 #@! TA.AperFunction,SMDPad,CuDef*
G36*
G01*
X63925000Y-53937500D02*
X63925000Y-53462500D01*
G75*
G02*
X64162500Y-53225000I237500J0D01*
G01*
X64662500Y-53225000D01*
G75*
G02*
X64900000Y-53462500I0J-237500D01*
G01*
X64900000Y-53937500D01*
G75*
G02*
X64662500Y-54175000I-237500J0D01*
G01*
X64162500Y-54175000D01*
G75*
G02*
X63925000Y-53937500I0J237500D01*
G01*
G37*
G04 #@! TD.AperFunction*
G04 #@! TA.AperFunction,SMDPad,CuDef*
G36*
G01*
X63825000Y-50737500D02*
X63825000Y-50262500D01*
G75*
G02*
X64062500Y-50025000I237500J0D01*
G01*
X64562500Y-50025000D01*
G75*
G02*
X64800000Y-50262500I0J-237500D01*
G01*
X64800000Y-50737500D01*
G75*
G02*
X64562500Y-50975000I-237500J0D01*
G01*
X64062500Y-50975000D01*
G75*
G02*
X63825000Y-50737500I0J237500D01*
G01*
G37*
G04 #@! TD.AperFunction*
G04 #@! TA.AperFunction,SMDPad,CuDef*
G36*
G01*
X62000000Y-50737500D02*
X62000000Y-50262500D01*
G75*
G02*
X62237500Y-50025000I237500J0D01*
G01*
X62737500Y-50025000D01*
G75*
G02*
X62975000Y-50262500I0J-237500D01*
G01*
X62975000Y-50737500D01*
G75*
G02*
X62737500Y-50975000I-237500J0D01*
G01*
X62237500Y-50975000D01*
G75*
G02*
X62000000Y-50737500I0J237500D01*
G01*
G37*
G04 #@! TD.AperFunction*
G04 #@! TA.AperFunction,SMDPad,CuDef*
G36*
G01*
X70437500Y-59800000D02*
X69962500Y-59800000D01*
G75*
G02*
X69725000Y-59562500I0J237500D01*
G01*
X69725000Y-59062500D01*
G75*
G02*
X69962500Y-58825000I237500J0D01*
G01*
X70437500Y-58825000D01*
G75*
G02*
X70675000Y-59062500I0J-237500D01*
G01*
X70675000Y-59562500D01*
G75*
G02*
X70437500Y-59800000I-237500J0D01*
G01*
G37*
G04 #@! TD.AperFunction*
G04 #@! TA.AperFunction,SMDPad,CuDef*
G36*
G01*
X70437500Y-57975000D02*
X69962500Y-57975000D01*
G75*
G02*
X69725000Y-57737500I0J237500D01*
G01*
X69725000Y-57237500D01*
G75*
G02*
X69962500Y-57000000I237500J0D01*
G01*
X70437500Y-57000000D01*
G75*
G02*
X70675000Y-57237500I0J-237500D01*
G01*
X70675000Y-57737500D01*
G75*
G02*
X70437500Y-57975000I-237500J0D01*
G01*
G37*
G04 #@! TD.AperFunction*
G04 #@! TA.AperFunction,SMDPad,CuDef*
G36*
G01*
X64062500Y-47125000D02*
X64537500Y-47125000D01*
G75*
G02*
X64775000Y-47362500I0J-237500D01*
G01*
X64775000Y-47862500D01*
G75*
G02*
X64537500Y-48100000I-237500J0D01*
G01*
X64062500Y-48100000D01*
G75*
G02*
X63825000Y-47862500I0J237500D01*
G01*
X63825000Y-47362500D01*
G75*
G02*
X64062500Y-47125000I237500J0D01*
G01*
G37*
G04 #@! TD.AperFunction*
G04 #@! TA.AperFunction,SMDPad,CuDef*
G36*
G01*
X64062500Y-45300000D02*
X64537500Y-45300000D01*
G75*
G02*
X64775000Y-45537500I0J-237500D01*
G01*
X64775000Y-46037500D01*
G75*
G02*
X64537500Y-46275000I-237500J0D01*
G01*
X64062500Y-46275000D01*
G75*
G02*
X63825000Y-46037500I0J237500D01*
G01*
X63825000Y-45537500D01*
G75*
G02*
X64062500Y-45300000I237500J0D01*
G01*
G37*
G04 #@! TD.AperFunction*
D18*
X57650000Y-49460000D03*
X58600000Y-49460000D03*
X59550000Y-49460000D03*
X59550000Y-47140000D03*
X58600000Y-47140000D03*
X57650000Y-47140000D03*
G04 #@! TA.AperFunction,SMDPad,CuDef*
G36*
G01*
X57125000Y-64237500D02*
X57125000Y-63762500D01*
G75*
G02*
X57362500Y-63525000I237500J0D01*
G01*
X57862500Y-63525000D01*
G75*
G02*
X58100000Y-63762500I0J-237500D01*
G01*
X58100000Y-64237500D01*
G75*
G02*
X57862500Y-64475000I-237500J0D01*
G01*
X57362500Y-64475000D01*
G75*
G02*
X57125000Y-64237500I0J237500D01*
G01*
G37*
G04 #@! TD.AperFunction*
G04 #@! TA.AperFunction,SMDPad,CuDef*
G36*
G01*
X55300000Y-64237500D02*
X55300000Y-63762500D01*
G75*
G02*
X55537500Y-63525000I237500J0D01*
G01*
X56037500Y-63525000D01*
G75*
G02*
X56275000Y-63762500I0J-237500D01*
G01*
X56275000Y-64237500D01*
G75*
G02*
X56037500Y-64475000I-237500J0D01*
G01*
X55537500Y-64475000D01*
G75*
G02*
X55300000Y-64237500I0J237500D01*
G01*
G37*
G04 #@! TD.AperFunction*
G04 #@! TA.AperFunction,SMDPad,CuDef*
G36*
G01*
X55300000Y-67137500D02*
X55300000Y-66662500D01*
G75*
G02*
X55537500Y-66425000I237500J0D01*
G01*
X56037500Y-66425000D01*
G75*
G02*
X56275000Y-66662500I0J-237500D01*
G01*
X56275000Y-67137500D01*
G75*
G02*
X56037500Y-67375000I-237500J0D01*
G01*
X55537500Y-67375000D01*
G75*
G02*
X55300000Y-67137500I0J237500D01*
G01*
G37*
G04 #@! TD.AperFunction*
G04 #@! TA.AperFunction,SMDPad,CuDef*
G36*
G01*
X57125000Y-67137500D02*
X57125000Y-66662500D01*
G75*
G02*
X57362500Y-66425000I237500J0D01*
G01*
X57862500Y-66425000D01*
G75*
G02*
X58100000Y-66662500I0J-237500D01*
G01*
X58100000Y-67137500D01*
G75*
G02*
X57862500Y-67375000I-237500J0D01*
G01*
X57362500Y-67375000D01*
G75*
G02*
X57125000Y-67137500I0J237500D01*
G01*
G37*
G04 #@! TD.AperFunction*
D10*
X69000000Y-65200000D03*
D11*
X69000000Y-67740000D03*
X69000000Y-70280000D03*
X69000000Y-72820000D03*
G04 #@! TA.AperFunction,SMDPad,CuDef*
G36*
G01*
X48445000Y-75000000D02*
X48145000Y-75000000D01*
G75*
G02*
X47995000Y-74850000I0J150000D01*
G01*
X47995000Y-73500000D01*
G75*
G02*
X48145000Y-73350000I150000J0D01*
G01*
X48445000Y-73350000D01*
G75*
G02*
X48595000Y-73500000I0J-150000D01*
G01*
X48595000Y-74850000D01*
G75*
G02*
X48445000Y-75000000I-150000J0D01*
G01*
G37*
G04 #@! TD.AperFunction*
G04 #@! TA.AperFunction,SMDPad,CuDef*
G36*
G01*
X49715000Y-75000000D02*
X49415000Y-75000000D01*
G75*
G02*
X49265000Y-74850000I0J150000D01*
G01*
X49265000Y-73500000D01*
G75*
G02*
X49415000Y-73350000I150000J0D01*
G01*
X49715000Y-73350000D01*
G75*
G02*
X49865000Y-73500000I0J-150000D01*
G01*
X49865000Y-74850000D01*
G75*
G02*
X49715000Y-75000000I-150000J0D01*
G01*
G37*
G04 #@! TD.AperFunction*
G04 #@! TA.AperFunction,SMDPad,CuDef*
G36*
G01*
X50985000Y-75000000D02*
X50685000Y-75000000D01*
G75*
G02*
X50535000Y-74850000I0J150000D01*
G01*
X50535000Y-73500000D01*
G75*
G02*
X50685000Y-73350000I150000J0D01*
G01*
X50985000Y-73350000D01*
G75*
G02*
X51135000Y-73500000I0J-150000D01*
G01*
X51135000Y-74850000D01*
G75*
G02*
X50985000Y-75000000I-150000J0D01*
G01*
G37*
G04 #@! TD.AperFunction*
G04 #@! TA.AperFunction,SMDPad,CuDef*
G36*
G01*
X52255000Y-75000000D02*
X51955000Y-75000000D01*
G75*
G02*
X51805000Y-74850000I0J150000D01*
G01*
X51805000Y-73500000D01*
G75*
G02*
X51955000Y-73350000I150000J0D01*
G01*
X52255000Y-73350000D01*
G75*
G02*
X52405000Y-73500000I0J-150000D01*
G01*
X52405000Y-74850000D01*
G75*
G02*
X52255000Y-75000000I-150000J0D01*
G01*
G37*
G04 #@! TD.AperFunction*
G04 #@! TA.AperFunction,SMDPad,CuDef*
G36*
G01*
X52255000Y-80250000D02*
X51955000Y-80250000D01*
G75*
G02*
X51805000Y-80100000I0J150000D01*
G01*
X51805000Y-78750000D01*
G75*
G02*
X51955000Y-78600000I150000J0D01*
G01*
X52255000Y-78600000D01*
G75*
G02*
X52405000Y-78750000I0J-150000D01*
G01*
X52405000Y-80100000D01*
G75*
G02*
X52255000Y-80250000I-150000J0D01*
G01*
G37*
G04 #@! TD.AperFunction*
G04 #@! TA.AperFunction,SMDPad,CuDef*
G36*
G01*
X50985000Y-80250000D02*
X50685000Y-80250000D01*
G75*
G02*
X50535000Y-80100000I0J150000D01*
G01*
X50535000Y-78750000D01*
G75*
G02*
X50685000Y-78600000I150000J0D01*
G01*
X50985000Y-78600000D01*
G75*
G02*
X51135000Y-78750000I0J-150000D01*
G01*
X51135000Y-80100000D01*
G75*
G02*
X50985000Y-80250000I-150000J0D01*
G01*
G37*
G04 #@! TD.AperFunction*
G04 #@! TA.AperFunction,SMDPad,CuDef*
G36*
G01*
X49715000Y-80250000D02*
X49415000Y-80250000D01*
G75*
G02*
X49265000Y-80100000I0J150000D01*
G01*
X49265000Y-78750000D01*
G75*
G02*
X49415000Y-78600000I150000J0D01*
G01*
X49715000Y-78600000D01*
G75*
G02*
X49865000Y-78750000I0J-150000D01*
G01*
X49865000Y-80100000D01*
G75*
G02*
X49715000Y-80250000I-150000J0D01*
G01*
G37*
G04 #@! TD.AperFunction*
G04 #@! TA.AperFunction,SMDPad,CuDef*
G36*
G01*
X48445000Y-80250000D02*
X48145000Y-80250000D01*
G75*
G02*
X47995000Y-80100000I0J150000D01*
G01*
X47995000Y-78750000D01*
G75*
G02*
X48145000Y-78600000I150000J0D01*
G01*
X48445000Y-78600000D01*
G75*
G02*
X48595000Y-78750000I0J-150000D01*
G01*
X48595000Y-80100000D01*
G75*
G02*
X48445000Y-80250000I-150000J0D01*
G01*
G37*
G04 #@! TD.AperFunction*
G04 #@! TA.AperFunction,SMDPad,CuDef*
G36*
G01*
X60345000Y-80250000D02*
X60045000Y-80250000D01*
G75*
G02*
X59895000Y-80100000I0J150000D01*
G01*
X59895000Y-78750000D01*
G75*
G02*
X60045000Y-78600000I150000J0D01*
G01*
X60345000Y-78600000D01*
G75*
G02*
X60495000Y-78750000I0J-150000D01*
G01*
X60495000Y-80100000D01*
G75*
G02*
X60345000Y-80250000I-150000J0D01*
G01*
G37*
G04 #@! TD.AperFunction*
G04 #@! TA.AperFunction,SMDPad,CuDef*
G36*
G01*
X61615000Y-80250000D02*
X61315000Y-80250000D01*
G75*
G02*
X61165000Y-80100000I0J150000D01*
G01*
X61165000Y-78750000D01*
G75*
G02*
X61315000Y-78600000I150000J0D01*
G01*
X61615000Y-78600000D01*
G75*
G02*
X61765000Y-78750000I0J-150000D01*
G01*
X61765000Y-80100000D01*
G75*
G02*
X61615000Y-80250000I-150000J0D01*
G01*
G37*
G04 #@! TD.AperFunction*
G04 #@! TA.AperFunction,SMDPad,CuDef*
G36*
G01*
X62885000Y-80250000D02*
X62585000Y-80250000D01*
G75*
G02*
X62435000Y-80100000I0J150000D01*
G01*
X62435000Y-78750000D01*
G75*
G02*
X62585000Y-78600000I150000J0D01*
G01*
X62885000Y-78600000D01*
G75*
G02*
X63035000Y-78750000I0J-150000D01*
G01*
X63035000Y-80100000D01*
G75*
G02*
X62885000Y-80250000I-150000J0D01*
G01*
G37*
G04 #@! TD.AperFunction*
G04 #@! TA.AperFunction,SMDPad,CuDef*
G36*
G01*
X64155000Y-80250000D02*
X63855000Y-80250000D01*
G75*
G02*
X63705000Y-80100000I0J150000D01*
G01*
X63705000Y-78750000D01*
G75*
G02*
X63855000Y-78600000I150000J0D01*
G01*
X64155000Y-78600000D01*
G75*
G02*
X64305000Y-78750000I0J-150000D01*
G01*
X64305000Y-80100000D01*
G75*
G02*
X64155000Y-80250000I-150000J0D01*
G01*
G37*
G04 #@! TD.AperFunction*
G04 #@! TA.AperFunction,SMDPad,CuDef*
G36*
G01*
X64155000Y-75000000D02*
X63855000Y-75000000D01*
G75*
G02*
X63705000Y-74850000I0J150000D01*
G01*
X63705000Y-73500000D01*
G75*
G02*
X63855000Y-73350000I150000J0D01*
G01*
X64155000Y-73350000D01*
G75*
G02*
X64305000Y-73500000I0J-150000D01*
G01*
X64305000Y-74850000D01*
G75*
G02*
X64155000Y-75000000I-150000J0D01*
G01*
G37*
G04 #@! TD.AperFunction*
G04 #@! TA.AperFunction,SMDPad,CuDef*
G36*
G01*
X62885000Y-75000000D02*
X62585000Y-75000000D01*
G75*
G02*
X62435000Y-74850000I0J150000D01*
G01*
X62435000Y-73500000D01*
G75*
G02*
X62585000Y-73350000I150000J0D01*
G01*
X62885000Y-73350000D01*
G75*
G02*
X63035000Y-73500000I0J-150000D01*
G01*
X63035000Y-74850000D01*
G75*
G02*
X62885000Y-75000000I-150000J0D01*
G01*
G37*
G04 #@! TD.AperFunction*
G04 #@! TA.AperFunction,SMDPad,CuDef*
G36*
G01*
X61615000Y-75000000D02*
X61315000Y-75000000D01*
G75*
G02*
X61165000Y-74850000I0J150000D01*
G01*
X61165000Y-73500000D01*
G75*
G02*
X61315000Y-73350000I150000J0D01*
G01*
X61615000Y-73350000D01*
G75*
G02*
X61765000Y-73500000I0J-150000D01*
G01*
X61765000Y-74850000D01*
G75*
G02*
X61615000Y-75000000I-150000J0D01*
G01*
G37*
G04 #@! TD.AperFunction*
G04 #@! TA.AperFunction,SMDPad,CuDef*
G36*
G01*
X60345000Y-75000000D02*
X60045000Y-75000000D01*
G75*
G02*
X59895000Y-74850000I0J150000D01*
G01*
X59895000Y-73500000D01*
G75*
G02*
X60045000Y-73350000I150000J0D01*
G01*
X60345000Y-73350000D01*
G75*
G02*
X60495000Y-73500000I0J-150000D01*
G01*
X60495000Y-74850000D01*
G75*
G02*
X60345000Y-75000000I-150000J0D01*
G01*
G37*
G04 #@! TD.AperFunction*
G04 #@! TA.AperFunction,SMDPad,CuDef*
G36*
G01*
X57762500Y-70200000D02*
X58237500Y-70200000D01*
G75*
G02*
X58475000Y-70437500I0J-237500D01*
G01*
X58475000Y-70937500D01*
G75*
G02*
X58237500Y-71175000I-237500J0D01*
G01*
X57762500Y-71175000D01*
G75*
G02*
X57525000Y-70937500I0J237500D01*
G01*
X57525000Y-70437500D01*
G75*
G02*
X57762500Y-70200000I237500J0D01*
G01*
G37*
G04 #@! TD.AperFunction*
G04 #@! TA.AperFunction,SMDPad,CuDef*
G36*
G01*
X57762500Y-72025000D02*
X58237500Y-72025000D01*
G75*
G02*
X58475000Y-72262500I0J-237500D01*
G01*
X58475000Y-72762500D01*
G75*
G02*
X58237500Y-73000000I-237500J0D01*
G01*
X57762500Y-73000000D01*
G75*
G02*
X57525000Y-72762500I0J237500D01*
G01*
X57525000Y-72262500D01*
G75*
G02*
X57762500Y-72025000I237500J0D01*
G01*
G37*
G04 #@! TD.AperFunction*
G04 #@! TA.AperFunction,SMDPad,CuDef*
G36*
G01*
X45262500Y-73525000D02*
X45737500Y-73525000D01*
G75*
G02*
X45975000Y-73762500I0J-237500D01*
G01*
X45975000Y-74262500D01*
G75*
G02*
X45737500Y-74500000I-237500J0D01*
G01*
X45262500Y-74500000D01*
G75*
G02*
X45025000Y-74262500I0J237500D01*
G01*
X45025000Y-73762500D01*
G75*
G02*
X45262500Y-73525000I237500J0D01*
G01*
G37*
G04 #@! TD.AperFunction*
G04 #@! TA.AperFunction,SMDPad,CuDef*
G36*
G01*
X45262500Y-71700000D02*
X45737500Y-71700000D01*
G75*
G02*
X45975000Y-71937500I0J-237500D01*
G01*
X45975000Y-72437500D01*
G75*
G02*
X45737500Y-72675000I-237500J0D01*
G01*
X45262500Y-72675000D01*
G75*
G02*
X45025000Y-72437500I0J237500D01*
G01*
X45025000Y-71937500D01*
G75*
G02*
X45262500Y-71700000I237500J0D01*
G01*
G37*
G04 #@! TD.AperFunction*
G04 #@! TA.AperFunction,SMDPad,CuDef*
G36*
G01*
X53762500Y-70200000D02*
X54237500Y-70200000D01*
G75*
G02*
X54475000Y-70437500I0J-237500D01*
G01*
X54475000Y-70937500D01*
G75*
G02*
X54237500Y-71175000I-237500J0D01*
G01*
X53762500Y-71175000D01*
G75*
G02*
X53525000Y-70937500I0J237500D01*
G01*
X53525000Y-70437500D01*
G75*
G02*
X53762500Y-70200000I237500J0D01*
G01*
G37*
G04 #@! TD.AperFunction*
G04 #@! TA.AperFunction,SMDPad,CuDef*
G36*
G01*
X53762500Y-72025000D02*
X54237500Y-72025000D01*
G75*
G02*
X54475000Y-72262500I0J-237500D01*
G01*
X54475000Y-72762500D01*
G75*
G02*
X54237500Y-73000000I-237500J0D01*
G01*
X53762500Y-73000000D01*
G75*
G02*
X53525000Y-72762500I0J237500D01*
G01*
X53525000Y-72262500D01*
G75*
G02*
X53762500Y-72025000I237500J0D01*
G01*
G37*
G04 #@! TD.AperFunction*
D19*
X61400000Y-42300000D03*
X42800000Y-40700000D03*
X35200000Y-48800000D03*
X35200000Y-50000000D03*
X32600000Y-57100000D03*
X31700000Y-58000000D03*
X55800000Y-55600000D03*
X54900000Y-56400000D03*
X46800000Y-64500000D03*
X51600000Y-62400000D03*
X51800000Y-65500000D03*
X45000000Y-76400000D03*
X46200000Y-76400000D03*
X54300000Y-74500000D03*
X55600000Y-74500000D03*
X56900000Y-74500000D03*
X54900000Y-79500000D03*
X56200000Y-79500000D03*
X70700000Y-76000000D03*
X65100000Y-81500000D03*
X59500000Y-51200000D03*
X57800000Y-53100000D03*
X48000000Y-43800000D03*
X43200000Y-50700000D03*
X43600000Y-56600000D03*
X58600000Y-44537500D03*
D20*
X57612500Y-64000000D02*
X57612500Y-64712500D01*
X57575000Y-63962500D02*
X57612500Y-64000000D01*
X57575000Y-61000000D02*
X57575000Y-63962500D01*
X57575000Y-58100000D02*
X57575000Y-61000000D01*
D21*
X34625000Y-54100000D02*
X34600000Y-54075000D01*
X38400000Y-54100000D02*
X34625000Y-54100000D01*
X28360000Y-58540000D02*
X27000000Y-58540000D01*
X32825000Y-54075000D02*
X28360000Y-58540000D01*
X34600000Y-54075000D02*
X32825000Y-54075000D01*
X30700000Y-51950000D02*
X32825000Y-54075000D01*
X30700000Y-50700000D02*
X30700000Y-51950000D01*
D20*
X57612500Y-64712500D02*
X57612500Y-66900000D01*
D21*
X33425000Y-41875000D02*
X34600000Y-41875000D01*
X32800000Y-42500000D02*
X33425000Y-41875000D01*
X32800000Y-48600000D02*
X32800000Y-42500000D01*
X30700000Y-50700000D02*
X32800000Y-48600000D01*
X34600000Y-41875000D02*
X34675000Y-41875000D01*
X36900000Y-44100000D02*
X38400000Y-44100000D01*
X34675000Y-41875000D02*
X36900000Y-44100000D01*
D20*
X57612500Y-66900000D02*
X57612500Y-67487500D01*
X57612500Y-67487500D02*
X56900000Y-68200000D01*
X51380000Y-68200000D02*
X49300000Y-66120000D01*
X56900000Y-68200000D02*
X51380000Y-68200000D01*
X44887500Y-68200000D02*
X42587500Y-65900000D01*
X51380000Y-68200000D02*
X44887500Y-68200000D01*
X42587500Y-65900000D02*
X42587500Y-63000000D01*
X42587500Y-63000000D02*
X42587500Y-62412500D01*
X43600000Y-61400000D02*
X43600000Y-59875000D01*
X42587500Y-62412500D02*
X43600000Y-61400000D01*
D21*
X38400000Y-54100000D02*
X38400000Y-55400000D01*
X39325000Y-56325000D02*
X39325000Y-58300000D01*
X38400000Y-55400000D02*
X39325000Y-56325000D01*
X35600000Y-64200000D02*
X40000000Y-68600000D01*
X35300000Y-73000000D02*
X33900000Y-74400000D01*
X40000000Y-73000000D02*
X35300000Y-73000000D01*
X40000000Y-69200000D02*
X40000000Y-73000000D01*
X40000000Y-68600000D02*
X40000000Y-69200000D01*
X35600000Y-62060000D02*
X34620000Y-61080000D01*
X35600000Y-64200000D02*
X35600000Y-62060000D01*
X32720000Y-61080000D02*
X34620000Y-61080000D01*
X27000000Y-61080000D02*
X32720000Y-61080000D01*
X40000000Y-73000000D02*
X40100000Y-73000000D01*
X40100000Y-73000000D02*
X42500000Y-75400000D01*
X42500000Y-75400000D02*
X42500000Y-77800000D01*
X42500000Y-77800000D02*
X46600000Y-81900000D01*
X61000000Y-81900000D02*
X61500000Y-81900000D01*
D22*
X49565000Y-81865000D02*
X49600000Y-81900000D01*
X49565000Y-79425000D02*
X49565000Y-81865000D01*
D21*
X46600000Y-81900000D02*
X49600000Y-81900000D01*
D22*
X50835000Y-81835000D02*
X50900000Y-81900000D01*
X50835000Y-79425000D02*
X50835000Y-81835000D01*
D21*
X50900000Y-81900000D02*
X61000000Y-81900000D01*
X49600000Y-81900000D02*
X50900000Y-81900000D01*
D22*
X61465000Y-81865000D02*
X61500000Y-81900000D01*
X61465000Y-79425000D02*
X61465000Y-81865000D01*
X61465000Y-81865000D02*
X62235000Y-81865000D01*
X62735000Y-81365000D02*
X62735000Y-79425000D01*
X62235000Y-81865000D02*
X62735000Y-81365000D01*
D20*
X53600000Y-50100000D02*
X52200000Y-50100000D01*
X52200000Y-50100000D02*
X51600000Y-50700000D01*
X51600000Y-50700000D02*
X51600000Y-55100000D01*
X54600000Y-58100000D02*
X55825000Y-58100000D01*
X51600000Y-55100000D02*
X54600000Y-58100000D01*
X34625000Y-40100000D02*
X34600000Y-40125000D01*
X38400000Y-40100000D02*
X34625000Y-40100000D01*
X34600000Y-44525000D02*
X35525000Y-44525000D01*
X35525000Y-44525000D02*
X36100000Y-45100000D01*
X36100000Y-45100000D02*
X40400000Y-45100000D01*
X40400000Y-45100000D02*
X40900000Y-44600000D01*
X40900000Y-44600000D02*
X40900000Y-41100000D01*
X39900000Y-40100000D02*
X38400000Y-40100000D01*
X40900000Y-41100000D02*
X39900000Y-40100000D01*
X38225000Y-46275000D02*
X38400000Y-46100000D01*
X34600000Y-46275000D02*
X38225000Y-46275000D01*
D21*
X35420000Y-69460000D02*
X35600000Y-69280000D01*
X27000000Y-69460000D02*
X35420000Y-69460000D01*
D20*
X53600000Y-48100000D02*
X52400000Y-48100000D01*
X52400000Y-48100000D02*
X51000000Y-49500000D01*
X51000000Y-49500000D02*
X51000000Y-55400000D01*
X51000000Y-55400000D02*
X54100000Y-58500000D01*
X54100000Y-59275000D02*
X55825000Y-61000000D01*
X54100000Y-58500000D02*
X54100000Y-59275000D01*
X61600000Y-55300000D02*
X61600000Y-58360000D01*
X54400000Y-48100000D02*
X61600000Y-55300000D01*
X53600000Y-48100000D02*
X54400000Y-48100000D01*
X55300000Y-42100000D02*
X53600000Y-42100000D01*
X56200000Y-43000000D02*
X55300000Y-42100000D01*
X56200000Y-45690000D02*
X57650000Y-47140000D01*
X56200000Y-43000000D02*
X56200000Y-45690000D01*
X61000000Y-52112500D02*
X62587500Y-53700000D01*
X61000000Y-49300000D02*
X61000000Y-52112500D01*
X59700000Y-48000000D02*
X61000000Y-49300000D01*
X58200000Y-48000000D02*
X59700000Y-48000000D01*
X57650000Y-47450000D02*
X58200000Y-48000000D01*
X57650000Y-47140000D02*
X57650000Y-47450000D01*
X45600000Y-64712500D02*
X44412500Y-65900000D01*
X45600000Y-48300000D02*
X45600000Y-64712500D01*
X51800000Y-42100000D02*
X45600000Y-48300000D01*
X53600000Y-42100000D02*
X51800000Y-42100000D01*
X62487500Y-50077500D02*
X59550000Y-47140000D01*
X62487500Y-50500000D02*
X62487500Y-50077500D01*
X59600000Y-40100000D02*
X53600000Y-40100000D01*
X61800000Y-40100000D02*
X59600000Y-40100000D01*
X63200000Y-41500000D02*
X61800000Y-40100000D01*
X63200000Y-43300000D02*
X63200000Y-41500000D01*
X59550000Y-46950000D02*
X63200000Y-43300000D01*
X59550000Y-47140000D02*
X59550000Y-46950000D01*
X49400000Y-40100000D02*
X53600000Y-40100000D01*
X45000000Y-44500000D02*
X49400000Y-40100000D01*
X45000000Y-61100000D02*
X45000000Y-44500000D01*
X44412500Y-61687500D02*
X45000000Y-61100000D01*
X44412500Y-63000000D02*
X44412500Y-61687500D01*
X58600000Y-44537500D02*
X58600000Y-47140000D01*
X43600000Y-58125000D02*
X43600000Y-56600000D01*
D22*
X64300000Y-50487500D02*
X64312500Y-50500000D01*
X64300000Y-47612500D02*
X64300000Y-50487500D01*
D20*
X69000000Y-51240000D02*
X66740000Y-51240000D01*
X66000000Y-50500000D02*
X64312500Y-50500000D01*
X66740000Y-51240000D02*
X66000000Y-50500000D01*
X52100000Y-44100000D02*
X46200000Y-50000000D01*
X53600000Y-44100000D02*
X52100000Y-44100000D01*
X46200000Y-50000000D02*
X46200000Y-62000000D01*
X47780000Y-63580000D02*
X49300000Y-63580000D01*
X46200000Y-62000000D02*
X47780000Y-63580000D01*
X52467500Y-63580000D02*
X55787500Y-66900000D01*
X49300000Y-63580000D02*
X52467500Y-63580000D01*
X59550000Y-48950000D02*
X59550000Y-49460000D01*
X59200000Y-48600000D02*
X59550000Y-48950000D01*
X57600000Y-48600000D02*
X59200000Y-48600000D01*
X56800000Y-47800000D02*
X57600000Y-48600000D01*
X55100000Y-44100000D02*
X55600000Y-44600000D01*
X53600000Y-44100000D02*
X55100000Y-44100000D01*
X55600000Y-44600000D02*
X55600000Y-46200000D01*
X56800000Y-47400000D02*
X56800000Y-47800000D01*
X55600000Y-46200000D02*
X56800000Y-47400000D01*
X46800000Y-51400000D02*
X46800000Y-60200000D01*
X47640000Y-61040000D02*
X49300000Y-61040000D01*
X52100000Y-46100000D02*
X46800000Y-51400000D01*
X46800000Y-60200000D02*
X47640000Y-61040000D01*
X53600000Y-46100000D02*
X52100000Y-46100000D01*
X52827500Y-61040000D02*
X49300000Y-61040000D01*
X55787500Y-64000000D02*
X52827500Y-61040000D01*
X53600000Y-46100000D02*
X54600000Y-46100000D01*
X54600000Y-46236410D02*
X56200000Y-47836410D01*
X54600000Y-46100000D02*
X54600000Y-46236410D01*
X56200000Y-47836410D02*
X56200000Y-48500000D01*
X57160000Y-49460000D02*
X57650000Y-49460000D01*
X56200000Y-48500000D02*
X57160000Y-49460000D01*
X64492500Y-53780000D02*
X64412500Y-53700000D01*
X69000000Y-53780000D02*
X64492500Y-53780000D01*
D22*
X69000000Y-56287500D02*
X70200000Y-57487500D01*
X69000000Y-53780000D02*
X69000000Y-56287500D01*
X48295000Y-78600000D02*
X50495000Y-76400000D01*
X48295000Y-79425000D02*
X48295000Y-78600000D01*
X50495000Y-76400000D02*
X64500000Y-76400000D01*
X64500000Y-76400000D02*
X65800000Y-75100000D01*
X65800000Y-68400000D02*
X69000000Y-65200000D01*
X65800000Y-75100000D02*
X65800000Y-68400000D01*
X52105000Y-79425000D02*
X54330000Y-77200000D01*
X54330000Y-77200000D02*
X64800000Y-77200000D01*
X64800000Y-77200000D02*
X66600000Y-75400000D01*
X66600000Y-70140000D02*
X69000000Y-67740000D01*
X66600000Y-75400000D02*
X66600000Y-70140000D01*
X60195000Y-79425000D02*
X60195000Y-78805000D01*
X60195000Y-78805000D02*
X61000000Y-78000000D01*
X61000000Y-78000000D02*
X65100000Y-78000000D01*
X65100000Y-78000000D02*
X67400000Y-75700000D01*
X67400000Y-71880000D02*
X69000000Y-70280000D01*
X67400000Y-75700000D02*
X67400000Y-71880000D01*
X64005000Y-79425000D02*
X64775000Y-79425000D01*
X69000000Y-75200000D02*
X69000000Y-72820000D01*
X64775000Y-79425000D02*
X69000000Y-75200000D01*
D20*
X62735000Y-67360000D02*
X62275000Y-66900000D01*
X62735000Y-74175000D02*
X62735000Y-67360000D01*
X53600000Y-52100000D02*
X55100000Y-52100000D01*
X55100000Y-52100000D02*
X59500000Y-56500000D01*
X59500000Y-56500000D02*
X59500000Y-62900000D01*
X62275000Y-65675000D02*
X62275000Y-66900000D01*
X59500000Y-62900000D02*
X62275000Y-65675000D01*
X49565000Y-71065000D02*
X49565000Y-71975000D01*
X49000000Y-70500000D02*
X49565000Y-71065000D01*
X49565000Y-71975000D02*
X49565000Y-74175000D01*
X45500000Y-72187500D02*
X45500000Y-70500000D01*
X45500000Y-70500000D02*
X49000000Y-70500000D01*
X38400000Y-52100000D02*
X39000000Y-52100000D01*
X39000000Y-52100000D02*
X40400000Y-53500000D01*
X40400000Y-53500000D02*
X40400000Y-60000000D01*
X40400000Y-60000000D02*
X39100000Y-61300000D01*
X39100000Y-61300000D02*
X39100000Y-66500000D01*
X43100000Y-70500000D02*
X45500000Y-70500000D01*
X39100000Y-66500000D02*
X43100000Y-70500000D01*
X50835000Y-70735000D02*
X50835000Y-71975000D01*
X50835000Y-71975000D02*
X50835000Y-74175000D01*
X53952500Y-70735000D02*
X54000000Y-70687500D01*
X50835000Y-70735000D02*
X53952500Y-70735000D01*
X50000000Y-69900000D02*
X50835000Y-70735000D01*
X43300000Y-69900000D02*
X50000000Y-69900000D01*
X39700000Y-66300000D02*
X43300000Y-69900000D01*
X41000000Y-60200000D02*
X39700000Y-61500000D01*
X39700000Y-61500000D02*
X39700000Y-66300000D01*
X41000000Y-51200000D02*
X41000000Y-60200000D01*
X39900000Y-50100000D02*
X41000000Y-51200000D01*
X38400000Y-50100000D02*
X39900000Y-50100000D01*
X61465000Y-70465000D02*
X61465000Y-71975000D01*
X60500000Y-69500000D02*
X61465000Y-70465000D01*
X61465000Y-71975000D02*
X61465000Y-74175000D01*
X58000000Y-70687500D02*
X58000000Y-69500000D01*
X58000000Y-69500000D02*
X60500000Y-69500000D01*
X38400000Y-48100000D02*
X39300000Y-48100000D01*
X39300000Y-48100000D02*
X41600000Y-50400000D01*
X41600000Y-50400000D02*
X41600000Y-60500000D01*
X41600000Y-60500000D02*
X40300000Y-61800000D01*
X40300000Y-61800000D02*
X40300000Y-66100000D01*
X40300000Y-66100000D02*
X43500000Y-69300000D01*
X57800000Y-69300000D02*
X58000000Y-69500000D01*
X43500000Y-69300000D02*
X57800000Y-69300000D01*
D23*
X33743377Y-39218377D02*
X33634488Y-39351058D01*
X33553577Y-39502433D01*
X33503752Y-39666684D01*
X33486928Y-39837500D01*
X33486928Y-40412500D01*
X33503752Y-40583316D01*
X33553577Y-40747567D01*
X33616346Y-40865000D01*
X33474597Y-40865000D01*
X33424999Y-40860115D01*
X33375401Y-40865000D01*
X33375392Y-40865000D01*
X33227006Y-40879615D01*
X33036620Y-40937368D01*
X32861160Y-41031153D01*
X32707367Y-41157367D01*
X32675739Y-41195906D01*
X32120901Y-41750744D01*
X32082368Y-41782367D01*
X32050745Y-41820900D01*
X32050744Y-41820901D01*
X31956154Y-41936160D01*
X31862368Y-42111621D01*
X31804615Y-42302006D01*
X31785114Y-42500000D01*
X31790001Y-42549618D01*
X31790000Y-47415451D01*
X31692702Y-47386903D01*
X30879605Y-48200000D01*
X30893748Y-48214143D01*
X30714143Y-48393748D01*
X30700000Y-48379605D01*
X29886903Y-49192702D01*
X29907215Y-49261928D01*
X29900000Y-49261928D01*
X29775518Y-49274188D01*
X29655820Y-49310498D01*
X29545506Y-49369463D01*
X29448815Y-49448815D01*
X29369463Y-49545506D01*
X29310498Y-49655820D01*
X29274188Y-49775518D01*
X29261928Y-49900000D01*
X29261928Y-51500000D01*
X29274188Y-51624482D01*
X29310498Y-51744180D01*
X29369463Y-51854494D01*
X29448815Y-51951185D01*
X29545506Y-52030537D01*
X29655820Y-52089502D01*
X29700179Y-52102958D01*
X29704615Y-52147994D01*
X29762368Y-52338379D01*
X29856154Y-52513840D01*
X29935686Y-52610750D01*
X29982368Y-52667633D01*
X30020901Y-52699256D01*
X31396644Y-54075000D01*
X28466515Y-57005130D01*
X28475812Y-56974482D01*
X28488072Y-56850000D01*
X28485000Y-56285750D01*
X28326250Y-56127000D01*
X27127000Y-56127000D01*
X27127000Y-56147000D01*
X26873000Y-56147000D01*
X26873000Y-56127000D01*
X25673750Y-56127000D01*
X25515000Y-56285750D01*
X25511928Y-56850000D01*
X25524188Y-56974482D01*
X25560498Y-57094180D01*
X25619463Y-57204494D01*
X25698815Y-57301185D01*
X25795506Y-57380537D01*
X25905820Y-57439502D01*
X25978380Y-57461513D01*
X25846525Y-57593368D01*
X25684010Y-57836589D01*
X25572068Y-58106842D01*
X25515000Y-58393740D01*
X25515000Y-58686260D01*
X25572068Y-58973158D01*
X25684010Y-59243411D01*
X25846525Y-59486632D01*
X26053368Y-59693475D01*
X26227760Y-59810000D01*
X26053368Y-59926525D01*
X25846525Y-60133368D01*
X25684010Y-60376589D01*
X25572068Y-60646842D01*
X25515000Y-60933740D01*
X25515000Y-61226260D01*
X25572068Y-61513158D01*
X25684010Y-61783411D01*
X25846525Y-62026632D01*
X26053368Y-62233475D01*
X26296589Y-62395990D01*
X26566842Y-62507932D01*
X26853740Y-62565000D01*
X27146260Y-62565000D01*
X27433158Y-62507932D01*
X27703411Y-62395990D01*
X27946632Y-62233475D01*
X28090107Y-62090000D01*
X34201645Y-62090000D01*
X34590001Y-62478356D01*
X34590001Y-62667924D01*
X34430256Y-62774662D01*
X34174662Y-63030256D01*
X33973844Y-63330801D01*
X33835518Y-63664750D01*
X33765000Y-64019268D01*
X33765000Y-64380732D01*
X33835518Y-64735250D01*
X33973844Y-65069199D01*
X34174662Y-65369744D01*
X34430256Y-65625338D01*
X34730801Y-65826156D01*
X35064750Y-65964482D01*
X35419268Y-66035000D01*
X35780732Y-66035000D01*
X35969163Y-65997519D01*
X38990000Y-69018356D01*
X38990000Y-69150393D01*
X38990001Y-71600129D01*
X38955820Y-71610498D01*
X38845506Y-71669463D01*
X38748815Y-71748815D01*
X38669463Y-71845506D01*
X38610498Y-71955820D01*
X38600130Y-71990000D01*
X35349608Y-71990000D01*
X35300000Y-71985114D01*
X35102005Y-72004615D01*
X34980982Y-72041327D01*
X34924482Y-72024188D01*
X34800000Y-72011928D01*
X33000000Y-72011928D01*
X32875518Y-72024188D01*
X32755820Y-72060498D01*
X32645506Y-72119463D01*
X32548815Y-72198815D01*
X32469463Y-72295506D01*
X32410498Y-72405820D01*
X32374188Y-72525518D01*
X32361928Y-72650000D01*
X32361928Y-76150000D01*
X32374188Y-76274482D01*
X32410498Y-76394180D01*
X32469463Y-76504494D01*
X32548815Y-76601185D01*
X32645506Y-76680537D01*
X32755820Y-76739502D01*
X32875518Y-76775812D01*
X33000000Y-76788072D01*
X34800000Y-76788072D01*
X34924482Y-76775812D01*
X35044180Y-76739502D01*
X35154494Y-76680537D01*
X35251185Y-76601185D01*
X35330537Y-76504494D01*
X35336840Y-76492702D01*
X39186903Y-76492702D01*
X39258486Y-76736671D01*
X39513996Y-76857571D01*
X39788184Y-76926300D01*
X40070512Y-76940217D01*
X40350130Y-76898787D01*
X40616292Y-76803603D01*
X40741514Y-76736671D01*
X40813097Y-76492702D01*
X40000000Y-75679605D01*
X39186903Y-76492702D01*
X35336840Y-76492702D01*
X35389502Y-76394180D01*
X35425812Y-76274482D01*
X35438072Y-76150000D01*
X35438072Y-75570512D01*
X38559783Y-75570512D01*
X38601213Y-75850130D01*
X38696397Y-76116292D01*
X38763329Y-76241514D01*
X39007298Y-76313097D01*
X39820395Y-75500000D01*
X39007298Y-74686903D01*
X38763329Y-74758486D01*
X38642429Y-75013996D01*
X38573700Y-75288184D01*
X38559783Y-75570512D01*
X35438072Y-75570512D01*
X35438072Y-74290284D01*
X35718356Y-74010000D01*
X38600130Y-74010000D01*
X38610498Y-74044180D01*
X38669463Y-74154494D01*
X38748815Y-74251185D01*
X38845506Y-74330537D01*
X38955820Y-74389502D01*
X39075518Y-74425812D01*
X39200000Y-74438072D01*
X39207215Y-74438072D01*
X39186903Y-74507298D01*
X40000000Y-75320395D01*
X40014143Y-75306253D01*
X40193748Y-75485858D01*
X40179605Y-75500000D01*
X40992702Y-76313097D01*
X41236671Y-76241514D01*
X41357571Y-75986004D01*
X41417714Y-75746070D01*
X41490000Y-75818356D01*
X41490001Y-77750383D01*
X41485114Y-77800000D01*
X41504615Y-77997994D01*
X41562368Y-78188379D01*
X41656154Y-78363840D01*
X41738917Y-78464687D01*
X41782368Y-78517633D01*
X41820901Y-78549256D01*
X45850744Y-82579100D01*
X45882367Y-82617633D01*
X46036160Y-82743847D01*
X46211620Y-82837632D01*
X46402005Y-82895385D01*
X46600000Y-82914886D01*
X46649608Y-82910000D01*
X61549608Y-82910000D01*
X61697994Y-82895385D01*
X61888380Y-82837632D01*
X62052329Y-82750000D01*
X62191531Y-82750000D01*
X62235000Y-82754281D01*
X62278469Y-82750000D01*
X62278477Y-82750000D01*
X62408490Y-82737195D01*
X62575313Y-82686589D01*
X62729059Y-82604411D01*
X62863817Y-82493817D01*
X62891534Y-82460044D01*
X63330045Y-82021533D01*
X63363817Y-81993817D01*
X63474411Y-81859059D01*
X63556589Y-81705313D01*
X63607195Y-81538490D01*
X63620000Y-81408477D01*
X63620000Y-81408469D01*
X63624281Y-81365000D01*
X63620000Y-81321531D01*
X63620000Y-80848281D01*
X63701255Y-80872929D01*
X63855000Y-80888072D01*
X64155000Y-80888072D01*
X64308745Y-80872929D01*
X64456582Y-80828084D01*
X64592829Y-80755258D01*
X64712251Y-80657251D01*
X64810258Y-80537829D01*
X64883084Y-80401582D01*
X64913710Y-80300621D01*
X64948490Y-80297195D01*
X65115313Y-80246589D01*
X65269059Y-80164411D01*
X65403817Y-80053817D01*
X65431534Y-80020044D01*
X65671706Y-79779872D01*
X66765000Y-79779872D01*
X66765000Y-80220128D01*
X66850890Y-80651925D01*
X67019369Y-81058669D01*
X67263962Y-81424729D01*
X67575271Y-81736038D01*
X67941331Y-81980631D01*
X68348075Y-82149110D01*
X68779872Y-82235000D01*
X69220128Y-82235000D01*
X69651925Y-82149110D01*
X70058669Y-81980631D01*
X70424729Y-81736038D01*
X70736038Y-81424729D01*
X70980631Y-81058669D01*
X71149110Y-80651925D01*
X71235000Y-80220128D01*
X71235000Y-79779872D01*
X71149110Y-79348075D01*
X70980631Y-78941331D01*
X70736038Y-78575271D01*
X70424729Y-78263962D01*
X70058669Y-78019369D01*
X69651925Y-77850890D01*
X69220128Y-77765000D01*
X68779872Y-77765000D01*
X68348075Y-77850890D01*
X67941331Y-78019369D01*
X67575271Y-78263962D01*
X67263962Y-78575271D01*
X67019369Y-78941331D01*
X66850890Y-79348075D01*
X66765000Y-79779872D01*
X65671706Y-79779872D01*
X69595050Y-75856528D01*
X69628817Y-75828817D01*
X69676117Y-75771183D01*
X69739410Y-75694060D01*
X69739411Y-75694059D01*
X69821589Y-75540313D01*
X69872195Y-75373490D01*
X69885000Y-75243477D01*
X69885000Y-75243467D01*
X69889281Y-75200001D01*
X69885000Y-75156535D01*
X69885000Y-74014656D01*
X69946632Y-73973475D01*
X70153475Y-73766632D01*
X70315990Y-73523411D01*
X70427932Y-73253158D01*
X70485000Y-72966260D01*
X70485000Y-72673740D01*
X70427932Y-72386842D01*
X70315990Y-72116589D01*
X70153475Y-71873368D01*
X69946632Y-71666525D01*
X69772240Y-71550000D01*
X69946632Y-71433475D01*
X70153475Y-71226632D01*
X70315990Y-70983411D01*
X70427932Y-70713158D01*
X70485000Y-70426260D01*
X70485000Y-70133740D01*
X70427932Y-69846842D01*
X70315990Y-69576589D01*
X70153475Y-69333368D01*
X69946632Y-69126525D01*
X69772240Y-69010000D01*
X69946632Y-68893475D01*
X70153475Y-68686632D01*
X70315990Y-68443411D01*
X70427932Y-68173158D01*
X70485000Y-67886260D01*
X70485000Y-67593740D01*
X70427932Y-67306842D01*
X70315990Y-67036589D01*
X70153475Y-66793368D01*
X70021620Y-66661513D01*
X70094180Y-66639502D01*
X70204494Y-66580537D01*
X70301185Y-66501185D01*
X70380537Y-66404494D01*
X70439502Y-66294180D01*
X70475812Y-66174482D01*
X70488072Y-66050000D01*
X70488072Y-64350000D01*
X70475812Y-64225518D01*
X70439502Y-64105820D01*
X70380537Y-63995506D01*
X70301185Y-63898815D01*
X70204494Y-63819463D01*
X70094180Y-63760498D01*
X69974482Y-63724188D01*
X69850000Y-63711928D01*
X68150000Y-63711928D01*
X68025518Y-63724188D01*
X67905820Y-63760498D01*
X67795506Y-63819463D01*
X67698815Y-63898815D01*
X67619463Y-63995506D01*
X67560498Y-64105820D01*
X67524188Y-64225518D01*
X67511928Y-64350000D01*
X67511928Y-65436493D01*
X65204951Y-67743471D01*
X65171184Y-67771183D01*
X65143471Y-67804951D01*
X65143468Y-67804954D01*
X65060590Y-67905941D01*
X64978412Y-68059687D01*
X64927805Y-68226510D01*
X64910719Y-68400000D01*
X64915001Y-68443479D01*
X64915000Y-73173394D01*
X64894502Y-73105820D01*
X64835537Y-72995506D01*
X64756185Y-72898815D01*
X64659494Y-72819463D01*
X64549180Y-72760498D01*
X64429482Y-72724188D01*
X64305000Y-72711928D01*
X64290750Y-72715000D01*
X64132000Y-72873750D01*
X64132000Y-74048000D01*
X64152000Y-74048000D01*
X64152000Y-74302000D01*
X64132000Y-74302000D01*
X64132000Y-74322000D01*
X63878000Y-74322000D01*
X63878000Y-74302000D01*
X63858000Y-74302000D01*
X63858000Y-74048000D01*
X63878000Y-74048000D01*
X63878000Y-72873750D01*
X63719250Y-72715000D01*
X63705000Y-72711928D01*
X63580518Y-72724188D01*
X63495000Y-72750130D01*
X63495000Y-67397322D01*
X63498676Y-67359999D01*
X63495000Y-67322676D01*
X63495000Y-67322667D01*
X63484003Y-67211014D01*
X63440546Y-67067753D01*
X63438072Y-67063125D01*
X63438072Y-66662500D01*
X63421248Y-66491684D01*
X63371423Y-66327433D01*
X63290512Y-66176058D01*
X63181623Y-66043377D01*
X63048942Y-65934488D01*
X63035000Y-65927036D01*
X63035000Y-65712325D01*
X63038676Y-65675000D01*
X63035000Y-65637675D01*
X63035000Y-65637667D01*
X63024003Y-65526014D01*
X62980546Y-65382753D01*
X62909974Y-65250724D01*
X62815001Y-65134999D01*
X62786004Y-65111202D01*
X60260000Y-62585199D01*
X60260000Y-62153889D01*
X60298815Y-62201185D01*
X60395506Y-62280537D01*
X60505820Y-62339502D01*
X60625518Y-62375812D01*
X60750000Y-62388072D01*
X61314250Y-62385000D01*
X61473000Y-62226250D01*
X61473000Y-61027000D01*
X61727000Y-61027000D01*
X61727000Y-62226250D01*
X61885750Y-62385000D01*
X62450000Y-62388072D01*
X62574482Y-62375812D01*
X62694180Y-62339502D01*
X62804494Y-62280537D01*
X62901185Y-62201185D01*
X62980537Y-62104494D01*
X63039502Y-61994180D01*
X63075812Y-61874482D01*
X63088072Y-61750000D01*
X63085000Y-61185750D01*
X62926250Y-61027000D01*
X61727000Y-61027000D01*
X61473000Y-61027000D01*
X61453000Y-61027000D01*
X61453000Y-60773000D01*
X61473000Y-60773000D01*
X61473000Y-60753000D01*
X61727000Y-60753000D01*
X61727000Y-60773000D01*
X62926250Y-60773000D01*
X63085000Y-60614250D01*
X63088072Y-60050000D01*
X63075812Y-59925518D01*
X63039502Y-59805820D01*
X63036392Y-59800000D01*
X69086928Y-59800000D01*
X69099188Y-59924482D01*
X69135498Y-60044180D01*
X69194463Y-60154494D01*
X69273815Y-60251185D01*
X69370506Y-60330537D01*
X69480820Y-60389502D01*
X69600518Y-60425812D01*
X69725000Y-60438072D01*
X69914250Y-60435000D01*
X70073000Y-60276250D01*
X70073000Y-59439500D01*
X70327000Y-59439500D01*
X70327000Y-60276250D01*
X70485750Y-60435000D01*
X70675000Y-60438072D01*
X70799482Y-60425812D01*
X70919180Y-60389502D01*
X71029494Y-60330537D01*
X71126185Y-60251185D01*
X71205537Y-60154494D01*
X71264502Y-60044180D01*
X71300812Y-59924482D01*
X71313072Y-59800000D01*
X71310000Y-59598250D01*
X71151250Y-59439500D01*
X70327000Y-59439500D01*
X70073000Y-59439500D01*
X69248750Y-59439500D01*
X69090000Y-59598250D01*
X69086928Y-59800000D01*
X63036392Y-59800000D01*
X62980537Y-59695506D01*
X62901185Y-59598815D01*
X62804494Y-59519463D01*
X62694180Y-59460498D01*
X62621620Y-59438487D01*
X62753475Y-59306632D01*
X62915990Y-59063411D01*
X63027932Y-58793158D01*
X63085000Y-58506260D01*
X63085000Y-58213740D01*
X63027932Y-57926842D01*
X62915990Y-57656589D01*
X62753475Y-57413368D01*
X62546632Y-57206525D01*
X62360000Y-57081822D01*
X62360000Y-55337325D01*
X62363676Y-55300000D01*
X62360000Y-55262675D01*
X62360000Y-55262667D01*
X62349003Y-55151014D01*
X62305546Y-55007753D01*
X62234974Y-54875724D01*
X62170019Y-54796577D01*
X62337500Y-54813072D01*
X62837500Y-54813072D01*
X63008316Y-54796248D01*
X63172567Y-54746423D01*
X63323942Y-54665512D01*
X63456623Y-54556623D01*
X63500000Y-54503768D01*
X63543377Y-54556623D01*
X63676058Y-54665512D01*
X63827433Y-54746423D01*
X63991684Y-54796248D01*
X64162500Y-54813072D01*
X64662500Y-54813072D01*
X64833316Y-54796248D01*
X64997567Y-54746423D01*
X65148942Y-54665512D01*
X65281623Y-54556623D01*
X65295265Y-54540000D01*
X67721822Y-54540000D01*
X67846525Y-54726632D01*
X68053368Y-54933475D01*
X68115000Y-54974656D01*
X68115001Y-56244021D01*
X68110719Y-56287500D01*
X68127805Y-56460990D01*
X68178412Y-56627813D01*
X68260590Y-56781559D01*
X68343468Y-56882546D01*
X68343471Y-56882549D01*
X68371184Y-56916317D01*
X68404951Y-56944029D01*
X69086928Y-57626007D01*
X69086928Y-57737500D01*
X69103752Y-57908316D01*
X69153577Y-58072567D01*
X69234488Y-58223942D01*
X69323812Y-58332783D01*
X69273815Y-58373815D01*
X69194463Y-58470506D01*
X69135498Y-58580820D01*
X69099188Y-58700518D01*
X69086928Y-58825000D01*
X69090000Y-59026750D01*
X69248750Y-59185500D01*
X70073000Y-59185500D01*
X70073000Y-59165500D01*
X70327000Y-59165500D01*
X70327000Y-59185500D01*
X71151250Y-59185500D01*
X71310000Y-59026750D01*
X71313072Y-58825000D01*
X71300812Y-58700518D01*
X71264502Y-58580820D01*
X71205537Y-58470506D01*
X71126185Y-58373815D01*
X71076188Y-58332783D01*
X71165512Y-58223942D01*
X71246423Y-58072567D01*
X71296248Y-57908316D01*
X71313072Y-57737500D01*
X71313072Y-57237500D01*
X71296248Y-57066684D01*
X71246423Y-56902433D01*
X71165512Y-56751058D01*
X71056623Y-56618377D01*
X70923942Y-56509488D01*
X70772567Y-56428577D01*
X70608316Y-56378752D01*
X70437500Y-56361928D01*
X70326007Y-56361928D01*
X69885000Y-55920922D01*
X69885000Y-54974656D01*
X69946632Y-54933475D01*
X70153475Y-54726632D01*
X70315990Y-54483411D01*
X70427932Y-54213158D01*
X70485000Y-53926260D01*
X70485000Y-53633740D01*
X70427932Y-53346842D01*
X70315990Y-53076589D01*
X70153475Y-52833368D01*
X69946632Y-52626525D01*
X69772240Y-52510000D01*
X69946632Y-52393475D01*
X70153475Y-52186632D01*
X70315990Y-51943411D01*
X70427932Y-51673158D01*
X70485000Y-51386260D01*
X70485000Y-51093740D01*
X70427932Y-50806842D01*
X70315990Y-50536589D01*
X70153475Y-50293368D01*
X70021620Y-50161513D01*
X70094180Y-50139502D01*
X70204494Y-50080537D01*
X70301185Y-50001185D01*
X70380537Y-49904494D01*
X70439502Y-49794180D01*
X70475812Y-49674482D01*
X70488072Y-49550000D01*
X70485000Y-48985750D01*
X70326250Y-48827000D01*
X69127000Y-48827000D01*
X69127000Y-48847000D01*
X68873000Y-48847000D01*
X68873000Y-48827000D01*
X67673750Y-48827000D01*
X67515000Y-48985750D01*
X67511928Y-49550000D01*
X67524188Y-49674482D01*
X67560498Y-49794180D01*
X67619463Y-49904494D01*
X67698815Y-50001185D01*
X67795506Y-50080537D01*
X67905820Y-50139502D01*
X67978380Y-50161513D01*
X67846525Y-50293368D01*
X67721822Y-50480000D01*
X67054802Y-50480000D01*
X66563803Y-49989002D01*
X66540001Y-49959999D01*
X66424276Y-49865026D01*
X66292247Y-49794454D01*
X66148986Y-49750997D01*
X66037333Y-49740000D01*
X66037322Y-49740000D01*
X66000000Y-49736324D01*
X65962678Y-49740000D01*
X65260920Y-49740000D01*
X65185000Y-49647492D01*
X65185000Y-48447046D01*
X65265512Y-48348942D01*
X65346423Y-48197567D01*
X65396248Y-48033316D01*
X65413072Y-47862500D01*
X65413072Y-47850000D01*
X67511928Y-47850000D01*
X67515000Y-48414250D01*
X67673750Y-48573000D01*
X68873000Y-48573000D01*
X68873000Y-47373750D01*
X69127000Y-47373750D01*
X69127000Y-48573000D01*
X70326250Y-48573000D01*
X70485000Y-48414250D01*
X70488072Y-47850000D01*
X70475812Y-47725518D01*
X70439502Y-47605820D01*
X70380537Y-47495506D01*
X70301185Y-47398815D01*
X70204494Y-47319463D01*
X70094180Y-47260498D01*
X69974482Y-47224188D01*
X69850000Y-47211928D01*
X69285750Y-47215000D01*
X69127000Y-47373750D01*
X68873000Y-47373750D01*
X68714250Y-47215000D01*
X68150000Y-47211928D01*
X68025518Y-47224188D01*
X67905820Y-47260498D01*
X67795506Y-47319463D01*
X67698815Y-47398815D01*
X67619463Y-47495506D01*
X67560498Y-47605820D01*
X67524188Y-47725518D01*
X67511928Y-47850000D01*
X65413072Y-47850000D01*
X65413072Y-47362500D01*
X65396248Y-47191684D01*
X65346423Y-47027433D01*
X65265512Y-46876058D01*
X65176188Y-46767217D01*
X65226185Y-46726185D01*
X65305537Y-46629494D01*
X65364502Y-46519180D01*
X65400812Y-46399482D01*
X65413072Y-46275000D01*
X65410000Y-46073250D01*
X65251250Y-45914500D01*
X64427000Y-45914500D01*
X64427000Y-45934500D01*
X64173000Y-45934500D01*
X64173000Y-45914500D01*
X63348750Y-45914500D01*
X63190000Y-46073250D01*
X63186928Y-46275000D01*
X63199188Y-46399482D01*
X63235498Y-46519180D01*
X63294463Y-46629494D01*
X63373815Y-46726185D01*
X63423812Y-46767217D01*
X63334488Y-46876058D01*
X63253577Y-47027433D01*
X63203752Y-47191684D01*
X63186928Y-47362500D01*
X63186928Y-47862500D01*
X63203752Y-48033316D01*
X63253577Y-48197567D01*
X63334488Y-48348942D01*
X63415000Y-48447046D01*
X63415001Y-49677953D01*
X63400000Y-49696232D01*
X63356623Y-49643377D01*
X63223942Y-49534488D01*
X63072567Y-49453577D01*
X62908316Y-49403752D01*
X62886395Y-49401593D01*
X60529801Y-47045000D01*
X62274801Y-45300000D01*
X63186928Y-45300000D01*
X63190000Y-45501750D01*
X63348750Y-45660500D01*
X64173000Y-45660500D01*
X64173000Y-44823750D01*
X64427000Y-44823750D01*
X64427000Y-45660500D01*
X65251250Y-45660500D01*
X65410000Y-45501750D01*
X65413072Y-45300000D01*
X65400812Y-45175518D01*
X65364502Y-45055820D01*
X65305537Y-44945506D01*
X65226185Y-44848815D01*
X65129494Y-44769463D01*
X65019180Y-44710498D01*
X64899482Y-44674188D01*
X64775000Y-44661928D01*
X64585750Y-44665000D01*
X64427000Y-44823750D01*
X64173000Y-44823750D01*
X64014250Y-44665000D01*
X63825000Y-44661928D01*
X63700518Y-44674188D01*
X63580820Y-44710498D01*
X63470506Y-44769463D01*
X63373815Y-44848815D01*
X63294463Y-44945506D01*
X63235498Y-45055820D01*
X63199188Y-45175518D01*
X63186928Y-45300000D01*
X62274801Y-45300000D01*
X63711004Y-43863798D01*
X63740001Y-43840001D01*
X63834974Y-43724276D01*
X63905546Y-43592247D01*
X63949003Y-43448986D01*
X63960000Y-43337333D01*
X63960000Y-43337332D01*
X63963677Y-43300000D01*
X63960000Y-43262667D01*
X63960000Y-42779872D01*
X66765000Y-42779872D01*
X66765000Y-43220128D01*
X66850890Y-43651925D01*
X67019369Y-44058669D01*
X67263962Y-44424729D01*
X67575271Y-44736038D01*
X67941331Y-44980631D01*
X68348075Y-45149110D01*
X68779872Y-45235000D01*
X69220128Y-45235000D01*
X69651925Y-45149110D01*
X70058669Y-44980631D01*
X70424729Y-44736038D01*
X70736038Y-44424729D01*
X70980631Y-44058669D01*
X71149110Y-43651925D01*
X71235000Y-43220128D01*
X71235000Y-42779872D01*
X71149110Y-42348075D01*
X70980631Y-41941331D01*
X70736038Y-41575271D01*
X70424729Y-41263962D01*
X70058669Y-41019369D01*
X69651925Y-40850890D01*
X69220128Y-40765000D01*
X68779872Y-40765000D01*
X68348075Y-40850890D01*
X67941331Y-41019369D01*
X67575271Y-41263962D01*
X67263962Y-41575271D01*
X67019369Y-41941331D01*
X66850890Y-42348075D01*
X66765000Y-42779872D01*
X63960000Y-42779872D01*
X63960000Y-41537322D01*
X63963676Y-41500000D01*
X63960000Y-41462677D01*
X63960000Y-41462667D01*
X63949003Y-41351014D01*
X63905546Y-41207753D01*
X63834974Y-41075723D01*
X63763799Y-40988997D01*
X63740001Y-40959999D01*
X63711003Y-40936201D01*
X62363804Y-39589003D01*
X62340001Y-39559999D01*
X62224276Y-39465026D01*
X62092247Y-39394454D01*
X61948986Y-39350997D01*
X61837333Y-39340000D01*
X61837322Y-39340000D01*
X61800000Y-39336324D01*
X61762678Y-39340000D01*
X55431046Y-39340000D01*
X55380537Y-39245506D01*
X55301185Y-39148815D01*
X55274603Y-39127000D01*
X72290000Y-39127000D01*
X72290001Y-83290000D01*
X23710000Y-83290000D01*
X23710000Y-79779872D01*
X24765000Y-79779872D01*
X24765000Y-80220128D01*
X24850890Y-80651925D01*
X25019369Y-81058669D01*
X25263962Y-81424729D01*
X25575271Y-81736038D01*
X25941331Y-81980631D01*
X26348075Y-82149110D01*
X26779872Y-82235000D01*
X27220128Y-82235000D01*
X27651925Y-82149110D01*
X28058669Y-81980631D01*
X28424729Y-81736038D01*
X28736038Y-81424729D01*
X28919605Y-81150000D01*
X32361928Y-81150000D01*
X32374188Y-81274482D01*
X32410498Y-81394180D01*
X32469463Y-81504494D01*
X32548815Y-81601185D01*
X32645506Y-81680537D01*
X32755820Y-81739502D01*
X32875518Y-81775812D01*
X33000000Y-81788072D01*
X33614250Y-81785000D01*
X33773000Y-81626250D01*
X33773000Y-79527000D01*
X34027000Y-79527000D01*
X34027000Y-81626250D01*
X34185750Y-81785000D01*
X34800000Y-81788072D01*
X34924482Y-81775812D01*
X35044180Y-81739502D01*
X35154494Y-81680537D01*
X35251185Y-81601185D01*
X35330537Y-81504494D01*
X35389502Y-81394180D01*
X35425812Y-81274482D01*
X35438072Y-81150000D01*
X35435000Y-79685750D01*
X35276250Y-79527000D01*
X34027000Y-79527000D01*
X33773000Y-79527000D01*
X32523750Y-79527000D01*
X32365000Y-79685750D01*
X32361928Y-81150000D01*
X28919605Y-81150000D01*
X28980631Y-81058669D01*
X29149110Y-80651925D01*
X29235000Y-80220128D01*
X29235000Y-79779872D01*
X29149110Y-79348075D01*
X28980631Y-78941331D01*
X28736038Y-78575271D01*
X28424729Y-78263962D01*
X28058669Y-78019369D01*
X27651925Y-77850890D01*
X27220128Y-77765000D01*
X26779872Y-77765000D01*
X26348075Y-77850890D01*
X25941331Y-78019369D01*
X25575271Y-78263962D01*
X25263962Y-78575271D01*
X25019369Y-78941331D01*
X24850890Y-79348075D01*
X24765000Y-79779872D01*
X23710000Y-79779872D01*
X23710000Y-77650000D01*
X32361928Y-77650000D01*
X32365000Y-79114250D01*
X32523750Y-79273000D01*
X33773000Y-79273000D01*
X33773000Y-77173750D01*
X34027000Y-77173750D01*
X34027000Y-79273000D01*
X35276250Y-79273000D01*
X35435000Y-79114250D01*
X35438072Y-77650000D01*
X35425812Y-77525518D01*
X35389502Y-77405820D01*
X35330537Y-77295506D01*
X35251185Y-77198815D01*
X35154494Y-77119463D01*
X35044180Y-77060498D01*
X34924482Y-77024188D01*
X34800000Y-77011928D01*
X34185750Y-77015000D01*
X34027000Y-77173750D01*
X33773000Y-77173750D01*
X33614250Y-77015000D01*
X33000000Y-77011928D01*
X32875518Y-77024188D01*
X32755820Y-77060498D01*
X32645506Y-77119463D01*
X32548815Y-77198815D01*
X32469463Y-77295506D01*
X32410498Y-77405820D01*
X32374188Y-77525518D01*
X32361928Y-77650000D01*
X23710000Y-77650000D01*
X23710000Y-72850000D01*
X25511928Y-72850000D01*
X25524188Y-72974482D01*
X25560498Y-73094180D01*
X25619463Y-73204494D01*
X25698815Y-73301185D01*
X25795506Y-73380537D01*
X25905820Y-73439502D01*
X26025518Y-73475812D01*
X26150000Y-73488072D01*
X26714250Y-73485000D01*
X26873000Y-73326250D01*
X26873000Y-72127000D01*
X27127000Y-72127000D01*
X27127000Y-73326250D01*
X27285750Y-73485000D01*
X27850000Y-73488072D01*
X27974482Y-73475812D01*
X28094180Y-73439502D01*
X28204494Y-73380537D01*
X28301185Y-73301185D01*
X28380537Y-73204494D01*
X28439502Y-73094180D01*
X28475812Y-72974482D01*
X28488072Y-72850000D01*
X28485000Y-72285750D01*
X28326250Y-72127000D01*
X27127000Y-72127000D01*
X26873000Y-72127000D01*
X25673750Y-72127000D01*
X25515000Y-72285750D01*
X25511928Y-72850000D01*
X23710000Y-72850000D01*
X23710000Y-71150000D01*
X25511928Y-71150000D01*
X25515000Y-71714250D01*
X25673750Y-71873000D01*
X26873000Y-71873000D01*
X26873000Y-71853000D01*
X27127000Y-71853000D01*
X27127000Y-71873000D01*
X28326250Y-71873000D01*
X28485000Y-71714250D01*
X28488072Y-71150000D01*
X28475812Y-71025518D01*
X28439502Y-70905820D01*
X28380537Y-70795506D01*
X28301185Y-70698815D01*
X28204494Y-70619463D01*
X28094180Y-70560498D01*
X28021620Y-70538487D01*
X28090107Y-70470000D01*
X34194918Y-70470000D01*
X34430256Y-70705338D01*
X34730801Y-70906156D01*
X35064750Y-71044482D01*
X35419268Y-71115000D01*
X35780732Y-71115000D01*
X36135250Y-71044482D01*
X36469199Y-70906156D01*
X36769744Y-70705338D01*
X37025338Y-70449744D01*
X37226156Y-70149199D01*
X37364482Y-69815250D01*
X37435000Y-69460732D01*
X37435000Y-69099268D01*
X37364482Y-68744750D01*
X37226156Y-68410801D01*
X37025338Y-68110256D01*
X36769744Y-67854662D01*
X36469199Y-67653844D01*
X36135250Y-67515518D01*
X35780732Y-67445000D01*
X35419268Y-67445000D01*
X35064750Y-67515518D01*
X34730801Y-67653844D01*
X34430256Y-67854662D01*
X34174662Y-68110256D01*
X33973844Y-68410801D01*
X33957607Y-68450000D01*
X28090107Y-68450000D01*
X27946632Y-68306525D01*
X27703411Y-68144010D01*
X27433158Y-68032068D01*
X27146260Y-67975000D01*
X26853740Y-67975000D01*
X26566842Y-68032068D01*
X26296589Y-68144010D01*
X26053368Y-68306525D01*
X25846525Y-68513368D01*
X25684010Y-68756589D01*
X25572068Y-69026842D01*
X25515000Y-69313740D01*
X25515000Y-69606260D01*
X25572068Y-69893158D01*
X25684010Y-70163411D01*
X25846525Y-70406632D01*
X25978380Y-70538487D01*
X25905820Y-70560498D01*
X25795506Y-70619463D01*
X25698815Y-70698815D01*
X25619463Y-70795506D01*
X25560498Y-70905820D01*
X25524188Y-71025518D01*
X25511928Y-71150000D01*
X23710000Y-71150000D01*
X23710000Y-55150000D01*
X25511928Y-55150000D01*
X25515000Y-55714250D01*
X25673750Y-55873000D01*
X26873000Y-55873000D01*
X26873000Y-54673750D01*
X27127000Y-54673750D01*
X27127000Y-55873000D01*
X28326250Y-55873000D01*
X28485000Y-55714250D01*
X28488072Y-55150000D01*
X28475812Y-55025518D01*
X28439502Y-54905820D01*
X28380537Y-54795506D01*
X28301185Y-54698815D01*
X28204494Y-54619463D01*
X28094180Y-54560498D01*
X27974482Y-54524188D01*
X27850000Y-54511928D01*
X27285750Y-54515000D01*
X27127000Y-54673750D01*
X26873000Y-54673750D01*
X26714250Y-54515000D01*
X26150000Y-54511928D01*
X26025518Y-54524188D01*
X25905820Y-54560498D01*
X25795506Y-54619463D01*
X25698815Y-54698815D01*
X25619463Y-54795506D01*
X25560498Y-54905820D01*
X25524188Y-55025518D01*
X25511928Y-55150000D01*
X23710000Y-55150000D01*
X23710000Y-48270512D01*
X29259783Y-48270512D01*
X29301213Y-48550130D01*
X29396397Y-48816292D01*
X29463329Y-48941514D01*
X29707298Y-49013097D01*
X30520395Y-48200000D01*
X29707298Y-47386903D01*
X29463329Y-47458486D01*
X29342429Y-47713996D01*
X29273700Y-47988184D01*
X29259783Y-48270512D01*
X23710000Y-48270512D01*
X23710000Y-47207298D01*
X29886903Y-47207298D01*
X30700000Y-48020395D01*
X31513097Y-47207298D01*
X31441514Y-46963329D01*
X31186004Y-46842429D01*
X30911816Y-46773700D01*
X30629488Y-46759783D01*
X30349870Y-46801213D01*
X30083708Y-46896397D01*
X29958486Y-46963329D01*
X29886903Y-47207298D01*
X23710000Y-47207298D01*
X23710000Y-42779872D01*
X24765000Y-42779872D01*
X24765000Y-43220128D01*
X24850890Y-43651925D01*
X25019369Y-44058669D01*
X25263962Y-44424729D01*
X25575271Y-44736038D01*
X25941331Y-44980631D01*
X26348075Y-45149110D01*
X26779872Y-45235000D01*
X27220128Y-45235000D01*
X27651925Y-45149110D01*
X28058669Y-44980631D01*
X28424729Y-44736038D01*
X28736038Y-44424729D01*
X28980631Y-44058669D01*
X29149110Y-43651925D01*
X29235000Y-43220128D01*
X29235000Y-42779872D01*
X29149110Y-42348075D01*
X28980631Y-41941331D01*
X28736038Y-41575271D01*
X28424729Y-41263962D01*
X28058669Y-41019369D01*
X27651925Y-40850890D01*
X27220128Y-40765000D01*
X26779872Y-40765000D01*
X26348075Y-40850890D01*
X25941331Y-41019369D01*
X25575271Y-41263962D01*
X25263962Y-41575271D01*
X25019369Y-41941331D01*
X24850890Y-42348075D01*
X24765000Y-42779872D01*
X23710000Y-42779872D01*
X23710000Y-39127000D01*
X33854720Y-39127000D01*
X33743377Y-39218377D01*
G04 #@! TA.AperFunction,Conductor*
D24*
G36*
X33743377Y-39218377D02*
G01*
X33634488Y-39351058D01*
X33553577Y-39502433D01*
X33503752Y-39666684D01*
X33486928Y-39837500D01*
X33486928Y-40412500D01*
X33503752Y-40583316D01*
X33553577Y-40747567D01*
X33616346Y-40865000D01*
X33474597Y-40865000D01*
X33424999Y-40860115D01*
X33375401Y-40865000D01*
X33375392Y-40865000D01*
X33227006Y-40879615D01*
X33036620Y-40937368D01*
X32861160Y-41031153D01*
X32707367Y-41157367D01*
X32675739Y-41195906D01*
X32120901Y-41750744D01*
X32082368Y-41782367D01*
X32050745Y-41820900D01*
X32050744Y-41820901D01*
X31956154Y-41936160D01*
X31862368Y-42111621D01*
X31804615Y-42302006D01*
X31785114Y-42500000D01*
X31790001Y-42549618D01*
X31790000Y-47415451D01*
X31692702Y-47386903D01*
X30879605Y-48200000D01*
X30893748Y-48214143D01*
X30714143Y-48393748D01*
X30700000Y-48379605D01*
X29886903Y-49192702D01*
X29907215Y-49261928D01*
X29900000Y-49261928D01*
X29775518Y-49274188D01*
X29655820Y-49310498D01*
X29545506Y-49369463D01*
X29448815Y-49448815D01*
X29369463Y-49545506D01*
X29310498Y-49655820D01*
X29274188Y-49775518D01*
X29261928Y-49900000D01*
X29261928Y-51500000D01*
X29274188Y-51624482D01*
X29310498Y-51744180D01*
X29369463Y-51854494D01*
X29448815Y-51951185D01*
X29545506Y-52030537D01*
X29655820Y-52089502D01*
X29700179Y-52102958D01*
X29704615Y-52147994D01*
X29762368Y-52338379D01*
X29856154Y-52513840D01*
X29935686Y-52610750D01*
X29982368Y-52667633D01*
X30020901Y-52699256D01*
X31396644Y-54075000D01*
X28466515Y-57005130D01*
X28475812Y-56974482D01*
X28488072Y-56850000D01*
X28485000Y-56285750D01*
X28326250Y-56127000D01*
X27127000Y-56127000D01*
X27127000Y-56147000D01*
X26873000Y-56147000D01*
X26873000Y-56127000D01*
X25673750Y-56127000D01*
X25515000Y-56285750D01*
X25511928Y-56850000D01*
X25524188Y-56974482D01*
X25560498Y-57094180D01*
X25619463Y-57204494D01*
X25698815Y-57301185D01*
X25795506Y-57380537D01*
X25905820Y-57439502D01*
X25978380Y-57461513D01*
X25846525Y-57593368D01*
X25684010Y-57836589D01*
X25572068Y-58106842D01*
X25515000Y-58393740D01*
X25515000Y-58686260D01*
X25572068Y-58973158D01*
X25684010Y-59243411D01*
X25846525Y-59486632D01*
X26053368Y-59693475D01*
X26227760Y-59810000D01*
X26053368Y-59926525D01*
X25846525Y-60133368D01*
X25684010Y-60376589D01*
X25572068Y-60646842D01*
X25515000Y-60933740D01*
X25515000Y-61226260D01*
X25572068Y-61513158D01*
X25684010Y-61783411D01*
X25846525Y-62026632D01*
X26053368Y-62233475D01*
X26296589Y-62395990D01*
X26566842Y-62507932D01*
X26853740Y-62565000D01*
X27146260Y-62565000D01*
X27433158Y-62507932D01*
X27703411Y-62395990D01*
X27946632Y-62233475D01*
X28090107Y-62090000D01*
X34201645Y-62090000D01*
X34590001Y-62478356D01*
X34590001Y-62667924D01*
X34430256Y-62774662D01*
X34174662Y-63030256D01*
X33973844Y-63330801D01*
X33835518Y-63664750D01*
X33765000Y-64019268D01*
X33765000Y-64380732D01*
X33835518Y-64735250D01*
X33973844Y-65069199D01*
X34174662Y-65369744D01*
X34430256Y-65625338D01*
X34730801Y-65826156D01*
X35064750Y-65964482D01*
X35419268Y-66035000D01*
X35780732Y-66035000D01*
X35969163Y-65997519D01*
X38990000Y-69018356D01*
X38990000Y-69150393D01*
X38990001Y-71600129D01*
X38955820Y-71610498D01*
X38845506Y-71669463D01*
X38748815Y-71748815D01*
X38669463Y-71845506D01*
X38610498Y-71955820D01*
X38600130Y-71990000D01*
X35349608Y-71990000D01*
X35300000Y-71985114D01*
X35102005Y-72004615D01*
X34980982Y-72041327D01*
X34924482Y-72024188D01*
X34800000Y-72011928D01*
X33000000Y-72011928D01*
X32875518Y-72024188D01*
X32755820Y-72060498D01*
X32645506Y-72119463D01*
X32548815Y-72198815D01*
X32469463Y-72295506D01*
X32410498Y-72405820D01*
X32374188Y-72525518D01*
X32361928Y-72650000D01*
X32361928Y-76150000D01*
X32374188Y-76274482D01*
X32410498Y-76394180D01*
X32469463Y-76504494D01*
X32548815Y-76601185D01*
X32645506Y-76680537D01*
X32755820Y-76739502D01*
X32875518Y-76775812D01*
X33000000Y-76788072D01*
X34800000Y-76788072D01*
X34924482Y-76775812D01*
X35044180Y-76739502D01*
X35154494Y-76680537D01*
X35251185Y-76601185D01*
X35330537Y-76504494D01*
X35336840Y-76492702D01*
X39186903Y-76492702D01*
X39258486Y-76736671D01*
X39513996Y-76857571D01*
X39788184Y-76926300D01*
X40070512Y-76940217D01*
X40350130Y-76898787D01*
X40616292Y-76803603D01*
X40741514Y-76736671D01*
X40813097Y-76492702D01*
X40000000Y-75679605D01*
X39186903Y-76492702D01*
X35336840Y-76492702D01*
X35389502Y-76394180D01*
X35425812Y-76274482D01*
X35438072Y-76150000D01*
X35438072Y-75570512D01*
X38559783Y-75570512D01*
X38601213Y-75850130D01*
X38696397Y-76116292D01*
X38763329Y-76241514D01*
X39007298Y-76313097D01*
X39820395Y-75500000D01*
X39007298Y-74686903D01*
X38763329Y-74758486D01*
X38642429Y-75013996D01*
X38573700Y-75288184D01*
X38559783Y-75570512D01*
X35438072Y-75570512D01*
X35438072Y-74290284D01*
X35718356Y-74010000D01*
X38600130Y-74010000D01*
X38610498Y-74044180D01*
X38669463Y-74154494D01*
X38748815Y-74251185D01*
X38845506Y-74330537D01*
X38955820Y-74389502D01*
X39075518Y-74425812D01*
X39200000Y-74438072D01*
X39207215Y-74438072D01*
X39186903Y-74507298D01*
X40000000Y-75320395D01*
X40014143Y-75306253D01*
X40193748Y-75485858D01*
X40179605Y-75500000D01*
X40992702Y-76313097D01*
X41236671Y-76241514D01*
X41357571Y-75986004D01*
X41417714Y-75746070D01*
X41490000Y-75818356D01*
X41490001Y-77750383D01*
X41485114Y-77800000D01*
X41504615Y-77997994D01*
X41562368Y-78188379D01*
X41656154Y-78363840D01*
X41738917Y-78464687D01*
X41782368Y-78517633D01*
X41820901Y-78549256D01*
X45850744Y-82579100D01*
X45882367Y-82617633D01*
X46036160Y-82743847D01*
X46211620Y-82837632D01*
X46402005Y-82895385D01*
X46600000Y-82914886D01*
X46649608Y-82910000D01*
X61549608Y-82910000D01*
X61697994Y-82895385D01*
X61888380Y-82837632D01*
X62052329Y-82750000D01*
X62191531Y-82750000D01*
X62235000Y-82754281D01*
X62278469Y-82750000D01*
X62278477Y-82750000D01*
X62408490Y-82737195D01*
X62575313Y-82686589D01*
X62729059Y-82604411D01*
X62863817Y-82493817D01*
X62891534Y-82460044D01*
X63330045Y-82021533D01*
X63363817Y-81993817D01*
X63474411Y-81859059D01*
X63556589Y-81705313D01*
X63607195Y-81538490D01*
X63620000Y-81408477D01*
X63620000Y-81408469D01*
X63624281Y-81365000D01*
X63620000Y-81321531D01*
X63620000Y-80848281D01*
X63701255Y-80872929D01*
X63855000Y-80888072D01*
X64155000Y-80888072D01*
X64308745Y-80872929D01*
X64456582Y-80828084D01*
X64592829Y-80755258D01*
X64712251Y-80657251D01*
X64810258Y-80537829D01*
X64883084Y-80401582D01*
X64913710Y-80300621D01*
X64948490Y-80297195D01*
X65115313Y-80246589D01*
X65269059Y-80164411D01*
X65403817Y-80053817D01*
X65431534Y-80020044D01*
X65671706Y-79779872D01*
X66765000Y-79779872D01*
X66765000Y-80220128D01*
X66850890Y-80651925D01*
X67019369Y-81058669D01*
X67263962Y-81424729D01*
X67575271Y-81736038D01*
X67941331Y-81980631D01*
X68348075Y-82149110D01*
X68779872Y-82235000D01*
X69220128Y-82235000D01*
X69651925Y-82149110D01*
X70058669Y-81980631D01*
X70424729Y-81736038D01*
X70736038Y-81424729D01*
X70980631Y-81058669D01*
X71149110Y-80651925D01*
X71235000Y-80220128D01*
X71235000Y-79779872D01*
X71149110Y-79348075D01*
X70980631Y-78941331D01*
X70736038Y-78575271D01*
X70424729Y-78263962D01*
X70058669Y-78019369D01*
X69651925Y-77850890D01*
X69220128Y-77765000D01*
X68779872Y-77765000D01*
X68348075Y-77850890D01*
X67941331Y-78019369D01*
X67575271Y-78263962D01*
X67263962Y-78575271D01*
X67019369Y-78941331D01*
X66850890Y-79348075D01*
X66765000Y-79779872D01*
X65671706Y-79779872D01*
X69595050Y-75856528D01*
X69628817Y-75828817D01*
X69676117Y-75771183D01*
X69739410Y-75694060D01*
X69739411Y-75694059D01*
X69821589Y-75540313D01*
X69872195Y-75373490D01*
X69885000Y-75243477D01*
X69885000Y-75243467D01*
X69889281Y-75200001D01*
X69885000Y-75156535D01*
X69885000Y-74014656D01*
X69946632Y-73973475D01*
X70153475Y-73766632D01*
X70315990Y-73523411D01*
X70427932Y-73253158D01*
X70485000Y-72966260D01*
X70485000Y-72673740D01*
X70427932Y-72386842D01*
X70315990Y-72116589D01*
X70153475Y-71873368D01*
X69946632Y-71666525D01*
X69772240Y-71550000D01*
X69946632Y-71433475D01*
X70153475Y-71226632D01*
X70315990Y-70983411D01*
X70427932Y-70713158D01*
X70485000Y-70426260D01*
X70485000Y-70133740D01*
X70427932Y-69846842D01*
X70315990Y-69576589D01*
X70153475Y-69333368D01*
X69946632Y-69126525D01*
X69772240Y-69010000D01*
X69946632Y-68893475D01*
X70153475Y-68686632D01*
X70315990Y-68443411D01*
X70427932Y-68173158D01*
X70485000Y-67886260D01*
X70485000Y-67593740D01*
X70427932Y-67306842D01*
X70315990Y-67036589D01*
X70153475Y-66793368D01*
X70021620Y-66661513D01*
X70094180Y-66639502D01*
X70204494Y-66580537D01*
X70301185Y-66501185D01*
X70380537Y-66404494D01*
X70439502Y-66294180D01*
X70475812Y-66174482D01*
X70488072Y-66050000D01*
X70488072Y-64350000D01*
X70475812Y-64225518D01*
X70439502Y-64105820D01*
X70380537Y-63995506D01*
X70301185Y-63898815D01*
X70204494Y-63819463D01*
X70094180Y-63760498D01*
X69974482Y-63724188D01*
X69850000Y-63711928D01*
X68150000Y-63711928D01*
X68025518Y-63724188D01*
X67905820Y-63760498D01*
X67795506Y-63819463D01*
X67698815Y-63898815D01*
X67619463Y-63995506D01*
X67560498Y-64105820D01*
X67524188Y-64225518D01*
X67511928Y-64350000D01*
X67511928Y-65436493D01*
X65204951Y-67743471D01*
X65171184Y-67771183D01*
X65143471Y-67804951D01*
X65143468Y-67804954D01*
X65060590Y-67905941D01*
X64978412Y-68059687D01*
X64927805Y-68226510D01*
X64910719Y-68400000D01*
X64915001Y-68443479D01*
X64915000Y-73173394D01*
X64894502Y-73105820D01*
X64835537Y-72995506D01*
X64756185Y-72898815D01*
X64659494Y-72819463D01*
X64549180Y-72760498D01*
X64429482Y-72724188D01*
X64305000Y-72711928D01*
X64290750Y-72715000D01*
X64132000Y-72873750D01*
X64132000Y-74048000D01*
X64152000Y-74048000D01*
X64152000Y-74302000D01*
X64132000Y-74302000D01*
X64132000Y-74322000D01*
X63878000Y-74322000D01*
X63878000Y-74302000D01*
X63858000Y-74302000D01*
X63858000Y-74048000D01*
X63878000Y-74048000D01*
X63878000Y-72873750D01*
X63719250Y-72715000D01*
X63705000Y-72711928D01*
X63580518Y-72724188D01*
X63495000Y-72750130D01*
X63495000Y-67397322D01*
X63498676Y-67359999D01*
X63495000Y-67322676D01*
X63495000Y-67322667D01*
X63484003Y-67211014D01*
X63440546Y-67067753D01*
X63438072Y-67063125D01*
X63438072Y-66662500D01*
X63421248Y-66491684D01*
X63371423Y-66327433D01*
X63290512Y-66176058D01*
X63181623Y-66043377D01*
X63048942Y-65934488D01*
X63035000Y-65927036D01*
X63035000Y-65712325D01*
X63038676Y-65675000D01*
X63035000Y-65637675D01*
X63035000Y-65637667D01*
X63024003Y-65526014D01*
X62980546Y-65382753D01*
X62909974Y-65250724D01*
X62815001Y-65134999D01*
X62786004Y-65111202D01*
X60260000Y-62585199D01*
X60260000Y-62153889D01*
X60298815Y-62201185D01*
X60395506Y-62280537D01*
X60505820Y-62339502D01*
X60625518Y-62375812D01*
X60750000Y-62388072D01*
X61314250Y-62385000D01*
X61473000Y-62226250D01*
X61473000Y-61027000D01*
X61727000Y-61027000D01*
X61727000Y-62226250D01*
X61885750Y-62385000D01*
X62450000Y-62388072D01*
X62574482Y-62375812D01*
X62694180Y-62339502D01*
X62804494Y-62280537D01*
X62901185Y-62201185D01*
X62980537Y-62104494D01*
X63039502Y-61994180D01*
X63075812Y-61874482D01*
X63088072Y-61750000D01*
X63085000Y-61185750D01*
X62926250Y-61027000D01*
X61727000Y-61027000D01*
X61473000Y-61027000D01*
X61453000Y-61027000D01*
X61453000Y-60773000D01*
X61473000Y-60773000D01*
X61473000Y-60753000D01*
X61727000Y-60753000D01*
X61727000Y-60773000D01*
X62926250Y-60773000D01*
X63085000Y-60614250D01*
X63088072Y-60050000D01*
X63075812Y-59925518D01*
X63039502Y-59805820D01*
X63036392Y-59800000D01*
X69086928Y-59800000D01*
X69099188Y-59924482D01*
X69135498Y-60044180D01*
X69194463Y-60154494D01*
X69273815Y-60251185D01*
X69370506Y-60330537D01*
X69480820Y-60389502D01*
X69600518Y-60425812D01*
X69725000Y-60438072D01*
X69914250Y-60435000D01*
X70073000Y-60276250D01*
X70073000Y-59439500D01*
X70327000Y-59439500D01*
X70327000Y-60276250D01*
X70485750Y-60435000D01*
X70675000Y-60438072D01*
X70799482Y-60425812D01*
X70919180Y-60389502D01*
X71029494Y-60330537D01*
X71126185Y-60251185D01*
X71205537Y-60154494D01*
X71264502Y-60044180D01*
X71300812Y-59924482D01*
X71313072Y-59800000D01*
X71310000Y-59598250D01*
X71151250Y-59439500D01*
X70327000Y-59439500D01*
X70073000Y-59439500D01*
X69248750Y-59439500D01*
X69090000Y-59598250D01*
X69086928Y-59800000D01*
X63036392Y-59800000D01*
X62980537Y-59695506D01*
X62901185Y-59598815D01*
X62804494Y-59519463D01*
X62694180Y-59460498D01*
X62621620Y-59438487D01*
X62753475Y-59306632D01*
X62915990Y-59063411D01*
X63027932Y-58793158D01*
X63085000Y-58506260D01*
X63085000Y-58213740D01*
X63027932Y-57926842D01*
X62915990Y-57656589D01*
X62753475Y-57413368D01*
X62546632Y-57206525D01*
X62360000Y-57081822D01*
X62360000Y-55337325D01*
X62363676Y-55300000D01*
X62360000Y-55262675D01*
X62360000Y-55262667D01*
X62349003Y-55151014D01*
X62305546Y-55007753D01*
X62234974Y-54875724D01*
X62170019Y-54796577D01*
X62337500Y-54813072D01*
X62837500Y-54813072D01*
X63008316Y-54796248D01*
X63172567Y-54746423D01*
X63323942Y-54665512D01*
X63456623Y-54556623D01*
X63500000Y-54503768D01*
X63543377Y-54556623D01*
X63676058Y-54665512D01*
X63827433Y-54746423D01*
X63991684Y-54796248D01*
X64162500Y-54813072D01*
X64662500Y-54813072D01*
X64833316Y-54796248D01*
X64997567Y-54746423D01*
X65148942Y-54665512D01*
X65281623Y-54556623D01*
X65295265Y-54540000D01*
X67721822Y-54540000D01*
X67846525Y-54726632D01*
X68053368Y-54933475D01*
X68115000Y-54974656D01*
X68115001Y-56244021D01*
X68110719Y-56287500D01*
X68127805Y-56460990D01*
X68178412Y-56627813D01*
X68260590Y-56781559D01*
X68343468Y-56882546D01*
X68343471Y-56882549D01*
X68371184Y-56916317D01*
X68404951Y-56944029D01*
X69086928Y-57626007D01*
X69086928Y-57737500D01*
X69103752Y-57908316D01*
X69153577Y-58072567D01*
X69234488Y-58223942D01*
X69323812Y-58332783D01*
X69273815Y-58373815D01*
X69194463Y-58470506D01*
X69135498Y-58580820D01*
X69099188Y-58700518D01*
X69086928Y-58825000D01*
X69090000Y-59026750D01*
X69248750Y-59185500D01*
X70073000Y-59185500D01*
X70073000Y-59165500D01*
X70327000Y-59165500D01*
X70327000Y-59185500D01*
X71151250Y-59185500D01*
X71310000Y-59026750D01*
X71313072Y-58825000D01*
X71300812Y-58700518D01*
X71264502Y-58580820D01*
X71205537Y-58470506D01*
X71126185Y-58373815D01*
X71076188Y-58332783D01*
X71165512Y-58223942D01*
X71246423Y-58072567D01*
X71296248Y-57908316D01*
X71313072Y-57737500D01*
X71313072Y-57237500D01*
X71296248Y-57066684D01*
X71246423Y-56902433D01*
X71165512Y-56751058D01*
X71056623Y-56618377D01*
X70923942Y-56509488D01*
X70772567Y-56428577D01*
X70608316Y-56378752D01*
X70437500Y-56361928D01*
X70326007Y-56361928D01*
X69885000Y-55920922D01*
X69885000Y-54974656D01*
X69946632Y-54933475D01*
X70153475Y-54726632D01*
X70315990Y-54483411D01*
X70427932Y-54213158D01*
X70485000Y-53926260D01*
X70485000Y-53633740D01*
X70427932Y-53346842D01*
X70315990Y-53076589D01*
X70153475Y-52833368D01*
X69946632Y-52626525D01*
X69772240Y-52510000D01*
X69946632Y-52393475D01*
X70153475Y-52186632D01*
X70315990Y-51943411D01*
X70427932Y-51673158D01*
X70485000Y-51386260D01*
X70485000Y-51093740D01*
X70427932Y-50806842D01*
X70315990Y-50536589D01*
X70153475Y-50293368D01*
X70021620Y-50161513D01*
X70094180Y-50139502D01*
X70204494Y-50080537D01*
X70301185Y-50001185D01*
X70380537Y-49904494D01*
X70439502Y-49794180D01*
X70475812Y-49674482D01*
X70488072Y-49550000D01*
X70485000Y-48985750D01*
X70326250Y-48827000D01*
X69127000Y-48827000D01*
X69127000Y-48847000D01*
X68873000Y-48847000D01*
X68873000Y-48827000D01*
X67673750Y-48827000D01*
X67515000Y-48985750D01*
X67511928Y-49550000D01*
X67524188Y-49674482D01*
X67560498Y-49794180D01*
X67619463Y-49904494D01*
X67698815Y-50001185D01*
X67795506Y-50080537D01*
X67905820Y-50139502D01*
X67978380Y-50161513D01*
X67846525Y-50293368D01*
X67721822Y-50480000D01*
X67054802Y-50480000D01*
X66563803Y-49989002D01*
X66540001Y-49959999D01*
X66424276Y-49865026D01*
X66292247Y-49794454D01*
X66148986Y-49750997D01*
X66037333Y-49740000D01*
X66037322Y-49740000D01*
X66000000Y-49736324D01*
X65962678Y-49740000D01*
X65260920Y-49740000D01*
X65185000Y-49647492D01*
X65185000Y-48447046D01*
X65265512Y-48348942D01*
X65346423Y-48197567D01*
X65396248Y-48033316D01*
X65413072Y-47862500D01*
X65413072Y-47850000D01*
X67511928Y-47850000D01*
X67515000Y-48414250D01*
X67673750Y-48573000D01*
X68873000Y-48573000D01*
X68873000Y-47373750D01*
X69127000Y-47373750D01*
X69127000Y-48573000D01*
X70326250Y-48573000D01*
X70485000Y-48414250D01*
X70488072Y-47850000D01*
X70475812Y-47725518D01*
X70439502Y-47605820D01*
X70380537Y-47495506D01*
X70301185Y-47398815D01*
X70204494Y-47319463D01*
X70094180Y-47260498D01*
X69974482Y-47224188D01*
X69850000Y-47211928D01*
X69285750Y-47215000D01*
X69127000Y-47373750D01*
X68873000Y-47373750D01*
X68714250Y-47215000D01*
X68150000Y-47211928D01*
X68025518Y-47224188D01*
X67905820Y-47260498D01*
X67795506Y-47319463D01*
X67698815Y-47398815D01*
X67619463Y-47495506D01*
X67560498Y-47605820D01*
X67524188Y-47725518D01*
X67511928Y-47850000D01*
X65413072Y-47850000D01*
X65413072Y-47362500D01*
X65396248Y-47191684D01*
X65346423Y-47027433D01*
X65265512Y-46876058D01*
X65176188Y-46767217D01*
X65226185Y-46726185D01*
X65305537Y-46629494D01*
X65364502Y-46519180D01*
X65400812Y-46399482D01*
X65413072Y-46275000D01*
X65410000Y-46073250D01*
X65251250Y-45914500D01*
X64427000Y-45914500D01*
X64427000Y-45934500D01*
X64173000Y-45934500D01*
X64173000Y-45914500D01*
X63348750Y-45914500D01*
X63190000Y-46073250D01*
X63186928Y-46275000D01*
X63199188Y-46399482D01*
X63235498Y-46519180D01*
X63294463Y-46629494D01*
X63373815Y-46726185D01*
X63423812Y-46767217D01*
X63334488Y-46876058D01*
X63253577Y-47027433D01*
X63203752Y-47191684D01*
X63186928Y-47362500D01*
X63186928Y-47862500D01*
X63203752Y-48033316D01*
X63253577Y-48197567D01*
X63334488Y-48348942D01*
X63415000Y-48447046D01*
X63415001Y-49677953D01*
X63400000Y-49696232D01*
X63356623Y-49643377D01*
X63223942Y-49534488D01*
X63072567Y-49453577D01*
X62908316Y-49403752D01*
X62886395Y-49401593D01*
X60529801Y-47045000D01*
X62274801Y-45300000D01*
X63186928Y-45300000D01*
X63190000Y-45501750D01*
X63348750Y-45660500D01*
X64173000Y-45660500D01*
X64173000Y-44823750D01*
X64427000Y-44823750D01*
X64427000Y-45660500D01*
X65251250Y-45660500D01*
X65410000Y-45501750D01*
X65413072Y-45300000D01*
X65400812Y-45175518D01*
X65364502Y-45055820D01*
X65305537Y-44945506D01*
X65226185Y-44848815D01*
X65129494Y-44769463D01*
X65019180Y-44710498D01*
X64899482Y-44674188D01*
X64775000Y-44661928D01*
X64585750Y-44665000D01*
X64427000Y-44823750D01*
X64173000Y-44823750D01*
X64014250Y-44665000D01*
X63825000Y-44661928D01*
X63700518Y-44674188D01*
X63580820Y-44710498D01*
X63470506Y-44769463D01*
X63373815Y-44848815D01*
X63294463Y-44945506D01*
X63235498Y-45055820D01*
X63199188Y-45175518D01*
X63186928Y-45300000D01*
X62274801Y-45300000D01*
X63711004Y-43863798D01*
X63740001Y-43840001D01*
X63834974Y-43724276D01*
X63905546Y-43592247D01*
X63949003Y-43448986D01*
X63960000Y-43337333D01*
X63960000Y-43337332D01*
X63963677Y-43300000D01*
X63960000Y-43262667D01*
X63960000Y-42779872D01*
X66765000Y-42779872D01*
X66765000Y-43220128D01*
X66850890Y-43651925D01*
X67019369Y-44058669D01*
X67263962Y-44424729D01*
X67575271Y-44736038D01*
X67941331Y-44980631D01*
X68348075Y-45149110D01*
X68779872Y-45235000D01*
X69220128Y-45235000D01*
X69651925Y-45149110D01*
X70058669Y-44980631D01*
X70424729Y-44736038D01*
X70736038Y-44424729D01*
X70980631Y-44058669D01*
X71149110Y-43651925D01*
X71235000Y-43220128D01*
X71235000Y-42779872D01*
X71149110Y-42348075D01*
X70980631Y-41941331D01*
X70736038Y-41575271D01*
X70424729Y-41263962D01*
X70058669Y-41019369D01*
X69651925Y-40850890D01*
X69220128Y-40765000D01*
X68779872Y-40765000D01*
X68348075Y-40850890D01*
X67941331Y-41019369D01*
X67575271Y-41263962D01*
X67263962Y-41575271D01*
X67019369Y-41941331D01*
X66850890Y-42348075D01*
X66765000Y-42779872D01*
X63960000Y-42779872D01*
X63960000Y-41537322D01*
X63963676Y-41500000D01*
X63960000Y-41462677D01*
X63960000Y-41462667D01*
X63949003Y-41351014D01*
X63905546Y-41207753D01*
X63834974Y-41075723D01*
X63763799Y-40988997D01*
X63740001Y-40959999D01*
X63711003Y-40936201D01*
X62363804Y-39589003D01*
X62340001Y-39559999D01*
X62224276Y-39465026D01*
X62092247Y-39394454D01*
X61948986Y-39350997D01*
X61837333Y-39340000D01*
X61837322Y-39340000D01*
X61800000Y-39336324D01*
X61762678Y-39340000D01*
X55431046Y-39340000D01*
X55380537Y-39245506D01*
X55301185Y-39148815D01*
X55274603Y-39127000D01*
X72290000Y-39127000D01*
X72290001Y-83290000D01*
X23710000Y-83290000D01*
X23710000Y-79779872D01*
X24765000Y-79779872D01*
X24765000Y-80220128D01*
X24850890Y-80651925D01*
X25019369Y-81058669D01*
X25263962Y-81424729D01*
X25575271Y-81736038D01*
X25941331Y-81980631D01*
X26348075Y-82149110D01*
X26779872Y-82235000D01*
X27220128Y-82235000D01*
X27651925Y-82149110D01*
X28058669Y-81980631D01*
X28424729Y-81736038D01*
X28736038Y-81424729D01*
X28919605Y-81150000D01*
X32361928Y-81150000D01*
X32374188Y-81274482D01*
X32410498Y-81394180D01*
X32469463Y-81504494D01*
X32548815Y-81601185D01*
X32645506Y-81680537D01*
X32755820Y-81739502D01*
X32875518Y-81775812D01*
X33000000Y-81788072D01*
X33614250Y-81785000D01*
X33773000Y-81626250D01*
X33773000Y-79527000D01*
X34027000Y-79527000D01*
X34027000Y-81626250D01*
X34185750Y-81785000D01*
X34800000Y-81788072D01*
X34924482Y-81775812D01*
X35044180Y-81739502D01*
X35154494Y-81680537D01*
X35251185Y-81601185D01*
X35330537Y-81504494D01*
X35389502Y-81394180D01*
X35425812Y-81274482D01*
X35438072Y-81150000D01*
X35435000Y-79685750D01*
X35276250Y-79527000D01*
X34027000Y-79527000D01*
X33773000Y-79527000D01*
X32523750Y-79527000D01*
X32365000Y-79685750D01*
X32361928Y-81150000D01*
X28919605Y-81150000D01*
X28980631Y-81058669D01*
X29149110Y-80651925D01*
X29235000Y-80220128D01*
X29235000Y-79779872D01*
X29149110Y-79348075D01*
X28980631Y-78941331D01*
X28736038Y-78575271D01*
X28424729Y-78263962D01*
X28058669Y-78019369D01*
X27651925Y-77850890D01*
X27220128Y-77765000D01*
X26779872Y-77765000D01*
X26348075Y-77850890D01*
X25941331Y-78019369D01*
X25575271Y-78263962D01*
X25263962Y-78575271D01*
X25019369Y-78941331D01*
X24850890Y-79348075D01*
X24765000Y-79779872D01*
X23710000Y-79779872D01*
X23710000Y-77650000D01*
X32361928Y-77650000D01*
X32365000Y-79114250D01*
X32523750Y-79273000D01*
X33773000Y-79273000D01*
X33773000Y-77173750D01*
X34027000Y-77173750D01*
X34027000Y-79273000D01*
X35276250Y-79273000D01*
X35435000Y-79114250D01*
X35438072Y-77650000D01*
X35425812Y-77525518D01*
X35389502Y-77405820D01*
X35330537Y-77295506D01*
X35251185Y-77198815D01*
X35154494Y-77119463D01*
X35044180Y-77060498D01*
X34924482Y-77024188D01*
X34800000Y-77011928D01*
X34185750Y-77015000D01*
X34027000Y-77173750D01*
X33773000Y-77173750D01*
X33614250Y-77015000D01*
X33000000Y-77011928D01*
X32875518Y-77024188D01*
X32755820Y-77060498D01*
X32645506Y-77119463D01*
X32548815Y-77198815D01*
X32469463Y-77295506D01*
X32410498Y-77405820D01*
X32374188Y-77525518D01*
X32361928Y-77650000D01*
X23710000Y-77650000D01*
X23710000Y-72850000D01*
X25511928Y-72850000D01*
X25524188Y-72974482D01*
X25560498Y-73094180D01*
X25619463Y-73204494D01*
X25698815Y-73301185D01*
X25795506Y-73380537D01*
X25905820Y-73439502D01*
X26025518Y-73475812D01*
X26150000Y-73488072D01*
X26714250Y-73485000D01*
X26873000Y-73326250D01*
X26873000Y-72127000D01*
X27127000Y-72127000D01*
X27127000Y-73326250D01*
X27285750Y-73485000D01*
X27850000Y-73488072D01*
X27974482Y-73475812D01*
X28094180Y-73439502D01*
X28204494Y-73380537D01*
X28301185Y-73301185D01*
X28380537Y-73204494D01*
X28439502Y-73094180D01*
X28475812Y-72974482D01*
X28488072Y-72850000D01*
X28485000Y-72285750D01*
X28326250Y-72127000D01*
X27127000Y-72127000D01*
X26873000Y-72127000D01*
X25673750Y-72127000D01*
X25515000Y-72285750D01*
X25511928Y-72850000D01*
X23710000Y-72850000D01*
X23710000Y-71150000D01*
X25511928Y-71150000D01*
X25515000Y-71714250D01*
X25673750Y-71873000D01*
X26873000Y-71873000D01*
X26873000Y-71853000D01*
X27127000Y-71853000D01*
X27127000Y-71873000D01*
X28326250Y-71873000D01*
X28485000Y-71714250D01*
X28488072Y-71150000D01*
X28475812Y-71025518D01*
X28439502Y-70905820D01*
X28380537Y-70795506D01*
X28301185Y-70698815D01*
X28204494Y-70619463D01*
X28094180Y-70560498D01*
X28021620Y-70538487D01*
X28090107Y-70470000D01*
X34194918Y-70470000D01*
X34430256Y-70705338D01*
X34730801Y-70906156D01*
X35064750Y-71044482D01*
X35419268Y-71115000D01*
X35780732Y-71115000D01*
X36135250Y-71044482D01*
X36469199Y-70906156D01*
X36769744Y-70705338D01*
X37025338Y-70449744D01*
X37226156Y-70149199D01*
X37364482Y-69815250D01*
X37435000Y-69460732D01*
X37435000Y-69099268D01*
X37364482Y-68744750D01*
X37226156Y-68410801D01*
X37025338Y-68110256D01*
X36769744Y-67854662D01*
X36469199Y-67653844D01*
X36135250Y-67515518D01*
X35780732Y-67445000D01*
X35419268Y-67445000D01*
X35064750Y-67515518D01*
X34730801Y-67653844D01*
X34430256Y-67854662D01*
X34174662Y-68110256D01*
X33973844Y-68410801D01*
X33957607Y-68450000D01*
X28090107Y-68450000D01*
X27946632Y-68306525D01*
X27703411Y-68144010D01*
X27433158Y-68032068D01*
X27146260Y-67975000D01*
X26853740Y-67975000D01*
X26566842Y-68032068D01*
X26296589Y-68144010D01*
X26053368Y-68306525D01*
X25846525Y-68513368D01*
X25684010Y-68756589D01*
X25572068Y-69026842D01*
X25515000Y-69313740D01*
X25515000Y-69606260D01*
X25572068Y-69893158D01*
X25684010Y-70163411D01*
X25846525Y-70406632D01*
X25978380Y-70538487D01*
X25905820Y-70560498D01*
X25795506Y-70619463D01*
X25698815Y-70698815D01*
X25619463Y-70795506D01*
X25560498Y-70905820D01*
X25524188Y-71025518D01*
X25511928Y-71150000D01*
X23710000Y-71150000D01*
X23710000Y-55150000D01*
X25511928Y-55150000D01*
X25515000Y-55714250D01*
X25673750Y-55873000D01*
X26873000Y-55873000D01*
X26873000Y-54673750D01*
X27127000Y-54673750D01*
X27127000Y-55873000D01*
X28326250Y-55873000D01*
X28485000Y-55714250D01*
X28488072Y-55150000D01*
X28475812Y-55025518D01*
X28439502Y-54905820D01*
X28380537Y-54795506D01*
X28301185Y-54698815D01*
X28204494Y-54619463D01*
X28094180Y-54560498D01*
X27974482Y-54524188D01*
X27850000Y-54511928D01*
X27285750Y-54515000D01*
X27127000Y-54673750D01*
X26873000Y-54673750D01*
X26714250Y-54515000D01*
X26150000Y-54511928D01*
X26025518Y-54524188D01*
X25905820Y-54560498D01*
X25795506Y-54619463D01*
X25698815Y-54698815D01*
X25619463Y-54795506D01*
X25560498Y-54905820D01*
X25524188Y-55025518D01*
X25511928Y-55150000D01*
X23710000Y-55150000D01*
X23710000Y-48270512D01*
X29259783Y-48270512D01*
X29301213Y-48550130D01*
X29396397Y-48816292D01*
X29463329Y-48941514D01*
X29707298Y-49013097D01*
X30520395Y-48200000D01*
X29707298Y-47386903D01*
X29463329Y-47458486D01*
X29342429Y-47713996D01*
X29273700Y-47988184D01*
X29259783Y-48270512D01*
X23710000Y-48270512D01*
X23710000Y-47207298D01*
X29886903Y-47207298D01*
X30700000Y-48020395D01*
X31513097Y-47207298D01*
X31441514Y-46963329D01*
X31186004Y-46842429D01*
X30911816Y-46773700D01*
X30629488Y-46759783D01*
X30349870Y-46801213D01*
X30083708Y-46896397D01*
X29958486Y-46963329D01*
X29886903Y-47207298D01*
X23710000Y-47207298D01*
X23710000Y-42779872D01*
X24765000Y-42779872D01*
X24765000Y-43220128D01*
X24850890Y-43651925D01*
X25019369Y-44058669D01*
X25263962Y-44424729D01*
X25575271Y-44736038D01*
X25941331Y-44980631D01*
X26348075Y-45149110D01*
X26779872Y-45235000D01*
X27220128Y-45235000D01*
X27651925Y-45149110D01*
X28058669Y-44980631D01*
X28424729Y-44736038D01*
X28736038Y-44424729D01*
X28980631Y-44058669D01*
X29149110Y-43651925D01*
X29235000Y-43220128D01*
X29235000Y-42779872D01*
X29149110Y-42348075D01*
X28980631Y-41941331D01*
X28736038Y-41575271D01*
X28424729Y-41263962D01*
X28058669Y-41019369D01*
X27651925Y-40850890D01*
X27220128Y-40765000D01*
X26779872Y-40765000D01*
X26348075Y-40850890D01*
X25941331Y-41019369D01*
X25575271Y-41263962D01*
X25263962Y-41575271D01*
X25019369Y-41941331D01*
X24850890Y-42348075D01*
X24765000Y-42779872D01*
X23710000Y-42779872D01*
X23710000Y-39127000D01*
X33854720Y-39127000D01*
X33743377Y-39218377D01*
G37*
G04 #@! TD.AperFunction*
D23*
X42536200Y-71011002D02*
X42559999Y-71040001D01*
X42675724Y-71134974D01*
X42807753Y-71205546D01*
X42951014Y-71249003D01*
X43062667Y-71260000D01*
X43062676Y-71260000D01*
X43099999Y-71263676D01*
X43137322Y-71260000D01*
X44714509Y-71260000D01*
X44643377Y-71318377D01*
X44534488Y-71451058D01*
X44453577Y-71602433D01*
X44403752Y-71766684D01*
X44386928Y-71937500D01*
X44386928Y-72437500D01*
X44403752Y-72608316D01*
X44453577Y-72772567D01*
X44534488Y-72923942D01*
X44623812Y-73032783D01*
X44573815Y-73073815D01*
X44494463Y-73170506D01*
X44435498Y-73280820D01*
X44399188Y-73400518D01*
X44386928Y-73525000D01*
X44390000Y-73726750D01*
X44548750Y-73885500D01*
X45373000Y-73885500D01*
X45373000Y-73865500D01*
X45627000Y-73865500D01*
X45627000Y-73885500D01*
X46451250Y-73885500D01*
X46610000Y-73726750D01*
X46613072Y-73525000D01*
X46600812Y-73400518D01*
X46585488Y-73350000D01*
X47356928Y-73350000D01*
X47360000Y-73889250D01*
X47518750Y-74048000D01*
X48168000Y-74048000D01*
X48168000Y-72873750D01*
X48009250Y-72715000D01*
X47995000Y-72711928D01*
X47870518Y-72724188D01*
X47750820Y-72760498D01*
X47640506Y-72819463D01*
X47543815Y-72898815D01*
X47464463Y-72995506D01*
X47405498Y-73105820D01*
X47369188Y-73225518D01*
X47356928Y-73350000D01*
X46585488Y-73350000D01*
X46564502Y-73280820D01*
X46505537Y-73170506D01*
X46426185Y-73073815D01*
X46376188Y-73032783D01*
X46465512Y-72923942D01*
X46546423Y-72772567D01*
X46596248Y-72608316D01*
X46613072Y-72437500D01*
X46613072Y-71937500D01*
X46596248Y-71766684D01*
X46546423Y-71602433D01*
X46465512Y-71451058D01*
X46356623Y-71318377D01*
X46285491Y-71260000D01*
X48685199Y-71260000D01*
X48805000Y-71379802D01*
X48805000Y-72750130D01*
X48719482Y-72724188D01*
X48595000Y-72711928D01*
X48580750Y-72715000D01*
X48422000Y-72873750D01*
X48422000Y-74048000D01*
X48442000Y-74048000D01*
X48442000Y-74302000D01*
X48422000Y-74302000D01*
X48422000Y-75476250D01*
X48580750Y-75635000D01*
X48595000Y-75638072D01*
X48719482Y-75625812D01*
X48839180Y-75589502D01*
X48949494Y-75530537D01*
X48979064Y-75506270D01*
X49113418Y-75578084D01*
X49261255Y-75622929D01*
X49415000Y-75638072D01*
X49715000Y-75638072D01*
X49868745Y-75622929D01*
X50016582Y-75578084D01*
X50152829Y-75505258D01*
X50200000Y-75466546D01*
X50247171Y-75505258D01*
X50300996Y-75534028D01*
X50154687Y-75578411D01*
X50071399Y-75622929D01*
X50000941Y-75660589D01*
X49899953Y-75743468D01*
X49899951Y-75743470D01*
X49866183Y-75771183D01*
X49838470Y-75804951D01*
X47699951Y-77943471D01*
X47666184Y-77971183D01*
X47638471Y-78004951D01*
X47638468Y-78004954D01*
X47555590Y-78105941D01*
X47473412Y-78259687D01*
X47422805Y-78426510D01*
X47421490Y-78439860D01*
X47416916Y-78448418D01*
X47372071Y-78596255D01*
X47356928Y-78750000D01*
X47356928Y-80100000D01*
X47372071Y-80253745D01*
X47416916Y-80401582D01*
X47489742Y-80537829D01*
X47587749Y-80657251D01*
X47707171Y-80755258D01*
X47843418Y-80828084D01*
X47991255Y-80872929D01*
X48145000Y-80888072D01*
X48445000Y-80888072D01*
X48598745Y-80872929D01*
X48680001Y-80848281D01*
X48680001Y-80890000D01*
X47018356Y-80890000D01*
X43510000Y-77381645D01*
X43510000Y-75449608D01*
X43514886Y-75400000D01*
X43495385Y-75202005D01*
X43437632Y-75011620D01*
X43369262Y-74883708D01*
X43343847Y-74836160D01*
X43217633Y-74682367D01*
X43179100Y-74650744D01*
X43028356Y-74500000D01*
X44386928Y-74500000D01*
X44399188Y-74624482D01*
X44435498Y-74744180D01*
X44494463Y-74854494D01*
X44573815Y-74951185D01*
X44670506Y-75030537D01*
X44780820Y-75089502D01*
X44900518Y-75125812D01*
X45025000Y-75138072D01*
X45214250Y-75135000D01*
X45373000Y-74976250D01*
X45373000Y-74139500D01*
X45627000Y-74139500D01*
X45627000Y-74976250D01*
X45785750Y-75135000D01*
X45975000Y-75138072D01*
X46099482Y-75125812D01*
X46219180Y-75089502D01*
X46329494Y-75030537D01*
X46366703Y-75000000D01*
X47356928Y-75000000D01*
X47369188Y-75124482D01*
X47405498Y-75244180D01*
X47464463Y-75354494D01*
X47543815Y-75451185D01*
X47640506Y-75530537D01*
X47750820Y-75589502D01*
X47870518Y-75625812D01*
X47995000Y-75638072D01*
X48009250Y-75635000D01*
X48168000Y-75476250D01*
X48168000Y-74302000D01*
X47518750Y-74302000D01*
X47360000Y-74460750D01*
X47356928Y-75000000D01*
X46366703Y-75000000D01*
X46426185Y-74951185D01*
X46505537Y-74854494D01*
X46564502Y-74744180D01*
X46600812Y-74624482D01*
X46613072Y-74500000D01*
X46610000Y-74298250D01*
X46451250Y-74139500D01*
X45627000Y-74139500D01*
X45373000Y-74139500D01*
X44548750Y-74139500D01*
X44390000Y-74298250D01*
X44386928Y-74500000D01*
X43028356Y-74500000D01*
X41438072Y-72909717D01*
X41438072Y-72200000D01*
X41425812Y-72075518D01*
X41389502Y-71955820D01*
X41330537Y-71845506D01*
X41251185Y-71748815D01*
X41154494Y-71669463D01*
X41044180Y-71610498D01*
X41010000Y-71600130D01*
X41010000Y-69484802D01*
X42536200Y-71011002D01*
G04 #@! TA.AperFunction,Conductor*
D24*
G36*
X42536200Y-71011002D02*
G01*
X42559999Y-71040001D01*
X42675724Y-71134974D01*
X42807753Y-71205546D01*
X42951014Y-71249003D01*
X43062667Y-71260000D01*
X43062676Y-71260000D01*
X43099999Y-71263676D01*
X43137322Y-71260000D01*
X44714509Y-71260000D01*
X44643377Y-71318377D01*
X44534488Y-71451058D01*
X44453577Y-71602433D01*
X44403752Y-71766684D01*
X44386928Y-71937500D01*
X44386928Y-72437500D01*
X44403752Y-72608316D01*
X44453577Y-72772567D01*
X44534488Y-72923942D01*
X44623812Y-73032783D01*
X44573815Y-73073815D01*
X44494463Y-73170506D01*
X44435498Y-73280820D01*
X44399188Y-73400518D01*
X44386928Y-73525000D01*
X44390000Y-73726750D01*
X44548750Y-73885500D01*
X45373000Y-73885500D01*
X45373000Y-73865500D01*
X45627000Y-73865500D01*
X45627000Y-73885500D01*
X46451250Y-73885500D01*
X46610000Y-73726750D01*
X46613072Y-73525000D01*
X46600812Y-73400518D01*
X46585488Y-73350000D01*
X47356928Y-73350000D01*
X47360000Y-73889250D01*
X47518750Y-74048000D01*
X48168000Y-74048000D01*
X48168000Y-72873750D01*
X48009250Y-72715000D01*
X47995000Y-72711928D01*
X47870518Y-72724188D01*
X47750820Y-72760498D01*
X47640506Y-72819463D01*
X47543815Y-72898815D01*
X47464463Y-72995506D01*
X47405498Y-73105820D01*
X47369188Y-73225518D01*
X47356928Y-73350000D01*
X46585488Y-73350000D01*
X46564502Y-73280820D01*
X46505537Y-73170506D01*
X46426185Y-73073815D01*
X46376188Y-73032783D01*
X46465512Y-72923942D01*
X46546423Y-72772567D01*
X46596248Y-72608316D01*
X46613072Y-72437500D01*
X46613072Y-71937500D01*
X46596248Y-71766684D01*
X46546423Y-71602433D01*
X46465512Y-71451058D01*
X46356623Y-71318377D01*
X46285491Y-71260000D01*
X48685199Y-71260000D01*
X48805000Y-71379802D01*
X48805000Y-72750130D01*
X48719482Y-72724188D01*
X48595000Y-72711928D01*
X48580750Y-72715000D01*
X48422000Y-72873750D01*
X48422000Y-74048000D01*
X48442000Y-74048000D01*
X48442000Y-74302000D01*
X48422000Y-74302000D01*
X48422000Y-75476250D01*
X48580750Y-75635000D01*
X48595000Y-75638072D01*
X48719482Y-75625812D01*
X48839180Y-75589502D01*
X48949494Y-75530537D01*
X48979064Y-75506270D01*
X49113418Y-75578084D01*
X49261255Y-75622929D01*
X49415000Y-75638072D01*
X49715000Y-75638072D01*
X49868745Y-75622929D01*
X50016582Y-75578084D01*
X50152829Y-75505258D01*
X50200000Y-75466546D01*
X50247171Y-75505258D01*
X50300996Y-75534028D01*
X50154687Y-75578411D01*
X50071399Y-75622929D01*
X50000941Y-75660589D01*
X49899953Y-75743468D01*
X49899951Y-75743470D01*
X49866183Y-75771183D01*
X49838470Y-75804951D01*
X47699951Y-77943471D01*
X47666184Y-77971183D01*
X47638471Y-78004951D01*
X47638468Y-78004954D01*
X47555590Y-78105941D01*
X47473412Y-78259687D01*
X47422805Y-78426510D01*
X47421490Y-78439860D01*
X47416916Y-78448418D01*
X47372071Y-78596255D01*
X47356928Y-78750000D01*
X47356928Y-80100000D01*
X47372071Y-80253745D01*
X47416916Y-80401582D01*
X47489742Y-80537829D01*
X47587749Y-80657251D01*
X47707171Y-80755258D01*
X47843418Y-80828084D01*
X47991255Y-80872929D01*
X48145000Y-80888072D01*
X48445000Y-80888072D01*
X48598745Y-80872929D01*
X48680001Y-80848281D01*
X48680001Y-80890000D01*
X47018356Y-80890000D01*
X43510000Y-77381645D01*
X43510000Y-75449608D01*
X43514886Y-75400000D01*
X43495385Y-75202005D01*
X43437632Y-75011620D01*
X43369262Y-74883708D01*
X43343847Y-74836160D01*
X43217633Y-74682367D01*
X43179100Y-74650744D01*
X43028356Y-74500000D01*
X44386928Y-74500000D01*
X44399188Y-74624482D01*
X44435498Y-74744180D01*
X44494463Y-74854494D01*
X44573815Y-74951185D01*
X44670506Y-75030537D01*
X44780820Y-75089502D01*
X44900518Y-75125812D01*
X45025000Y-75138072D01*
X45214250Y-75135000D01*
X45373000Y-74976250D01*
X45373000Y-74139500D01*
X45627000Y-74139500D01*
X45627000Y-74976250D01*
X45785750Y-75135000D01*
X45975000Y-75138072D01*
X46099482Y-75125812D01*
X46219180Y-75089502D01*
X46329494Y-75030537D01*
X46366703Y-75000000D01*
X47356928Y-75000000D01*
X47369188Y-75124482D01*
X47405498Y-75244180D01*
X47464463Y-75354494D01*
X47543815Y-75451185D01*
X47640506Y-75530537D01*
X47750820Y-75589502D01*
X47870518Y-75625812D01*
X47995000Y-75638072D01*
X48009250Y-75635000D01*
X48168000Y-75476250D01*
X48168000Y-74302000D01*
X47518750Y-74302000D01*
X47360000Y-74460750D01*
X47356928Y-75000000D01*
X46366703Y-75000000D01*
X46426185Y-74951185D01*
X46505537Y-74854494D01*
X46564502Y-74744180D01*
X46600812Y-74624482D01*
X46613072Y-74500000D01*
X46610000Y-74298250D01*
X46451250Y-74139500D01*
X45627000Y-74139500D01*
X45373000Y-74139500D01*
X44548750Y-74139500D01*
X44390000Y-74298250D01*
X44386928Y-74500000D01*
X43028356Y-74500000D01*
X41438072Y-72909717D01*
X41438072Y-72200000D01*
X41425812Y-72075518D01*
X41389502Y-71955820D01*
X41330537Y-71845506D01*
X41251185Y-71748815D01*
X41154494Y-71669463D01*
X41044180Y-71610498D01*
X41010000Y-71600130D01*
X41010000Y-69484802D01*
X42536200Y-71011002D01*
G37*
G04 #@! TD.AperFunction*
D23*
X59607171Y-78094742D02*
X59487749Y-78192749D01*
X59389742Y-78312171D01*
X59316916Y-78448418D01*
X59272071Y-78596255D01*
X59256928Y-78750000D01*
X59256928Y-80100000D01*
X59272071Y-80253745D01*
X59316916Y-80401582D01*
X59389742Y-80537829D01*
X59487749Y-80657251D01*
X59607171Y-80755258D01*
X59743418Y-80828084D01*
X59891255Y-80872929D01*
X60045000Y-80888072D01*
X60345000Y-80888072D01*
X60498745Y-80872929D01*
X60580001Y-80848281D01*
X60580001Y-80890000D01*
X51720000Y-80890000D01*
X51720000Y-80848281D01*
X51801255Y-80872929D01*
X51955000Y-80888072D01*
X52255000Y-80888072D01*
X52408745Y-80872929D01*
X52556582Y-80828084D01*
X52692829Y-80755258D01*
X52812251Y-80657251D01*
X52910258Y-80537829D01*
X52983084Y-80401582D01*
X53027929Y-80253745D01*
X53043072Y-80100000D01*
X53043072Y-79738506D01*
X54696579Y-78085000D01*
X59625397Y-78085000D01*
X59607171Y-78094742D01*
G04 #@! TA.AperFunction,Conductor*
D24*
G36*
X59607171Y-78094742D02*
G01*
X59487749Y-78192749D01*
X59389742Y-78312171D01*
X59316916Y-78448418D01*
X59272071Y-78596255D01*
X59256928Y-78750000D01*
X59256928Y-80100000D01*
X59272071Y-80253745D01*
X59316916Y-80401582D01*
X59389742Y-80537829D01*
X59487749Y-80657251D01*
X59607171Y-80755258D01*
X59743418Y-80828084D01*
X59891255Y-80872929D01*
X60045000Y-80888072D01*
X60345000Y-80888072D01*
X60498745Y-80872929D01*
X60580001Y-80848281D01*
X60580001Y-80890000D01*
X51720000Y-80890000D01*
X51720000Y-80848281D01*
X51801255Y-80872929D01*
X51955000Y-80888072D01*
X52255000Y-80888072D01*
X52408745Y-80872929D01*
X52556582Y-80828084D01*
X52692829Y-80755258D01*
X52812251Y-80657251D01*
X52910258Y-80537829D01*
X52983084Y-80401582D01*
X53027929Y-80253745D01*
X53043072Y-80100000D01*
X53043072Y-79738506D01*
X54696579Y-78085000D01*
X59625397Y-78085000D01*
X59607171Y-78094742D01*
G37*
G04 #@! TD.AperFunction*
D23*
X56953577Y-70102433D02*
X56903752Y-70266684D01*
X56886928Y-70437500D01*
X56886928Y-70937500D01*
X56903752Y-71108316D01*
X56953577Y-71272567D01*
X57034488Y-71423942D01*
X57123812Y-71532783D01*
X57073815Y-71573815D01*
X56994463Y-71670506D01*
X56935498Y-71780820D01*
X56899188Y-71900518D01*
X56886928Y-72025000D01*
X56890000Y-72226750D01*
X57048750Y-72385500D01*
X57873000Y-72385500D01*
X57873000Y-72365500D01*
X58127000Y-72365500D01*
X58127000Y-72385500D01*
X58951250Y-72385500D01*
X59110000Y-72226750D01*
X59113072Y-72025000D01*
X59100812Y-71900518D01*
X59064502Y-71780820D01*
X59005537Y-71670506D01*
X58926185Y-71573815D01*
X58876188Y-71532783D01*
X58965512Y-71423942D01*
X59046423Y-71272567D01*
X59096248Y-71108316D01*
X59113072Y-70937500D01*
X59113072Y-70437500D01*
X59096248Y-70266684D01*
X59094220Y-70260000D01*
X60185199Y-70260000D01*
X60705000Y-70779802D01*
X60705001Y-71937658D01*
X60705000Y-71937668D01*
X60705000Y-72750130D01*
X60619482Y-72724188D01*
X60495000Y-72711928D01*
X60480750Y-72715000D01*
X60322000Y-72873750D01*
X60322000Y-74048000D01*
X60342000Y-74048000D01*
X60342000Y-74302000D01*
X60322000Y-74302000D01*
X60322000Y-74322000D01*
X60068000Y-74322000D01*
X60068000Y-74302000D01*
X59418750Y-74302000D01*
X59260000Y-74460750D01*
X59256928Y-75000000D01*
X59269188Y-75124482D01*
X59305498Y-75244180D01*
X59364463Y-75354494D01*
X59443815Y-75451185D01*
X59521574Y-75515000D01*
X52778426Y-75515000D01*
X52856185Y-75451185D01*
X52935537Y-75354494D01*
X52994502Y-75244180D01*
X53030812Y-75124482D01*
X53043072Y-75000000D01*
X53040000Y-74460750D01*
X52881250Y-74302000D01*
X52232000Y-74302000D01*
X52232000Y-74322000D01*
X51978000Y-74322000D01*
X51978000Y-74302000D01*
X51958000Y-74302000D01*
X51958000Y-74048000D01*
X51978000Y-74048000D01*
X51978000Y-72873750D01*
X52232000Y-72873750D01*
X52232000Y-74048000D01*
X52881250Y-74048000D01*
X53040000Y-73889250D01*
X53042711Y-73413285D01*
X53073815Y-73451185D01*
X53170506Y-73530537D01*
X53280820Y-73589502D01*
X53400518Y-73625812D01*
X53525000Y-73638072D01*
X53714250Y-73635000D01*
X53873000Y-73476250D01*
X53873000Y-72639500D01*
X54127000Y-72639500D01*
X54127000Y-73476250D01*
X54285750Y-73635000D01*
X54475000Y-73638072D01*
X54599482Y-73625812D01*
X54719180Y-73589502D01*
X54829494Y-73530537D01*
X54926185Y-73451185D01*
X55005537Y-73354494D01*
X55064502Y-73244180D01*
X55100812Y-73124482D01*
X55113072Y-73000000D01*
X56886928Y-73000000D01*
X56899188Y-73124482D01*
X56935498Y-73244180D01*
X56994463Y-73354494D01*
X57073815Y-73451185D01*
X57170506Y-73530537D01*
X57280820Y-73589502D01*
X57400518Y-73625812D01*
X57525000Y-73638072D01*
X57714250Y-73635000D01*
X57873000Y-73476250D01*
X57873000Y-72639500D01*
X58127000Y-72639500D01*
X58127000Y-73476250D01*
X58285750Y-73635000D01*
X58475000Y-73638072D01*
X58599482Y-73625812D01*
X58719180Y-73589502D01*
X58829494Y-73530537D01*
X58926185Y-73451185D01*
X59005537Y-73354494D01*
X59007939Y-73350000D01*
X59256928Y-73350000D01*
X59260000Y-73889250D01*
X59418750Y-74048000D01*
X60068000Y-74048000D01*
X60068000Y-72873750D01*
X59909250Y-72715000D01*
X59895000Y-72711928D01*
X59770518Y-72724188D01*
X59650820Y-72760498D01*
X59540506Y-72819463D01*
X59443815Y-72898815D01*
X59364463Y-72995506D01*
X59305498Y-73105820D01*
X59269188Y-73225518D01*
X59256928Y-73350000D01*
X59007939Y-73350000D01*
X59064502Y-73244180D01*
X59100812Y-73124482D01*
X59113072Y-73000000D01*
X59110000Y-72798250D01*
X58951250Y-72639500D01*
X58127000Y-72639500D01*
X57873000Y-72639500D01*
X57048750Y-72639500D01*
X56890000Y-72798250D01*
X56886928Y-73000000D01*
X55113072Y-73000000D01*
X55110000Y-72798250D01*
X54951250Y-72639500D01*
X54127000Y-72639500D01*
X53873000Y-72639500D01*
X53048750Y-72639500D01*
X52890000Y-72798250D01*
X52887881Y-72937436D01*
X52856185Y-72898815D01*
X52759494Y-72819463D01*
X52649180Y-72760498D01*
X52529482Y-72724188D01*
X52405000Y-72711928D01*
X52390750Y-72715000D01*
X52232000Y-72873750D01*
X51978000Y-72873750D01*
X51819250Y-72715000D01*
X51805000Y-72711928D01*
X51680518Y-72724188D01*
X51595000Y-72750130D01*
X51595000Y-71495000D01*
X53092804Y-71495000D01*
X53123812Y-71532783D01*
X53073815Y-71573815D01*
X52994463Y-71670506D01*
X52935498Y-71780820D01*
X52899188Y-71900518D01*
X52886928Y-72025000D01*
X52890000Y-72226750D01*
X53048750Y-72385500D01*
X53873000Y-72385500D01*
X53873000Y-72365500D01*
X54127000Y-72365500D01*
X54127000Y-72385500D01*
X54951250Y-72385500D01*
X55110000Y-72226750D01*
X55113072Y-72025000D01*
X55100812Y-71900518D01*
X55064502Y-71780820D01*
X55005537Y-71670506D01*
X54926185Y-71573815D01*
X54876188Y-71532783D01*
X54965512Y-71423942D01*
X55046423Y-71272567D01*
X55096248Y-71108316D01*
X55113072Y-70937500D01*
X55113072Y-70437500D01*
X55096248Y-70266684D01*
X55046423Y-70102433D01*
X55023742Y-70060000D01*
X56976258Y-70060000D01*
X56953577Y-70102433D01*
G04 #@! TA.AperFunction,Conductor*
D24*
G36*
X56953577Y-70102433D02*
G01*
X56903752Y-70266684D01*
X56886928Y-70437500D01*
X56886928Y-70937500D01*
X56903752Y-71108316D01*
X56953577Y-71272567D01*
X57034488Y-71423942D01*
X57123812Y-71532783D01*
X57073815Y-71573815D01*
X56994463Y-71670506D01*
X56935498Y-71780820D01*
X56899188Y-71900518D01*
X56886928Y-72025000D01*
X56890000Y-72226750D01*
X57048750Y-72385500D01*
X57873000Y-72385500D01*
X57873000Y-72365500D01*
X58127000Y-72365500D01*
X58127000Y-72385500D01*
X58951250Y-72385500D01*
X59110000Y-72226750D01*
X59113072Y-72025000D01*
X59100812Y-71900518D01*
X59064502Y-71780820D01*
X59005537Y-71670506D01*
X58926185Y-71573815D01*
X58876188Y-71532783D01*
X58965512Y-71423942D01*
X59046423Y-71272567D01*
X59096248Y-71108316D01*
X59113072Y-70937500D01*
X59113072Y-70437500D01*
X59096248Y-70266684D01*
X59094220Y-70260000D01*
X60185199Y-70260000D01*
X60705000Y-70779802D01*
X60705001Y-71937658D01*
X60705000Y-71937668D01*
X60705000Y-72750130D01*
X60619482Y-72724188D01*
X60495000Y-72711928D01*
X60480750Y-72715000D01*
X60322000Y-72873750D01*
X60322000Y-74048000D01*
X60342000Y-74048000D01*
X60342000Y-74302000D01*
X60322000Y-74302000D01*
X60322000Y-74322000D01*
X60068000Y-74322000D01*
X60068000Y-74302000D01*
X59418750Y-74302000D01*
X59260000Y-74460750D01*
X59256928Y-75000000D01*
X59269188Y-75124482D01*
X59305498Y-75244180D01*
X59364463Y-75354494D01*
X59443815Y-75451185D01*
X59521574Y-75515000D01*
X52778426Y-75515000D01*
X52856185Y-75451185D01*
X52935537Y-75354494D01*
X52994502Y-75244180D01*
X53030812Y-75124482D01*
X53043072Y-75000000D01*
X53040000Y-74460750D01*
X52881250Y-74302000D01*
X52232000Y-74302000D01*
X52232000Y-74322000D01*
X51978000Y-74322000D01*
X51978000Y-74302000D01*
X51958000Y-74302000D01*
X51958000Y-74048000D01*
X51978000Y-74048000D01*
X51978000Y-72873750D01*
X52232000Y-72873750D01*
X52232000Y-74048000D01*
X52881250Y-74048000D01*
X53040000Y-73889250D01*
X53042711Y-73413285D01*
X53073815Y-73451185D01*
X53170506Y-73530537D01*
X53280820Y-73589502D01*
X53400518Y-73625812D01*
X53525000Y-73638072D01*
X53714250Y-73635000D01*
X53873000Y-73476250D01*
X53873000Y-72639500D01*
X54127000Y-72639500D01*
X54127000Y-73476250D01*
X54285750Y-73635000D01*
X54475000Y-73638072D01*
X54599482Y-73625812D01*
X54719180Y-73589502D01*
X54829494Y-73530537D01*
X54926185Y-73451185D01*
X55005537Y-73354494D01*
X55064502Y-73244180D01*
X55100812Y-73124482D01*
X55113072Y-73000000D01*
X56886928Y-73000000D01*
X56899188Y-73124482D01*
X56935498Y-73244180D01*
X56994463Y-73354494D01*
X57073815Y-73451185D01*
X57170506Y-73530537D01*
X57280820Y-73589502D01*
X57400518Y-73625812D01*
X57525000Y-73638072D01*
X57714250Y-73635000D01*
X57873000Y-73476250D01*
X57873000Y-72639500D01*
X58127000Y-72639500D01*
X58127000Y-73476250D01*
X58285750Y-73635000D01*
X58475000Y-73638072D01*
X58599482Y-73625812D01*
X58719180Y-73589502D01*
X58829494Y-73530537D01*
X58926185Y-73451185D01*
X59005537Y-73354494D01*
X59007939Y-73350000D01*
X59256928Y-73350000D01*
X59260000Y-73889250D01*
X59418750Y-74048000D01*
X60068000Y-74048000D01*
X60068000Y-72873750D01*
X59909250Y-72715000D01*
X59895000Y-72711928D01*
X59770518Y-72724188D01*
X59650820Y-72760498D01*
X59540506Y-72819463D01*
X59443815Y-72898815D01*
X59364463Y-72995506D01*
X59305498Y-73105820D01*
X59269188Y-73225518D01*
X59256928Y-73350000D01*
X59007939Y-73350000D01*
X59064502Y-73244180D01*
X59100812Y-73124482D01*
X59113072Y-73000000D01*
X59110000Y-72798250D01*
X58951250Y-72639500D01*
X58127000Y-72639500D01*
X57873000Y-72639500D01*
X57048750Y-72639500D01*
X56890000Y-72798250D01*
X56886928Y-73000000D01*
X55113072Y-73000000D01*
X55110000Y-72798250D01*
X54951250Y-72639500D01*
X54127000Y-72639500D01*
X53873000Y-72639500D01*
X53048750Y-72639500D01*
X52890000Y-72798250D01*
X52887881Y-72937436D01*
X52856185Y-72898815D01*
X52759494Y-72819463D01*
X52649180Y-72760498D01*
X52529482Y-72724188D01*
X52405000Y-72711928D01*
X52390750Y-72715000D01*
X52232000Y-72873750D01*
X51978000Y-72873750D01*
X51819250Y-72715000D01*
X51805000Y-72711928D01*
X51680518Y-72724188D01*
X51595000Y-72750130D01*
X51595000Y-71495000D01*
X53092804Y-71495000D01*
X53123812Y-71532783D01*
X53073815Y-71573815D01*
X52994463Y-71670506D01*
X52935498Y-71780820D01*
X52899188Y-71900518D01*
X52886928Y-72025000D01*
X52890000Y-72226750D01*
X53048750Y-72385500D01*
X53873000Y-72385500D01*
X53873000Y-72365500D01*
X54127000Y-72365500D01*
X54127000Y-72385500D01*
X54951250Y-72385500D01*
X55110000Y-72226750D01*
X55113072Y-72025000D01*
X55100812Y-71900518D01*
X55064502Y-71780820D01*
X55005537Y-71670506D01*
X54926185Y-71573815D01*
X54876188Y-71532783D01*
X54965512Y-71423942D01*
X55046423Y-71272567D01*
X55096248Y-71108316D01*
X55113072Y-70937500D01*
X55113072Y-70437500D01*
X55096248Y-70266684D01*
X55046423Y-70102433D01*
X55023742Y-70060000D01*
X56976258Y-70060000D01*
X56953577Y-70102433D01*
G37*
G04 #@! TD.AperFunction*
D23*
X58740000Y-56814802D02*
X58740001Y-62862668D01*
X58736324Y-62900000D01*
X58750998Y-63048985D01*
X58794454Y-63192246D01*
X58865026Y-63324276D01*
X58926106Y-63398701D01*
X58960000Y-63440001D01*
X58988998Y-63463799D01*
X61478335Y-65953137D01*
X61477161Y-65954099D01*
X61404494Y-65894463D01*
X61294180Y-65835498D01*
X61174482Y-65799188D01*
X61050000Y-65786928D01*
X60810750Y-65790000D01*
X60652000Y-65948750D01*
X60652000Y-66773000D01*
X60672000Y-66773000D01*
X60672000Y-67027000D01*
X60652000Y-67027000D01*
X60652000Y-67851250D01*
X60810750Y-68010000D01*
X61050000Y-68013072D01*
X61174482Y-68000812D01*
X61294180Y-67964502D01*
X61404494Y-67905537D01*
X61477161Y-67845901D01*
X61501058Y-67865512D01*
X61652433Y-67946423D01*
X61816684Y-67996248D01*
X61975001Y-68011841D01*
X61975001Y-69900199D01*
X61063804Y-68989002D01*
X61040001Y-68959999D01*
X60924276Y-68865026D01*
X60792247Y-68794454D01*
X60648986Y-68750997D01*
X60537333Y-68740000D01*
X60537322Y-68740000D01*
X60500000Y-68736324D01*
X60462678Y-68740000D01*
X58315632Y-68740000D01*
X58224276Y-68665026D01*
X58092247Y-68594454D01*
X57948986Y-68550997D01*
X57837333Y-68540000D01*
X57837322Y-68540000D01*
X57800000Y-68536324D01*
X57762678Y-68540000D01*
X57634801Y-68540000D01*
X58123502Y-68051299D01*
X58152501Y-68027501D01*
X58235820Y-67925977D01*
X58348942Y-67865512D01*
X58481623Y-67756623D01*
X58590512Y-67623942D01*
X58671423Y-67472567D01*
X58701019Y-67375000D01*
X59361928Y-67375000D01*
X59374188Y-67499482D01*
X59410498Y-67619180D01*
X59469463Y-67729494D01*
X59548815Y-67826185D01*
X59645506Y-67905537D01*
X59755820Y-67964502D01*
X59875518Y-68000812D01*
X60000000Y-68013072D01*
X60239250Y-68010000D01*
X60398000Y-67851250D01*
X60398000Y-67027000D01*
X59523750Y-67027000D01*
X59365000Y-67185750D01*
X59361928Y-67375000D01*
X58701019Y-67375000D01*
X58721248Y-67308316D01*
X58738072Y-67137500D01*
X58738072Y-66662500D01*
X58721248Y-66491684D01*
X58701020Y-66425000D01*
X59361928Y-66425000D01*
X59365000Y-66614250D01*
X59523750Y-66773000D01*
X60398000Y-66773000D01*
X60398000Y-65948750D01*
X60239250Y-65790000D01*
X60000000Y-65786928D01*
X59875518Y-65799188D01*
X59755820Y-65835498D01*
X59645506Y-65894463D01*
X59548815Y-65973815D01*
X59469463Y-66070506D01*
X59410498Y-66180820D01*
X59374188Y-66300518D01*
X59361928Y-66425000D01*
X58701020Y-66425000D01*
X58671423Y-66327433D01*
X58590512Y-66176058D01*
X58481623Y-66043377D01*
X58372500Y-65953822D01*
X58372500Y-64946178D01*
X58481623Y-64856623D01*
X58590512Y-64723942D01*
X58671423Y-64572567D01*
X58721248Y-64408316D01*
X58738072Y-64237500D01*
X58738072Y-63762500D01*
X58721248Y-63591684D01*
X58671423Y-63427433D01*
X58590512Y-63276058D01*
X58481623Y-63143377D01*
X58348942Y-63034488D01*
X58335000Y-63027036D01*
X58335000Y-61972964D01*
X58348942Y-61965512D01*
X58481623Y-61856623D01*
X58590512Y-61723942D01*
X58671423Y-61572567D01*
X58721248Y-61408316D01*
X58738072Y-61237500D01*
X58738072Y-60762500D01*
X58721248Y-60591684D01*
X58671423Y-60427433D01*
X58590512Y-60276058D01*
X58481623Y-60143377D01*
X58348942Y-60034488D01*
X58335000Y-60027036D01*
X58335000Y-59072964D01*
X58348942Y-59065512D01*
X58481623Y-58956623D01*
X58590512Y-58823942D01*
X58671423Y-58672567D01*
X58721248Y-58508316D01*
X58738072Y-58337500D01*
X58738072Y-57862500D01*
X58721248Y-57691684D01*
X58671423Y-57527433D01*
X58590512Y-57376058D01*
X58481623Y-57243377D01*
X58348942Y-57134488D01*
X58197567Y-57053577D01*
X58033316Y-57003752D01*
X57862500Y-56986928D01*
X57287500Y-56986928D01*
X57116684Y-57003752D01*
X56952433Y-57053577D01*
X56801058Y-57134488D01*
X56700000Y-57217425D01*
X56598942Y-57134488D01*
X56447567Y-57053577D01*
X56283316Y-57003752D01*
X56112500Y-56986928D01*
X55537500Y-56986928D01*
X55366684Y-57003752D01*
X55202433Y-57053577D01*
X55051058Y-57134488D01*
X54918377Y-57243377D01*
X54873212Y-57298410D01*
X52811403Y-55236602D01*
X53314250Y-55235000D01*
X53473000Y-55076250D01*
X53473000Y-54227000D01*
X53727000Y-54227000D01*
X53727000Y-55076250D01*
X53885750Y-55235000D01*
X54850000Y-55238072D01*
X54974482Y-55225812D01*
X55094180Y-55189502D01*
X55204494Y-55130537D01*
X55301185Y-55051185D01*
X55380537Y-54954494D01*
X55439502Y-54844180D01*
X55475812Y-54724482D01*
X55488072Y-54600000D01*
X55485000Y-54385750D01*
X55326250Y-54227000D01*
X53727000Y-54227000D01*
X53473000Y-54227000D01*
X53453000Y-54227000D01*
X53453000Y-53973000D01*
X53473000Y-53973000D01*
X53473000Y-53953000D01*
X53727000Y-53953000D01*
X53727000Y-53973000D01*
X55326250Y-53973000D01*
X55485000Y-53814250D01*
X55488072Y-53600000D01*
X55484016Y-53558817D01*
X58740000Y-56814802D01*
G04 #@! TA.AperFunction,Conductor*
D24*
G36*
X58740000Y-56814802D02*
G01*
X58740001Y-62862668D01*
X58736324Y-62900000D01*
X58750998Y-63048985D01*
X58794454Y-63192246D01*
X58865026Y-63324276D01*
X58926106Y-63398701D01*
X58960000Y-63440001D01*
X58988998Y-63463799D01*
X61478335Y-65953137D01*
X61477161Y-65954099D01*
X61404494Y-65894463D01*
X61294180Y-65835498D01*
X61174482Y-65799188D01*
X61050000Y-65786928D01*
X60810750Y-65790000D01*
X60652000Y-65948750D01*
X60652000Y-66773000D01*
X60672000Y-66773000D01*
X60672000Y-67027000D01*
X60652000Y-67027000D01*
X60652000Y-67851250D01*
X60810750Y-68010000D01*
X61050000Y-68013072D01*
X61174482Y-68000812D01*
X61294180Y-67964502D01*
X61404494Y-67905537D01*
X61477161Y-67845901D01*
X61501058Y-67865512D01*
X61652433Y-67946423D01*
X61816684Y-67996248D01*
X61975001Y-68011841D01*
X61975001Y-69900199D01*
X61063804Y-68989002D01*
X61040001Y-68959999D01*
X60924276Y-68865026D01*
X60792247Y-68794454D01*
X60648986Y-68750997D01*
X60537333Y-68740000D01*
X60537322Y-68740000D01*
X60500000Y-68736324D01*
X60462678Y-68740000D01*
X58315632Y-68740000D01*
X58224276Y-68665026D01*
X58092247Y-68594454D01*
X57948986Y-68550997D01*
X57837333Y-68540000D01*
X57837322Y-68540000D01*
X57800000Y-68536324D01*
X57762678Y-68540000D01*
X57634801Y-68540000D01*
X58123502Y-68051299D01*
X58152501Y-68027501D01*
X58235820Y-67925977D01*
X58348942Y-67865512D01*
X58481623Y-67756623D01*
X58590512Y-67623942D01*
X58671423Y-67472567D01*
X58701019Y-67375000D01*
X59361928Y-67375000D01*
X59374188Y-67499482D01*
X59410498Y-67619180D01*
X59469463Y-67729494D01*
X59548815Y-67826185D01*
X59645506Y-67905537D01*
X59755820Y-67964502D01*
X59875518Y-68000812D01*
X60000000Y-68013072D01*
X60239250Y-68010000D01*
X60398000Y-67851250D01*
X60398000Y-67027000D01*
X59523750Y-67027000D01*
X59365000Y-67185750D01*
X59361928Y-67375000D01*
X58701019Y-67375000D01*
X58721248Y-67308316D01*
X58738072Y-67137500D01*
X58738072Y-66662500D01*
X58721248Y-66491684D01*
X58701020Y-66425000D01*
X59361928Y-66425000D01*
X59365000Y-66614250D01*
X59523750Y-66773000D01*
X60398000Y-66773000D01*
X60398000Y-65948750D01*
X60239250Y-65790000D01*
X60000000Y-65786928D01*
X59875518Y-65799188D01*
X59755820Y-65835498D01*
X59645506Y-65894463D01*
X59548815Y-65973815D01*
X59469463Y-66070506D01*
X59410498Y-66180820D01*
X59374188Y-66300518D01*
X59361928Y-66425000D01*
X58701020Y-66425000D01*
X58671423Y-66327433D01*
X58590512Y-66176058D01*
X58481623Y-66043377D01*
X58372500Y-65953822D01*
X58372500Y-64946178D01*
X58481623Y-64856623D01*
X58590512Y-64723942D01*
X58671423Y-64572567D01*
X58721248Y-64408316D01*
X58738072Y-64237500D01*
X58738072Y-63762500D01*
X58721248Y-63591684D01*
X58671423Y-63427433D01*
X58590512Y-63276058D01*
X58481623Y-63143377D01*
X58348942Y-63034488D01*
X58335000Y-63027036D01*
X58335000Y-61972964D01*
X58348942Y-61965512D01*
X58481623Y-61856623D01*
X58590512Y-61723942D01*
X58671423Y-61572567D01*
X58721248Y-61408316D01*
X58738072Y-61237500D01*
X58738072Y-60762500D01*
X58721248Y-60591684D01*
X58671423Y-60427433D01*
X58590512Y-60276058D01*
X58481623Y-60143377D01*
X58348942Y-60034488D01*
X58335000Y-60027036D01*
X58335000Y-59072964D01*
X58348942Y-59065512D01*
X58481623Y-58956623D01*
X58590512Y-58823942D01*
X58671423Y-58672567D01*
X58721248Y-58508316D01*
X58738072Y-58337500D01*
X58738072Y-57862500D01*
X58721248Y-57691684D01*
X58671423Y-57527433D01*
X58590512Y-57376058D01*
X58481623Y-57243377D01*
X58348942Y-57134488D01*
X58197567Y-57053577D01*
X58033316Y-57003752D01*
X57862500Y-56986928D01*
X57287500Y-56986928D01*
X57116684Y-57003752D01*
X56952433Y-57053577D01*
X56801058Y-57134488D01*
X56700000Y-57217425D01*
X56598942Y-57134488D01*
X56447567Y-57053577D01*
X56283316Y-57003752D01*
X56112500Y-56986928D01*
X55537500Y-56986928D01*
X55366684Y-57003752D01*
X55202433Y-57053577D01*
X55051058Y-57134488D01*
X54918377Y-57243377D01*
X54873212Y-57298410D01*
X52811403Y-55236602D01*
X53314250Y-55235000D01*
X53473000Y-55076250D01*
X53473000Y-54227000D01*
X53727000Y-54227000D01*
X53727000Y-55076250D01*
X53885750Y-55235000D01*
X54850000Y-55238072D01*
X54974482Y-55225812D01*
X55094180Y-55189502D01*
X55204494Y-55130537D01*
X55301185Y-55051185D01*
X55380537Y-54954494D01*
X55439502Y-54844180D01*
X55475812Y-54724482D01*
X55488072Y-54600000D01*
X55485000Y-54385750D01*
X55326250Y-54227000D01*
X53727000Y-54227000D01*
X53473000Y-54227000D01*
X53453000Y-54227000D01*
X53453000Y-53973000D01*
X53473000Y-53973000D01*
X53473000Y-53953000D01*
X53727000Y-53953000D01*
X53727000Y-53973000D01*
X55326250Y-53973000D01*
X55485000Y-53814250D01*
X55488072Y-53600000D01*
X55484016Y-53558817D01*
X58740000Y-56814802D01*
G37*
G04 #@! TD.AperFunction*
D23*
X54661928Y-66849230D02*
X54661928Y-67137500D01*
X54678752Y-67308316D01*
X54718698Y-67440000D01*
X51694802Y-67440000D01*
X50741209Y-66486408D01*
X50785000Y-66266260D01*
X50785000Y-65973740D01*
X50727932Y-65686842D01*
X50615990Y-65416589D01*
X50453475Y-65173368D01*
X50246632Y-64966525D01*
X50072240Y-64850000D01*
X50246632Y-64733475D01*
X50453475Y-64526632D01*
X50578178Y-64340000D01*
X52152699Y-64340000D01*
X54661928Y-66849230D01*
G04 #@! TA.AperFunction,Conductor*
D24*
G36*
X54661928Y-66849230D02*
G01*
X54661928Y-67137500D01*
X54678752Y-67308316D01*
X54718698Y-67440000D01*
X51694802Y-67440000D01*
X50741209Y-66486408D01*
X50785000Y-66266260D01*
X50785000Y-65973740D01*
X50727932Y-65686842D01*
X50615990Y-65416589D01*
X50453475Y-65173368D01*
X50246632Y-64966525D01*
X50072240Y-64850000D01*
X50246632Y-64733475D01*
X50453475Y-64526632D01*
X50578178Y-64340000D01*
X52152699Y-64340000D01*
X54661928Y-66849230D01*
G37*
G04 #@! TD.AperFunction*
D23*
X47216205Y-64091008D02*
X47239999Y-64120001D01*
X47268992Y-64143795D01*
X47268996Y-64143799D01*
X47303968Y-64172499D01*
X47355724Y-64214974D01*
X47487753Y-64285546D01*
X47631014Y-64329003D01*
X47742667Y-64340000D01*
X47742676Y-64340000D01*
X47779999Y-64343676D01*
X47817322Y-64340000D01*
X48021822Y-64340000D01*
X48146525Y-64526632D01*
X48353368Y-64733475D01*
X48527760Y-64850000D01*
X48353368Y-64966525D01*
X48146525Y-65173368D01*
X47984010Y-65416589D01*
X47872068Y-65686842D01*
X47815000Y-65973740D01*
X47815000Y-66266260D01*
X47872068Y-66553158D01*
X47984010Y-66823411D01*
X48146525Y-67066632D01*
X48353368Y-67273475D01*
X48596589Y-67435990D01*
X48606270Y-67440000D01*
X45202302Y-67440000D01*
X44765253Y-67002952D01*
X44833316Y-66996248D01*
X44997567Y-66946423D01*
X45148942Y-66865512D01*
X45281623Y-66756623D01*
X45390512Y-66623942D01*
X45471423Y-66472567D01*
X45521248Y-66308316D01*
X45538072Y-66137500D01*
X45538072Y-65849229D01*
X46111003Y-65276299D01*
X46140001Y-65252501D01*
X46234974Y-65136776D01*
X46305546Y-65004747D01*
X46349003Y-64861486D01*
X46360000Y-64749833D01*
X46363677Y-64712500D01*
X46360000Y-64675167D01*
X46360000Y-63234802D01*
X47216205Y-64091008D01*
G04 #@! TA.AperFunction,Conductor*
D24*
G36*
X47216205Y-64091008D02*
G01*
X47239999Y-64120001D01*
X47268992Y-64143795D01*
X47268996Y-64143799D01*
X47303968Y-64172499D01*
X47355724Y-64214974D01*
X47487753Y-64285546D01*
X47631014Y-64329003D01*
X47742667Y-64340000D01*
X47742676Y-64340000D01*
X47779999Y-64343676D01*
X47817322Y-64340000D01*
X48021822Y-64340000D01*
X48146525Y-64526632D01*
X48353368Y-64733475D01*
X48527760Y-64850000D01*
X48353368Y-64966525D01*
X48146525Y-65173368D01*
X47984010Y-65416589D01*
X47872068Y-65686842D01*
X47815000Y-65973740D01*
X47815000Y-66266260D01*
X47872068Y-66553158D01*
X47984010Y-66823411D01*
X48146525Y-67066632D01*
X48353368Y-67273475D01*
X48596589Y-67435990D01*
X48606270Y-67440000D01*
X45202302Y-67440000D01*
X44765253Y-67002952D01*
X44833316Y-66996248D01*
X44997567Y-66946423D01*
X45148942Y-66865512D01*
X45281623Y-66756623D01*
X45390512Y-66623942D01*
X45471423Y-66472567D01*
X45521248Y-66308316D01*
X45538072Y-66137500D01*
X45538072Y-65849229D01*
X46111003Y-65276299D01*
X46140001Y-65252501D01*
X46234974Y-65136776D01*
X46305546Y-65004747D01*
X46349003Y-64861486D01*
X46360000Y-64749833D01*
X46363677Y-64712500D01*
X46360000Y-64675167D01*
X46360000Y-63234802D01*
X47216205Y-64091008D01*
G37*
G04 #@! TD.AperFunction*
D23*
X51898815Y-39148815D02*
X51819463Y-39245506D01*
X51768954Y-39340000D01*
X49437325Y-39340000D01*
X49400000Y-39336324D01*
X49362675Y-39340000D01*
X49362667Y-39340000D01*
X49251014Y-39350997D01*
X49107753Y-39394454D01*
X48975724Y-39465026D01*
X48859999Y-39559999D01*
X48836201Y-39588997D01*
X44488998Y-43936201D01*
X44460000Y-43959999D01*
X44436202Y-43988997D01*
X44436201Y-43988998D01*
X44365026Y-44075724D01*
X44294454Y-44207754D01*
X44281947Y-44248986D01*
X44250998Y-44351014D01*
X44243738Y-44424729D01*
X44236324Y-44500000D01*
X44240001Y-44537333D01*
X44240000Y-55782851D01*
X44090256Y-55682795D01*
X43901898Y-55604774D01*
X43701939Y-55565000D01*
X43498061Y-55565000D01*
X43298102Y-55604774D01*
X43109744Y-55682795D01*
X42940226Y-55796063D01*
X42796063Y-55940226D01*
X42682795Y-56109744D01*
X42604774Y-56298102D01*
X42565000Y-56498061D01*
X42565000Y-56701939D01*
X42604774Y-56901898D01*
X42682795Y-57090256D01*
X42759540Y-57205113D01*
X42743377Y-57218377D01*
X42634488Y-57351058D01*
X42553577Y-57502433D01*
X42503752Y-57666684D01*
X42486928Y-57837500D01*
X42486928Y-58412500D01*
X42503752Y-58583316D01*
X42553577Y-58747567D01*
X42634488Y-58898942D01*
X42717425Y-59000000D01*
X42634488Y-59101058D01*
X42553577Y-59252433D01*
X42503752Y-59416684D01*
X42486928Y-59587500D01*
X42486928Y-60162500D01*
X42503752Y-60333316D01*
X42553577Y-60497567D01*
X42634488Y-60648942D01*
X42743377Y-60781623D01*
X42840000Y-60860920D01*
X42840000Y-61085198D01*
X42076498Y-61848701D01*
X42047500Y-61872499D01*
X42023702Y-61901497D01*
X42023701Y-61901498D01*
X41964180Y-61974023D01*
X41851058Y-62034488D01*
X41718377Y-62143377D01*
X41609488Y-62276058D01*
X41528577Y-62427433D01*
X41478752Y-62591684D01*
X41461928Y-62762500D01*
X41461928Y-63237500D01*
X41478752Y-63408316D01*
X41528577Y-63572567D01*
X41609488Y-63723942D01*
X41718377Y-63856623D01*
X41827501Y-63946179D01*
X41827500Y-64953821D01*
X41718377Y-65043377D01*
X41609488Y-65176058D01*
X41528577Y-65327433D01*
X41478752Y-65491684D01*
X41461928Y-65662500D01*
X41461928Y-66137500D01*
X41467350Y-66192548D01*
X41060000Y-65785199D01*
X41060000Y-62114801D01*
X42111003Y-61063799D01*
X42140001Y-61040001D01*
X42234974Y-60924276D01*
X42305546Y-60792247D01*
X42349003Y-60648986D01*
X42360000Y-60537333D01*
X42360000Y-60537325D01*
X42363676Y-60500000D01*
X42360000Y-60462675D01*
X42360000Y-50437322D01*
X42363676Y-50399999D01*
X42360000Y-50362676D01*
X42360000Y-50362667D01*
X42349003Y-50251014D01*
X42305546Y-50107753D01*
X42234974Y-49975724D01*
X42140001Y-49859999D01*
X42111004Y-49836202D01*
X40288072Y-48013271D01*
X40288072Y-47600000D01*
X40275812Y-47475518D01*
X40239502Y-47355820D01*
X40180537Y-47245506D01*
X40101185Y-47148815D01*
X40041704Y-47100000D01*
X40101185Y-47051185D01*
X40180537Y-46954494D01*
X40239502Y-46844180D01*
X40275812Y-46724482D01*
X40288072Y-46600000D01*
X40288072Y-45860000D01*
X40362678Y-45860000D01*
X40400000Y-45863676D01*
X40437322Y-45860000D01*
X40437333Y-45860000D01*
X40548986Y-45849003D01*
X40692247Y-45805546D01*
X40824276Y-45734974D01*
X40940001Y-45640001D01*
X40963804Y-45610997D01*
X41410998Y-45163803D01*
X41440001Y-45140001D01*
X41534974Y-45024276D01*
X41605546Y-44892247D01*
X41649003Y-44748986D01*
X41660000Y-44637333D01*
X41660000Y-44637325D01*
X41663676Y-44600000D01*
X41660000Y-44562675D01*
X41660000Y-41137333D01*
X41663677Y-41100000D01*
X41649003Y-40951014D01*
X41605546Y-40807753D01*
X41534974Y-40675724D01*
X41463799Y-40588997D01*
X41440001Y-40559999D01*
X41411003Y-40536201D01*
X40463804Y-39589002D01*
X40440001Y-39559999D01*
X40324276Y-39465026D01*
X40262634Y-39432077D01*
X40239502Y-39355820D01*
X40180537Y-39245506D01*
X40101185Y-39148815D01*
X40074603Y-39127000D01*
X51925397Y-39127000D01*
X51898815Y-39148815D01*
G04 #@! TA.AperFunction,Conductor*
D24*
G36*
X51898815Y-39148815D02*
G01*
X51819463Y-39245506D01*
X51768954Y-39340000D01*
X49437325Y-39340000D01*
X49400000Y-39336324D01*
X49362675Y-39340000D01*
X49362667Y-39340000D01*
X49251014Y-39350997D01*
X49107753Y-39394454D01*
X48975724Y-39465026D01*
X48859999Y-39559999D01*
X48836201Y-39588997D01*
X44488998Y-43936201D01*
X44460000Y-43959999D01*
X44436202Y-43988997D01*
X44436201Y-43988998D01*
X44365026Y-44075724D01*
X44294454Y-44207754D01*
X44281947Y-44248986D01*
X44250998Y-44351014D01*
X44243738Y-44424729D01*
X44236324Y-44500000D01*
X44240001Y-44537333D01*
X44240000Y-55782851D01*
X44090256Y-55682795D01*
X43901898Y-55604774D01*
X43701939Y-55565000D01*
X43498061Y-55565000D01*
X43298102Y-55604774D01*
X43109744Y-55682795D01*
X42940226Y-55796063D01*
X42796063Y-55940226D01*
X42682795Y-56109744D01*
X42604774Y-56298102D01*
X42565000Y-56498061D01*
X42565000Y-56701939D01*
X42604774Y-56901898D01*
X42682795Y-57090256D01*
X42759540Y-57205113D01*
X42743377Y-57218377D01*
X42634488Y-57351058D01*
X42553577Y-57502433D01*
X42503752Y-57666684D01*
X42486928Y-57837500D01*
X42486928Y-58412500D01*
X42503752Y-58583316D01*
X42553577Y-58747567D01*
X42634488Y-58898942D01*
X42717425Y-59000000D01*
X42634488Y-59101058D01*
X42553577Y-59252433D01*
X42503752Y-59416684D01*
X42486928Y-59587500D01*
X42486928Y-60162500D01*
X42503752Y-60333316D01*
X42553577Y-60497567D01*
X42634488Y-60648942D01*
X42743377Y-60781623D01*
X42840000Y-60860920D01*
X42840000Y-61085198D01*
X42076498Y-61848701D01*
X42047500Y-61872499D01*
X42023702Y-61901497D01*
X42023701Y-61901498D01*
X41964180Y-61974023D01*
X41851058Y-62034488D01*
X41718377Y-62143377D01*
X41609488Y-62276058D01*
X41528577Y-62427433D01*
X41478752Y-62591684D01*
X41461928Y-62762500D01*
X41461928Y-63237500D01*
X41478752Y-63408316D01*
X41528577Y-63572567D01*
X41609488Y-63723942D01*
X41718377Y-63856623D01*
X41827501Y-63946179D01*
X41827500Y-64953821D01*
X41718377Y-65043377D01*
X41609488Y-65176058D01*
X41528577Y-65327433D01*
X41478752Y-65491684D01*
X41461928Y-65662500D01*
X41461928Y-66137500D01*
X41467350Y-66192548D01*
X41060000Y-65785199D01*
X41060000Y-62114801D01*
X42111003Y-61063799D01*
X42140001Y-61040001D01*
X42234974Y-60924276D01*
X42305546Y-60792247D01*
X42349003Y-60648986D01*
X42360000Y-60537333D01*
X42360000Y-60537325D01*
X42363676Y-60500000D01*
X42360000Y-60462675D01*
X42360000Y-50437322D01*
X42363676Y-50399999D01*
X42360000Y-50362676D01*
X42360000Y-50362667D01*
X42349003Y-50251014D01*
X42305546Y-50107753D01*
X42234974Y-49975724D01*
X42140001Y-49859999D01*
X42111004Y-49836202D01*
X40288072Y-48013271D01*
X40288072Y-47600000D01*
X40275812Y-47475518D01*
X40239502Y-47355820D01*
X40180537Y-47245506D01*
X40101185Y-47148815D01*
X40041704Y-47100000D01*
X40101185Y-47051185D01*
X40180537Y-46954494D01*
X40239502Y-46844180D01*
X40275812Y-46724482D01*
X40288072Y-46600000D01*
X40288072Y-45860000D01*
X40362678Y-45860000D01*
X40400000Y-45863676D01*
X40437322Y-45860000D01*
X40437333Y-45860000D01*
X40548986Y-45849003D01*
X40692247Y-45805546D01*
X40824276Y-45734974D01*
X40940001Y-45640001D01*
X40963804Y-45610997D01*
X41410998Y-45163803D01*
X41440001Y-45140001D01*
X41534974Y-45024276D01*
X41605546Y-44892247D01*
X41649003Y-44748986D01*
X41660000Y-44637333D01*
X41660000Y-44637325D01*
X41663676Y-44600000D01*
X41660000Y-44562675D01*
X41660000Y-41137333D01*
X41663677Y-41100000D01*
X41649003Y-40951014D01*
X41605546Y-40807753D01*
X41534974Y-40675724D01*
X41463799Y-40588997D01*
X41440001Y-40559999D01*
X41411003Y-40536201D01*
X40463804Y-39589002D01*
X40440001Y-39559999D01*
X40324276Y-39465026D01*
X40262634Y-39432077D01*
X40239502Y-39355820D01*
X40180537Y-39245506D01*
X40101185Y-39148815D01*
X40074603Y-39127000D01*
X51925397Y-39127000D01*
X51898815Y-39148815D01*
G37*
G04 #@! TD.AperFunction*
D23*
X54661928Y-63949230D02*
X54661928Y-64237500D01*
X54678752Y-64408316D01*
X54728577Y-64572567D01*
X54809488Y-64723942D01*
X54918377Y-64856623D01*
X55051058Y-64965512D01*
X55202433Y-65046423D01*
X55366684Y-65096248D01*
X55537500Y-65113072D01*
X56037500Y-65113072D01*
X56208316Y-65096248D01*
X56372567Y-65046423D01*
X56523942Y-64965512D01*
X56656623Y-64856623D01*
X56700000Y-64803768D01*
X56743377Y-64856623D01*
X56852500Y-64946178D01*
X56852501Y-65953821D01*
X56743377Y-66043377D01*
X56700000Y-66096232D01*
X56656623Y-66043377D01*
X56523942Y-65934488D01*
X56372567Y-65853577D01*
X56208316Y-65803752D01*
X56037500Y-65786928D01*
X55749230Y-65786928D01*
X53031304Y-63069003D01*
X53007501Y-63039999D01*
X52891776Y-62945026D01*
X52759747Y-62874454D01*
X52616486Y-62830997D01*
X52504833Y-62820000D01*
X52504822Y-62820000D01*
X52467500Y-62816324D01*
X52430178Y-62820000D01*
X50578178Y-62820000D01*
X50453475Y-62633368D01*
X50246632Y-62426525D01*
X50072240Y-62310000D01*
X50246632Y-62193475D01*
X50453475Y-61986632D01*
X50578178Y-61800000D01*
X52512699Y-61800000D01*
X54661928Y-63949230D01*
G04 #@! TA.AperFunction,Conductor*
D24*
G36*
X54661928Y-63949230D02*
G01*
X54661928Y-64237500D01*
X54678752Y-64408316D01*
X54728577Y-64572567D01*
X54809488Y-64723942D01*
X54918377Y-64856623D01*
X55051058Y-64965512D01*
X55202433Y-65046423D01*
X55366684Y-65096248D01*
X55537500Y-65113072D01*
X56037500Y-65113072D01*
X56208316Y-65096248D01*
X56372567Y-65046423D01*
X56523942Y-64965512D01*
X56656623Y-64856623D01*
X56700000Y-64803768D01*
X56743377Y-64856623D01*
X56852500Y-64946178D01*
X56852501Y-65953821D01*
X56743377Y-66043377D01*
X56700000Y-66096232D01*
X56656623Y-66043377D01*
X56523942Y-65934488D01*
X56372567Y-65853577D01*
X56208316Y-65803752D01*
X56037500Y-65786928D01*
X55749230Y-65786928D01*
X53031304Y-63069003D01*
X53007501Y-63039999D01*
X52891776Y-62945026D01*
X52759747Y-62874454D01*
X52616486Y-62830997D01*
X52504833Y-62820000D01*
X52504822Y-62820000D01*
X52467500Y-62816324D01*
X52430178Y-62820000D01*
X50578178Y-62820000D01*
X50453475Y-62633368D01*
X50246632Y-62426525D01*
X50072240Y-62310000D01*
X50246632Y-62193475D01*
X50453475Y-61986632D01*
X50578178Y-61800000D01*
X52512699Y-61800000D01*
X54661928Y-63949230D01*
G37*
G04 #@! TD.AperFunction*
D23*
X33876058Y-55090512D02*
X34027433Y-55171423D01*
X34191684Y-55221248D01*
X34362500Y-55238072D01*
X34837500Y-55238072D01*
X35008316Y-55221248D01*
X35172567Y-55171423D01*
X35287482Y-55110000D01*
X36770482Y-55110000D01*
X36795506Y-55130537D01*
X36905820Y-55189502D01*
X37025518Y-55225812D01*
X37150000Y-55238072D01*
X37390001Y-55238072D01*
X37390001Y-55350383D01*
X37385114Y-55400000D01*
X37404615Y-55597994D01*
X37462368Y-55788379D01*
X37540725Y-55934974D01*
X37556154Y-55963840D01*
X37682368Y-56117633D01*
X37720901Y-56149256D01*
X38315000Y-56743356D01*
X38315000Y-57165649D01*
X38301185Y-57148815D01*
X38204494Y-57069463D01*
X38094180Y-57010498D01*
X37974482Y-56974188D01*
X37850000Y-56961928D01*
X37560750Y-56965000D01*
X37402000Y-57123750D01*
X37402000Y-58173000D01*
X37422000Y-58173000D01*
X37422000Y-58427000D01*
X37402000Y-58427000D01*
X37402000Y-59476250D01*
X37560750Y-59635000D01*
X37850000Y-59638072D01*
X37974482Y-59625812D01*
X38094180Y-59589502D01*
X38204494Y-59530537D01*
X38301185Y-59451185D01*
X38366658Y-59371406D01*
X38372038Y-59377962D01*
X38506613Y-59488405D01*
X38660149Y-59570472D01*
X38826745Y-59621008D01*
X38999999Y-59638072D01*
X39640001Y-59638072D01*
X39640001Y-59685197D01*
X38589003Y-60736196D01*
X38559999Y-60759999D01*
X38531723Y-60794454D01*
X38465026Y-60875724D01*
X38404479Y-60988998D01*
X38394454Y-61007754D01*
X38350997Y-61151015D01*
X38340000Y-61262668D01*
X38340000Y-61262678D01*
X38336324Y-61300000D01*
X38340000Y-61337323D01*
X38340001Y-65511645D01*
X37397519Y-64569163D01*
X37435000Y-64380732D01*
X37435000Y-64019268D01*
X37364482Y-63664750D01*
X37226156Y-63330801D01*
X37025338Y-63030256D01*
X36769744Y-62774662D01*
X36610000Y-62667924D01*
X36610000Y-62109604D01*
X36614886Y-62059999D01*
X36608403Y-61994180D01*
X36595385Y-61862006D01*
X36537632Y-61671620D01*
X36443847Y-61496160D01*
X36317633Y-61342367D01*
X36279094Y-61310739D01*
X35738072Y-60769717D01*
X35738072Y-60499999D01*
X35721008Y-60326745D01*
X35670472Y-60160149D01*
X35588405Y-60006613D01*
X35477962Y-59872038D01*
X35471406Y-59866658D01*
X35551185Y-59801185D01*
X35630537Y-59704494D01*
X35689502Y-59594180D01*
X35725812Y-59474482D01*
X35738072Y-59350000D01*
X35735000Y-59060750D01*
X35674250Y-59000000D01*
X36061928Y-59000000D01*
X36074188Y-59124482D01*
X36110498Y-59244180D01*
X36169463Y-59354494D01*
X36248815Y-59451185D01*
X36345506Y-59530537D01*
X36455820Y-59589502D01*
X36575518Y-59625812D01*
X36700000Y-59638072D01*
X36989250Y-59635000D01*
X37148000Y-59476250D01*
X37148000Y-58427000D01*
X36223750Y-58427000D01*
X36065000Y-58585750D01*
X36061928Y-59000000D01*
X35674250Y-59000000D01*
X35576250Y-58902000D01*
X34527000Y-58902000D01*
X34527000Y-58922000D01*
X34273000Y-58922000D01*
X34273000Y-58902000D01*
X33223750Y-58902000D01*
X33065000Y-59060750D01*
X33061928Y-59350000D01*
X33074188Y-59474482D01*
X33110498Y-59594180D01*
X33169463Y-59704494D01*
X33248815Y-59801185D01*
X33328594Y-59866658D01*
X33322038Y-59872038D01*
X33211595Y-60006613D01*
X33177714Y-60070000D01*
X28090107Y-60070000D01*
X27946632Y-59926525D01*
X27772240Y-59810000D01*
X27946632Y-59693475D01*
X28090107Y-59550000D01*
X28310392Y-59550000D01*
X28360000Y-59554886D01*
X28557994Y-59535385D01*
X28573976Y-59530537D01*
X28748380Y-59477632D01*
X28923840Y-59383847D01*
X29077633Y-59257633D01*
X29109261Y-59219094D01*
X30128355Y-58200000D01*
X33061928Y-58200000D01*
X33065000Y-58489250D01*
X33223750Y-58648000D01*
X34273000Y-58648000D01*
X34273000Y-57723750D01*
X34527000Y-57723750D01*
X34527000Y-58648000D01*
X35576250Y-58648000D01*
X35735000Y-58489250D01*
X35738072Y-58200000D01*
X35725812Y-58075518D01*
X35689502Y-57955820D01*
X35630537Y-57845506D01*
X35551185Y-57748815D01*
X35454494Y-57669463D01*
X35344180Y-57610498D01*
X35309573Y-57600000D01*
X36061928Y-57600000D01*
X36065000Y-58014250D01*
X36223750Y-58173000D01*
X37148000Y-58173000D01*
X37148000Y-57123750D01*
X36989250Y-56965000D01*
X36700000Y-56961928D01*
X36575518Y-56974188D01*
X36455820Y-57010498D01*
X36345506Y-57069463D01*
X36248815Y-57148815D01*
X36169463Y-57245506D01*
X36110498Y-57355820D01*
X36074188Y-57475518D01*
X36061928Y-57600000D01*
X35309573Y-57600000D01*
X35224482Y-57574188D01*
X35100000Y-57561928D01*
X34685750Y-57565000D01*
X34527000Y-57723750D01*
X34273000Y-57723750D01*
X34114250Y-57565000D01*
X33700000Y-57561928D01*
X33575518Y-57574188D01*
X33455820Y-57610498D01*
X33345506Y-57669463D01*
X33248815Y-57748815D01*
X33169463Y-57845506D01*
X33110498Y-57955820D01*
X33074188Y-58075518D01*
X33061928Y-58200000D01*
X30128355Y-58200000D01*
X33243356Y-55085000D01*
X33869342Y-55085000D01*
X33876058Y-55090512D01*
G04 #@! TA.AperFunction,Conductor*
D24*
G36*
X33876058Y-55090512D02*
G01*
X34027433Y-55171423D01*
X34191684Y-55221248D01*
X34362500Y-55238072D01*
X34837500Y-55238072D01*
X35008316Y-55221248D01*
X35172567Y-55171423D01*
X35287482Y-55110000D01*
X36770482Y-55110000D01*
X36795506Y-55130537D01*
X36905820Y-55189502D01*
X37025518Y-55225812D01*
X37150000Y-55238072D01*
X37390001Y-55238072D01*
X37390001Y-55350383D01*
X37385114Y-55400000D01*
X37404615Y-55597994D01*
X37462368Y-55788379D01*
X37540725Y-55934974D01*
X37556154Y-55963840D01*
X37682368Y-56117633D01*
X37720901Y-56149256D01*
X38315000Y-56743356D01*
X38315000Y-57165649D01*
X38301185Y-57148815D01*
X38204494Y-57069463D01*
X38094180Y-57010498D01*
X37974482Y-56974188D01*
X37850000Y-56961928D01*
X37560750Y-56965000D01*
X37402000Y-57123750D01*
X37402000Y-58173000D01*
X37422000Y-58173000D01*
X37422000Y-58427000D01*
X37402000Y-58427000D01*
X37402000Y-59476250D01*
X37560750Y-59635000D01*
X37850000Y-59638072D01*
X37974482Y-59625812D01*
X38094180Y-59589502D01*
X38204494Y-59530537D01*
X38301185Y-59451185D01*
X38366658Y-59371406D01*
X38372038Y-59377962D01*
X38506613Y-59488405D01*
X38660149Y-59570472D01*
X38826745Y-59621008D01*
X38999999Y-59638072D01*
X39640001Y-59638072D01*
X39640001Y-59685197D01*
X38589003Y-60736196D01*
X38559999Y-60759999D01*
X38531723Y-60794454D01*
X38465026Y-60875724D01*
X38404479Y-60988998D01*
X38394454Y-61007754D01*
X38350997Y-61151015D01*
X38340000Y-61262668D01*
X38340000Y-61262678D01*
X38336324Y-61300000D01*
X38340000Y-61337323D01*
X38340001Y-65511645D01*
X37397519Y-64569163D01*
X37435000Y-64380732D01*
X37435000Y-64019268D01*
X37364482Y-63664750D01*
X37226156Y-63330801D01*
X37025338Y-63030256D01*
X36769744Y-62774662D01*
X36610000Y-62667924D01*
X36610000Y-62109604D01*
X36614886Y-62059999D01*
X36608403Y-61994180D01*
X36595385Y-61862006D01*
X36537632Y-61671620D01*
X36443847Y-61496160D01*
X36317633Y-61342367D01*
X36279094Y-61310739D01*
X35738072Y-60769717D01*
X35738072Y-60499999D01*
X35721008Y-60326745D01*
X35670472Y-60160149D01*
X35588405Y-60006613D01*
X35477962Y-59872038D01*
X35471406Y-59866658D01*
X35551185Y-59801185D01*
X35630537Y-59704494D01*
X35689502Y-59594180D01*
X35725812Y-59474482D01*
X35738072Y-59350000D01*
X35735000Y-59060750D01*
X35674250Y-59000000D01*
X36061928Y-59000000D01*
X36074188Y-59124482D01*
X36110498Y-59244180D01*
X36169463Y-59354494D01*
X36248815Y-59451185D01*
X36345506Y-59530537D01*
X36455820Y-59589502D01*
X36575518Y-59625812D01*
X36700000Y-59638072D01*
X36989250Y-59635000D01*
X37148000Y-59476250D01*
X37148000Y-58427000D01*
X36223750Y-58427000D01*
X36065000Y-58585750D01*
X36061928Y-59000000D01*
X35674250Y-59000000D01*
X35576250Y-58902000D01*
X34527000Y-58902000D01*
X34527000Y-58922000D01*
X34273000Y-58922000D01*
X34273000Y-58902000D01*
X33223750Y-58902000D01*
X33065000Y-59060750D01*
X33061928Y-59350000D01*
X33074188Y-59474482D01*
X33110498Y-59594180D01*
X33169463Y-59704494D01*
X33248815Y-59801185D01*
X33328594Y-59866658D01*
X33322038Y-59872038D01*
X33211595Y-60006613D01*
X33177714Y-60070000D01*
X28090107Y-60070000D01*
X27946632Y-59926525D01*
X27772240Y-59810000D01*
X27946632Y-59693475D01*
X28090107Y-59550000D01*
X28310392Y-59550000D01*
X28360000Y-59554886D01*
X28557994Y-59535385D01*
X28573976Y-59530537D01*
X28748380Y-59477632D01*
X28923840Y-59383847D01*
X29077633Y-59257633D01*
X29109261Y-59219094D01*
X30128355Y-58200000D01*
X33061928Y-58200000D01*
X33065000Y-58489250D01*
X33223750Y-58648000D01*
X34273000Y-58648000D01*
X34273000Y-57723750D01*
X34527000Y-57723750D01*
X34527000Y-58648000D01*
X35576250Y-58648000D01*
X35735000Y-58489250D01*
X35738072Y-58200000D01*
X35725812Y-58075518D01*
X35689502Y-57955820D01*
X35630537Y-57845506D01*
X35551185Y-57748815D01*
X35454494Y-57669463D01*
X35344180Y-57610498D01*
X35309573Y-57600000D01*
X36061928Y-57600000D01*
X36065000Y-58014250D01*
X36223750Y-58173000D01*
X37148000Y-58173000D01*
X37148000Y-57123750D01*
X36989250Y-56965000D01*
X36700000Y-56961928D01*
X36575518Y-56974188D01*
X36455820Y-57010498D01*
X36345506Y-57069463D01*
X36248815Y-57148815D01*
X36169463Y-57245506D01*
X36110498Y-57355820D01*
X36074188Y-57475518D01*
X36061928Y-57600000D01*
X35309573Y-57600000D01*
X35224482Y-57574188D01*
X35100000Y-57561928D01*
X34685750Y-57565000D01*
X34527000Y-57723750D01*
X34273000Y-57723750D01*
X34114250Y-57565000D01*
X33700000Y-57561928D01*
X33575518Y-57574188D01*
X33455820Y-57610498D01*
X33345506Y-57669463D01*
X33248815Y-57748815D01*
X33169463Y-57845506D01*
X33110498Y-57955820D01*
X33074188Y-58075518D01*
X33061928Y-58200000D01*
X30128355Y-58200000D01*
X33243356Y-55085000D01*
X33869342Y-55085000D01*
X33876058Y-55090512D01*
G37*
G04 #@! TD.AperFunction*
D23*
X51711928Y-47600000D02*
X51711928Y-47713270D01*
X50489003Y-48936196D01*
X50459999Y-48959999D01*
X50416423Y-49013097D01*
X50365026Y-49075724D01*
X50304210Y-49189502D01*
X50294454Y-49207754D01*
X50250997Y-49351015D01*
X50240000Y-49462668D01*
X50240000Y-49462678D01*
X50236324Y-49500000D01*
X50240000Y-49537323D01*
X50240001Y-55362668D01*
X50236324Y-55400000D01*
X50250998Y-55548985D01*
X50294454Y-55692246D01*
X50365026Y-55824276D01*
X50436201Y-55911002D01*
X50460000Y-55940001D01*
X50488998Y-55963799D01*
X53340000Y-58814802D01*
X53340000Y-59237678D01*
X53336324Y-59275000D01*
X53340000Y-59312322D01*
X53340000Y-59312333D01*
X53350997Y-59423986D01*
X53378143Y-59513475D01*
X53394454Y-59567246D01*
X53465026Y-59699276D01*
X53527766Y-59775724D01*
X53560000Y-59815001D01*
X53588998Y-59838799D01*
X54661928Y-60911730D01*
X54661928Y-61237500D01*
X54678752Y-61408316D01*
X54728577Y-61572567D01*
X54809488Y-61723942D01*
X54918377Y-61856623D01*
X55051058Y-61965512D01*
X55202433Y-62046423D01*
X55366684Y-62096248D01*
X55537500Y-62113072D01*
X56112500Y-62113072D01*
X56283316Y-62096248D01*
X56447567Y-62046423D01*
X56598942Y-61965512D01*
X56700000Y-61882575D01*
X56801058Y-61965512D01*
X56815000Y-61972964D01*
X56815001Y-63084597D01*
X56743377Y-63143377D01*
X56700000Y-63196232D01*
X56656623Y-63143377D01*
X56523942Y-63034488D01*
X56372567Y-62953577D01*
X56208316Y-62903752D01*
X56037500Y-62886928D01*
X55749230Y-62886928D01*
X53391304Y-60529003D01*
X53367501Y-60499999D01*
X53251776Y-60405026D01*
X53119747Y-60334454D01*
X52976486Y-60290997D01*
X52864833Y-60280000D01*
X52864822Y-60280000D01*
X52827500Y-60276324D01*
X52790178Y-60280000D01*
X50578178Y-60280000D01*
X50453475Y-60093368D01*
X50321620Y-59961513D01*
X50394180Y-59939502D01*
X50504494Y-59880537D01*
X50601185Y-59801185D01*
X50680537Y-59704494D01*
X50739502Y-59594180D01*
X50775812Y-59474482D01*
X50788072Y-59350000D01*
X50785000Y-58785750D01*
X50626250Y-58627000D01*
X49427000Y-58627000D01*
X49427000Y-58647000D01*
X49173000Y-58647000D01*
X49173000Y-58627000D01*
X47973750Y-58627000D01*
X47815000Y-58785750D01*
X47811928Y-59350000D01*
X47824188Y-59474482D01*
X47860498Y-59594180D01*
X47919463Y-59704494D01*
X47998815Y-59801185D01*
X48095506Y-59880537D01*
X48205820Y-59939502D01*
X48278380Y-59961513D01*
X48146525Y-60093368D01*
X48021822Y-60280000D01*
X47954802Y-60280000D01*
X47560000Y-59885198D01*
X47560000Y-57650000D01*
X47811928Y-57650000D01*
X47815000Y-58214250D01*
X47973750Y-58373000D01*
X49173000Y-58373000D01*
X49173000Y-57173750D01*
X49427000Y-57173750D01*
X49427000Y-58373000D01*
X50626250Y-58373000D01*
X50785000Y-58214250D01*
X50788072Y-57650000D01*
X50775812Y-57525518D01*
X50739502Y-57405820D01*
X50680537Y-57295506D01*
X50601185Y-57198815D01*
X50504494Y-57119463D01*
X50394180Y-57060498D01*
X50274482Y-57024188D01*
X50150000Y-57011928D01*
X49585750Y-57015000D01*
X49427000Y-57173750D01*
X49173000Y-57173750D01*
X49014250Y-57015000D01*
X48450000Y-57011928D01*
X48325518Y-57024188D01*
X48205820Y-57060498D01*
X48095506Y-57119463D01*
X47998815Y-57198815D01*
X47919463Y-57295506D01*
X47860498Y-57405820D01*
X47824188Y-57525518D01*
X47811928Y-57650000D01*
X47560000Y-57650000D01*
X47560000Y-51714801D01*
X51715984Y-47558818D01*
X51711928Y-47600000D01*
G04 #@! TA.AperFunction,Conductor*
D24*
G36*
X51711928Y-47600000D02*
G01*
X51711928Y-47713270D01*
X50489003Y-48936196D01*
X50459999Y-48959999D01*
X50416423Y-49013097D01*
X50365026Y-49075724D01*
X50304210Y-49189502D01*
X50294454Y-49207754D01*
X50250997Y-49351015D01*
X50240000Y-49462668D01*
X50240000Y-49462678D01*
X50236324Y-49500000D01*
X50240000Y-49537323D01*
X50240001Y-55362668D01*
X50236324Y-55400000D01*
X50250998Y-55548985D01*
X50294454Y-55692246D01*
X50365026Y-55824276D01*
X50436201Y-55911002D01*
X50460000Y-55940001D01*
X50488998Y-55963799D01*
X53340000Y-58814802D01*
X53340000Y-59237678D01*
X53336324Y-59275000D01*
X53340000Y-59312322D01*
X53340000Y-59312333D01*
X53350997Y-59423986D01*
X53378143Y-59513475D01*
X53394454Y-59567246D01*
X53465026Y-59699276D01*
X53527766Y-59775724D01*
X53560000Y-59815001D01*
X53588998Y-59838799D01*
X54661928Y-60911730D01*
X54661928Y-61237500D01*
X54678752Y-61408316D01*
X54728577Y-61572567D01*
X54809488Y-61723942D01*
X54918377Y-61856623D01*
X55051058Y-61965512D01*
X55202433Y-62046423D01*
X55366684Y-62096248D01*
X55537500Y-62113072D01*
X56112500Y-62113072D01*
X56283316Y-62096248D01*
X56447567Y-62046423D01*
X56598942Y-61965512D01*
X56700000Y-61882575D01*
X56801058Y-61965512D01*
X56815000Y-61972964D01*
X56815001Y-63084597D01*
X56743377Y-63143377D01*
X56700000Y-63196232D01*
X56656623Y-63143377D01*
X56523942Y-63034488D01*
X56372567Y-62953577D01*
X56208316Y-62903752D01*
X56037500Y-62886928D01*
X55749230Y-62886928D01*
X53391304Y-60529003D01*
X53367501Y-60499999D01*
X53251776Y-60405026D01*
X53119747Y-60334454D01*
X52976486Y-60290997D01*
X52864833Y-60280000D01*
X52864822Y-60280000D01*
X52827500Y-60276324D01*
X52790178Y-60280000D01*
X50578178Y-60280000D01*
X50453475Y-60093368D01*
X50321620Y-59961513D01*
X50394180Y-59939502D01*
X50504494Y-59880537D01*
X50601185Y-59801185D01*
X50680537Y-59704494D01*
X50739502Y-59594180D01*
X50775812Y-59474482D01*
X50788072Y-59350000D01*
X50785000Y-58785750D01*
X50626250Y-58627000D01*
X49427000Y-58627000D01*
X49427000Y-58647000D01*
X49173000Y-58647000D01*
X49173000Y-58627000D01*
X47973750Y-58627000D01*
X47815000Y-58785750D01*
X47811928Y-59350000D01*
X47824188Y-59474482D01*
X47860498Y-59594180D01*
X47919463Y-59704494D01*
X47998815Y-59801185D01*
X48095506Y-59880537D01*
X48205820Y-59939502D01*
X48278380Y-59961513D01*
X48146525Y-60093368D01*
X48021822Y-60280000D01*
X47954802Y-60280000D01*
X47560000Y-59885198D01*
X47560000Y-57650000D01*
X47811928Y-57650000D01*
X47815000Y-58214250D01*
X47973750Y-58373000D01*
X49173000Y-58373000D01*
X49173000Y-57173750D01*
X49427000Y-57173750D01*
X49427000Y-58373000D01*
X50626250Y-58373000D01*
X50785000Y-58214250D01*
X50788072Y-57650000D01*
X50775812Y-57525518D01*
X50739502Y-57405820D01*
X50680537Y-57295506D01*
X50601185Y-57198815D01*
X50504494Y-57119463D01*
X50394180Y-57060498D01*
X50274482Y-57024188D01*
X50150000Y-57011928D01*
X49585750Y-57015000D01*
X49427000Y-57173750D01*
X49173000Y-57173750D01*
X49014250Y-57015000D01*
X48450000Y-57011928D01*
X48325518Y-57024188D01*
X48205820Y-57060498D01*
X48095506Y-57119463D01*
X47998815Y-57198815D01*
X47919463Y-57295506D01*
X47860498Y-57405820D01*
X47824188Y-57525518D01*
X47811928Y-57650000D01*
X47560000Y-57650000D01*
X47560000Y-51714801D01*
X51715984Y-47558818D01*
X51711928Y-47600000D01*
G37*
G04 #@! TD.AperFunction*
D23*
X60840000Y-55614802D02*
X60840001Y-57081821D01*
X60653368Y-57206525D01*
X60446525Y-57413368D01*
X60284010Y-57656589D01*
X60260000Y-57714555D01*
X60260000Y-56537325D01*
X60263676Y-56500000D01*
X60260000Y-56462675D01*
X60260000Y-56462667D01*
X60249003Y-56351014D01*
X60205546Y-56207753D01*
X60134974Y-56075724D01*
X60040001Y-55959999D01*
X60011004Y-55936202D01*
X55663804Y-51589003D01*
X55640001Y-51559999D01*
X55524276Y-51465026D01*
X55462634Y-51432077D01*
X55439502Y-51355820D01*
X55380537Y-51245506D01*
X55301185Y-51148815D01*
X55241704Y-51100000D01*
X55301185Y-51051185D01*
X55380537Y-50954494D01*
X55439502Y-50844180D01*
X55475812Y-50724482D01*
X55488072Y-50600000D01*
X55488072Y-50262873D01*
X60840000Y-55614802D01*
G04 #@! TA.AperFunction,Conductor*
D24*
G36*
X60840000Y-55614802D02*
G01*
X60840001Y-57081821D01*
X60653368Y-57206525D01*
X60446525Y-57413368D01*
X60284010Y-57656589D01*
X60260000Y-57714555D01*
X60260000Y-56537325D01*
X60263676Y-56500000D01*
X60260000Y-56462675D01*
X60260000Y-56462667D01*
X60249003Y-56351014D01*
X60205546Y-56207753D01*
X60134974Y-56075724D01*
X60040001Y-55959999D01*
X60011004Y-55936202D01*
X55663804Y-51589003D01*
X55640001Y-51559999D01*
X55524276Y-51465026D01*
X55462634Y-51432077D01*
X55439502Y-51355820D01*
X55380537Y-51245506D01*
X55301185Y-51148815D01*
X55241704Y-51100000D01*
X55301185Y-51051185D01*
X55380537Y-50954494D01*
X55439502Y-50844180D01*
X55475812Y-50724482D01*
X55488072Y-50600000D01*
X55488072Y-50262873D01*
X60840000Y-55614802D01*
G37*
G04 #@! TD.AperFunction*
D23*
X58656928Y-49810000D02*
X58669188Y-49934482D01*
X58705498Y-50054180D01*
X58727000Y-50094407D01*
X58727000Y-50286250D01*
X58885750Y-50445000D01*
X58993860Y-50432779D01*
X59073850Y-50406488D01*
X59170518Y-50435812D01*
X59295000Y-50448072D01*
X59805000Y-50448072D01*
X59929482Y-50435812D01*
X60049180Y-50399502D01*
X60159494Y-50340537D01*
X60240000Y-50274467D01*
X60240001Y-52075168D01*
X60236324Y-52112500D01*
X60250998Y-52261485D01*
X60294454Y-52404746D01*
X60365026Y-52536776D01*
X60436201Y-52623502D01*
X60460000Y-52652501D01*
X60488998Y-52676299D01*
X61461928Y-53649230D01*
X61461928Y-53937500D01*
X61478275Y-54103473D01*
X57822873Y-50448072D01*
X57905000Y-50448072D01*
X58029482Y-50435812D01*
X58126150Y-50406488D01*
X58206140Y-50432779D01*
X58314250Y-50445000D01*
X58473000Y-50286250D01*
X58473000Y-50094407D01*
X58494502Y-50054180D01*
X58530812Y-49934482D01*
X58543072Y-49810000D01*
X58543072Y-49360000D01*
X58656928Y-49360000D01*
X58656928Y-49810000D01*
G04 #@! TA.AperFunction,Conductor*
D24*
G36*
X58656928Y-49810000D02*
G01*
X58669188Y-49934482D01*
X58705498Y-50054180D01*
X58727000Y-50094407D01*
X58727000Y-50286250D01*
X58885750Y-50445000D01*
X58993860Y-50432779D01*
X59073850Y-50406488D01*
X59170518Y-50435812D01*
X59295000Y-50448072D01*
X59805000Y-50448072D01*
X59929482Y-50435812D01*
X60049180Y-50399502D01*
X60159494Y-50340537D01*
X60240000Y-50274467D01*
X60240001Y-52075168D01*
X60236324Y-52112500D01*
X60250998Y-52261485D01*
X60294454Y-52404746D01*
X60365026Y-52536776D01*
X60436201Y-52623502D01*
X60460000Y-52652501D01*
X60488998Y-52676299D01*
X61461928Y-53649230D01*
X61461928Y-53937500D01*
X61478275Y-54103473D01*
X57822873Y-50448072D01*
X57905000Y-50448072D01*
X58029482Y-50435812D01*
X58126150Y-50406488D01*
X58206140Y-50432779D01*
X58314250Y-50445000D01*
X58473000Y-50286250D01*
X58473000Y-50094407D01*
X58494502Y-50054180D01*
X58530812Y-49934482D01*
X58543072Y-49810000D01*
X58543072Y-49360000D01*
X58656928Y-49360000D01*
X58656928Y-49810000D01*
G37*
G04 #@! TD.AperFunction*
D23*
X36698815Y-47051185D02*
X36758296Y-47100000D01*
X36698815Y-47148815D01*
X36619463Y-47245506D01*
X36560498Y-47355820D01*
X36524188Y-47475518D01*
X36511928Y-47600000D01*
X36511928Y-48600000D01*
X36524188Y-48724482D01*
X36560498Y-48844180D01*
X36619463Y-48954494D01*
X36698815Y-49051185D01*
X36758296Y-49100000D01*
X36698815Y-49148815D01*
X36619463Y-49245506D01*
X36560498Y-49355820D01*
X36524188Y-49475518D01*
X36511928Y-49600000D01*
X36511928Y-50600000D01*
X36524188Y-50724482D01*
X36560498Y-50844180D01*
X36619463Y-50954494D01*
X36698815Y-51051185D01*
X36758296Y-51100000D01*
X36698815Y-51148815D01*
X36619463Y-51245506D01*
X36560498Y-51355820D01*
X36524188Y-51475518D01*
X36511928Y-51600000D01*
X36511928Y-52600000D01*
X36524188Y-52724482D01*
X36560498Y-52844180D01*
X36619463Y-52954494D01*
X36698815Y-53051185D01*
X36746111Y-53090000D01*
X35665770Y-53090000D01*
X35700812Y-52974482D01*
X35713072Y-52850000D01*
X35710000Y-52610750D01*
X35551250Y-52452000D01*
X34727000Y-52452000D01*
X34727000Y-52472000D01*
X34473000Y-52472000D01*
X34473000Y-52452000D01*
X33648750Y-52452000D01*
X33490000Y-52610750D01*
X33486928Y-52850000D01*
X33499188Y-52974482D01*
X33526646Y-53065000D01*
X33243356Y-53065000D01*
X32031342Y-51852987D01*
X32059664Y-51800000D01*
X33486928Y-51800000D01*
X33490000Y-52039250D01*
X33648750Y-52198000D01*
X34473000Y-52198000D01*
X34473000Y-51323750D01*
X34727000Y-51323750D01*
X34727000Y-52198000D01*
X35551250Y-52198000D01*
X35710000Y-52039250D01*
X35713072Y-51800000D01*
X35700812Y-51675518D01*
X35664502Y-51555820D01*
X35605537Y-51445506D01*
X35526185Y-51348815D01*
X35429494Y-51269463D01*
X35319180Y-51210498D01*
X35199482Y-51174188D01*
X35075000Y-51161928D01*
X34885750Y-51165000D01*
X34727000Y-51323750D01*
X34473000Y-51323750D01*
X34314250Y-51165000D01*
X34125000Y-51161928D01*
X34000518Y-51174188D01*
X33880820Y-51210498D01*
X33770506Y-51269463D01*
X33673815Y-51348815D01*
X33594463Y-51445506D01*
X33535498Y-51555820D01*
X33499188Y-51675518D01*
X33486928Y-51800000D01*
X32059664Y-51800000D01*
X32089502Y-51744180D01*
X32125812Y-51624482D01*
X32138072Y-51500000D01*
X32138072Y-50690283D01*
X33479100Y-49349256D01*
X33517633Y-49317633D01*
X33643847Y-49163840D01*
X33737632Y-48988380D01*
X33795385Y-48797994D01*
X33810000Y-48649608D01*
X33810000Y-48649599D01*
X33814885Y-48600001D01*
X33810000Y-48550403D01*
X33810000Y-47236299D01*
X33876058Y-47290512D01*
X34027433Y-47371423D01*
X34191684Y-47421248D01*
X34362500Y-47438072D01*
X34837500Y-47438072D01*
X35008316Y-47421248D01*
X35172567Y-47371423D01*
X35323942Y-47290512D01*
X35456623Y-47181623D01*
X35565512Y-47048942D01*
X35572964Y-47035000D01*
X36685532Y-47035000D01*
X36698815Y-47051185D01*
G04 #@! TA.AperFunction,Conductor*
D24*
G36*
X36698815Y-47051185D02*
G01*
X36758296Y-47100000D01*
X36698815Y-47148815D01*
X36619463Y-47245506D01*
X36560498Y-47355820D01*
X36524188Y-47475518D01*
X36511928Y-47600000D01*
X36511928Y-48600000D01*
X36524188Y-48724482D01*
X36560498Y-48844180D01*
X36619463Y-48954494D01*
X36698815Y-49051185D01*
X36758296Y-49100000D01*
X36698815Y-49148815D01*
X36619463Y-49245506D01*
X36560498Y-49355820D01*
X36524188Y-49475518D01*
X36511928Y-49600000D01*
X36511928Y-50600000D01*
X36524188Y-50724482D01*
X36560498Y-50844180D01*
X36619463Y-50954494D01*
X36698815Y-51051185D01*
X36758296Y-51100000D01*
X36698815Y-51148815D01*
X36619463Y-51245506D01*
X36560498Y-51355820D01*
X36524188Y-51475518D01*
X36511928Y-51600000D01*
X36511928Y-52600000D01*
X36524188Y-52724482D01*
X36560498Y-52844180D01*
X36619463Y-52954494D01*
X36698815Y-53051185D01*
X36746111Y-53090000D01*
X35665770Y-53090000D01*
X35700812Y-52974482D01*
X35713072Y-52850000D01*
X35710000Y-52610750D01*
X35551250Y-52452000D01*
X34727000Y-52452000D01*
X34727000Y-52472000D01*
X34473000Y-52472000D01*
X34473000Y-52452000D01*
X33648750Y-52452000D01*
X33490000Y-52610750D01*
X33486928Y-52850000D01*
X33499188Y-52974482D01*
X33526646Y-53065000D01*
X33243356Y-53065000D01*
X32031342Y-51852987D01*
X32059664Y-51800000D01*
X33486928Y-51800000D01*
X33490000Y-52039250D01*
X33648750Y-52198000D01*
X34473000Y-52198000D01*
X34473000Y-51323750D01*
X34727000Y-51323750D01*
X34727000Y-52198000D01*
X35551250Y-52198000D01*
X35710000Y-52039250D01*
X35713072Y-51800000D01*
X35700812Y-51675518D01*
X35664502Y-51555820D01*
X35605537Y-51445506D01*
X35526185Y-51348815D01*
X35429494Y-51269463D01*
X35319180Y-51210498D01*
X35199482Y-51174188D01*
X35075000Y-51161928D01*
X34885750Y-51165000D01*
X34727000Y-51323750D01*
X34473000Y-51323750D01*
X34314250Y-51165000D01*
X34125000Y-51161928D01*
X34000518Y-51174188D01*
X33880820Y-51210498D01*
X33770506Y-51269463D01*
X33673815Y-51348815D01*
X33594463Y-51445506D01*
X33535498Y-51555820D01*
X33499188Y-51675518D01*
X33486928Y-51800000D01*
X32059664Y-51800000D01*
X32089502Y-51744180D01*
X32125812Y-51624482D01*
X32138072Y-51500000D01*
X32138072Y-50690283D01*
X33479100Y-49349256D01*
X33517633Y-49317633D01*
X33643847Y-49163840D01*
X33737632Y-48988380D01*
X33795385Y-48797994D01*
X33810000Y-48649608D01*
X33810000Y-48649599D01*
X33814885Y-48600001D01*
X33810000Y-48550403D01*
X33810000Y-47236299D01*
X33876058Y-47290512D01*
X34027433Y-47371423D01*
X34191684Y-47421248D01*
X34362500Y-47438072D01*
X34837500Y-47438072D01*
X35008316Y-47421248D01*
X35172567Y-47371423D01*
X35323942Y-47290512D01*
X35456623Y-47181623D01*
X35565512Y-47048942D01*
X35572964Y-47035000D01*
X36685532Y-47035000D01*
X36698815Y-47051185D01*
G37*
G04 #@! TD.AperFunction*
D23*
X51819463Y-40954494D02*
X51898815Y-41051185D01*
X51958296Y-41100000D01*
X51898815Y-41148815D01*
X51819463Y-41245506D01*
X51769303Y-41339347D01*
X51762676Y-41340000D01*
X51762667Y-41340000D01*
X51651014Y-41350997D01*
X51515032Y-41392246D01*
X51507753Y-41394454D01*
X51375723Y-41465026D01*
X51292083Y-41533668D01*
X51259999Y-41559999D01*
X51236201Y-41588997D01*
X45760000Y-47065199D01*
X45760000Y-44814801D01*
X49714802Y-40860000D01*
X51768954Y-40860000D01*
X51819463Y-40954494D01*
G04 #@! TA.AperFunction,Conductor*
D24*
G36*
X51819463Y-40954494D02*
G01*
X51898815Y-41051185D01*
X51958296Y-41100000D01*
X51898815Y-41148815D01*
X51819463Y-41245506D01*
X51769303Y-41339347D01*
X51762676Y-41340000D01*
X51762667Y-41340000D01*
X51651014Y-41350997D01*
X51515032Y-41392246D01*
X51507753Y-41394454D01*
X51375723Y-41465026D01*
X51292083Y-41533668D01*
X51259999Y-41559999D01*
X51236201Y-41588997D01*
X45760000Y-47065199D01*
X45760000Y-44814801D01*
X49714802Y-40860000D01*
X51768954Y-40860000D01*
X51819463Y-40954494D01*
G37*
G04 #@! TD.AperFunction*
D23*
X62440001Y-41814803D02*
X62440000Y-42985198D01*
X59360000Y-46065199D01*
X59360000Y-45712110D01*
X59414850Y-45695472D01*
X59568386Y-45613405D01*
X59702962Y-45502962D01*
X59813405Y-45368386D01*
X59895472Y-45214850D01*
X59946008Y-45048254D01*
X59963072Y-44875000D01*
X59963072Y-44200000D01*
X59946008Y-44026746D01*
X59895472Y-43860150D01*
X59813405Y-43706614D01*
X59702962Y-43572038D01*
X59696406Y-43566658D01*
X59776185Y-43501185D01*
X59855537Y-43404494D01*
X59914502Y-43294180D01*
X59950812Y-43174482D01*
X59963072Y-43050000D01*
X59960000Y-42748250D01*
X59801250Y-42589500D01*
X58727000Y-42589500D01*
X58727000Y-42609500D01*
X58473000Y-42609500D01*
X58473000Y-42589500D01*
X57398750Y-42589500D01*
X57240000Y-42748250D01*
X57236928Y-43050000D01*
X57249188Y-43174482D01*
X57285498Y-43294180D01*
X57344463Y-43404494D01*
X57423815Y-43501185D01*
X57503594Y-43566658D01*
X57497038Y-43572038D01*
X57386595Y-43706614D01*
X57304528Y-43860150D01*
X57253992Y-44026746D01*
X57236928Y-44200000D01*
X57236928Y-44875000D01*
X57253992Y-45048254D01*
X57304528Y-45214850D01*
X57386595Y-45368386D01*
X57497038Y-45502962D01*
X57631614Y-45613405D01*
X57785150Y-45695472D01*
X57840000Y-45712111D01*
X57840001Y-46151928D01*
X57736730Y-46151928D01*
X56960000Y-45375199D01*
X56960000Y-43037322D01*
X56963676Y-42999999D01*
X56960000Y-42962676D01*
X56960000Y-42962667D01*
X56949003Y-42851014D01*
X56905546Y-42707753D01*
X56834974Y-42575724D01*
X56740001Y-42459999D01*
X56711004Y-42436202D01*
X56149802Y-41875000D01*
X57236928Y-41875000D01*
X57240000Y-42176750D01*
X57398750Y-42335500D01*
X58473000Y-42335500D01*
X58473000Y-41398750D01*
X58727000Y-41398750D01*
X58727000Y-42335500D01*
X59801250Y-42335500D01*
X59960000Y-42176750D01*
X59963072Y-41875000D01*
X59950812Y-41750518D01*
X59914502Y-41630820D01*
X59855537Y-41520506D01*
X59776185Y-41423815D01*
X59679494Y-41344463D01*
X59569180Y-41285498D01*
X59449482Y-41249188D01*
X59325000Y-41236928D01*
X58885750Y-41240000D01*
X58727000Y-41398750D01*
X58473000Y-41398750D01*
X58314250Y-41240000D01*
X57875000Y-41236928D01*
X57750518Y-41249188D01*
X57630820Y-41285498D01*
X57520506Y-41344463D01*
X57423815Y-41423815D01*
X57344463Y-41520506D01*
X57285498Y-41630820D01*
X57249188Y-41750518D01*
X57236928Y-41875000D01*
X56149802Y-41875000D01*
X55863803Y-41589002D01*
X55840001Y-41559999D01*
X55724276Y-41465026D01*
X55592247Y-41394454D01*
X55448986Y-41350997D01*
X55436254Y-41349743D01*
X55380537Y-41245506D01*
X55301185Y-41148815D01*
X55241704Y-41100000D01*
X55301185Y-41051185D01*
X55380537Y-40954494D01*
X55431046Y-40860000D01*
X61485199Y-40860000D01*
X62440001Y-41814803D01*
G04 #@! TA.AperFunction,Conductor*
D24*
G36*
X62440001Y-41814803D02*
G01*
X62440000Y-42985198D01*
X59360000Y-46065199D01*
X59360000Y-45712110D01*
X59414850Y-45695472D01*
X59568386Y-45613405D01*
X59702962Y-45502962D01*
X59813405Y-45368386D01*
X59895472Y-45214850D01*
X59946008Y-45048254D01*
X59963072Y-44875000D01*
X59963072Y-44200000D01*
X59946008Y-44026746D01*
X59895472Y-43860150D01*
X59813405Y-43706614D01*
X59702962Y-43572038D01*
X59696406Y-43566658D01*
X59776185Y-43501185D01*
X59855537Y-43404494D01*
X59914502Y-43294180D01*
X59950812Y-43174482D01*
X59963072Y-43050000D01*
X59960000Y-42748250D01*
X59801250Y-42589500D01*
X58727000Y-42589500D01*
X58727000Y-42609500D01*
X58473000Y-42609500D01*
X58473000Y-42589500D01*
X57398750Y-42589500D01*
X57240000Y-42748250D01*
X57236928Y-43050000D01*
X57249188Y-43174482D01*
X57285498Y-43294180D01*
X57344463Y-43404494D01*
X57423815Y-43501185D01*
X57503594Y-43566658D01*
X57497038Y-43572038D01*
X57386595Y-43706614D01*
X57304528Y-43860150D01*
X57253992Y-44026746D01*
X57236928Y-44200000D01*
X57236928Y-44875000D01*
X57253992Y-45048254D01*
X57304528Y-45214850D01*
X57386595Y-45368386D01*
X57497038Y-45502962D01*
X57631614Y-45613405D01*
X57785150Y-45695472D01*
X57840000Y-45712111D01*
X57840001Y-46151928D01*
X57736730Y-46151928D01*
X56960000Y-45375199D01*
X56960000Y-43037322D01*
X56963676Y-42999999D01*
X56960000Y-42962676D01*
X56960000Y-42962667D01*
X56949003Y-42851014D01*
X56905546Y-42707753D01*
X56834974Y-42575724D01*
X56740001Y-42459999D01*
X56711004Y-42436202D01*
X56149802Y-41875000D01*
X57236928Y-41875000D01*
X57240000Y-42176750D01*
X57398750Y-42335500D01*
X58473000Y-42335500D01*
X58473000Y-41398750D01*
X58727000Y-41398750D01*
X58727000Y-42335500D01*
X59801250Y-42335500D01*
X59960000Y-42176750D01*
X59963072Y-41875000D01*
X59950812Y-41750518D01*
X59914502Y-41630820D01*
X59855537Y-41520506D01*
X59776185Y-41423815D01*
X59679494Y-41344463D01*
X59569180Y-41285498D01*
X59449482Y-41249188D01*
X59325000Y-41236928D01*
X58885750Y-41240000D01*
X58727000Y-41398750D01*
X58473000Y-41398750D01*
X58314250Y-41240000D01*
X57875000Y-41236928D01*
X57750518Y-41249188D01*
X57630820Y-41285498D01*
X57520506Y-41344463D01*
X57423815Y-41423815D01*
X57344463Y-41520506D01*
X57285498Y-41630820D01*
X57249188Y-41750518D01*
X57236928Y-41875000D01*
X56149802Y-41875000D01*
X55863803Y-41589002D01*
X55840001Y-41559999D01*
X55724276Y-41465026D01*
X55592247Y-41394454D01*
X55448986Y-41350997D01*
X55436254Y-41349743D01*
X55380537Y-41245506D01*
X55301185Y-41148815D01*
X55241704Y-41100000D01*
X55301185Y-41051185D01*
X55380537Y-40954494D01*
X55431046Y-40860000D01*
X61485199Y-40860000D01*
X62440001Y-41814803D01*
G37*
G04 #@! TD.AperFunction*
M02*
