G04 #@! TF.GenerationSoftware,KiCad,Pcbnew,(5.0.1)-4*
G04 #@! TF.CreationDate,2021-12-12T21:25:55+02:00*
G04 #@! TF.ProjectId,MagicLightsPCBNeo,4D616769634C69676874735043424E65,rev?*
G04 #@! TF.SameCoordinates,Original*
G04 #@! TF.FileFunction,Paste,Top*
G04 #@! TF.FilePolarity,Positive*
%FSLAX46Y46*%
G04 Gerber Fmt 4.6, Leading zero omitted, Abs format (unit mm)*
G04 Created by KiCad (PCBNEW (5.0.1)-4) date 2021-12-12 21:25:55*
%MOMM*%
%LPD*%
G01*
G04 APERTURE LIST*
%ADD10C,0.100000*%
%ADD11C,1.150000*%
%ADD12C,0.950000*%
%ADD13C,1.425000*%
%ADD14R,0.800000X0.900000*%
%ADD15R,0.400000X1.500000*%
%ADD16R,2.500000X1.000000*%
%ADD17R,1.800000X3.500000*%
%ADD18R,3.500000X1.800000*%
G04 APERTURE END LIST*
D10*
G04 #@! TO.C,C6*
G36*
X24374505Y-43301204D02*
X24398773Y-43304804D01*
X24422572Y-43310765D01*
X24445671Y-43319030D01*
X24467850Y-43329520D01*
X24488893Y-43342132D01*
X24508599Y-43356747D01*
X24526777Y-43373223D01*
X24543253Y-43391401D01*
X24557868Y-43411107D01*
X24570480Y-43432150D01*
X24580970Y-43454329D01*
X24589235Y-43477428D01*
X24595196Y-43501227D01*
X24598796Y-43525495D01*
X24600000Y-43549999D01*
X24600000Y-44450001D01*
X24598796Y-44474505D01*
X24595196Y-44498773D01*
X24589235Y-44522572D01*
X24580970Y-44545671D01*
X24570480Y-44567850D01*
X24557868Y-44588893D01*
X24543253Y-44608599D01*
X24526777Y-44626777D01*
X24508599Y-44643253D01*
X24488893Y-44657868D01*
X24467850Y-44670480D01*
X24445671Y-44680970D01*
X24422572Y-44689235D01*
X24398773Y-44695196D01*
X24374505Y-44698796D01*
X24350001Y-44700000D01*
X23699999Y-44700000D01*
X23675495Y-44698796D01*
X23651227Y-44695196D01*
X23627428Y-44689235D01*
X23604329Y-44680970D01*
X23582150Y-44670480D01*
X23561107Y-44657868D01*
X23541401Y-44643253D01*
X23523223Y-44626777D01*
X23506747Y-44608599D01*
X23492132Y-44588893D01*
X23479520Y-44567850D01*
X23469030Y-44545671D01*
X23460765Y-44522572D01*
X23454804Y-44498773D01*
X23451204Y-44474505D01*
X23450000Y-44450001D01*
X23450000Y-43549999D01*
X23451204Y-43525495D01*
X23454804Y-43501227D01*
X23460765Y-43477428D01*
X23469030Y-43454329D01*
X23479520Y-43432150D01*
X23492132Y-43411107D01*
X23506747Y-43391401D01*
X23523223Y-43373223D01*
X23541401Y-43356747D01*
X23561107Y-43342132D01*
X23582150Y-43329520D01*
X23604329Y-43319030D01*
X23627428Y-43310765D01*
X23651227Y-43304804D01*
X23675495Y-43301204D01*
X23699999Y-43300000D01*
X24350001Y-43300000D01*
X24374505Y-43301204D01*
X24374505Y-43301204D01*
G37*
D11*
X24025000Y-44000000D03*
D10*
G36*
X22324505Y-43301204D02*
X22348773Y-43304804D01*
X22372572Y-43310765D01*
X22395671Y-43319030D01*
X22417850Y-43329520D01*
X22438893Y-43342132D01*
X22458599Y-43356747D01*
X22476777Y-43373223D01*
X22493253Y-43391401D01*
X22507868Y-43411107D01*
X22520480Y-43432150D01*
X22530970Y-43454329D01*
X22539235Y-43477428D01*
X22545196Y-43501227D01*
X22548796Y-43525495D01*
X22550000Y-43549999D01*
X22550000Y-44450001D01*
X22548796Y-44474505D01*
X22545196Y-44498773D01*
X22539235Y-44522572D01*
X22530970Y-44545671D01*
X22520480Y-44567850D01*
X22507868Y-44588893D01*
X22493253Y-44608599D01*
X22476777Y-44626777D01*
X22458599Y-44643253D01*
X22438893Y-44657868D01*
X22417850Y-44670480D01*
X22395671Y-44680970D01*
X22372572Y-44689235D01*
X22348773Y-44695196D01*
X22324505Y-44698796D01*
X22300001Y-44700000D01*
X21649999Y-44700000D01*
X21625495Y-44698796D01*
X21601227Y-44695196D01*
X21577428Y-44689235D01*
X21554329Y-44680970D01*
X21532150Y-44670480D01*
X21511107Y-44657868D01*
X21491401Y-44643253D01*
X21473223Y-44626777D01*
X21456747Y-44608599D01*
X21442132Y-44588893D01*
X21429520Y-44567850D01*
X21419030Y-44545671D01*
X21410765Y-44522572D01*
X21404804Y-44498773D01*
X21401204Y-44474505D01*
X21400000Y-44450001D01*
X21400000Y-43549999D01*
X21401204Y-43525495D01*
X21404804Y-43501227D01*
X21410765Y-43477428D01*
X21419030Y-43454329D01*
X21429520Y-43432150D01*
X21442132Y-43411107D01*
X21456747Y-43391401D01*
X21473223Y-43373223D01*
X21491401Y-43356747D01*
X21511107Y-43342132D01*
X21532150Y-43329520D01*
X21554329Y-43319030D01*
X21577428Y-43310765D01*
X21601227Y-43304804D01*
X21625495Y-43301204D01*
X21649999Y-43300000D01*
X22300001Y-43300000D01*
X22324505Y-43301204D01*
X22324505Y-43301204D01*
G37*
D11*
X21975000Y-44000000D03*
G04 #@! TD*
D10*
G04 #@! TO.C,R1*
G36*
X37185779Y-41526144D02*
X37208834Y-41529563D01*
X37231443Y-41535227D01*
X37253387Y-41543079D01*
X37274457Y-41553044D01*
X37294448Y-41565026D01*
X37313168Y-41578910D01*
X37330438Y-41594562D01*
X37346090Y-41611832D01*
X37359974Y-41630552D01*
X37371956Y-41650543D01*
X37381921Y-41671613D01*
X37389773Y-41693557D01*
X37395437Y-41716166D01*
X37398856Y-41739221D01*
X37400000Y-41762500D01*
X37400000Y-42237500D01*
X37398856Y-42260779D01*
X37395437Y-42283834D01*
X37389773Y-42306443D01*
X37381921Y-42328387D01*
X37371956Y-42349457D01*
X37359974Y-42369448D01*
X37346090Y-42388168D01*
X37330438Y-42405438D01*
X37313168Y-42421090D01*
X37294448Y-42434974D01*
X37274457Y-42446956D01*
X37253387Y-42456921D01*
X37231443Y-42464773D01*
X37208834Y-42470437D01*
X37185779Y-42473856D01*
X37162500Y-42475000D01*
X36587500Y-42475000D01*
X36564221Y-42473856D01*
X36541166Y-42470437D01*
X36518557Y-42464773D01*
X36496613Y-42456921D01*
X36475543Y-42446956D01*
X36455552Y-42434974D01*
X36436832Y-42421090D01*
X36419562Y-42405438D01*
X36403910Y-42388168D01*
X36390026Y-42369448D01*
X36378044Y-42349457D01*
X36368079Y-42328387D01*
X36360227Y-42306443D01*
X36354563Y-42283834D01*
X36351144Y-42260779D01*
X36350000Y-42237500D01*
X36350000Y-41762500D01*
X36351144Y-41739221D01*
X36354563Y-41716166D01*
X36360227Y-41693557D01*
X36368079Y-41671613D01*
X36378044Y-41650543D01*
X36390026Y-41630552D01*
X36403910Y-41611832D01*
X36419562Y-41594562D01*
X36436832Y-41578910D01*
X36455552Y-41565026D01*
X36475543Y-41553044D01*
X36496613Y-41543079D01*
X36518557Y-41535227D01*
X36541166Y-41529563D01*
X36564221Y-41526144D01*
X36587500Y-41525000D01*
X37162500Y-41525000D01*
X37185779Y-41526144D01*
X37185779Y-41526144D01*
G37*
D12*
X36875000Y-42000000D03*
D10*
G36*
X35435779Y-41526144D02*
X35458834Y-41529563D01*
X35481443Y-41535227D01*
X35503387Y-41543079D01*
X35524457Y-41553044D01*
X35544448Y-41565026D01*
X35563168Y-41578910D01*
X35580438Y-41594562D01*
X35596090Y-41611832D01*
X35609974Y-41630552D01*
X35621956Y-41650543D01*
X35631921Y-41671613D01*
X35639773Y-41693557D01*
X35645437Y-41716166D01*
X35648856Y-41739221D01*
X35650000Y-41762500D01*
X35650000Y-42237500D01*
X35648856Y-42260779D01*
X35645437Y-42283834D01*
X35639773Y-42306443D01*
X35631921Y-42328387D01*
X35621956Y-42349457D01*
X35609974Y-42369448D01*
X35596090Y-42388168D01*
X35580438Y-42405438D01*
X35563168Y-42421090D01*
X35544448Y-42434974D01*
X35524457Y-42446956D01*
X35503387Y-42456921D01*
X35481443Y-42464773D01*
X35458834Y-42470437D01*
X35435779Y-42473856D01*
X35412500Y-42475000D01*
X34837500Y-42475000D01*
X34814221Y-42473856D01*
X34791166Y-42470437D01*
X34768557Y-42464773D01*
X34746613Y-42456921D01*
X34725543Y-42446956D01*
X34705552Y-42434974D01*
X34686832Y-42421090D01*
X34669562Y-42405438D01*
X34653910Y-42388168D01*
X34640026Y-42369448D01*
X34628044Y-42349457D01*
X34618079Y-42328387D01*
X34610227Y-42306443D01*
X34604563Y-42283834D01*
X34601144Y-42260779D01*
X34600000Y-42237500D01*
X34600000Y-41762500D01*
X34601144Y-41739221D01*
X34604563Y-41716166D01*
X34610227Y-41693557D01*
X34618079Y-41671613D01*
X34628044Y-41650543D01*
X34640026Y-41630552D01*
X34653910Y-41611832D01*
X34669562Y-41594562D01*
X34686832Y-41578910D01*
X34705552Y-41565026D01*
X34725543Y-41553044D01*
X34746613Y-41543079D01*
X34768557Y-41535227D01*
X34791166Y-41529563D01*
X34814221Y-41526144D01*
X34837500Y-41525000D01*
X35412500Y-41525000D01*
X35435779Y-41526144D01*
X35435779Y-41526144D01*
G37*
D12*
X35125000Y-42000000D03*
G04 #@! TD*
D10*
G04 #@! TO.C,R4*
G36*
X35435779Y-38526144D02*
X35458834Y-38529563D01*
X35481443Y-38535227D01*
X35503387Y-38543079D01*
X35524457Y-38553044D01*
X35544448Y-38565026D01*
X35563168Y-38578910D01*
X35580438Y-38594562D01*
X35596090Y-38611832D01*
X35609974Y-38630552D01*
X35621956Y-38650543D01*
X35631921Y-38671613D01*
X35639773Y-38693557D01*
X35645437Y-38716166D01*
X35648856Y-38739221D01*
X35650000Y-38762500D01*
X35650000Y-39237500D01*
X35648856Y-39260779D01*
X35645437Y-39283834D01*
X35639773Y-39306443D01*
X35631921Y-39328387D01*
X35621956Y-39349457D01*
X35609974Y-39369448D01*
X35596090Y-39388168D01*
X35580438Y-39405438D01*
X35563168Y-39421090D01*
X35544448Y-39434974D01*
X35524457Y-39446956D01*
X35503387Y-39456921D01*
X35481443Y-39464773D01*
X35458834Y-39470437D01*
X35435779Y-39473856D01*
X35412500Y-39475000D01*
X34837500Y-39475000D01*
X34814221Y-39473856D01*
X34791166Y-39470437D01*
X34768557Y-39464773D01*
X34746613Y-39456921D01*
X34725543Y-39446956D01*
X34705552Y-39434974D01*
X34686832Y-39421090D01*
X34669562Y-39405438D01*
X34653910Y-39388168D01*
X34640026Y-39369448D01*
X34628044Y-39349457D01*
X34618079Y-39328387D01*
X34610227Y-39306443D01*
X34604563Y-39283834D01*
X34601144Y-39260779D01*
X34600000Y-39237500D01*
X34600000Y-38762500D01*
X34601144Y-38739221D01*
X34604563Y-38716166D01*
X34610227Y-38693557D01*
X34618079Y-38671613D01*
X34628044Y-38650543D01*
X34640026Y-38630552D01*
X34653910Y-38611832D01*
X34669562Y-38594562D01*
X34686832Y-38578910D01*
X34705552Y-38565026D01*
X34725543Y-38553044D01*
X34746613Y-38543079D01*
X34768557Y-38535227D01*
X34791166Y-38529563D01*
X34814221Y-38526144D01*
X34837500Y-38525000D01*
X35412500Y-38525000D01*
X35435779Y-38526144D01*
X35435779Y-38526144D01*
G37*
D12*
X35125000Y-39000000D03*
D10*
G36*
X37185779Y-38526144D02*
X37208834Y-38529563D01*
X37231443Y-38535227D01*
X37253387Y-38543079D01*
X37274457Y-38553044D01*
X37294448Y-38565026D01*
X37313168Y-38578910D01*
X37330438Y-38594562D01*
X37346090Y-38611832D01*
X37359974Y-38630552D01*
X37371956Y-38650543D01*
X37381921Y-38671613D01*
X37389773Y-38693557D01*
X37395437Y-38716166D01*
X37398856Y-38739221D01*
X37400000Y-38762500D01*
X37400000Y-39237500D01*
X37398856Y-39260779D01*
X37395437Y-39283834D01*
X37389773Y-39306443D01*
X37381921Y-39328387D01*
X37371956Y-39349457D01*
X37359974Y-39369448D01*
X37346090Y-39388168D01*
X37330438Y-39405438D01*
X37313168Y-39421090D01*
X37294448Y-39434974D01*
X37274457Y-39446956D01*
X37253387Y-39456921D01*
X37231443Y-39464773D01*
X37208834Y-39470437D01*
X37185779Y-39473856D01*
X37162500Y-39475000D01*
X36587500Y-39475000D01*
X36564221Y-39473856D01*
X36541166Y-39470437D01*
X36518557Y-39464773D01*
X36496613Y-39456921D01*
X36475543Y-39446956D01*
X36455552Y-39434974D01*
X36436832Y-39421090D01*
X36419562Y-39405438D01*
X36403910Y-39388168D01*
X36390026Y-39369448D01*
X36378044Y-39349457D01*
X36368079Y-39328387D01*
X36360227Y-39306443D01*
X36354563Y-39283834D01*
X36351144Y-39260779D01*
X36350000Y-39237500D01*
X36350000Y-38762500D01*
X36351144Y-38739221D01*
X36354563Y-38716166D01*
X36360227Y-38693557D01*
X36368079Y-38671613D01*
X36378044Y-38650543D01*
X36390026Y-38630552D01*
X36403910Y-38611832D01*
X36419562Y-38594562D01*
X36436832Y-38578910D01*
X36455552Y-38565026D01*
X36475543Y-38553044D01*
X36496613Y-38543079D01*
X36518557Y-38535227D01*
X36541166Y-38529563D01*
X36564221Y-38526144D01*
X36587500Y-38525000D01*
X37162500Y-38525000D01*
X37185779Y-38526144D01*
X37185779Y-38526144D01*
G37*
D12*
X36875000Y-39000000D03*
G04 #@! TD*
D10*
G04 #@! TO.C,C1*
G36*
X46649504Y-54801204D02*
X46673773Y-54804804D01*
X46697571Y-54810765D01*
X46720671Y-54819030D01*
X46742849Y-54829520D01*
X46763893Y-54842133D01*
X46783598Y-54856747D01*
X46801777Y-54873223D01*
X46818253Y-54891402D01*
X46832867Y-54911107D01*
X46845480Y-54932151D01*
X46855970Y-54954329D01*
X46864235Y-54977429D01*
X46870196Y-55001227D01*
X46873796Y-55025496D01*
X46875000Y-55050000D01*
X46875000Y-55975000D01*
X46873796Y-55999504D01*
X46870196Y-56023773D01*
X46864235Y-56047571D01*
X46855970Y-56070671D01*
X46845480Y-56092849D01*
X46832867Y-56113893D01*
X46818253Y-56133598D01*
X46801777Y-56151777D01*
X46783598Y-56168253D01*
X46763893Y-56182867D01*
X46742849Y-56195480D01*
X46720671Y-56205970D01*
X46697571Y-56214235D01*
X46673773Y-56220196D01*
X46649504Y-56223796D01*
X46625000Y-56225000D01*
X45375000Y-56225000D01*
X45350496Y-56223796D01*
X45326227Y-56220196D01*
X45302429Y-56214235D01*
X45279329Y-56205970D01*
X45257151Y-56195480D01*
X45236107Y-56182867D01*
X45216402Y-56168253D01*
X45198223Y-56151777D01*
X45181747Y-56133598D01*
X45167133Y-56113893D01*
X45154520Y-56092849D01*
X45144030Y-56070671D01*
X45135765Y-56047571D01*
X45129804Y-56023773D01*
X45126204Y-55999504D01*
X45125000Y-55975000D01*
X45125000Y-55050000D01*
X45126204Y-55025496D01*
X45129804Y-55001227D01*
X45135765Y-54977429D01*
X45144030Y-54954329D01*
X45154520Y-54932151D01*
X45167133Y-54911107D01*
X45181747Y-54891402D01*
X45198223Y-54873223D01*
X45216402Y-54856747D01*
X45236107Y-54842133D01*
X45257151Y-54829520D01*
X45279329Y-54819030D01*
X45302429Y-54810765D01*
X45326227Y-54804804D01*
X45350496Y-54801204D01*
X45375000Y-54800000D01*
X46625000Y-54800000D01*
X46649504Y-54801204D01*
X46649504Y-54801204D01*
G37*
D13*
X46000000Y-55512500D03*
D10*
G36*
X46649504Y-57776204D02*
X46673773Y-57779804D01*
X46697571Y-57785765D01*
X46720671Y-57794030D01*
X46742849Y-57804520D01*
X46763893Y-57817133D01*
X46783598Y-57831747D01*
X46801777Y-57848223D01*
X46818253Y-57866402D01*
X46832867Y-57886107D01*
X46845480Y-57907151D01*
X46855970Y-57929329D01*
X46864235Y-57952429D01*
X46870196Y-57976227D01*
X46873796Y-58000496D01*
X46875000Y-58025000D01*
X46875000Y-58950000D01*
X46873796Y-58974504D01*
X46870196Y-58998773D01*
X46864235Y-59022571D01*
X46855970Y-59045671D01*
X46845480Y-59067849D01*
X46832867Y-59088893D01*
X46818253Y-59108598D01*
X46801777Y-59126777D01*
X46783598Y-59143253D01*
X46763893Y-59157867D01*
X46742849Y-59170480D01*
X46720671Y-59180970D01*
X46697571Y-59189235D01*
X46673773Y-59195196D01*
X46649504Y-59198796D01*
X46625000Y-59200000D01*
X45375000Y-59200000D01*
X45350496Y-59198796D01*
X45326227Y-59195196D01*
X45302429Y-59189235D01*
X45279329Y-59180970D01*
X45257151Y-59170480D01*
X45236107Y-59157867D01*
X45216402Y-59143253D01*
X45198223Y-59126777D01*
X45181747Y-59108598D01*
X45167133Y-59088893D01*
X45154520Y-59067849D01*
X45144030Y-59045671D01*
X45135765Y-59022571D01*
X45129804Y-58998773D01*
X45126204Y-58974504D01*
X45125000Y-58950000D01*
X45125000Y-58025000D01*
X45126204Y-58000496D01*
X45129804Y-57976227D01*
X45135765Y-57952429D01*
X45144030Y-57929329D01*
X45154520Y-57907151D01*
X45167133Y-57886107D01*
X45181747Y-57866402D01*
X45198223Y-57848223D01*
X45216402Y-57831747D01*
X45236107Y-57817133D01*
X45257151Y-57804520D01*
X45279329Y-57794030D01*
X45302429Y-57785765D01*
X45326227Y-57779804D01*
X45350496Y-57776204D01*
X45375000Y-57775000D01*
X46625000Y-57775000D01*
X46649504Y-57776204D01*
X46649504Y-57776204D01*
G37*
D13*
X46000000Y-58487500D03*
G04 #@! TD*
D10*
G04 #@! TO.C,C3*
G36*
X29324505Y-37301204D02*
X29348773Y-37304804D01*
X29372572Y-37310765D01*
X29395671Y-37319030D01*
X29417850Y-37329520D01*
X29438893Y-37342132D01*
X29458599Y-37356747D01*
X29476777Y-37373223D01*
X29493253Y-37391401D01*
X29507868Y-37411107D01*
X29520480Y-37432150D01*
X29530970Y-37454329D01*
X29539235Y-37477428D01*
X29545196Y-37501227D01*
X29548796Y-37525495D01*
X29550000Y-37549999D01*
X29550000Y-38450001D01*
X29548796Y-38474505D01*
X29545196Y-38498773D01*
X29539235Y-38522572D01*
X29530970Y-38545671D01*
X29520480Y-38567850D01*
X29507868Y-38588893D01*
X29493253Y-38608599D01*
X29476777Y-38626777D01*
X29458599Y-38643253D01*
X29438893Y-38657868D01*
X29417850Y-38670480D01*
X29395671Y-38680970D01*
X29372572Y-38689235D01*
X29348773Y-38695196D01*
X29324505Y-38698796D01*
X29300001Y-38700000D01*
X28649999Y-38700000D01*
X28625495Y-38698796D01*
X28601227Y-38695196D01*
X28577428Y-38689235D01*
X28554329Y-38680970D01*
X28532150Y-38670480D01*
X28511107Y-38657868D01*
X28491401Y-38643253D01*
X28473223Y-38626777D01*
X28456747Y-38608599D01*
X28442132Y-38588893D01*
X28429520Y-38567850D01*
X28419030Y-38545671D01*
X28410765Y-38522572D01*
X28404804Y-38498773D01*
X28401204Y-38474505D01*
X28400000Y-38450001D01*
X28400000Y-37549999D01*
X28401204Y-37525495D01*
X28404804Y-37501227D01*
X28410765Y-37477428D01*
X28419030Y-37454329D01*
X28429520Y-37432150D01*
X28442132Y-37411107D01*
X28456747Y-37391401D01*
X28473223Y-37373223D01*
X28491401Y-37356747D01*
X28511107Y-37342132D01*
X28532150Y-37329520D01*
X28554329Y-37319030D01*
X28577428Y-37310765D01*
X28601227Y-37304804D01*
X28625495Y-37301204D01*
X28649999Y-37300000D01*
X29300001Y-37300000D01*
X29324505Y-37301204D01*
X29324505Y-37301204D01*
G37*
D11*
X28975000Y-38000000D03*
D10*
G36*
X31374505Y-37301204D02*
X31398773Y-37304804D01*
X31422572Y-37310765D01*
X31445671Y-37319030D01*
X31467850Y-37329520D01*
X31488893Y-37342132D01*
X31508599Y-37356747D01*
X31526777Y-37373223D01*
X31543253Y-37391401D01*
X31557868Y-37411107D01*
X31570480Y-37432150D01*
X31580970Y-37454329D01*
X31589235Y-37477428D01*
X31595196Y-37501227D01*
X31598796Y-37525495D01*
X31600000Y-37549999D01*
X31600000Y-38450001D01*
X31598796Y-38474505D01*
X31595196Y-38498773D01*
X31589235Y-38522572D01*
X31580970Y-38545671D01*
X31570480Y-38567850D01*
X31557868Y-38588893D01*
X31543253Y-38608599D01*
X31526777Y-38626777D01*
X31508599Y-38643253D01*
X31488893Y-38657868D01*
X31467850Y-38670480D01*
X31445671Y-38680970D01*
X31422572Y-38689235D01*
X31398773Y-38695196D01*
X31374505Y-38698796D01*
X31350001Y-38700000D01*
X30699999Y-38700000D01*
X30675495Y-38698796D01*
X30651227Y-38695196D01*
X30627428Y-38689235D01*
X30604329Y-38680970D01*
X30582150Y-38670480D01*
X30561107Y-38657868D01*
X30541401Y-38643253D01*
X30523223Y-38626777D01*
X30506747Y-38608599D01*
X30492132Y-38588893D01*
X30479520Y-38567850D01*
X30469030Y-38545671D01*
X30460765Y-38522572D01*
X30454804Y-38498773D01*
X30451204Y-38474505D01*
X30450000Y-38450001D01*
X30450000Y-37549999D01*
X30451204Y-37525495D01*
X30454804Y-37501227D01*
X30460765Y-37477428D01*
X30469030Y-37454329D01*
X30479520Y-37432150D01*
X30492132Y-37411107D01*
X30506747Y-37391401D01*
X30523223Y-37373223D01*
X30541401Y-37356747D01*
X30561107Y-37342132D01*
X30582150Y-37329520D01*
X30604329Y-37319030D01*
X30627428Y-37310765D01*
X30651227Y-37304804D01*
X30675495Y-37301204D01*
X30699999Y-37300000D01*
X31350001Y-37300000D01*
X31374505Y-37301204D01*
X31374505Y-37301204D01*
G37*
D11*
X31025000Y-38000000D03*
G04 #@! TD*
D14*
G04 #@! TO.C,Q2*
X35950000Y-48000000D03*
X34050000Y-48000000D03*
X35000000Y-50000000D03*
G04 #@! TD*
D10*
G04 #@! TO.C,R2*
G36*
X47185779Y-45526144D02*
X47208834Y-45529563D01*
X47231443Y-45535227D01*
X47253387Y-45543079D01*
X47274457Y-45553044D01*
X47294448Y-45565026D01*
X47313168Y-45578910D01*
X47330438Y-45594562D01*
X47346090Y-45611832D01*
X47359974Y-45630552D01*
X47371956Y-45650543D01*
X47381921Y-45671613D01*
X47389773Y-45693557D01*
X47395437Y-45716166D01*
X47398856Y-45739221D01*
X47400000Y-45762500D01*
X47400000Y-46237500D01*
X47398856Y-46260779D01*
X47395437Y-46283834D01*
X47389773Y-46306443D01*
X47381921Y-46328387D01*
X47371956Y-46349457D01*
X47359974Y-46369448D01*
X47346090Y-46388168D01*
X47330438Y-46405438D01*
X47313168Y-46421090D01*
X47294448Y-46434974D01*
X47274457Y-46446956D01*
X47253387Y-46456921D01*
X47231443Y-46464773D01*
X47208834Y-46470437D01*
X47185779Y-46473856D01*
X47162500Y-46475000D01*
X46587500Y-46475000D01*
X46564221Y-46473856D01*
X46541166Y-46470437D01*
X46518557Y-46464773D01*
X46496613Y-46456921D01*
X46475543Y-46446956D01*
X46455552Y-46434974D01*
X46436832Y-46421090D01*
X46419562Y-46405438D01*
X46403910Y-46388168D01*
X46390026Y-46369448D01*
X46378044Y-46349457D01*
X46368079Y-46328387D01*
X46360227Y-46306443D01*
X46354563Y-46283834D01*
X46351144Y-46260779D01*
X46350000Y-46237500D01*
X46350000Y-45762500D01*
X46351144Y-45739221D01*
X46354563Y-45716166D01*
X46360227Y-45693557D01*
X46368079Y-45671613D01*
X46378044Y-45650543D01*
X46390026Y-45630552D01*
X46403910Y-45611832D01*
X46419562Y-45594562D01*
X46436832Y-45578910D01*
X46455552Y-45565026D01*
X46475543Y-45553044D01*
X46496613Y-45543079D01*
X46518557Y-45535227D01*
X46541166Y-45529563D01*
X46564221Y-45526144D01*
X46587500Y-45525000D01*
X47162500Y-45525000D01*
X47185779Y-45526144D01*
X47185779Y-45526144D01*
G37*
D12*
X46875000Y-46000000D03*
D10*
G36*
X45435779Y-45526144D02*
X45458834Y-45529563D01*
X45481443Y-45535227D01*
X45503387Y-45543079D01*
X45524457Y-45553044D01*
X45544448Y-45565026D01*
X45563168Y-45578910D01*
X45580438Y-45594562D01*
X45596090Y-45611832D01*
X45609974Y-45630552D01*
X45621956Y-45650543D01*
X45631921Y-45671613D01*
X45639773Y-45693557D01*
X45645437Y-45716166D01*
X45648856Y-45739221D01*
X45650000Y-45762500D01*
X45650000Y-46237500D01*
X45648856Y-46260779D01*
X45645437Y-46283834D01*
X45639773Y-46306443D01*
X45631921Y-46328387D01*
X45621956Y-46349457D01*
X45609974Y-46369448D01*
X45596090Y-46388168D01*
X45580438Y-46405438D01*
X45563168Y-46421090D01*
X45544448Y-46434974D01*
X45524457Y-46446956D01*
X45503387Y-46456921D01*
X45481443Y-46464773D01*
X45458834Y-46470437D01*
X45435779Y-46473856D01*
X45412500Y-46475000D01*
X44837500Y-46475000D01*
X44814221Y-46473856D01*
X44791166Y-46470437D01*
X44768557Y-46464773D01*
X44746613Y-46456921D01*
X44725543Y-46446956D01*
X44705552Y-46434974D01*
X44686832Y-46421090D01*
X44669562Y-46405438D01*
X44653910Y-46388168D01*
X44640026Y-46369448D01*
X44628044Y-46349457D01*
X44618079Y-46328387D01*
X44610227Y-46306443D01*
X44604563Y-46283834D01*
X44601144Y-46260779D01*
X44600000Y-46237500D01*
X44600000Y-45762500D01*
X44601144Y-45739221D01*
X44604563Y-45716166D01*
X44610227Y-45693557D01*
X44618079Y-45671613D01*
X44628044Y-45650543D01*
X44640026Y-45630552D01*
X44653910Y-45611832D01*
X44669562Y-45594562D01*
X44686832Y-45578910D01*
X44705552Y-45565026D01*
X44725543Y-45553044D01*
X44746613Y-45543079D01*
X44768557Y-45535227D01*
X44791166Y-45529563D01*
X44814221Y-45526144D01*
X44837500Y-45525000D01*
X45412500Y-45525000D01*
X45435779Y-45526144D01*
X45435779Y-45526144D01*
G37*
D12*
X45125000Y-46000000D03*
G04 #@! TD*
D10*
G04 #@! TO.C,R3*
G36*
X27260779Y-22351144D02*
X27283834Y-22354563D01*
X27306443Y-22360227D01*
X27328387Y-22368079D01*
X27349457Y-22378044D01*
X27369448Y-22390026D01*
X27388168Y-22403910D01*
X27405438Y-22419562D01*
X27421090Y-22436832D01*
X27434974Y-22455552D01*
X27446956Y-22475543D01*
X27456921Y-22496613D01*
X27464773Y-22518557D01*
X27470437Y-22541166D01*
X27473856Y-22564221D01*
X27475000Y-22587500D01*
X27475000Y-23162500D01*
X27473856Y-23185779D01*
X27470437Y-23208834D01*
X27464773Y-23231443D01*
X27456921Y-23253387D01*
X27446956Y-23274457D01*
X27434974Y-23294448D01*
X27421090Y-23313168D01*
X27405438Y-23330438D01*
X27388168Y-23346090D01*
X27369448Y-23359974D01*
X27349457Y-23371956D01*
X27328387Y-23381921D01*
X27306443Y-23389773D01*
X27283834Y-23395437D01*
X27260779Y-23398856D01*
X27237500Y-23400000D01*
X26762500Y-23400000D01*
X26739221Y-23398856D01*
X26716166Y-23395437D01*
X26693557Y-23389773D01*
X26671613Y-23381921D01*
X26650543Y-23371956D01*
X26630552Y-23359974D01*
X26611832Y-23346090D01*
X26594562Y-23330438D01*
X26578910Y-23313168D01*
X26565026Y-23294448D01*
X26553044Y-23274457D01*
X26543079Y-23253387D01*
X26535227Y-23231443D01*
X26529563Y-23208834D01*
X26526144Y-23185779D01*
X26525000Y-23162500D01*
X26525000Y-22587500D01*
X26526144Y-22564221D01*
X26529563Y-22541166D01*
X26535227Y-22518557D01*
X26543079Y-22496613D01*
X26553044Y-22475543D01*
X26565026Y-22455552D01*
X26578910Y-22436832D01*
X26594562Y-22419562D01*
X26611832Y-22403910D01*
X26630552Y-22390026D01*
X26650543Y-22378044D01*
X26671613Y-22368079D01*
X26693557Y-22360227D01*
X26716166Y-22354563D01*
X26739221Y-22351144D01*
X26762500Y-22350000D01*
X27237500Y-22350000D01*
X27260779Y-22351144D01*
X27260779Y-22351144D01*
G37*
D12*
X27000000Y-22875000D03*
D10*
G36*
X27260779Y-20601144D02*
X27283834Y-20604563D01*
X27306443Y-20610227D01*
X27328387Y-20618079D01*
X27349457Y-20628044D01*
X27369448Y-20640026D01*
X27388168Y-20653910D01*
X27405438Y-20669562D01*
X27421090Y-20686832D01*
X27434974Y-20705552D01*
X27446956Y-20725543D01*
X27456921Y-20746613D01*
X27464773Y-20768557D01*
X27470437Y-20791166D01*
X27473856Y-20814221D01*
X27475000Y-20837500D01*
X27475000Y-21412500D01*
X27473856Y-21435779D01*
X27470437Y-21458834D01*
X27464773Y-21481443D01*
X27456921Y-21503387D01*
X27446956Y-21524457D01*
X27434974Y-21544448D01*
X27421090Y-21563168D01*
X27405438Y-21580438D01*
X27388168Y-21596090D01*
X27369448Y-21609974D01*
X27349457Y-21621956D01*
X27328387Y-21631921D01*
X27306443Y-21639773D01*
X27283834Y-21645437D01*
X27260779Y-21648856D01*
X27237500Y-21650000D01*
X26762500Y-21650000D01*
X26739221Y-21648856D01*
X26716166Y-21645437D01*
X26693557Y-21639773D01*
X26671613Y-21631921D01*
X26650543Y-21621956D01*
X26630552Y-21609974D01*
X26611832Y-21596090D01*
X26594562Y-21580438D01*
X26578910Y-21563168D01*
X26565026Y-21544448D01*
X26553044Y-21524457D01*
X26543079Y-21503387D01*
X26535227Y-21481443D01*
X26529563Y-21458834D01*
X26526144Y-21435779D01*
X26525000Y-21412500D01*
X26525000Y-20837500D01*
X26526144Y-20814221D01*
X26529563Y-20791166D01*
X26535227Y-20768557D01*
X26543079Y-20746613D01*
X26553044Y-20725543D01*
X26565026Y-20705552D01*
X26578910Y-20686832D01*
X26594562Y-20669562D01*
X26611832Y-20653910D01*
X26630552Y-20640026D01*
X26650543Y-20628044D01*
X26671613Y-20618079D01*
X26693557Y-20610227D01*
X26716166Y-20604563D01*
X26739221Y-20601144D01*
X26762500Y-20600000D01*
X27237500Y-20600000D01*
X27260779Y-20601144D01*
X27260779Y-20601144D01*
G37*
D12*
X27000000Y-21125000D03*
G04 #@! TD*
D10*
G04 #@! TO.C,R5*
G36*
X23260779Y-22351144D02*
X23283834Y-22354563D01*
X23306443Y-22360227D01*
X23328387Y-22368079D01*
X23349457Y-22378044D01*
X23369448Y-22390026D01*
X23388168Y-22403910D01*
X23405438Y-22419562D01*
X23421090Y-22436832D01*
X23434974Y-22455552D01*
X23446956Y-22475543D01*
X23456921Y-22496613D01*
X23464773Y-22518557D01*
X23470437Y-22541166D01*
X23473856Y-22564221D01*
X23475000Y-22587500D01*
X23475000Y-23162500D01*
X23473856Y-23185779D01*
X23470437Y-23208834D01*
X23464773Y-23231443D01*
X23456921Y-23253387D01*
X23446956Y-23274457D01*
X23434974Y-23294448D01*
X23421090Y-23313168D01*
X23405438Y-23330438D01*
X23388168Y-23346090D01*
X23369448Y-23359974D01*
X23349457Y-23371956D01*
X23328387Y-23381921D01*
X23306443Y-23389773D01*
X23283834Y-23395437D01*
X23260779Y-23398856D01*
X23237500Y-23400000D01*
X22762500Y-23400000D01*
X22739221Y-23398856D01*
X22716166Y-23395437D01*
X22693557Y-23389773D01*
X22671613Y-23381921D01*
X22650543Y-23371956D01*
X22630552Y-23359974D01*
X22611832Y-23346090D01*
X22594562Y-23330438D01*
X22578910Y-23313168D01*
X22565026Y-23294448D01*
X22553044Y-23274457D01*
X22543079Y-23253387D01*
X22535227Y-23231443D01*
X22529563Y-23208834D01*
X22526144Y-23185779D01*
X22525000Y-23162500D01*
X22525000Y-22587500D01*
X22526144Y-22564221D01*
X22529563Y-22541166D01*
X22535227Y-22518557D01*
X22543079Y-22496613D01*
X22553044Y-22475543D01*
X22565026Y-22455552D01*
X22578910Y-22436832D01*
X22594562Y-22419562D01*
X22611832Y-22403910D01*
X22630552Y-22390026D01*
X22650543Y-22378044D01*
X22671613Y-22368079D01*
X22693557Y-22360227D01*
X22716166Y-22354563D01*
X22739221Y-22351144D01*
X22762500Y-22350000D01*
X23237500Y-22350000D01*
X23260779Y-22351144D01*
X23260779Y-22351144D01*
G37*
D12*
X23000000Y-22875000D03*
D10*
G36*
X23260779Y-20601144D02*
X23283834Y-20604563D01*
X23306443Y-20610227D01*
X23328387Y-20618079D01*
X23349457Y-20628044D01*
X23369448Y-20640026D01*
X23388168Y-20653910D01*
X23405438Y-20669562D01*
X23421090Y-20686832D01*
X23434974Y-20705552D01*
X23446956Y-20725543D01*
X23456921Y-20746613D01*
X23464773Y-20768557D01*
X23470437Y-20791166D01*
X23473856Y-20814221D01*
X23475000Y-20837500D01*
X23475000Y-21412500D01*
X23473856Y-21435779D01*
X23470437Y-21458834D01*
X23464773Y-21481443D01*
X23456921Y-21503387D01*
X23446956Y-21524457D01*
X23434974Y-21544448D01*
X23421090Y-21563168D01*
X23405438Y-21580438D01*
X23388168Y-21596090D01*
X23369448Y-21609974D01*
X23349457Y-21621956D01*
X23328387Y-21631921D01*
X23306443Y-21639773D01*
X23283834Y-21645437D01*
X23260779Y-21648856D01*
X23237500Y-21650000D01*
X22762500Y-21650000D01*
X22739221Y-21648856D01*
X22716166Y-21645437D01*
X22693557Y-21639773D01*
X22671613Y-21631921D01*
X22650543Y-21621956D01*
X22630552Y-21609974D01*
X22611832Y-21596090D01*
X22594562Y-21580438D01*
X22578910Y-21563168D01*
X22565026Y-21544448D01*
X22553044Y-21524457D01*
X22543079Y-21503387D01*
X22535227Y-21481443D01*
X22529563Y-21458834D01*
X22526144Y-21435779D01*
X22525000Y-21412500D01*
X22525000Y-20837500D01*
X22526144Y-20814221D01*
X22529563Y-20791166D01*
X22535227Y-20768557D01*
X22543079Y-20746613D01*
X22553044Y-20725543D01*
X22565026Y-20705552D01*
X22578910Y-20686832D01*
X22594562Y-20669562D01*
X22611832Y-20653910D01*
X22630552Y-20640026D01*
X22650543Y-20628044D01*
X22671613Y-20618079D01*
X22693557Y-20610227D01*
X22716166Y-20604563D01*
X22739221Y-20601144D01*
X22762500Y-20600000D01*
X23237500Y-20600000D01*
X23260779Y-20601144D01*
X23260779Y-20601144D01*
G37*
D12*
X23000000Y-21125000D03*
G04 #@! TD*
D10*
G04 #@! TO.C,R6*
G36*
X22260779Y-53601144D02*
X22283834Y-53604563D01*
X22306443Y-53610227D01*
X22328387Y-53618079D01*
X22349457Y-53628044D01*
X22369448Y-53640026D01*
X22388168Y-53653910D01*
X22405438Y-53669562D01*
X22421090Y-53686832D01*
X22434974Y-53705552D01*
X22446956Y-53725543D01*
X22456921Y-53746613D01*
X22464773Y-53768557D01*
X22470437Y-53791166D01*
X22473856Y-53814221D01*
X22475000Y-53837500D01*
X22475000Y-54412500D01*
X22473856Y-54435779D01*
X22470437Y-54458834D01*
X22464773Y-54481443D01*
X22456921Y-54503387D01*
X22446956Y-54524457D01*
X22434974Y-54544448D01*
X22421090Y-54563168D01*
X22405438Y-54580438D01*
X22388168Y-54596090D01*
X22369448Y-54609974D01*
X22349457Y-54621956D01*
X22328387Y-54631921D01*
X22306443Y-54639773D01*
X22283834Y-54645437D01*
X22260779Y-54648856D01*
X22237500Y-54650000D01*
X21762500Y-54650000D01*
X21739221Y-54648856D01*
X21716166Y-54645437D01*
X21693557Y-54639773D01*
X21671613Y-54631921D01*
X21650543Y-54621956D01*
X21630552Y-54609974D01*
X21611832Y-54596090D01*
X21594562Y-54580438D01*
X21578910Y-54563168D01*
X21565026Y-54544448D01*
X21553044Y-54524457D01*
X21543079Y-54503387D01*
X21535227Y-54481443D01*
X21529563Y-54458834D01*
X21526144Y-54435779D01*
X21525000Y-54412500D01*
X21525000Y-53837500D01*
X21526144Y-53814221D01*
X21529563Y-53791166D01*
X21535227Y-53768557D01*
X21543079Y-53746613D01*
X21553044Y-53725543D01*
X21565026Y-53705552D01*
X21578910Y-53686832D01*
X21594562Y-53669562D01*
X21611832Y-53653910D01*
X21630552Y-53640026D01*
X21650543Y-53628044D01*
X21671613Y-53618079D01*
X21693557Y-53610227D01*
X21716166Y-53604563D01*
X21739221Y-53601144D01*
X21762500Y-53600000D01*
X22237500Y-53600000D01*
X22260779Y-53601144D01*
X22260779Y-53601144D01*
G37*
D12*
X22000000Y-54125000D03*
D10*
G36*
X22260779Y-55351144D02*
X22283834Y-55354563D01*
X22306443Y-55360227D01*
X22328387Y-55368079D01*
X22349457Y-55378044D01*
X22369448Y-55390026D01*
X22388168Y-55403910D01*
X22405438Y-55419562D01*
X22421090Y-55436832D01*
X22434974Y-55455552D01*
X22446956Y-55475543D01*
X22456921Y-55496613D01*
X22464773Y-55518557D01*
X22470437Y-55541166D01*
X22473856Y-55564221D01*
X22475000Y-55587500D01*
X22475000Y-56162500D01*
X22473856Y-56185779D01*
X22470437Y-56208834D01*
X22464773Y-56231443D01*
X22456921Y-56253387D01*
X22446956Y-56274457D01*
X22434974Y-56294448D01*
X22421090Y-56313168D01*
X22405438Y-56330438D01*
X22388168Y-56346090D01*
X22369448Y-56359974D01*
X22349457Y-56371956D01*
X22328387Y-56381921D01*
X22306443Y-56389773D01*
X22283834Y-56395437D01*
X22260779Y-56398856D01*
X22237500Y-56400000D01*
X21762500Y-56400000D01*
X21739221Y-56398856D01*
X21716166Y-56395437D01*
X21693557Y-56389773D01*
X21671613Y-56381921D01*
X21650543Y-56371956D01*
X21630552Y-56359974D01*
X21611832Y-56346090D01*
X21594562Y-56330438D01*
X21578910Y-56313168D01*
X21565026Y-56294448D01*
X21553044Y-56274457D01*
X21543079Y-56253387D01*
X21535227Y-56231443D01*
X21529563Y-56208834D01*
X21526144Y-56185779D01*
X21525000Y-56162500D01*
X21525000Y-55587500D01*
X21526144Y-55564221D01*
X21529563Y-55541166D01*
X21535227Y-55518557D01*
X21543079Y-55496613D01*
X21553044Y-55475543D01*
X21565026Y-55455552D01*
X21578910Y-55436832D01*
X21594562Y-55419562D01*
X21611832Y-55403910D01*
X21630552Y-55390026D01*
X21650543Y-55378044D01*
X21671613Y-55368079D01*
X21693557Y-55360227D01*
X21716166Y-55354563D01*
X21739221Y-55351144D01*
X21762500Y-55350000D01*
X22237500Y-55350000D01*
X22260779Y-55351144D01*
X22260779Y-55351144D01*
G37*
D12*
X22000000Y-55875000D03*
G04 #@! TD*
D10*
G04 #@! TO.C,R7*
G36*
X40260779Y-47351144D02*
X40283834Y-47354563D01*
X40306443Y-47360227D01*
X40328387Y-47368079D01*
X40349457Y-47378044D01*
X40369448Y-47390026D01*
X40388168Y-47403910D01*
X40405438Y-47419562D01*
X40421090Y-47436832D01*
X40434974Y-47455552D01*
X40446956Y-47475543D01*
X40456921Y-47496613D01*
X40464773Y-47518557D01*
X40470437Y-47541166D01*
X40473856Y-47564221D01*
X40475000Y-47587500D01*
X40475000Y-48162500D01*
X40473856Y-48185779D01*
X40470437Y-48208834D01*
X40464773Y-48231443D01*
X40456921Y-48253387D01*
X40446956Y-48274457D01*
X40434974Y-48294448D01*
X40421090Y-48313168D01*
X40405438Y-48330438D01*
X40388168Y-48346090D01*
X40369448Y-48359974D01*
X40349457Y-48371956D01*
X40328387Y-48381921D01*
X40306443Y-48389773D01*
X40283834Y-48395437D01*
X40260779Y-48398856D01*
X40237500Y-48400000D01*
X39762500Y-48400000D01*
X39739221Y-48398856D01*
X39716166Y-48395437D01*
X39693557Y-48389773D01*
X39671613Y-48381921D01*
X39650543Y-48371956D01*
X39630552Y-48359974D01*
X39611832Y-48346090D01*
X39594562Y-48330438D01*
X39578910Y-48313168D01*
X39565026Y-48294448D01*
X39553044Y-48274457D01*
X39543079Y-48253387D01*
X39535227Y-48231443D01*
X39529563Y-48208834D01*
X39526144Y-48185779D01*
X39525000Y-48162500D01*
X39525000Y-47587500D01*
X39526144Y-47564221D01*
X39529563Y-47541166D01*
X39535227Y-47518557D01*
X39543079Y-47496613D01*
X39553044Y-47475543D01*
X39565026Y-47455552D01*
X39578910Y-47436832D01*
X39594562Y-47419562D01*
X39611832Y-47403910D01*
X39630552Y-47390026D01*
X39650543Y-47378044D01*
X39671613Y-47368079D01*
X39693557Y-47360227D01*
X39716166Y-47354563D01*
X39739221Y-47351144D01*
X39762500Y-47350000D01*
X40237500Y-47350000D01*
X40260779Y-47351144D01*
X40260779Y-47351144D01*
G37*
D12*
X40000000Y-47875000D03*
D10*
G36*
X40260779Y-45601144D02*
X40283834Y-45604563D01*
X40306443Y-45610227D01*
X40328387Y-45618079D01*
X40349457Y-45628044D01*
X40369448Y-45640026D01*
X40388168Y-45653910D01*
X40405438Y-45669562D01*
X40421090Y-45686832D01*
X40434974Y-45705552D01*
X40446956Y-45725543D01*
X40456921Y-45746613D01*
X40464773Y-45768557D01*
X40470437Y-45791166D01*
X40473856Y-45814221D01*
X40475000Y-45837500D01*
X40475000Y-46412500D01*
X40473856Y-46435779D01*
X40470437Y-46458834D01*
X40464773Y-46481443D01*
X40456921Y-46503387D01*
X40446956Y-46524457D01*
X40434974Y-46544448D01*
X40421090Y-46563168D01*
X40405438Y-46580438D01*
X40388168Y-46596090D01*
X40369448Y-46609974D01*
X40349457Y-46621956D01*
X40328387Y-46631921D01*
X40306443Y-46639773D01*
X40283834Y-46645437D01*
X40260779Y-46648856D01*
X40237500Y-46650000D01*
X39762500Y-46650000D01*
X39739221Y-46648856D01*
X39716166Y-46645437D01*
X39693557Y-46639773D01*
X39671613Y-46631921D01*
X39650543Y-46621956D01*
X39630552Y-46609974D01*
X39611832Y-46596090D01*
X39594562Y-46580438D01*
X39578910Y-46563168D01*
X39565026Y-46544448D01*
X39553044Y-46524457D01*
X39543079Y-46503387D01*
X39535227Y-46481443D01*
X39529563Y-46458834D01*
X39526144Y-46435779D01*
X39525000Y-46412500D01*
X39525000Y-45837500D01*
X39526144Y-45814221D01*
X39529563Y-45791166D01*
X39535227Y-45768557D01*
X39543079Y-45746613D01*
X39553044Y-45725543D01*
X39565026Y-45705552D01*
X39578910Y-45686832D01*
X39594562Y-45669562D01*
X39611832Y-45653910D01*
X39630552Y-45640026D01*
X39650543Y-45628044D01*
X39671613Y-45618079D01*
X39693557Y-45610227D01*
X39716166Y-45604563D01*
X39739221Y-45601144D01*
X39762500Y-45600000D01*
X40237500Y-45600000D01*
X40260779Y-45601144D01*
X40260779Y-45601144D01*
G37*
D12*
X40000000Y-46125000D03*
G04 #@! TD*
D10*
G04 #@! TO.C,R8*
G36*
X41435779Y-42526144D02*
X41458834Y-42529563D01*
X41481443Y-42535227D01*
X41503387Y-42543079D01*
X41524457Y-42553044D01*
X41544448Y-42565026D01*
X41563168Y-42578910D01*
X41580438Y-42594562D01*
X41596090Y-42611832D01*
X41609974Y-42630552D01*
X41621956Y-42650543D01*
X41631921Y-42671613D01*
X41639773Y-42693557D01*
X41645437Y-42716166D01*
X41648856Y-42739221D01*
X41650000Y-42762500D01*
X41650000Y-43237500D01*
X41648856Y-43260779D01*
X41645437Y-43283834D01*
X41639773Y-43306443D01*
X41631921Y-43328387D01*
X41621956Y-43349457D01*
X41609974Y-43369448D01*
X41596090Y-43388168D01*
X41580438Y-43405438D01*
X41563168Y-43421090D01*
X41544448Y-43434974D01*
X41524457Y-43446956D01*
X41503387Y-43456921D01*
X41481443Y-43464773D01*
X41458834Y-43470437D01*
X41435779Y-43473856D01*
X41412500Y-43475000D01*
X40837500Y-43475000D01*
X40814221Y-43473856D01*
X40791166Y-43470437D01*
X40768557Y-43464773D01*
X40746613Y-43456921D01*
X40725543Y-43446956D01*
X40705552Y-43434974D01*
X40686832Y-43421090D01*
X40669562Y-43405438D01*
X40653910Y-43388168D01*
X40640026Y-43369448D01*
X40628044Y-43349457D01*
X40618079Y-43328387D01*
X40610227Y-43306443D01*
X40604563Y-43283834D01*
X40601144Y-43260779D01*
X40600000Y-43237500D01*
X40600000Y-42762500D01*
X40601144Y-42739221D01*
X40604563Y-42716166D01*
X40610227Y-42693557D01*
X40618079Y-42671613D01*
X40628044Y-42650543D01*
X40640026Y-42630552D01*
X40653910Y-42611832D01*
X40669562Y-42594562D01*
X40686832Y-42578910D01*
X40705552Y-42565026D01*
X40725543Y-42553044D01*
X40746613Y-42543079D01*
X40768557Y-42535227D01*
X40791166Y-42529563D01*
X40814221Y-42526144D01*
X40837500Y-42525000D01*
X41412500Y-42525000D01*
X41435779Y-42526144D01*
X41435779Y-42526144D01*
G37*
D12*
X41125000Y-43000000D03*
D10*
G36*
X43185779Y-42526144D02*
X43208834Y-42529563D01*
X43231443Y-42535227D01*
X43253387Y-42543079D01*
X43274457Y-42553044D01*
X43294448Y-42565026D01*
X43313168Y-42578910D01*
X43330438Y-42594562D01*
X43346090Y-42611832D01*
X43359974Y-42630552D01*
X43371956Y-42650543D01*
X43381921Y-42671613D01*
X43389773Y-42693557D01*
X43395437Y-42716166D01*
X43398856Y-42739221D01*
X43400000Y-42762500D01*
X43400000Y-43237500D01*
X43398856Y-43260779D01*
X43395437Y-43283834D01*
X43389773Y-43306443D01*
X43381921Y-43328387D01*
X43371956Y-43349457D01*
X43359974Y-43369448D01*
X43346090Y-43388168D01*
X43330438Y-43405438D01*
X43313168Y-43421090D01*
X43294448Y-43434974D01*
X43274457Y-43446956D01*
X43253387Y-43456921D01*
X43231443Y-43464773D01*
X43208834Y-43470437D01*
X43185779Y-43473856D01*
X43162500Y-43475000D01*
X42587500Y-43475000D01*
X42564221Y-43473856D01*
X42541166Y-43470437D01*
X42518557Y-43464773D01*
X42496613Y-43456921D01*
X42475543Y-43446956D01*
X42455552Y-43434974D01*
X42436832Y-43421090D01*
X42419562Y-43405438D01*
X42403910Y-43388168D01*
X42390026Y-43369448D01*
X42378044Y-43349457D01*
X42368079Y-43328387D01*
X42360227Y-43306443D01*
X42354563Y-43283834D01*
X42351144Y-43260779D01*
X42350000Y-43237500D01*
X42350000Y-42762500D01*
X42351144Y-42739221D01*
X42354563Y-42716166D01*
X42360227Y-42693557D01*
X42368079Y-42671613D01*
X42378044Y-42650543D01*
X42390026Y-42630552D01*
X42403910Y-42611832D01*
X42419562Y-42594562D01*
X42436832Y-42578910D01*
X42455552Y-42565026D01*
X42475543Y-42553044D01*
X42496613Y-42543079D01*
X42518557Y-42535227D01*
X42541166Y-42529563D01*
X42564221Y-42526144D01*
X42587500Y-42525000D01*
X43162500Y-42525000D01*
X43185779Y-42526144D01*
X43185779Y-42526144D01*
G37*
D12*
X42875000Y-43000000D03*
G04 #@! TD*
D10*
G04 #@! TO.C,RV1*
G36*
X46260779Y-51351144D02*
X46283834Y-51354563D01*
X46306443Y-51360227D01*
X46328387Y-51368079D01*
X46349457Y-51378044D01*
X46369448Y-51390026D01*
X46388168Y-51403910D01*
X46405438Y-51419562D01*
X46421090Y-51436832D01*
X46434974Y-51455552D01*
X46446956Y-51475543D01*
X46456921Y-51496613D01*
X46464773Y-51518557D01*
X46470437Y-51541166D01*
X46473856Y-51564221D01*
X46475000Y-51587500D01*
X46475000Y-52162500D01*
X46473856Y-52185779D01*
X46470437Y-52208834D01*
X46464773Y-52231443D01*
X46456921Y-52253387D01*
X46446956Y-52274457D01*
X46434974Y-52294448D01*
X46421090Y-52313168D01*
X46405438Y-52330438D01*
X46388168Y-52346090D01*
X46369448Y-52359974D01*
X46349457Y-52371956D01*
X46328387Y-52381921D01*
X46306443Y-52389773D01*
X46283834Y-52395437D01*
X46260779Y-52398856D01*
X46237500Y-52400000D01*
X45762500Y-52400000D01*
X45739221Y-52398856D01*
X45716166Y-52395437D01*
X45693557Y-52389773D01*
X45671613Y-52381921D01*
X45650543Y-52371956D01*
X45630552Y-52359974D01*
X45611832Y-52346090D01*
X45594562Y-52330438D01*
X45578910Y-52313168D01*
X45565026Y-52294448D01*
X45553044Y-52274457D01*
X45543079Y-52253387D01*
X45535227Y-52231443D01*
X45529563Y-52208834D01*
X45526144Y-52185779D01*
X45525000Y-52162500D01*
X45525000Y-51587500D01*
X45526144Y-51564221D01*
X45529563Y-51541166D01*
X45535227Y-51518557D01*
X45543079Y-51496613D01*
X45553044Y-51475543D01*
X45565026Y-51455552D01*
X45578910Y-51436832D01*
X45594562Y-51419562D01*
X45611832Y-51403910D01*
X45630552Y-51390026D01*
X45650543Y-51378044D01*
X45671613Y-51368079D01*
X45693557Y-51360227D01*
X45716166Y-51354563D01*
X45739221Y-51351144D01*
X45762500Y-51350000D01*
X46237500Y-51350000D01*
X46260779Y-51351144D01*
X46260779Y-51351144D01*
G37*
D12*
X46000000Y-51875000D03*
D10*
G36*
X46260779Y-49601144D02*
X46283834Y-49604563D01*
X46306443Y-49610227D01*
X46328387Y-49618079D01*
X46349457Y-49628044D01*
X46369448Y-49640026D01*
X46388168Y-49653910D01*
X46405438Y-49669562D01*
X46421090Y-49686832D01*
X46434974Y-49705552D01*
X46446956Y-49725543D01*
X46456921Y-49746613D01*
X46464773Y-49768557D01*
X46470437Y-49791166D01*
X46473856Y-49814221D01*
X46475000Y-49837500D01*
X46475000Y-50412500D01*
X46473856Y-50435779D01*
X46470437Y-50458834D01*
X46464773Y-50481443D01*
X46456921Y-50503387D01*
X46446956Y-50524457D01*
X46434974Y-50544448D01*
X46421090Y-50563168D01*
X46405438Y-50580438D01*
X46388168Y-50596090D01*
X46369448Y-50609974D01*
X46349457Y-50621956D01*
X46328387Y-50631921D01*
X46306443Y-50639773D01*
X46283834Y-50645437D01*
X46260779Y-50648856D01*
X46237500Y-50650000D01*
X45762500Y-50650000D01*
X45739221Y-50648856D01*
X45716166Y-50645437D01*
X45693557Y-50639773D01*
X45671613Y-50631921D01*
X45650543Y-50621956D01*
X45630552Y-50609974D01*
X45611832Y-50596090D01*
X45594562Y-50580438D01*
X45578910Y-50563168D01*
X45565026Y-50544448D01*
X45553044Y-50524457D01*
X45543079Y-50503387D01*
X45535227Y-50481443D01*
X45529563Y-50458834D01*
X45526144Y-50435779D01*
X45525000Y-50412500D01*
X45525000Y-49837500D01*
X45526144Y-49814221D01*
X45529563Y-49791166D01*
X45535227Y-49768557D01*
X45543079Y-49746613D01*
X45553044Y-49725543D01*
X45565026Y-49705552D01*
X45578910Y-49686832D01*
X45594562Y-49669562D01*
X45611832Y-49653910D01*
X45630552Y-49640026D01*
X45650543Y-49628044D01*
X45671613Y-49618079D01*
X45693557Y-49610227D01*
X45716166Y-49604563D01*
X45739221Y-49601144D01*
X45762500Y-49600000D01*
X46237500Y-49600000D01*
X46260779Y-49601144D01*
X46260779Y-49601144D01*
G37*
D12*
X46000000Y-50125000D03*
G04 #@! TD*
D15*
G04 #@! TO.C,U1*
X48650000Y-39670000D03*
X48000000Y-39670000D03*
X47350000Y-39670000D03*
X47350000Y-42330000D03*
X48650000Y-42330000D03*
G04 #@! TD*
D16*
G04 #@! TO.C,U2*
X45600000Y-20100000D03*
X45600000Y-22100000D03*
X45600000Y-24100000D03*
X45600000Y-26100000D03*
X45600000Y-28100000D03*
X45600000Y-30100000D03*
X45600000Y-32100000D03*
X45600000Y-34100000D03*
X30400000Y-34100000D03*
X30400000Y-32100000D03*
X30400000Y-30100000D03*
X30400000Y-28100000D03*
X30400000Y-26100000D03*
X30400000Y-24100000D03*
X30400000Y-22100000D03*
X30400000Y-20100000D03*
G04 #@! TD*
D10*
G04 #@! TO.C,C5*
G36*
X18435779Y-32526144D02*
X18458834Y-32529563D01*
X18481443Y-32535227D01*
X18503387Y-32543079D01*
X18524457Y-32553044D01*
X18544448Y-32565026D01*
X18563168Y-32578910D01*
X18580438Y-32594562D01*
X18596090Y-32611832D01*
X18609974Y-32630552D01*
X18621956Y-32650543D01*
X18631921Y-32671613D01*
X18639773Y-32693557D01*
X18645437Y-32716166D01*
X18648856Y-32739221D01*
X18650000Y-32762500D01*
X18650000Y-33237500D01*
X18648856Y-33260779D01*
X18645437Y-33283834D01*
X18639773Y-33306443D01*
X18631921Y-33328387D01*
X18621956Y-33349457D01*
X18609974Y-33369448D01*
X18596090Y-33388168D01*
X18580438Y-33405438D01*
X18563168Y-33421090D01*
X18544448Y-33434974D01*
X18524457Y-33446956D01*
X18503387Y-33456921D01*
X18481443Y-33464773D01*
X18458834Y-33470437D01*
X18435779Y-33473856D01*
X18412500Y-33475000D01*
X17837500Y-33475000D01*
X17814221Y-33473856D01*
X17791166Y-33470437D01*
X17768557Y-33464773D01*
X17746613Y-33456921D01*
X17725543Y-33446956D01*
X17705552Y-33434974D01*
X17686832Y-33421090D01*
X17669562Y-33405438D01*
X17653910Y-33388168D01*
X17640026Y-33369448D01*
X17628044Y-33349457D01*
X17618079Y-33328387D01*
X17610227Y-33306443D01*
X17604563Y-33283834D01*
X17601144Y-33260779D01*
X17600000Y-33237500D01*
X17600000Y-32762500D01*
X17601144Y-32739221D01*
X17604563Y-32716166D01*
X17610227Y-32693557D01*
X17618079Y-32671613D01*
X17628044Y-32650543D01*
X17640026Y-32630552D01*
X17653910Y-32611832D01*
X17669562Y-32594562D01*
X17686832Y-32578910D01*
X17705552Y-32565026D01*
X17725543Y-32553044D01*
X17746613Y-32543079D01*
X17768557Y-32535227D01*
X17791166Y-32529563D01*
X17814221Y-32526144D01*
X17837500Y-32525000D01*
X18412500Y-32525000D01*
X18435779Y-32526144D01*
X18435779Y-32526144D01*
G37*
D12*
X18125000Y-33000000D03*
D10*
G36*
X20185779Y-32526144D02*
X20208834Y-32529563D01*
X20231443Y-32535227D01*
X20253387Y-32543079D01*
X20274457Y-32553044D01*
X20294448Y-32565026D01*
X20313168Y-32578910D01*
X20330438Y-32594562D01*
X20346090Y-32611832D01*
X20359974Y-32630552D01*
X20371956Y-32650543D01*
X20381921Y-32671613D01*
X20389773Y-32693557D01*
X20395437Y-32716166D01*
X20398856Y-32739221D01*
X20400000Y-32762500D01*
X20400000Y-33237500D01*
X20398856Y-33260779D01*
X20395437Y-33283834D01*
X20389773Y-33306443D01*
X20381921Y-33328387D01*
X20371956Y-33349457D01*
X20359974Y-33369448D01*
X20346090Y-33388168D01*
X20330438Y-33405438D01*
X20313168Y-33421090D01*
X20294448Y-33434974D01*
X20274457Y-33446956D01*
X20253387Y-33456921D01*
X20231443Y-33464773D01*
X20208834Y-33470437D01*
X20185779Y-33473856D01*
X20162500Y-33475000D01*
X19587500Y-33475000D01*
X19564221Y-33473856D01*
X19541166Y-33470437D01*
X19518557Y-33464773D01*
X19496613Y-33456921D01*
X19475543Y-33446956D01*
X19455552Y-33434974D01*
X19436832Y-33421090D01*
X19419562Y-33405438D01*
X19403910Y-33388168D01*
X19390026Y-33369448D01*
X19378044Y-33349457D01*
X19368079Y-33328387D01*
X19360227Y-33306443D01*
X19354563Y-33283834D01*
X19351144Y-33260779D01*
X19350000Y-33237500D01*
X19350000Y-32762500D01*
X19351144Y-32739221D01*
X19354563Y-32716166D01*
X19360227Y-32693557D01*
X19368079Y-32671613D01*
X19378044Y-32650543D01*
X19390026Y-32630552D01*
X19403910Y-32611832D01*
X19419562Y-32594562D01*
X19436832Y-32578910D01*
X19455552Y-32565026D01*
X19475543Y-32553044D01*
X19496613Y-32543079D01*
X19518557Y-32535227D01*
X19541166Y-32529563D01*
X19564221Y-32526144D01*
X19587500Y-32525000D01*
X20162500Y-32525000D01*
X20185779Y-32526144D01*
X20185779Y-32526144D01*
G37*
D12*
X19875000Y-33000000D03*
G04 #@! TD*
D17*
G04 #@! TO.C,D3*
X26000000Y-59500000D03*
X26000000Y-54500000D03*
G04 #@! TD*
G04 #@! TO.C,D1*
X39000000Y-59500000D03*
X39000000Y-54500000D03*
G04 #@! TD*
D18*
G04 #@! TO.C,D2*
X29500000Y-49000000D03*
X24500000Y-49000000D03*
G04 #@! TD*
M02*
