M48
; DRILL file {KiCad (5.1.12)-1} date 11/12/22 20:16:52
; FORMAT={-:-/ absolute / metric / decimal}
; #@! TF.CreationDate,2022-11-12T20:16:52+02:00
; #@! TF.GenerationSoftware,Kicad,Pcbnew,(5.1.12)-1
; #@! TF.FileFunction,Plated,1,2,PTH
FMAT,2
METRIC
T1C0.450
T2C0.800
T3C1.000
T4C1.200
%
G90
G05
T1
X31.7Y-58.0
X32.6Y-57.1
X35.2Y-48.8
X35.2Y-50.0
X42.8Y-40.7
X43.2Y-50.7
X43.6Y-56.6
X45.0Y-76.4
X46.2Y-76.4
X46.8Y-64.5
X48.0Y-43.8
X51.6Y-62.4
X51.8Y-65.5
X54.3Y-74.5
X54.9Y-56.4
X54.9Y-79.5
X55.6Y-74.5
X55.8Y-55.6
X56.2Y-79.5
X56.9Y-74.5
X57.8Y-53.1
X58.6Y-44.538
X59.5Y-51.2
X61.4Y-42.3
X65.1Y-81.5
X70.7Y-76.0
T2
X30.7Y-48.2
X30.7Y-50.7
X40.0Y-73.0
X40.0Y-75.5
T3
X27.0Y-56.0
X27.0Y-58.54
X27.0Y-61.08
X27.0Y-69.46
X27.0Y-72.0
X49.3Y-58.5
X49.3Y-61.04
X49.3Y-63.58
X49.3Y-66.12
X61.6Y-58.36
X61.6Y-60.9
X69.0Y-48.7
X69.0Y-51.24
X69.0Y-53.78
X69.0Y-65.2
X69.0Y-67.74
X69.0Y-70.28
X69.0Y-72.82
T4
X35.6Y-64.2
X35.6Y-69.28
T0
M30
