G04 #@! TF.GenerationSoftware,KiCad,Pcbnew,(5.0.1)-4*
G04 #@! TF.CreationDate,2021-12-12T21:25:55+02:00*
G04 #@! TF.ProjectId,MagicLightsPCBNeo,4D616769634C69676874735043424E65,rev?*
G04 #@! TF.SameCoordinates,Original*
G04 #@! TF.FileFunction,Copper,L1,Top,Signal*
G04 #@! TF.FilePolarity,Positive*
%FSLAX46Y46*%
G04 Gerber Fmt 4.6, Leading zero omitted, Abs format (unit mm)*
G04 Created by KiCad (PCBNEW (5.0.1)-4) date 2021-12-12 21:25:55*
%MOMM*%
%LPD*%
G01*
G04 APERTURE LIST*
G04 #@! TA.AperFunction,Conductor*
%ADD10C,0.100000*%
G04 #@! TD*
G04 #@! TA.AperFunction,SMDPad,CuDef*
%ADD11C,1.150000*%
G04 #@! TD*
G04 #@! TA.AperFunction,SMDPad,CuDef*
%ADD12C,0.950000*%
G04 #@! TD*
G04 #@! TA.AperFunction,SMDPad,CuDef*
%ADD13C,1.425000*%
G04 #@! TD*
G04 #@! TA.AperFunction,ComponentPad*
%ADD14R,1.600000X1.600000*%
G04 #@! TD*
G04 #@! TA.AperFunction,ComponentPad*
%ADD15C,1.600000*%
G04 #@! TD*
G04 #@! TA.AperFunction,ComponentPad*
%ADD16R,1.700000X1.700000*%
G04 #@! TD*
G04 #@! TA.AperFunction,ComponentPad*
%ADD17O,1.700000X1.700000*%
G04 #@! TD*
G04 #@! TA.AperFunction,SMDPad,CuDef*
%ADD18R,0.800000X0.900000*%
G04 #@! TD*
G04 #@! TA.AperFunction,SMDPad,CuDef*
%ADD19R,0.400000X1.500000*%
G04 #@! TD*
G04 #@! TA.AperFunction,SMDPad,CuDef*
%ADD20R,2.500000X1.000000*%
G04 #@! TD*
G04 #@! TA.AperFunction,SMDPad,CuDef*
%ADD21R,1.800000X3.500000*%
G04 #@! TD*
G04 #@! TA.AperFunction,SMDPad,CuDef*
%ADD22R,3.500000X1.800000*%
G04 #@! TD*
G04 #@! TA.AperFunction,ViaPad*
%ADD23C,0.800000*%
G04 #@! TD*
G04 #@! TA.AperFunction,Conductor*
%ADD24C,0.750000*%
G04 #@! TD*
G04 #@! TA.AperFunction,Conductor*
%ADD25C,0.500000*%
G04 #@! TD*
G04 #@! TA.AperFunction,Conductor*
%ADD26C,0.250000*%
G04 #@! TD*
G04 #@! TA.AperFunction,Conductor*
%ADD27C,0.254000*%
G04 #@! TD*
G04 APERTURE END LIST*
D10*
G04 #@! TO.N,+5V*
G04 #@! TO.C,C6*
G36*
X24374505Y-43301204D02*
X24398773Y-43304804D01*
X24422572Y-43310765D01*
X24445671Y-43319030D01*
X24467850Y-43329520D01*
X24488893Y-43342132D01*
X24508599Y-43356747D01*
X24526777Y-43373223D01*
X24543253Y-43391401D01*
X24557868Y-43411107D01*
X24570480Y-43432150D01*
X24580970Y-43454329D01*
X24589235Y-43477428D01*
X24595196Y-43501227D01*
X24598796Y-43525495D01*
X24600000Y-43549999D01*
X24600000Y-44450001D01*
X24598796Y-44474505D01*
X24595196Y-44498773D01*
X24589235Y-44522572D01*
X24580970Y-44545671D01*
X24570480Y-44567850D01*
X24557868Y-44588893D01*
X24543253Y-44608599D01*
X24526777Y-44626777D01*
X24508599Y-44643253D01*
X24488893Y-44657868D01*
X24467850Y-44670480D01*
X24445671Y-44680970D01*
X24422572Y-44689235D01*
X24398773Y-44695196D01*
X24374505Y-44698796D01*
X24350001Y-44700000D01*
X23699999Y-44700000D01*
X23675495Y-44698796D01*
X23651227Y-44695196D01*
X23627428Y-44689235D01*
X23604329Y-44680970D01*
X23582150Y-44670480D01*
X23561107Y-44657868D01*
X23541401Y-44643253D01*
X23523223Y-44626777D01*
X23506747Y-44608599D01*
X23492132Y-44588893D01*
X23479520Y-44567850D01*
X23469030Y-44545671D01*
X23460765Y-44522572D01*
X23454804Y-44498773D01*
X23451204Y-44474505D01*
X23450000Y-44450001D01*
X23450000Y-43549999D01*
X23451204Y-43525495D01*
X23454804Y-43501227D01*
X23460765Y-43477428D01*
X23469030Y-43454329D01*
X23479520Y-43432150D01*
X23492132Y-43411107D01*
X23506747Y-43391401D01*
X23523223Y-43373223D01*
X23541401Y-43356747D01*
X23561107Y-43342132D01*
X23582150Y-43329520D01*
X23604329Y-43319030D01*
X23627428Y-43310765D01*
X23651227Y-43304804D01*
X23675495Y-43301204D01*
X23699999Y-43300000D01*
X24350001Y-43300000D01*
X24374505Y-43301204D01*
X24374505Y-43301204D01*
G37*
D11*
G04 #@! TD*
G04 #@! TO.P,C6,1*
G04 #@! TO.N,+5V*
X24025000Y-44000000D03*
D10*
G04 #@! TO.N,GND*
G04 #@! TO.C,C6*
G36*
X22324505Y-43301204D02*
X22348773Y-43304804D01*
X22372572Y-43310765D01*
X22395671Y-43319030D01*
X22417850Y-43329520D01*
X22438893Y-43342132D01*
X22458599Y-43356747D01*
X22476777Y-43373223D01*
X22493253Y-43391401D01*
X22507868Y-43411107D01*
X22520480Y-43432150D01*
X22530970Y-43454329D01*
X22539235Y-43477428D01*
X22545196Y-43501227D01*
X22548796Y-43525495D01*
X22550000Y-43549999D01*
X22550000Y-44450001D01*
X22548796Y-44474505D01*
X22545196Y-44498773D01*
X22539235Y-44522572D01*
X22530970Y-44545671D01*
X22520480Y-44567850D01*
X22507868Y-44588893D01*
X22493253Y-44608599D01*
X22476777Y-44626777D01*
X22458599Y-44643253D01*
X22438893Y-44657868D01*
X22417850Y-44670480D01*
X22395671Y-44680970D01*
X22372572Y-44689235D01*
X22348773Y-44695196D01*
X22324505Y-44698796D01*
X22300001Y-44700000D01*
X21649999Y-44700000D01*
X21625495Y-44698796D01*
X21601227Y-44695196D01*
X21577428Y-44689235D01*
X21554329Y-44680970D01*
X21532150Y-44670480D01*
X21511107Y-44657868D01*
X21491401Y-44643253D01*
X21473223Y-44626777D01*
X21456747Y-44608599D01*
X21442132Y-44588893D01*
X21429520Y-44567850D01*
X21419030Y-44545671D01*
X21410765Y-44522572D01*
X21404804Y-44498773D01*
X21401204Y-44474505D01*
X21400000Y-44450001D01*
X21400000Y-43549999D01*
X21401204Y-43525495D01*
X21404804Y-43501227D01*
X21410765Y-43477428D01*
X21419030Y-43454329D01*
X21429520Y-43432150D01*
X21442132Y-43411107D01*
X21456747Y-43391401D01*
X21473223Y-43373223D01*
X21491401Y-43356747D01*
X21511107Y-43342132D01*
X21532150Y-43329520D01*
X21554329Y-43319030D01*
X21577428Y-43310765D01*
X21601227Y-43304804D01*
X21625495Y-43301204D01*
X21649999Y-43300000D01*
X22300001Y-43300000D01*
X22324505Y-43301204D01*
X22324505Y-43301204D01*
G37*
D11*
G04 #@! TD*
G04 #@! TO.P,C6,2*
G04 #@! TO.N,GND*
X21975000Y-44000000D03*
D10*
G04 #@! TO.N,Net-(R1-Pad1)*
G04 #@! TO.C,R1*
G36*
X37185779Y-41526144D02*
X37208834Y-41529563D01*
X37231443Y-41535227D01*
X37253387Y-41543079D01*
X37274457Y-41553044D01*
X37294448Y-41565026D01*
X37313168Y-41578910D01*
X37330438Y-41594562D01*
X37346090Y-41611832D01*
X37359974Y-41630552D01*
X37371956Y-41650543D01*
X37381921Y-41671613D01*
X37389773Y-41693557D01*
X37395437Y-41716166D01*
X37398856Y-41739221D01*
X37400000Y-41762500D01*
X37400000Y-42237500D01*
X37398856Y-42260779D01*
X37395437Y-42283834D01*
X37389773Y-42306443D01*
X37381921Y-42328387D01*
X37371956Y-42349457D01*
X37359974Y-42369448D01*
X37346090Y-42388168D01*
X37330438Y-42405438D01*
X37313168Y-42421090D01*
X37294448Y-42434974D01*
X37274457Y-42446956D01*
X37253387Y-42456921D01*
X37231443Y-42464773D01*
X37208834Y-42470437D01*
X37185779Y-42473856D01*
X37162500Y-42475000D01*
X36587500Y-42475000D01*
X36564221Y-42473856D01*
X36541166Y-42470437D01*
X36518557Y-42464773D01*
X36496613Y-42456921D01*
X36475543Y-42446956D01*
X36455552Y-42434974D01*
X36436832Y-42421090D01*
X36419562Y-42405438D01*
X36403910Y-42388168D01*
X36390026Y-42369448D01*
X36378044Y-42349457D01*
X36368079Y-42328387D01*
X36360227Y-42306443D01*
X36354563Y-42283834D01*
X36351144Y-42260779D01*
X36350000Y-42237500D01*
X36350000Y-41762500D01*
X36351144Y-41739221D01*
X36354563Y-41716166D01*
X36360227Y-41693557D01*
X36368079Y-41671613D01*
X36378044Y-41650543D01*
X36390026Y-41630552D01*
X36403910Y-41611832D01*
X36419562Y-41594562D01*
X36436832Y-41578910D01*
X36455552Y-41565026D01*
X36475543Y-41553044D01*
X36496613Y-41543079D01*
X36518557Y-41535227D01*
X36541166Y-41529563D01*
X36564221Y-41526144D01*
X36587500Y-41525000D01*
X37162500Y-41525000D01*
X37185779Y-41526144D01*
X37185779Y-41526144D01*
G37*
D12*
G04 #@! TD*
G04 #@! TO.P,R1,1*
G04 #@! TO.N,Net-(R1-Pad1)*
X36875000Y-42000000D03*
D10*
G04 #@! TO.N,+3V3*
G04 #@! TO.C,R1*
G36*
X35435779Y-41526144D02*
X35458834Y-41529563D01*
X35481443Y-41535227D01*
X35503387Y-41543079D01*
X35524457Y-41553044D01*
X35544448Y-41565026D01*
X35563168Y-41578910D01*
X35580438Y-41594562D01*
X35596090Y-41611832D01*
X35609974Y-41630552D01*
X35621956Y-41650543D01*
X35631921Y-41671613D01*
X35639773Y-41693557D01*
X35645437Y-41716166D01*
X35648856Y-41739221D01*
X35650000Y-41762500D01*
X35650000Y-42237500D01*
X35648856Y-42260779D01*
X35645437Y-42283834D01*
X35639773Y-42306443D01*
X35631921Y-42328387D01*
X35621956Y-42349457D01*
X35609974Y-42369448D01*
X35596090Y-42388168D01*
X35580438Y-42405438D01*
X35563168Y-42421090D01*
X35544448Y-42434974D01*
X35524457Y-42446956D01*
X35503387Y-42456921D01*
X35481443Y-42464773D01*
X35458834Y-42470437D01*
X35435779Y-42473856D01*
X35412500Y-42475000D01*
X34837500Y-42475000D01*
X34814221Y-42473856D01*
X34791166Y-42470437D01*
X34768557Y-42464773D01*
X34746613Y-42456921D01*
X34725543Y-42446956D01*
X34705552Y-42434974D01*
X34686832Y-42421090D01*
X34669562Y-42405438D01*
X34653910Y-42388168D01*
X34640026Y-42369448D01*
X34628044Y-42349457D01*
X34618079Y-42328387D01*
X34610227Y-42306443D01*
X34604563Y-42283834D01*
X34601144Y-42260779D01*
X34600000Y-42237500D01*
X34600000Y-41762500D01*
X34601144Y-41739221D01*
X34604563Y-41716166D01*
X34610227Y-41693557D01*
X34618079Y-41671613D01*
X34628044Y-41650543D01*
X34640026Y-41630552D01*
X34653910Y-41611832D01*
X34669562Y-41594562D01*
X34686832Y-41578910D01*
X34705552Y-41565026D01*
X34725543Y-41553044D01*
X34746613Y-41543079D01*
X34768557Y-41535227D01*
X34791166Y-41529563D01*
X34814221Y-41526144D01*
X34837500Y-41525000D01*
X35412500Y-41525000D01*
X35435779Y-41526144D01*
X35435779Y-41526144D01*
G37*
D12*
G04 #@! TD*
G04 #@! TO.P,R1,2*
G04 #@! TO.N,+3V3*
X35125000Y-42000000D03*
D10*
G04 #@! TO.N,+3V3*
G04 #@! TO.C,R4*
G36*
X35435779Y-38526144D02*
X35458834Y-38529563D01*
X35481443Y-38535227D01*
X35503387Y-38543079D01*
X35524457Y-38553044D01*
X35544448Y-38565026D01*
X35563168Y-38578910D01*
X35580438Y-38594562D01*
X35596090Y-38611832D01*
X35609974Y-38630552D01*
X35621956Y-38650543D01*
X35631921Y-38671613D01*
X35639773Y-38693557D01*
X35645437Y-38716166D01*
X35648856Y-38739221D01*
X35650000Y-38762500D01*
X35650000Y-39237500D01*
X35648856Y-39260779D01*
X35645437Y-39283834D01*
X35639773Y-39306443D01*
X35631921Y-39328387D01*
X35621956Y-39349457D01*
X35609974Y-39369448D01*
X35596090Y-39388168D01*
X35580438Y-39405438D01*
X35563168Y-39421090D01*
X35544448Y-39434974D01*
X35524457Y-39446956D01*
X35503387Y-39456921D01*
X35481443Y-39464773D01*
X35458834Y-39470437D01*
X35435779Y-39473856D01*
X35412500Y-39475000D01*
X34837500Y-39475000D01*
X34814221Y-39473856D01*
X34791166Y-39470437D01*
X34768557Y-39464773D01*
X34746613Y-39456921D01*
X34725543Y-39446956D01*
X34705552Y-39434974D01*
X34686832Y-39421090D01*
X34669562Y-39405438D01*
X34653910Y-39388168D01*
X34640026Y-39369448D01*
X34628044Y-39349457D01*
X34618079Y-39328387D01*
X34610227Y-39306443D01*
X34604563Y-39283834D01*
X34601144Y-39260779D01*
X34600000Y-39237500D01*
X34600000Y-38762500D01*
X34601144Y-38739221D01*
X34604563Y-38716166D01*
X34610227Y-38693557D01*
X34618079Y-38671613D01*
X34628044Y-38650543D01*
X34640026Y-38630552D01*
X34653910Y-38611832D01*
X34669562Y-38594562D01*
X34686832Y-38578910D01*
X34705552Y-38565026D01*
X34725543Y-38553044D01*
X34746613Y-38543079D01*
X34768557Y-38535227D01*
X34791166Y-38529563D01*
X34814221Y-38526144D01*
X34837500Y-38525000D01*
X35412500Y-38525000D01*
X35435779Y-38526144D01*
X35435779Y-38526144D01*
G37*
D12*
G04 #@! TD*
G04 #@! TO.P,R4,2*
G04 #@! TO.N,+3V3*
X35125000Y-39000000D03*
D10*
G04 #@! TO.N,Net-(R4-Pad1)*
G04 #@! TO.C,R4*
G36*
X37185779Y-38526144D02*
X37208834Y-38529563D01*
X37231443Y-38535227D01*
X37253387Y-38543079D01*
X37274457Y-38553044D01*
X37294448Y-38565026D01*
X37313168Y-38578910D01*
X37330438Y-38594562D01*
X37346090Y-38611832D01*
X37359974Y-38630552D01*
X37371956Y-38650543D01*
X37381921Y-38671613D01*
X37389773Y-38693557D01*
X37395437Y-38716166D01*
X37398856Y-38739221D01*
X37400000Y-38762500D01*
X37400000Y-39237500D01*
X37398856Y-39260779D01*
X37395437Y-39283834D01*
X37389773Y-39306443D01*
X37381921Y-39328387D01*
X37371956Y-39349457D01*
X37359974Y-39369448D01*
X37346090Y-39388168D01*
X37330438Y-39405438D01*
X37313168Y-39421090D01*
X37294448Y-39434974D01*
X37274457Y-39446956D01*
X37253387Y-39456921D01*
X37231443Y-39464773D01*
X37208834Y-39470437D01*
X37185779Y-39473856D01*
X37162500Y-39475000D01*
X36587500Y-39475000D01*
X36564221Y-39473856D01*
X36541166Y-39470437D01*
X36518557Y-39464773D01*
X36496613Y-39456921D01*
X36475543Y-39446956D01*
X36455552Y-39434974D01*
X36436832Y-39421090D01*
X36419562Y-39405438D01*
X36403910Y-39388168D01*
X36390026Y-39369448D01*
X36378044Y-39349457D01*
X36368079Y-39328387D01*
X36360227Y-39306443D01*
X36354563Y-39283834D01*
X36351144Y-39260779D01*
X36350000Y-39237500D01*
X36350000Y-38762500D01*
X36351144Y-38739221D01*
X36354563Y-38716166D01*
X36360227Y-38693557D01*
X36368079Y-38671613D01*
X36378044Y-38650543D01*
X36390026Y-38630552D01*
X36403910Y-38611832D01*
X36419562Y-38594562D01*
X36436832Y-38578910D01*
X36455552Y-38565026D01*
X36475543Y-38553044D01*
X36496613Y-38543079D01*
X36518557Y-38535227D01*
X36541166Y-38529563D01*
X36564221Y-38526144D01*
X36587500Y-38525000D01*
X37162500Y-38525000D01*
X37185779Y-38526144D01*
X37185779Y-38526144D01*
G37*
D12*
G04 #@! TD*
G04 #@! TO.P,R4,1*
G04 #@! TO.N,Net-(R4-Pad1)*
X36875000Y-39000000D03*
D10*
G04 #@! TO.N,Net-(C1-Pad1)*
G04 #@! TO.C,C1*
G36*
X46649504Y-54801204D02*
X46673773Y-54804804D01*
X46697571Y-54810765D01*
X46720671Y-54819030D01*
X46742849Y-54829520D01*
X46763893Y-54842133D01*
X46783598Y-54856747D01*
X46801777Y-54873223D01*
X46818253Y-54891402D01*
X46832867Y-54911107D01*
X46845480Y-54932151D01*
X46855970Y-54954329D01*
X46864235Y-54977429D01*
X46870196Y-55001227D01*
X46873796Y-55025496D01*
X46875000Y-55050000D01*
X46875000Y-55975000D01*
X46873796Y-55999504D01*
X46870196Y-56023773D01*
X46864235Y-56047571D01*
X46855970Y-56070671D01*
X46845480Y-56092849D01*
X46832867Y-56113893D01*
X46818253Y-56133598D01*
X46801777Y-56151777D01*
X46783598Y-56168253D01*
X46763893Y-56182867D01*
X46742849Y-56195480D01*
X46720671Y-56205970D01*
X46697571Y-56214235D01*
X46673773Y-56220196D01*
X46649504Y-56223796D01*
X46625000Y-56225000D01*
X45375000Y-56225000D01*
X45350496Y-56223796D01*
X45326227Y-56220196D01*
X45302429Y-56214235D01*
X45279329Y-56205970D01*
X45257151Y-56195480D01*
X45236107Y-56182867D01*
X45216402Y-56168253D01*
X45198223Y-56151777D01*
X45181747Y-56133598D01*
X45167133Y-56113893D01*
X45154520Y-56092849D01*
X45144030Y-56070671D01*
X45135765Y-56047571D01*
X45129804Y-56023773D01*
X45126204Y-55999504D01*
X45125000Y-55975000D01*
X45125000Y-55050000D01*
X45126204Y-55025496D01*
X45129804Y-55001227D01*
X45135765Y-54977429D01*
X45144030Y-54954329D01*
X45154520Y-54932151D01*
X45167133Y-54911107D01*
X45181747Y-54891402D01*
X45198223Y-54873223D01*
X45216402Y-54856747D01*
X45236107Y-54842133D01*
X45257151Y-54829520D01*
X45279329Y-54819030D01*
X45302429Y-54810765D01*
X45326227Y-54804804D01*
X45350496Y-54801204D01*
X45375000Y-54800000D01*
X46625000Y-54800000D01*
X46649504Y-54801204D01*
X46649504Y-54801204D01*
G37*
D13*
G04 #@! TD*
G04 #@! TO.P,C1,1*
G04 #@! TO.N,Net-(C1-Pad1)*
X46000000Y-55512500D03*
D10*
G04 #@! TO.N,GND*
G04 #@! TO.C,C1*
G36*
X46649504Y-57776204D02*
X46673773Y-57779804D01*
X46697571Y-57785765D01*
X46720671Y-57794030D01*
X46742849Y-57804520D01*
X46763893Y-57817133D01*
X46783598Y-57831747D01*
X46801777Y-57848223D01*
X46818253Y-57866402D01*
X46832867Y-57886107D01*
X46845480Y-57907151D01*
X46855970Y-57929329D01*
X46864235Y-57952429D01*
X46870196Y-57976227D01*
X46873796Y-58000496D01*
X46875000Y-58025000D01*
X46875000Y-58950000D01*
X46873796Y-58974504D01*
X46870196Y-58998773D01*
X46864235Y-59022571D01*
X46855970Y-59045671D01*
X46845480Y-59067849D01*
X46832867Y-59088893D01*
X46818253Y-59108598D01*
X46801777Y-59126777D01*
X46783598Y-59143253D01*
X46763893Y-59157867D01*
X46742849Y-59170480D01*
X46720671Y-59180970D01*
X46697571Y-59189235D01*
X46673773Y-59195196D01*
X46649504Y-59198796D01*
X46625000Y-59200000D01*
X45375000Y-59200000D01*
X45350496Y-59198796D01*
X45326227Y-59195196D01*
X45302429Y-59189235D01*
X45279329Y-59180970D01*
X45257151Y-59170480D01*
X45236107Y-59157867D01*
X45216402Y-59143253D01*
X45198223Y-59126777D01*
X45181747Y-59108598D01*
X45167133Y-59088893D01*
X45154520Y-59067849D01*
X45144030Y-59045671D01*
X45135765Y-59022571D01*
X45129804Y-58998773D01*
X45126204Y-58974504D01*
X45125000Y-58950000D01*
X45125000Y-58025000D01*
X45126204Y-58000496D01*
X45129804Y-57976227D01*
X45135765Y-57952429D01*
X45144030Y-57929329D01*
X45154520Y-57907151D01*
X45167133Y-57886107D01*
X45181747Y-57866402D01*
X45198223Y-57848223D01*
X45216402Y-57831747D01*
X45236107Y-57817133D01*
X45257151Y-57804520D01*
X45279329Y-57794030D01*
X45302429Y-57785765D01*
X45326227Y-57779804D01*
X45350496Y-57776204D01*
X45375000Y-57775000D01*
X46625000Y-57775000D01*
X46649504Y-57776204D01*
X46649504Y-57776204D01*
G37*
D13*
G04 #@! TD*
G04 #@! TO.P,C1,2*
G04 #@! TO.N,GND*
X46000000Y-58487500D03*
D14*
G04 #@! TO.P,C2,1*
G04 #@! TO.N,+3V3*
X24000000Y-30000000D03*
D15*
G04 #@! TO.P,C2,2*
G04 #@! TO.N,GND*
X24000000Y-27500000D03*
G04 #@! TD*
D10*
G04 #@! TO.N,GND*
G04 #@! TO.C,C3*
G36*
X29324505Y-37301204D02*
X29348773Y-37304804D01*
X29372572Y-37310765D01*
X29395671Y-37319030D01*
X29417850Y-37329520D01*
X29438893Y-37342132D01*
X29458599Y-37356747D01*
X29476777Y-37373223D01*
X29493253Y-37391401D01*
X29507868Y-37411107D01*
X29520480Y-37432150D01*
X29530970Y-37454329D01*
X29539235Y-37477428D01*
X29545196Y-37501227D01*
X29548796Y-37525495D01*
X29550000Y-37549999D01*
X29550000Y-38450001D01*
X29548796Y-38474505D01*
X29545196Y-38498773D01*
X29539235Y-38522572D01*
X29530970Y-38545671D01*
X29520480Y-38567850D01*
X29507868Y-38588893D01*
X29493253Y-38608599D01*
X29476777Y-38626777D01*
X29458599Y-38643253D01*
X29438893Y-38657868D01*
X29417850Y-38670480D01*
X29395671Y-38680970D01*
X29372572Y-38689235D01*
X29348773Y-38695196D01*
X29324505Y-38698796D01*
X29300001Y-38700000D01*
X28649999Y-38700000D01*
X28625495Y-38698796D01*
X28601227Y-38695196D01*
X28577428Y-38689235D01*
X28554329Y-38680970D01*
X28532150Y-38670480D01*
X28511107Y-38657868D01*
X28491401Y-38643253D01*
X28473223Y-38626777D01*
X28456747Y-38608599D01*
X28442132Y-38588893D01*
X28429520Y-38567850D01*
X28419030Y-38545671D01*
X28410765Y-38522572D01*
X28404804Y-38498773D01*
X28401204Y-38474505D01*
X28400000Y-38450001D01*
X28400000Y-37549999D01*
X28401204Y-37525495D01*
X28404804Y-37501227D01*
X28410765Y-37477428D01*
X28419030Y-37454329D01*
X28429520Y-37432150D01*
X28442132Y-37411107D01*
X28456747Y-37391401D01*
X28473223Y-37373223D01*
X28491401Y-37356747D01*
X28511107Y-37342132D01*
X28532150Y-37329520D01*
X28554329Y-37319030D01*
X28577428Y-37310765D01*
X28601227Y-37304804D01*
X28625495Y-37301204D01*
X28649999Y-37300000D01*
X29300001Y-37300000D01*
X29324505Y-37301204D01*
X29324505Y-37301204D01*
G37*
D11*
G04 #@! TD*
G04 #@! TO.P,C3,2*
G04 #@! TO.N,GND*
X28975000Y-38000000D03*
D10*
G04 #@! TO.N,+3V3*
G04 #@! TO.C,C3*
G36*
X31374505Y-37301204D02*
X31398773Y-37304804D01*
X31422572Y-37310765D01*
X31445671Y-37319030D01*
X31467850Y-37329520D01*
X31488893Y-37342132D01*
X31508599Y-37356747D01*
X31526777Y-37373223D01*
X31543253Y-37391401D01*
X31557868Y-37411107D01*
X31570480Y-37432150D01*
X31580970Y-37454329D01*
X31589235Y-37477428D01*
X31595196Y-37501227D01*
X31598796Y-37525495D01*
X31600000Y-37549999D01*
X31600000Y-38450001D01*
X31598796Y-38474505D01*
X31595196Y-38498773D01*
X31589235Y-38522572D01*
X31580970Y-38545671D01*
X31570480Y-38567850D01*
X31557868Y-38588893D01*
X31543253Y-38608599D01*
X31526777Y-38626777D01*
X31508599Y-38643253D01*
X31488893Y-38657868D01*
X31467850Y-38670480D01*
X31445671Y-38680970D01*
X31422572Y-38689235D01*
X31398773Y-38695196D01*
X31374505Y-38698796D01*
X31350001Y-38700000D01*
X30699999Y-38700000D01*
X30675495Y-38698796D01*
X30651227Y-38695196D01*
X30627428Y-38689235D01*
X30604329Y-38680970D01*
X30582150Y-38670480D01*
X30561107Y-38657868D01*
X30541401Y-38643253D01*
X30523223Y-38626777D01*
X30506747Y-38608599D01*
X30492132Y-38588893D01*
X30479520Y-38567850D01*
X30469030Y-38545671D01*
X30460765Y-38522572D01*
X30454804Y-38498773D01*
X30451204Y-38474505D01*
X30450000Y-38450001D01*
X30450000Y-37549999D01*
X30451204Y-37525495D01*
X30454804Y-37501227D01*
X30460765Y-37477428D01*
X30469030Y-37454329D01*
X30479520Y-37432150D01*
X30492132Y-37411107D01*
X30506747Y-37391401D01*
X30523223Y-37373223D01*
X30541401Y-37356747D01*
X30561107Y-37342132D01*
X30582150Y-37329520D01*
X30604329Y-37319030D01*
X30627428Y-37310765D01*
X30651227Y-37304804D01*
X30675495Y-37301204D01*
X30699999Y-37300000D01*
X31350001Y-37300000D01*
X31374505Y-37301204D01*
X31374505Y-37301204D01*
G37*
D11*
G04 #@! TD*
G04 #@! TO.P,C3,1*
G04 #@! TO.N,+3V3*
X31025000Y-38000000D03*
D15*
G04 #@! TO.P,C7,2*
G04 #@! TO.N,GND*
X30000000Y-41500000D03*
D14*
G04 #@! TO.P,C7,1*
G04 #@! TO.N,+5V*
X30000000Y-44000000D03*
G04 #@! TD*
D16*
G04 #@! TO.P,J1,1*
G04 #@! TO.N,GND*
X51000000Y-50000000D03*
D17*
G04 #@! TO.P,J1,2*
G04 #@! TO.N,Net-(J1-Pad2)*
X51000000Y-52540000D03*
G04 #@! TO.P,J1,3*
G04 #@! TO.N,Net-(C1-Pad1)*
X51000000Y-55080000D03*
G04 #@! TD*
G04 #@! TO.P,J2,3*
G04 #@! TO.N,+5V*
X23080000Y-38000000D03*
G04 #@! TO.P,J2,2*
G04 #@! TO.N,+3V3*
X20540000Y-38000000D03*
D16*
G04 #@! TO.P,J2,1*
G04 #@! TO.N,GND*
X18000000Y-38000000D03*
G04 #@! TD*
G04 #@! TO.P,J3,1*
G04 #@! TO.N,GND*
X17000000Y-49000000D03*
D17*
G04 #@! TO.P,J3,2*
G04 #@! TO.N,+5V*
X17000000Y-46460000D03*
G04 #@! TD*
D16*
G04 #@! TO.P,Q1,1*
G04 #@! TO.N,Net-(D3-Pad2)*
X32000000Y-55000000D03*
D17*
G04 #@! TO.P,Q1,2*
G04 #@! TO.N,Net-(C1-Pad1)*
X32000000Y-57540000D03*
G04 #@! TO.P,Q1,3*
G04 #@! TO.N,+5V*
X32000000Y-60080000D03*
G04 #@! TD*
D18*
G04 #@! TO.P,Q2,1*
G04 #@! TO.N,Net-(Q2-Pad1)*
X35950000Y-48000000D03*
G04 #@! TO.P,Q2,2*
G04 #@! TO.N,GND*
X34050000Y-48000000D03*
G04 #@! TO.P,Q2,3*
G04 #@! TO.N,Net-(D3-Pad2)*
X35000000Y-50000000D03*
G04 #@! TD*
D10*
G04 #@! TO.N,Net-(R2-Pad1)*
G04 #@! TO.C,R2*
G36*
X47185779Y-45526144D02*
X47208834Y-45529563D01*
X47231443Y-45535227D01*
X47253387Y-45543079D01*
X47274457Y-45553044D01*
X47294448Y-45565026D01*
X47313168Y-45578910D01*
X47330438Y-45594562D01*
X47346090Y-45611832D01*
X47359974Y-45630552D01*
X47371956Y-45650543D01*
X47381921Y-45671613D01*
X47389773Y-45693557D01*
X47395437Y-45716166D01*
X47398856Y-45739221D01*
X47400000Y-45762500D01*
X47400000Y-46237500D01*
X47398856Y-46260779D01*
X47395437Y-46283834D01*
X47389773Y-46306443D01*
X47381921Y-46328387D01*
X47371956Y-46349457D01*
X47359974Y-46369448D01*
X47346090Y-46388168D01*
X47330438Y-46405438D01*
X47313168Y-46421090D01*
X47294448Y-46434974D01*
X47274457Y-46446956D01*
X47253387Y-46456921D01*
X47231443Y-46464773D01*
X47208834Y-46470437D01*
X47185779Y-46473856D01*
X47162500Y-46475000D01*
X46587500Y-46475000D01*
X46564221Y-46473856D01*
X46541166Y-46470437D01*
X46518557Y-46464773D01*
X46496613Y-46456921D01*
X46475543Y-46446956D01*
X46455552Y-46434974D01*
X46436832Y-46421090D01*
X46419562Y-46405438D01*
X46403910Y-46388168D01*
X46390026Y-46369448D01*
X46378044Y-46349457D01*
X46368079Y-46328387D01*
X46360227Y-46306443D01*
X46354563Y-46283834D01*
X46351144Y-46260779D01*
X46350000Y-46237500D01*
X46350000Y-45762500D01*
X46351144Y-45739221D01*
X46354563Y-45716166D01*
X46360227Y-45693557D01*
X46368079Y-45671613D01*
X46378044Y-45650543D01*
X46390026Y-45630552D01*
X46403910Y-45611832D01*
X46419562Y-45594562D01*
X46436832Y-45578910D01*
X46455552Y-45565026D01*
X46475543Y-45553044D01*
X46496613Y-45543079D01*
X46518557Y-45535227D01*
X46541166Y-45529563D01*
X46564221Y-45526144D01*
X46587500Y-45525000D01*
X47162500Y-45525000D01*
X47185779Y-45526144D01*
X47185779Y-45526144D01*
G37*
D12*
G04 #@! TD*
G04 #@! TO.P,R2,1*
G04 #@! TO.N,Net-(R2-Pad1)*
X46875000Y-46000000D03*
D10*
G04 #@! TO.N,Net-(J1-Pad2)*
G04 #@! TO.C,R2*
G36*
X45435779Y-45526144D02*
X45458834Y-45529563D01*
X45481443Y-45535227D01*
X45503387Y-45543079D01*
X45524457Y-45553044D01*
X45544448Y-45565026D01*
X45563168Y-45578910D01*
X45580438Y-45594562D01*
X45596090Y-45611832D01*
X45609974Y-45630552D01*
X45621956Y-45650543D01*
X45631921Y-45671613D01*
X45639773Y-45693557D01*
X45645437Y-45716166D01*
X45648856Y-45739221D01*
X45650000Y-45762500D01*
X45650000Y-46237500D01*
X45648856Y-46260779D01*
X45645437Y-46283834D01*
X45639773Y-46306443D01*
X45631921Y-46328387D01*
X45621956Y-46349457D01*
X45609974Y-46369448D01*
X45596090Y-46388168D01*
X45580438Y-46405438D01*
X45563168Y-46421090D01*
X45544448Y-46434974D01*
X45524457Y-46446956D01*
X45503387Y-46456921D01*
X45481443Y-46464773D01*
X45458834Y-46470437D01*
X45435779Y-46473856D01*
X45412500Y-46475000D01*
X44837500Y-46475000D01*
X44814221Y-46473856D01*
X44791166Y-46470437D01*
X44768557Y-46464773D01*
X44746613Y-46456921D01*
X44725543Y-46446956D01*
X44705552Y-46434974D01*
X44686832Y-46421090D01*
X44669562Y-46405438D01*
X44653910Y-46388168D01*
X44640026Y-46369448D01*
X44628044Y-46349457D01*
X44618079Y-46328387D01*
X44610227Y-46306443D01*
X44604563Y-46283834D01*
X44601144Y-46260779D01*
X44600000Y-46237500D01*
X44600000Y-45762500D01*
X44601144Y-45739221D01*
X44604563Y-45716166D01*
X44610227Y-45693557D01*
X44618079Y-45671613D01*
X44628044Y-45650543D01*
X44640026Y-45630552D01*
X44653910Y-45611832D01*
X44669562Y-45594562D01*
X44686832Y-45578910D01*
X44705552Y-45565026D01*
X44725543Y-45553044D01*
X44746613Y-45543079D01*
X44768557Y-45535227D01*
X44791166Y-45529563D01*
X44814221Y-45526144D01*
X44837500Y-45525000D01*
X45412500Y-45525000D01*
X45435779Y-45526144D01*
X45435779Y-45526144D01*
G37*
D12*
G04 #@! TD*
G04 #@! TO.P,R2,2*
G04 #@! TO.N,Net-(J1-Pad2)*
X45125000Y-46000000D03*
D10*
G04 #@! TO.N,+3V3*
G04 #@! TO.C,R3*
G36*
X27260779Y-22351144D02*
X27283834Y-22354563D01*
X27306443Y-22360227D01*
X27328387Y-22368079D01*
X27349457Y-22378044D01*
X27369448Y-22390026D01*
X27388168Y-22403910D01*
X27405438Y-22419562D01*
X27421090Y-22436832D01*
X27434974Y-22455552D01*
X27446956Y-22475543D01*
X27456921Y-22496613D01*
X27464773Y-22518557D01*
X27470437Y-22541166D01*
X27473856Y-22564221D01*
X27475000Y-22587500D01*
X27475000Y-23162500D01*
X27473856Y-23185779D01*
X27470437Y-23208834D01*
X27464773Y-23231443D01*
X27456921Y-23253387D01*
X27446956Y-23274457D01*
X27434974Y-23294448D01*
X27421090Y-23313168D01*
X27405438Y-23330438D01*
X27388168Y-23346090D01*
X27369448Y-23359974D01*
X27349457Y-23371956D01*
X27328387Y-23381921D01*
X27306443Y-23389773D01*
X27283834Y-23395437D01*
X27260779Y-23398856D01*
X27237500Y-23400000D01*
X26762500Y-23400000D01*
X26739221Y-23398856D01*
X26716166Y-23395437D01*
X26693557Y-23389773D01*
X26671613Y-23381921D01*
X26650543Y-23371956D01*
X26630552Y-23359974D01*
X26611832Y-23346090D01*
X26594562Y-23330438D01*
X26578910Y-23313168D01*
X26565026Y-23294448D01*
X26553044Y-23274457D01*
X26543079Y-23253387D01*
X26535227Y-23231443D01*
X26529563Y-23208834D01*
X26526144Y-23185779D01*
X26525000Y-23162500D01*
X26525000Y-22587500D01*
X26526144Y-22564221D01*
X26529563Y-22541166D01*
X26535227Y-22518557D01*
X26543079Y-22496613D01*
X26553044Y-22475543D01*
X26565026Y-22455552D01*
X26578910Y-22436832D01*
X26594562Y-22419562D01*
X26611832Y-22403910D01*
X26630552Y-22390026D01*
X26650543Y-22378044D01*
X26671613Y-22368079D01*
X26693557Y-22360227D01*
X26716166Y-22354563D01*
X26739221Y-22351144D01*
X26762500Y-22350000D01*
X27237500Y-22350000D01*
X27260779Y-22351144D01*
X27260779Y-22351144D01*
G37*
D12*
G04 #@! TD*
G04 #@! TO.P,R3,1*
G04 #@! TO.N,+3V3*
X27000000Y-22875000D03*
D10*
G04 #@! TO.N,Net-(R3-Pad2)*
G04 #@! TO.C,R3*
G36*
X27260779Y-20601144D02*
X27283834Y-20604563D01*
X27306443Y-20610227D01*
X27328387Y-20618079D01*
X27349457Y-20628044D01*
X27369448Y-20640026D01*
X27388168Y-20653910D01*
X27405438Y-20669562D01*
X27421090Y-20686832D01*
X27434974Y-20705552D01*
X27446956Y-20725543D01*
X27456921Y-20746613D01*
X27464773Y-20768557D01*
X27470437Y-20791166D01*
X27473856Y-20814221D01*
X27475000Y-20837500D01*
X27475000Y-21412500D01*
X27473856Y-21435779D01*
X27470437Y-21458834D01*
X27464773Y-21481443D01*
X27456921Y-21503387D01*
X27446956Y-21524457D01*
X27434974Y-21544448D01*
X27421090Y-21563168D01*
X27405438Y-21580438D01*
X27388168Y-21596090D01*
X27369448Y-21609974D01*
X27349457Y-21621956D01*
X27328387Y-21631921D01*
X27306443Y-21639773D01*
X27283834Y-21645437D01*
X27260779Y-21648856D01*
X27237500Y-21650000D01*
X26762500Y-21650000D01*
X26739221Y-21648856D01*
X26716166Y-21645437D01*
X26693557Y-21639773D01*
X26671613Y-21631921D01*
X26650543Y-21621956D01*
X26630552Y-21609974D01*
X26611832Y-21596090D01*
X26594562Y-21580438D01*
X26578910Y-21563168D01*
X26565026Y-21544448D01*
X26553044Y-21524457D01*
X26543079Y-21503387D01*
X26535227Y-21481443D01*
X26529563Y-21458834D01*
X26526144Y-21435779D01*
X26525000Y-21412500D01*
X26525000Y-20837500D01*
X26526144Y-20814221D01*
X26529563Y-20791166D01*
X26535227Y-20768557D01*
X26543079Y-20746613D01*
X26553044Y-20725543D01*
X26565026Y-20705552D01*
X26578910Y-20686832D01*
X26594562Y-20669562D01*
X26611832Y-20653910D01*
X26630552Y-20640026D01*
X26650543Y-20628044D01*
X26671613Y-20618079D01*
X26693557Y-20610227D01*
X26716166Y-20604563D01*
X26739221Y-20601144D01*
X26762500Y-20600000D01*
X27237500Y-20600000D01*
X27260779Y-20601144D01*
X27260779Y-20601144D01*
G37*
D12*
G04 #@! TD*
G04 #@! TO.P,R3,2*
G04 #@! TO.N,Net-(R3-Pad2)*
X27000000Y-21125000D03*
D10*
G04 #@! TO.N,Net-(R5-Pad2)*
G04 #@! TO.C,R5*
G36*
X23260779Y-22351144D02*
X23283834Y-22354563D01*
X23306443Y-22360227D01*
X23328387Y-22368079D01*
X23349457Y-22378044D01*
X23369448Y-22390026D01*
X23388168Y-22403910D01*
X23405438Y-22419562D01*
X23421090Y-22436832D01*
X23434974Y-22455552D01*
X23446956Y-22475543D01*
X23456921Y-22496613D01*
X23464773Y-22518557D01*
X23470437Y-22541166D01*
X23473856Y-22564221D01*
X23475000Y-22587500D01*
X23475000Y-23162500D01*
X23473856Y-23185779D01*
X23470437Y-23208834D01*
X23464773Y-23231443D01*
X23456921Y-23253387D01*
X23446956Y-23274457D01*
X23434974Y-23294448D01*
X23421090Y-23313168D01*
X23405438Y-23330438D01*
X23388168Y-23346090D01*
X23369448Y-23359974D01*
X23349457Y-23371956D01*
X23328387Y-23381921D01*
X23306443Y-23389773D01*
X23283834Y-23395437D01*
X23260779Y-23398856D01*
X23237500Y-23400000D01*
X22762500Y-23400000D01*
X22739221Y-23398856D01*
X22716166Y-23395437D01*
X22693557Y-23389773D01*
X22671613Y-23381921D01*
X22650543Y-23371956D01*
X22630552Y-23359974D01*
X22611832Y-23346090D01*
X22594562Y-23330438D01*
X22578910Y-23313168D01*
X22565026Y-23294448D01*
X22553044Y-23274457D01*
X22543079Y-23253387D01*
X22535227Y-23231443D01*
X22529563Y-23208834D01*
X22526144Y-23185779D01*
X22525000Y-23162500D01*
X22525000Y-22587500D01*
X22526144Y-22564221D01*
X22529563Y-22541166D01*
X22535227Y-22518557D01*
X22543079Y-22496613D01*
X22553044Y-22475543D01*
X22565026Y-22455552D01*
X22578910Y-22436832D01*
X22594562Y-22419562D01*
X22611832Y-22403910D01*
X22630552Y-22390026D01*
X22650543Y-22378044D01*
X22671613Y-22368079D01*
X22693557Y-22360227D01*
X22716166Y-22354563D01*
X22739221Y-22351144D01*
X22762500Y-22350000D01*
X23237500Y-22350000D01*
X23260779Y-22351144D01*
X23260779Y-22351144D01*
G37*
D12*
G04 #@! TD*
G04 #@! TO.P,R5,2*
G04 #@! TO.N,Net-(R5-Pad2)*
X23000000Y-22875000D03*
D10*
G04 #@! TO.N,Net-(R3-Pad2)*
G04 #@! TO.C,R5*
G36*
X23260779Y-20601144D02*
X23283834Y-20604563D01*
X23306443Y-20610227D01*
X23328387Y-20618079D01*
X23349457Y-20628044D01*
X23369448Y-20640026D01*
X23388168Y-20653910D01*
X23405438Y-20669562D01*
X23421090Y-20686832D01*
X23434974Y-20705552D01*
X23446956Y-20725543D01*
X23456921Y-20746613D01*
X23464773Y-20768557D01*
X23470437Y-20791166D01*
X23473856Y-20814221D01*
X23475000Y-20837500D01*
X23475000Y-21412500D01*
X23473856Y-21435779D01*
X23470437Y-21458834D01*
X23464773Y-21481443D01*
X23456921Y-21503387D01*
X23446956Y-21524457D01*
X23434974Y-21544448D01*
X23421090Y-21563168D01*
X23405438Y-21580438D01*
X23388168Y-21596090D01*
X23369448Y-21609974D01*
X23349457Y-21621956D01*
X23328387Y-21631921D01*
X23306443Y-21639773D01*
X23283834Y-21645437D01*
X23260779Y-21648856D01*
X23237500Y-21650000D01*
X22762500Y-21650000D01*
X22739221Y-21648856D01*
X22716166Y-21645437D01*
X22693557Y-21639773D01*
X22671613Y-21631921D01*
X22650543Y-21621956D01*
X22630552Y-21609974D01*
X22611832Y-21596090D01*
X22594562Y-21580438D01*
X22578910Y-21563168D01*
X22565026Y-21544448D01*
X22553044Y-21524457D01*
X22543079Y-21503387D01*
X22535227Y-21481443D01*
X22529563Y-21458834D01*
X22526144Y-21435779D01*
X22525000Y-21412500D01*
X22525000Y-20837500D01*
X22526144Y-20814221D01*
X22529563Y-20791166D01*
X22535227Y-20768557D01*
X22543079Y-20746613D01*
X22553044Y-20725543D01*
X22565026Y-20705552D01*
X22578910Y-20686832D01*
X22594562Y-20669562D01*
X22611832Y-20653910D01*
X22630552Y-20640026D01*
X22650543Y-20628044D01*
X22671613Y-20618079D01*
X22693557Y-20610227D01*
X22716166Y-20604563D01*
X22739221Y-20601144D01*
X22762500Y-20600000D01*
X23237500Y-20600000D01*
X23260779Y-20601144D01*
X23260779Y-20601144D01*
G37*
D12*
G04 #@! TD*
G04 #@! TO.P,R5,1*
G04 #@! TO.N,Net-(R3-Pad2)*
X23000000Y-21125000D03*
D10*
G04 #@! TO.N,Net-(D3-Pad2)*
G04 #@! TO.C,R6*
G36*
X22260779Y-53601144D02*
X22283834Y-53604563D01*
X22306443Y-53610227D01*
X22328387Y-53618079D01*
X22349457Y-53628044D01*
X22369448Y-53640026D01*
X22388168Y-53653910D01*
X22405438Y-53669562D01*
X22421090Y-53686832D01*
X22434974Y-53705552D01*
X22446956Y-53725543D01*
X22456921Y-53746613D01*
X22464773Y-53768557D01*
X22470437Y-53791166D01*
X22473856Y-53814221D01*
X22475000Y-53837500D01*
X22475000Y-54412500D01*
X22473856Y-54435779D01*
X22470437Y-54458834D01*
X22464773Y-54481443D01*
X22456921Y-54503387D01*
X22446956Y-54524457D01*
X22434974Y-54544448D01*
X22421090Y-54563168D01*
X22405438Y-54580438D01*
X22388168Y-54596090D01*
X22369448Y-54609974D01*
X22349457Y-54621956D01*
X22328387Y-54631921D01*
X22306443Y-54639773D01*
X22283834Y-54645437D01*
X22260779Y-54648856D01*
X22237500Y-54650000D01*
X21762500Y-54650000D01*
X21739221Y-54648856D01*
X21716166Y-54645437D01*
X21693557Y-54639773D01*
X21671613Y-54631921D01*
X21650543Y-54621956D01*
X21630552Y-54609974D01*
X21611832Y-54596090D01*
X21594562Y-54580438D01*
X21578910Y-54563168D01*
X21565026Y-54544448D01*
X21553044Y-54524457D01*
X21543079Y-54503387D01*
X21535227Y-54481443D01*
X21529563Y-54458834D01*
X21526144Y-54435779D01*
X21525000Y-54412500D01*
X21525000Y-53837500D01*
X21526144Y-53814221D01*
X21529563Y-53791166D01*
X21535227Y-53768557D01*
X21543079Y-53746613D01*
X21553044Y-53725543D01*
X21565026Y-53705552D01*
X21578910Y-53686832D01*
X21594562Y-53669562D01*
X21611832Y-53653910D01*
X21630552Y-53640026D01*
X21650543Y-53628044D01*
X21671613Y-53618079D01*
X21693557Y-53610227D01*
X21716166Y-53604563D01*
X21739221Y-53601144D01*
X21762500Y-53600000D01*
X22237500Y-53600000D01*
X22260779Y-53601144D01*
X22260779Y-53601144D01*
G37*
D12*
G04 #@! TD*
G04 #@! TO.P,R6,2*
G04 #@! TO.N,Net-(D3-Pad2)*
X22000000Y-54125000D03*
D10*
G04 #@! TO.N,+5V*
G04 #@! TO.C,R6*
G36*
X22260779Y-55351144D02*
X22283834Y-55354563D01*
X22306443Y-55360227D01*
X22328387Y-55368079D01*
X22349457Y-55378044D01*
X22369448Y-55390026D01*
X22388168Y-55403910D01*
X22405438Y-55419562D01*
X22421090Y-55436832D01*
X22434974Y-55455552D01*
X22446956Y-55475543D01*
X22456921Y-55496613D01*
X22464773Y-55518557D01*
X22470437Y-55541166D01*
X22473856Y-55564221D01*
X22475000Y-55587500D01*
X22475000Y-56162500D01*
X22473856Y-56185779D01*
X22470437Y-56208834D01*
X22464773Y-56231443D01*
X22456921Y-56253387D01*
X22446956Y-56274457D01*
X22434974Y-56294448D01*
X22421090Y-56313168D01*
X22405438Y-56330438D01*
X22388168Y-56346090D01*
X22369448Y-56359974D01*
X22349457Y-56371956D01*
X22328387Y-56381921D01*
X22306443Y-56389773D01*
X22283834Y-56395437D01*
X22260779Y-56398856D01*
X22237500Y-56400000D01*
X21762500Y-56400000D01*
X21739221Y-56398856D01*
X21716166Y-56395437D01*
X21693557Y-56389773D01*
X21671613Y-56381921D01*
X21650543Y-56371956D01*
X21630552Y-56359974D01*
X21611832Y-56346090D01*
X21594562Y-56330438D01*
X21578910Y-56313168D01*
X21565026Y-56294448D01*
X21553044Y-56274457D01*
X21543079Y-56253387D01*
X21535227Y-56231443D01*
X21529563Y-56208834D01*
X21526144Y-56185779D01*
X21525000Y-56162500D01*
X21525000Y-55587500D01*
X21526144Y-55564221D01*
X21529563Y-55541166D01*
X21535227Y-55518557D01*
X21543079Y-55496613D01*
X21553044Y-55475543D01*
X21565026Y-55455552D01*
X21578910Y-55436832D01*
X21594562Y-55419562D01*
X21611832Y-55403910D01*
X21630552Y-55390026D01*
X21650543Y-55378044D01*
X21671613Y-55368079D01*
X21693557Y-55360227D01*
X21716166Y-55354563D01*
X21739221Y-55351144D01*
X21762500Y-55350000D01*
X22237500Y-55350000D01*
X22260779Y-55351144D01*
X22260779Y-55351144D01*
G37*
D12*
G04 #@! TD*
G04 #@! TO.P,R6,1*
G04 #@! TO.N,+5V*
X22000000Y-55875000D03*
D10*
G04 #@! TO.N,Net-(Q2-Pad1)*
G04 #@! TO.C,R7*
G36*
X40260779Y-47351144D02*
X40283834Y-47354563D01*
X40306443Y-47360227D01*
X40328387Y-47368079D01*
X40349457Y-47378044D01*
X40369448Y-47390026D01*
X40388168Y-47403910D01*
X40405438Y-47419562D01*
X40421090Y-47436832D01*
X40434974Y-47455552D01*
X40446956Y-47475543D01*
X40456921Y-47496613D01*
X40464773Y-47518557D01*
X40470437Y-47541166D01*
X40473856Y-47564221D01*
X40475000Y-47587500D01*
X40475000Y-48162500D01*
X40473856Y-48185779D01*
X40470437Y-48208834D01*
X40464773Y-48231443D01*
X40456921Y-48253387D01*
X40446956Y-48274457D01*
X40434974Y-48294448D01*
X40421090Y-48313168D01*
X40405438Y-48330438D01*
X40388168Y-48346090D01*
X40369448Y-48359974D01*
X40349457Y-48371956D01*
X40328387Y-48381921D01*
X40306443Y-48389773D01*
X40283834Y-48395437D01*
X40260779Y-48398856D01*
X40237500Y-48400000D01*
X39762500Y-48400000D01*
X39739221Y-48398856D01*
X39716166Y-48395437D01*
X39693557Y-48389773D01*
X39671613Y-48381921D01*
X39650543Y-48371956D01*
X39630552Y-48359974D01*
X39611832Y-48346090D01*
X39594562Y-48330438D01*
X39578910Y-48313168D01*
X39565026Y-48294448D01*
X39553044Y-48274457D01*
X39543079Y-48253387D01*
X39535227Y-48231443D01*
X39529563Y-48208834D01*
X39526144Y-48185779D01*
X39525000Y-48162500D01*
X39525000Y-47587500D01*
X39526144Y-47564221D01*
X39529563Y-47541166D01*
X39535227Y-47518557D01*
X39543079Y-47496613D01*
X39553044Y-47475543D01*
X39565026Y-47455552D01*
X39578910Y-47436832D01*
X39594562Y-47419562D01*
X39611832Y-47403910D01*
X39630552Y-47390026D01*
X39650543Y-47378044D01*
X39671613Y-47368079D01*
X39693557Y-47360227D01*
X39716166Y-47354563D01*
X39739221Y-47351144D01*
X39762500Y-47350000D01*
X40237500Y-47350000D01*
X40260779Y-47351144D01*
X40260779Y-47351144D01*
G37*
D12*
G04 #@! TD*
G04 #@! TO.P,R7,1*
G04 #@! TO.N,Net-(Q2-Pad1)*
X40000000Y-47875000D03*
D10*
G04 #@! TO.N,Net-(R7-Pad2)*
G04 #@! TO.C,R7*
G36*
X40260779Y-45601144D02*
X40283834Y-45604563D01*
X40306443Y-45610227D01*
X40328387Y-45618079D01*
X40349457Y-45628044D01*
X40369448Y-45640026D01*
X40388168Y-45653910D01*
X40405438Y-45669562D01*
X40421090Y-45686832D01*
X40434974Y-45705552D01*
X40446956Y-45725543D01*
X40456921Y-45746613D01*
X40464773Y-45768557D01*
X40470437Y-45791166D01*
X40473856Y-45814221D01*
X40475000Y-45837500D01*
X40475000Y-46412500D01*
X40473856Y-46435779D01*
X40470437Y-46458834D01*
X40464773Y-46481443D01*
X40456921Y-46503387D01*
X40446956Y-46524457D01*
X40434974Y-46544448D01*
X40421090Y-46563168D01*
X40405438Y-46580438D01*
X40388168Y-46596090D01*
X40369448Y-46609974D01*
X40349457Y-46621956D01*
X40328387Y-46631921D01*
X40306443Y-46639773D01*
X40283834Y-46645437D01*
X40260779Y-46648856D01*
X40237500Y-46650000D01*
X39762500Y-46650000D01*
X39739221Y-46648856D01*
X39716166Y-46645437D01*
X39693557Y-46639773D01*
X39671613Y-46631921D01*
X39650543Y-46621956D01*
X39630552Y-46609974D01*
X39611832Y-46596090D01*
X39594562Y-46580438D01*
X39578910Y-46563168D01*
X39565026Y-46544448D01*
X39553044Y-46524457D01*
X39543079Y-46503387D01*
X39535227Y-46481443D01*
X39529563Y-46458834D01*
X39526144Y-46435779D01*
X39525000Y-46412500D01*
X39525000Y-45837500D01*
X39526144Y-45814221D01*
X39529563Y-45791166D01*
X39535227Y-45768557D01*
X39543079Y-45746613D01*
X39553044Y-45725543D01*
X39565026Y-45705552D01*
X39578910Y-45686832D01*
X39594562Y-45669562D01*
X39611832Y-45653910D01*
X39630552Y-45640026D01*
X39650543Y-45628044D01*
X39671613Y-45618079D01*
X39693557Y-45610227D01*
X39716166Y-45604563D01*
X39739221Y-45601144D01*
X39762500Y-45600000D01*
X40237500Y-45600000D01*
X40260779Y-45601144D01*
X40260779Y-45601144D01*
G37*
D12*
G04 #@! TD*
G04 #@! TO.P,R7,2*
G04 #@! TO.N,Net-(R7-Pad2)*
X40000000Y-46125000D03*
D10*
G04 #@! TO.N,Net-(R7-Pad2)*
G04 #@! TO.C,R8*
G36*
X41435779Y-42526144D02*
X41458834Y-42529563D01*
X41481443Y-42535227D01*
X41503387Y-42543079D01*
X41524457Y-42553044D01*
X41544448Y-42565026D01*
X41563168Y-42578910D01*
X41580438Y-42594562D01*
X41596090Y-42611832D01*
X41609974Y-42630552D01*
X41621956Y-42650543D01*
X41631921Y-42671613D01*
X41639773Y-42693557D01*
X41645437Y-42716166D01*
X41648856Y-42739221D01*
X41650000Y-42762500D01*
X41650000Y-43237500D01*
X41648856Y-43260779D01*
X41645437Y-43283834D01*
X41639773Y-43306443D01*
X41631921Y-43328387D01*
X41621956Y-43349457D01*
X41609974Y-43369448D01*
X41596090Y-43388168D01*
X41580438Y-43405438D01*
X41563168Y-43421090D01*
X41544448Y-43434974D01*
X41524457Y-43446956D01*
X41503387Y-43456921D01*
X41481443Y-43464773D01*
X41458834Y-43470437D01*
X41435779Y-43473856D01*
X41412500Y-43475000D01*
X40837500Y-43475000D01*
X40814221Y-43473856D01*
X40791166Y-43470437D01*
X40768557Y-43464773D01*
X40746613Y-43456921D01*
X40725543Y-43446956D01*
X40705552Y-43434974D01*
X40686832Y-43421090D01*
X40669562Y-43405438D01*
X40653910Y-43388168D01*
X40640026Y-43369448D01*
X40628044Y-43349457D01*
X40618079Y-43328387D01*
X40610227Y-43306443D01*
X40604563Y-43283834D01*
X40601144Y-43260779D01*
X40600000Y-43237500D01*
X40600000Y-42762500D01*
X40601144Y-42739221D01*
X40604563Y-42716166D01*
X40610227Y-42693557D01*
X40618079Y-42671613D01*
X40628044Y-42650543D01*
X40640026Y-42630552D01*
X40653910Y-42611832D01*
X40669562Y-42594562D01*
X40686832Y-42578910D01*
X40705552Y-42565026D01*
X40725543Y-42553044D01*
X40746613Y-42543079D01*
X40768557Y-42535227D01*
X40791166Y-42529563D01*
X40814221Y-42526144D01*
X40837500Y-42525000D01*
X41412500Y-42525000D01*
X41435779Y-42526144D01*
X41435779Y-42526144D01*
G37*
D12*
G04 #@! TD*
G04 #@! TO.P,R8,1*
G04 #@! TO.N,Net-(R7-Pad2)*
X41125000Y-43000000D03*
D10*
G04 #@! TO.N,GND*
G04 #@! TO.C,R8*
G36*
X43185779Y-42526144D02*
X43208834Y-42529563D01*
X43231443Y-42535227D01*
X43253387Y-42543079D01*
X43274457Y-42553044D01*
X43294448Y-42565026D01*
X43313168Y-42578910D01*
X43330438Y-42594562D01*
X43346090Y-42611832D01*
X43359974Y-42630552D01*
X43371956Y-42650543D01*
X43381921Y-42671613D01*
X43389773Y-42693557D01*
X43395437Y-42716166D01*
X43398856Y-42739221D01*
X43400000Y-42762500D01*
X43400000Y-43237500D01*
X43398856Y-43260779D01*
X43395437Y-43283834D01*
X43389773Y-43306443D01*
X43381921Y-43328387D01*
X43371956Y-43349457D01*
X43359974Y-43369448D01*
X43346090Y-43388168D01*
X43330438Y-43405438D01*
X43313168Y-43421090D01*
X43294448Y-43434974D01*
X43274457Y-43446956D01*
X43253387Y-43456921D01*
X43231443Y-43464773D01*
X43208834Y-43470437D01*
X43185779Y-43473856D01*
X43162500Y-43475000D01*
X42587500Y-43475000D01*
X42564221Y-43473856D01*
X42541166Y-43470437D01*
X42518557Y-43464773D01*
X42496613Y-43456921D01*
X42475543Y-43446956D01*
X42455552Y-43434974D01*
X42436832Y-43421090D01*
X42419562Y-43405438D01*
X42403910Y-43388168D01*
X42390026Y-43369448D01*
X42378044Y-43349457D01*
X42368079Y-43328387D01*
X42360227Y-43306443D01*
X42354563Y-43283834D01*
X42351144Y-43260779D01*
X42350000Y-43237500D01*
X42350000Y-42762500D01*
X42351144Y-42739221D01*
X42354563Y-42716166D01*
X42360227Y-42693557D01*
X42368079Y-42671613D01*
X42378044Y-42650543D01*
X42390026Y-42630552D01*
X42403910Y-42611832D01*
X42419562Y-42594562D01*
X42436832Y-42578910D01*
X42455552Y-42565026D01*
X42475543Y-42553044D01*
X42496613Y-42543079D01*
X42518557Y-42535227D01*
X42541166Y-42529563D01*
X42564221Y-42526144D01*
X42587500Y-42525000D01*
X43162500Y-42525000D01*
X43185779Y-42526144D01*
X43185779Y-42526144D01*
G37*
D12*
G04 #@! TD*
G04 #@! TO.P,R8,2*
G04 #@! TO.N,GND*
X42875000Y-43000000D03*
D10*
G04 #@! TO.N,Net-(J1-Pad2)*
G04 #@! TO.C,RV1*
G36*
X46260779Y-51351144D02*
X46283834Y-51354563D01*
X46306443Y-51360227D01*
X46328387Y-51368079D01*
X46349457Y-51378044D01*
X46369448Y-51390026D01*
X46388168Y-51403910D01*
X46405438Y-51419562D01*
X46421090Y-51436832D01*
X46434974Y-51455552D01*
X46446956Y-51475543D01*
X46456921Y-51496613D01*
X46464773Y-51518557D01*
X46470437Y-51541166D01*
X46473856Y-51564221D01*
X46475000Y-51587500D01*
X46475000Y-52162500D01*
X46473856Y-52185779D01*
X46470437Y-52208834D01*
X46464773Y-52231443D01*
X46456921Y-52253387D01*
X46446956Y-52274457D01*
X46434974Y-52294448D01*
X46421090Y-52313168D01*
X46405438Y-52330438D01*
X46388168Y-52346090D01*
X46369448Y-52359974D01*
X46349457Y-52371956D01*
X46328387Y-52381921D01*
X46306443Y-52389773D01*
X46283834Y-52395437D01*
X46260779Y-52398856D01*
X46237500Y-52400000D01*
X45762500Y-52400000D01*
X45739221Y-52398856D01*
X45716166Y-52395437D01*
X45693557Y-52389773D01*
X45671613Y-52381921D01*
X45650543Y-52371956D01*
X45630552Y-52359974D01*
X45611832Y-52346090D01*
X45594562Y-52330438D01*
X45578910Y-52313168D01*
X45565026Y-52294448D01*
X45553044Y-52274457D01*
X45543079Y-52253387D01*
X45535227Y-52231443D01*
X45529563Y-52208834D01*
X45526144Y-52185779D01*
X45525000Y-52162500D01*
X45525000Y-51587500D01*
X45526144Y-51564221D01*
X45529563Y-51541166D01*
X45535227Y-51518557D01*
X45543079Y-51496613D01*
X45553044Y-51475543D01*
X45565026Y-51455552D01*
X45578910Y-51436832D01*
X45594562Y-51419562D01*
X45611832Y-51403910D01*
X45630552Y-51390026D01*
X45650543Y-51378044D01*
X45671613Y-51368079D01*
X45693557Y-51360227D01*
X45716166Y-51354563D01*
X45739221Y-51351144D01*
X45762500Y-51350000D01*
X46237500Y-51350000D01*
X46260779Y-51351144D01*
X46260779Y-51351144D01*
G37*
D12*
G04 #@! TD*
G04 #@! TO.P,RV1,2*
G04 #@! TO.N,Net-(J1-Pad2)*
X46000000Y-51875000D03*
D10*
G04 #@! TO.N,GND*
G04 #@! TO.C,RV1*
G36*
X46260779Y-49601144D02*
X46283834Y-49604563D01*
X46306443Y-49610227D01*
X46328387Y-49618079D01*
X46349457Y-49628044D01*
X46369448Y-49640026D01*
X46388168Y-49653910D01*
X46405438Y-49669562D01*
X46421090Y-49686832D01*
X46434974Y-49705552D01*
X46446956Y-49725543D01*
X46456921Y-49746613D01*
X46464773Y-49768557D01*
X46470437Y-49791166D01*
X46473856Y-49814221D01*
X46475000Y-49837500D01*
X46475000Y-50412500D01*
X46473856Y-50435779D01*
X46470437Y-50458834D01*
X46464773Y-50481443D01*
X46456921Y-50503387D01*
X46446956Y-50524457D01*
X46434974Y-50544448D01*
X46421090Y-50563168D01*
X46405438Y-50580438D01*
X46388168Y-50596090D01*
X46369448Y-50609974D01*
X46349457Y-50621956D01*
X46328387Y-50631921D01*
X46306443Y-50639773D01*
X46283834Y-50645437D01*
X46260779Y-50648856D01*
X46237500Y-50650000D01*
X45762500Y-50650000D01*
X45739221Y-50648856D01*
X45716166Y-50645437D01*
X45693557Y-50639773D01*
X45671613Y-50631921D01*
X45650543Y-50621956D01*
X45630552Y-50609974D01*
X45611832Y-50596090D01*
X45594562Y-50580438D01*
X45578910Y-50563168D01*
X45565026Y-50544448D01*
X45553044Y-50524457D01*
X45543079Y-50503387D01*
X45535227Y-50481443D01*
X45529563Y-50458834D01*
X45526144Y-50435779D01*
X45525000Y-50412500D01*
X45525000Y-49837500D01*
X45526144Y-49814221D01*
X45529563Y-49791166D01*
X45535227Y-49768557D01*
X45543079Y-49746613D01*
X45553044Y-49725543D01*
X45565026Y-49705552D01*
X45578910Y-49686832D01*
X45594562Y-49669562D01*
X45611832Y-49653910D01*
X45630552Y-49640026D01*
X45650543Y-49628044D01*
X45671613Y-49618079D01*
X45693557Y-49610227D01*
X45716166Y-49604563D01*
X45739221Y-49601144D01*
X45762500Y-49600000D01*
X46237500Y-49600000D01*
X46260779Y-49601144D01*
X46260779Y-49601144D01*
G37*
D12*
G04 #@! TD*
G04 #@! TO.P,RV1,1*
G04 #@! TO.N,GND*
X46000000Y-50125000D03*
D19*
G04 #@! TO.P,U1,1*
G04 #@! TO.N,GND*
X48650000Y-39670000D03*
G04 #@! TO.P,U1,2*
G04 #@! TO.N,Net-(R1-Pad1)*
X48000000Y-39670000D03*
G04 #@! TO.P,U1,3*
G04 #@! TO.N,GND*
X47350000Y-39670000D03*
G04 #@! TO.P,U1,4*
G04 #@! TO.N,Net-(R2-Pad1)*
X47350000Y-42330000D03*
G04 #@! TO.P,U1,5*
G04 #@! TO.N,Net-(C1-Pad1)*
X48650000Y-42330000D03*
G04 #@! TD*
D20*
G04 #@! TO.P,U2,16*
G04 #@! TO.N,N/C*
X45600000Y-20100000D03*
G04 #@! TO.P,U2,15*
X45600000Y-22100000D03*
G04 #@! TO.P,U2,14*
X45600000Y-24100000D03*
G04 #@! TO.P,U2,13*
X45600000Y-26100000D03*
G04 #@! TO.P,U2,12*
G04 #@! TO.N,Net-(R4-Pad1)*
X45600000Y-28100000D03*
G04 #@! TO.P,U2,11*
G04 #@! TO.N,Net-(R1-Pad1)*
X45600000Y-30100000D03*
G04 #@! TO.P,U2,10*
G04 #@! TO.N,Net-(R7-Pad2)*
X45600000Y-32100000D03*
G04 #@! TO.P,U2,9*
G04 #@! TO.N,GND*
X45600000Y-34100000D03*
G04 #@! TO.P,U2,8*
G04 #@! TO.N,+3V3*
X30400000Y-34100000D03*
G04 #@! TO.P,U2,7*
G04 #@! TO.N,N/C*
X30400000Y-32100000D03*
G04 #@! TO.P,U2,6*
X30400000Y-30100000D03*
G04 #@! TO.P,U2,5*
X30400000Y-28100000D03*
G04 #@! TO.P,U2,4*
G04 #@! TO.N,Net-(R5-Pad2)*
X30400000Y-26100000D03*
G04 #@! TO.P,U2,3*
G04 #@! TO.N,+3V3*
X30400000Y-24100000D03*
G04 #@! TO.P,U2,2*
G04 #@! TO.N,N/C*
X30400000Y-22100000D03*
G04 #@! TO.P,U2,1*
G04 #@! TO.N,Net-(R3-Pad2)*
X30400000Y-20100000D03*
G04 #@! TD*
D10*
G04 #@! TO.N,GND*
G04 #@! TO.C,C5*
G36*
X18435779Y-32526144D02*
X18458834Y-32529563D01*
X18481443Y-32535227D01*
X18503387Y-32543079D01*
X18524457Y-32553044D01*
X18544448Y-32565026D01*
X18563168Y-32578910D01*
X18580438Y-32594562D01*
X18596090Y-32611832D01*
X18609974Y-32630552D01*
X18621956Y-32650543D01*
X18631921Y-32671613D01*
X18639773Y-32693557D01*
X18645437Y-32716166D01*
X18648856Y-32739221D01*
X18650000Y-32762500D01*
X18650000Y-33237500D01*
X18648856Y-33260779D01*
X18645437Y-33283834D01*
X18639773Y-33306443D01*
X18631921Y-33328387D01*
X18621956Y-33349457D01*
X18609974Y-33369448D01*
X18596090Y-33388168D01*
X18580438Y-33405438D01*
X18563168Y-33421090D01*
X18544448Y-33434974D01*
X18524457Y-33446956D01*
X18503387Y-33456921D01*
X18481443Y-33464773D01*
X18458834Y-33470437D01*
X18435779Y-33473856D01*
X18412500Y-33475000D01*
X17837500Y-33475000D01*
X17814221Y-33473856D01*
X17791166Y-33470437D01*
X17768557Y-33464773D01*
X17746613Y-33456921D01*
X17725543Y-33446956D01*
X17705552Y-33434974D01*
X17686832Y-33421090D01*
X17669562Y-33405438D01*
X17653910Y-33388168D01*
X17640026Y-33369448D01*
X17628044Y-33349457D01*
X17618079Y-33328387D01*
X17610227Y-33306443D01*
X17604563Y-33283834D01*
X17601144Y-33260779D01*
X17600000Y-33237500D01*
X17600000Y-32762500D01*
X17601144Y-32739221D01*
X17604563Y-32716166D01*
X17610227Y-32693557D01*
X17618079Y-32671613D01*
X17628044Y-32650543D01*
X17640026Y-32630552D01*
X17653910Y-32611832D01*
X17669562Y-32594562D01*
X17686832Y-32578910D01*
X17705552Y-32565026D01*
X17725543Y-32553044D01*
X17746613Y-32543079D01*
X17768557Y-32535227D01*
X17791166Y-32529563D01*
X17814221Y-32526144D01*
X17837500Y-32525000D01*
X18412500Y-32525000D01*
X18435779Y-32526144D01*
X18435779Y-32526144D01*
G37*
D12*
G04 #@! TD*
G04 #@! TO.P,C5,2*
G04 #@! TO.N,GND*
X18125000Y-33000000D03*
D10*
G04 #@! TO.N,+3V3*
G04 #@! TO.C,C5*
G36*
X20185779Y-32526144D02*
X20208834Y-32529563D01*
X20231443Y-32535227D01*
X20253387Y-32543079D01*
X20274457Y-32553044D01*
X20294448Y-32565026D01*
X20313168Y-32578910D01*
X20330438Y-32594562D01*
X20346090Y-32611832D01*
X20359974Y-32630552D01*
X20371956Y-32650543D01*
X20381921Y-32671613D01*
X20389773Y-32693557D01*
X20395437Y-32716166D01*
X20398856Y-32739221D01*
X20400000Y-32762500D01*
X20400000Y-33237500D01*
X20398856Y-33260779D01*
X20395437Y-33283834D01*
X20389773Y-33306443D01*
X20381921Y-33328387D01*
X20371956Y-33349457D01*
X20359974Y-33369448D01*
X20346090Y-33388168D01*
X20330438Y-33405438D01*
X20313168Y-33421090D01*
X20294448Y-33434974D01*
X20274457Y-33446956D01*
X20253387Y-33456921D01*
X20231443Y-33464773D01*
X20208834Y-33470437D01*
X20185779Y-33473856D01*
X20162500Y-33475000D01*
X19587500Y-33475000D01*
X19564221Y-33473856D01*
X19541166Y-33470437D01*
X19518557Y-33464773D01*
X19496613Y-33456921D01*
X19475543Y-33446956D01*
X19455552Y-33434974D01*
X19436832Y-33421090D01*
X19419562Y-33405438D01*
X19403910Y-33388168D01*
X19390026Y-33369448D01*
X19378044Y-33349457D01*
X19368079Y-33328387D01*
X19360227Y-33306443D01*
X19354563Y-33283834D01*
X19351144Y-33260779D01*
X19350000Y-33237500D01*
X19350000Y-32762500D01*
X19351144Y-32739221D01*
X19354563Y-32716166D01*
X19360227Y-32693557D01*
X19368079Y-32671613D01*
X19378044Y-32650543D01*
X19390026Y-32630552D01*
X19403910Y-32611832D01*
X19419562Y-32594562D01*
X19436832Y-32578910D01*
X19455552Y-32565026D01*
X19475543Y-32553044D01*
X19496613Y-32543079D01*
X19518557Y-32535227D01*
X19541166Y-32529563D01*
X19564221Y-32526144D01*
X19587500Y-32525000D01*
X20162500Y-32525000D01*
X20185779Y-32526144D01*
X20185779Y-32526144D01*
G37*
D12*
G04 #@! TD*
G04 #@! TO.P,C5,1*
G04 #@! TO.N,+3V3*
X19875000Y-33000000D03*
D21*
G04 #@! TO.P,D3,1*
G04 #@! TO.N,+5V*
X26000000Y-59500000D03*
G04 #@! TO.P,D3,2*
G04 #@! TO.N,Net-(D3-Pad2)*
X26000000Y-54500000D03*
G04 #@! TD*
G04 #@! TO.P,D1,1*
G04 #@! TO.N,+5V*
X39000000Y-59500000D03*
G04 #@! TO.P,D1,2*
G04 #@! TO.N,Net-(C1-Pad1)*
X39000000Y-54500000D03*
G04 #@! TD*
D22*
G04 #@! TO.P,D2,2*
G04 #@! TO.N,GND*
X29500000Y-49000000D03*
G04 #@! TO.P,D2,1*
G04 #@! TO.N,+5V*
X24500000Y-49000000D03*
G04 #@! TD*
D23*
G04 #@! TO.N,GND*
X38000000Y-26000000D03*
X39000000Y-26000000D03*
X39000000Y-27000000D03*
X45000000Y-38000000D03*
X45000000Y-39000000D03*
X45000000Y-40000000D03*
X42000000Y-50000000D03*
X41000000Y-50000000D03*
X40000000Y-50000000D03*
X43000000Y-57000000D03*
X43000000Y-58000000D03*
X43000000Y-59000000D03*
X51000000Y-39000000D03*
X51000000Y-38000000D03*
X51000000Y-37000000D03*
G04 #@! TD*
D24*
G04 #@! TO.N,Net-(C1-Pad1)*
X50567500Y-55512500D02*
X51000000Y-55080000D01*
X46000000Y-55512500D02*
X50567500Y-55512500D01*
D25*
X51000000Y-55080000D02*
X52280000Y-55080000D01*
X52280000Y-55080000D02*
X53000000Y-54360000D01*
X53000000Y-54360000D02*
X53000000Y-45200000D01*
X53000000Y-45200000D02*
X50200000Y-42400000D01*
D26*
X50130000Y-42330000D02*
X50200000Y-42400000D01*
D24*
X32000000Y-57540000D02*
X33460000Y-57540000D01*
X36500000Y-54500000D02*
X39000000Y-54500000D01*
X33460000Y-57540000D02*
X36500000Y-54500000D01*
X44987500Y-54500000D02*
X46000000Y-55512500D01*
X39000000Y-54500000D02*
X44987500Y-54500000D01*
D26*
X48650000Y-42330000D02*
X50130000Y-42330000D01*
D24*
G04 #@! TO.N,+3V3*
X30325000Y-24025000D02*
X30400000Y-24100000D01*
D25*
X31150000Y-34100000D02*
X31250000Y-34000000D01*
X30400000Y-34100000D02*
X31150000Y-34100000D01*
X35125000Y-39000000D02*
X35125000Y-42000000D01*
D24*
G04 #@! TO.N,GND*
X29975000Y-42025000D02*
X30000000Y-42000000D01*
G04 #@! TO.N,+3V3*
X20540000Y-38000000D02*
X20540000Y-36460000D01*
X20540000Y-36460000D02*
X22900000Y-34100000D01*
X24000000Y-30000000D02*
X24000000Y-34100000D01*
X22900000Y-34100000D02*
X24000000Y-34100000D01*
X24000000Y-34100000D02*
X30400000Y-34100000D01*
X32900000Y-34100000D02*
X30400000Y-34100000D01*
X34000000Y-33000000D02*
X32900000Y-34100000D01*
X34000000Y-25700000D02*
X34000000Y-33000000D01*
X32400000Y-24100000D02*
X34000000Y-25700000D01*
X30400000Y-24100000D02*
X32400000Y-24100000D01*
X31025000Y-34725000D02*
X30400000Y-34100000D01*
X31025000Y-38000000D02*
X31025000Y-34725000D01*
D25*
X34125000Y-38000000D02*
X35125000Y-39000000D01*
X31025000Y-38000000D02*
X34125000Y-38000000D01*
X28225000Y-24100000D02*
X30400000Y-24100000D01*
X27000000Y-22875000D02*
X28225000Y-24100000D01*
D24*
X19875000Y-35795000D02*
X20540000Y-36460000D01*
X19875000Y-34000000D02*
X19875000Y-35795000D01*
X19875000Y-34000000D02*
X19875000Y-33000000D01*
G04 #@! TO.N,+5V*
X23080000Y-38000000D02*
X24000000Y-38920000D01*
X23975000Y-46025000D02*
X24000000Y-46000000D01*
X24000000Y-38920000D02*
X24000000Y-46000000D01*
X23540000Y-46460000D02*
X24000000Y-46000000D01*
X18000000Y-46460000D02*
X23540000Y-46460000D01*
X24025000Y-44000000D02*
X30000000Y-44000000D01*
X24500000Y-46500000D02*
X24500000Y-49000000D01*
X24000000Y-46000000D02*
X24500000Y-46500000D01*
X23650000Y-49000000D02*
X20000000Y-52650000D01*
X24500000Y-49000000D02*
X23650000Y-49000000D01*
X21500000Y-59500000D02*
X26000000Y-59500000D01*
X20000000Y-58000000D02*
X21500000Y-59500000D01*
X31420000Y-59500000D02*
X32000000Y-60080000D01*
X26000000Y-59500000D02*
X31420000Y-59500000D01*
X38420000Y-60080000D02*
X39000000Y-59500000D01*
X32000000Y-60080000D02*
X38420000Y-60080000D01*
D25*
X20125000Y-55875000D02*
X20000000Y-56000000D01*
X22000000Y-55875000D02*
X20125000Y-55875000D01*
D24*
X20000000Y-52650000D02*
X20000000Y-56000000D01*
X20000000Y-56000000D02*
X20000000Y-58000000D01*
X18000000Y-46460000D02*
X17000000Y-46460000D01*
D25*
G04 #@! TO.N,Net-(J1-Pad2)*
X43900000Y-47800000D02*
X43900000Y-50900000D01*
X45125000Y-46575000D02*
X43900000Y-47800000D01*
X45125000Y-46000000D02*
X45125000Y-46575000D01*
X43900000Y-50900000D02*
X44875000Y-51875000D01*
X44875000Y-51875000D02*
X46000000Y-51875000D01*
X50335000Y-51875000D02*
X51000000Y-52540000D01*
X46000000Y-51875000D02*
X50335000Y-51875000D01*
G04 #@! TO.N,Net-(Q2-Pad1)*
X36075000Y-47875000D02*
X35950000Y-48000000D01*
X40000000Y-47875000D02*
X36075000Y-47875000D01*
G04 #@! TO.N,Net-(R1-Pad1)*
X47350000Y-30100000D02*
X48000000Y-30750000D01*
X45600000Y-30100000D02*
X47350000Y-30100000D01*
X48000000Y-30750000D02*
X48000000Y-37800000D01*
X43850000Y-30100000D02*
X39000000Y-34950000D01*
X45600000Y-30100000D02*
X43850000Y-30100000D01*
X39000000Y-34950000D02*
X39000000Y-41000000D01*
X38000000Y-42000000D02*
X36875000Y-42000000D01*
X39000000Y-41000000D02*
X38000000Y-42000000D01*
D26*
X48000000Y-37800000D02*
X48000000Y-39670000D01*
G04 #@! TO.N,Net-(R2-Pad1)*
X47350000Y-42330000D02*
X47350000Y-45525000D01*
X47350000Y-45525000D02*
X46875000Y-46000000D01*
D25*
G04 #@! TO.N,Net-(R3-Pad2)*
X28025000Y-20100000D02*
X27000000Y-21125000D01*
X30400000Y-20100000D02*
X28025000Y-20100000D01*
X27000000Y-21125000D02*
X23000000Y-21125000D01*
G04 #@! TO.N,Net-(R4-Pad1)*
X36875000Y-38425000D02*
X36875000Y-39000000D01*
X36875000Y-35075000D02*
X36875000Y-38425000D01*
X43850000Y-28100000D02*
X36875000Y-35075000D01*
X45600000Y-28100000D02*
X43850000Y-28100000D01*
G04 #@! TO.N,Net-(R5-Pad2)*
X23000000Y-22875000D02*
X23875000Y-22875000D01*
X27100000Y-26100000D02*
X30400000Y-26100000D01*
X23875000Y-22875000D02*
X27100000Y-26100000D01*
G04 #@! TO.N,Net-(R7-Pad2)*
X41125000Y-42425000D02*
X41125000Y-43000000D01*
X41125000Y-34825000D02*
X41125000Y-42425000D01*
X43850000Y-32100000D02*
X41125000Y-34825000D01*
X45600000Y-32100000D02*
X43850000Y-32100000D01*
X41125000Y-45000000D02*
X40000000Y-46125000D01*
X41125000Y-43000000D02*
X41125000Y-45000000D01*
G04 #@! TO.N,Net-(D3-Pad2)*
X25625000Y-54125000D02*
X26000000Y-54500000D01*
X22000000Y-54125000D02*
X25625000Y-54125000D01*
X26500000Y-55000000D02*
X26000000Y-54500000D01*
X32000000Y-55000000D02*
X26500000Y-55000000D01*
X33350000Y-55000000D02*
X32000000Y-55000000D01*
X35000000Y-53350000D02*
X33350000Y-55000000D01*
X35000000Y-50000000D02*
X35000000Y-53350000D01*
G04 #@! TD*
D27*
G04 #@! TO.N,GND*
G36*
X28692191Y-19142191D02*
X28643541Y-19215000D01*
X28112161Y-19215000D01*
X28025000Y-19197663D01*
X27937839Y-19215000D01*
X27937835Y-19215000D01*
X27679690Y-19266348D01*
X27460845Y-19412576D01*
X27460844Y-19412577D01*
X27386951Y-19461951D01*
X27337577Y-19535844D01*
X26920861Y-19952560D01*
X26762500Y-19952560D01*
X26423848Y-20019922D01*
X26136753Y-20211753D01*
X26117879Y-20240000D01*
X23882121Y-20240000D01*
X23863247Y-20211753D01*
X23576152Y-20019922D01*
X23237500Y-19952560D01*
X22762500Y-19952560D01*
X22423848Y-20019922D01*
X22136753Y-20211753D01*
X21944922Y-20498848D01*
X21877560Y-20837500D01*
X21877560Y-21412500D01*
X21944922Y-21751152D01*
X22111197Y-22000000D01*
X21944922Y-22248848D01*
X21877560Y-22587500D01*
X21877560Y-23162500D01*
X21944922Y-23501152D01*
X22136753Y-23788247D01*
X22423848Y-23980078D01*
X22762500Y-24047440D01*
X23237500Y-24047440D01*
X23576152Y-23980078D01*
X23667478Y-23919056D01*
X26412577Y-26664156D01*
X26461951Y-26738049D01*
X26535844Y-26787423D01*
X26535845Y-26787424D01*
X26754690Y-26933652D01*
X27012835Y-26985000D01*
X27012839Y-26985000D01*
X27100000Y-27002337D01*
X27187161Y-26985000D01*
X28643541Y-26985000D01*
X28692191Y-27057809D01*
X28755334Y-27100000D01*
X28692191Y-27142191D01*
X28551843Y-27352235D01*
X28502560Y-27600000D01*
X28502560Y-28600000D01*
X28551843Y-28847765D01*
X28692191Y-29057809D01*
X28755334Y-29100000D01*
X28692191Y-29142191D01*
X28551843Y-29352235D01*
X28502560Y-29600000D01*
X28502560Y-30600000D01*
X28551843Y-30847765D01*
X28692191Y-31057809D01*
X28755334Y-31100000D01*
X28692191Y-31142191D01*
X28551843Y-31352235D01*
X28502560Y-31600000D01*
X28502560Y-32600000D01*
X28551843Y-32847765D01*
X28692191Y-33057809D01*
X28740368Y-33090000D01*
X25010000Y-33090000D01*
X25010000Y-31405669D01*
X25047765Y-31398157D01*
X25257809Y-31257809D01*
X25398157Y-31047765D01*
X25447440Y-30800000D01*
X25447440Y-29200000D01*
X25398157Y-28952235D01*
X25257809Y-28742191D01*
X25047765Y-28601843D01*
X24813813Y-28555307D01*
X24828139Y-28507745D01*
X24000000Y-27679605D01*
X23171861Y-28507745D01*
X23186187Y-28555307D01*
X22952235Y-28601843D01*
X22742191Y-28742191D01*
X22601843Y-28952235D01*
X22552560Y-29200000D01*
X22552560Y-30800000D01*
X22601843Y-31047765D01*
X22742191Y-31257809D01*
X22952235Y-31398157D01*
X22990000Y-31405669D01*
X22990001Y-33088116D01*
X22899999Y-33070214D01*
X22800528Y-33090000D01*
X22800524Y-33090000D01*
X22505918Y-33148601D01*
X22171831Y-33371831D01*
X22115482Y-33456163D01*
X20885000Y-34686645D01*
X20885000Y-33718446D01*
X20980078Y-33576152D01*
X21047440Y-33237500D01*
X21047440Y-32762500D01*
X20980078Y-32423848D01*
X20788247Y-32136753D01*
X20501152Y-31944922D01*
X20162500Y-31877560D01*
X19587500Y-31877560D01*
X19248848Y-31944922D01*
X19080460Y-32057435D01*
X19009698Y-31986673D01*
X18776309Y-31890000D01*
X18410750Y-31890000D01*
X18252000Y-32048750D01*
X18252000Y-32873000D01*
X18272000Y-32873000D01*
X18272000Y-33127000D01*
X18252000Y-33127000D01*
X18252000Y-33951250D01*
X18410750Y-34110000D01*
X18776309Y-34110000D01*
X18865000Y-34073263D01*
X18865001Y-35695525D01*
X18845214Y-35795000D01*
X18923602Y-36189082D01*
X19090482Y-36438837D01*
X19090485Y-36438840D01*
X19146832Y-36523169D01*
X19231161Y-36579516D01*
X19530001Y-36878356D01*
X19530001Y-36888866D01*
X19469375Y-36929375D01*
X19454904Y-36951033D01*
X19388327Y-36790302D01*
X19209699Y-36611673D01*
X18976310Y-36515000D01*
X18285750Y-36515000D01*
X18127000Y-36673750D01*
X18127000Y-37873000D01*
X18147000Y-37873000D01*
X18147000Y-38127000D01*
X18127000Y-38127000D01*
X18127000Y-39326250D01*
X18285750Y-39485000D01*
X18976310Y-39485000D01*
X19209699Y-39388327D01*
X19388327Y-39209698D01*
X19454904Y-39048967D01*
X19469375Y-39070625D01*
X19960582Y-39398839D01*
X20393744Y-39485000D01*
X20686256Y-39485000D01*
X21119418Y-39398839D01*
X21610625Y-39070625D01*
X21810000Y-38772239D01*
X22009375Y-39070625D01*
X22500582Y-39398839D01*
X22933744Y-39485000D01*
X22990000Y-39485000D01*
X22990001Y-42841975D01*
X22909698Y-42761673D01*
X22676309Y-42665000D01*
X22260750Y-42665000D01*
X22102000Y-42823750D01*
X22102000Y-43873000D01*
X22122000Y-43873000D01*
X22122000Y-44127000D01*
X22102000Y-44127000D01*
X22102000Y-45176250D01*
X22260750Y-45335000D01*
X22676309Y-45335000D01*
X22909698Y-45238327D01*
X22990001Y-45158025D01*
X22990001Y-45450000D01*
X18111133Y-45450000D01*
X18070625Y-45389375D01*
X17579418Y-45061161D01*
X17146256Y-44975000D01*
X16853744Y-44975000D01*
X16420582Y-45061161D01*
X15929375Y-45389375D01*
X15601161Y-45880582D01*
X15485908Y-46460000D01*
X15601161Y-47039418D01*
X15929375Y-47530625D01*
X15951033Y-47545096D01*
X15790302Y-47611673D01*
X15611673Y-47790301D01*
X15515000Y-48023690D01*
X15515000Y-48714250D01*
X15673750Y-48873000D01*
X16873000Y-48873000D01*
X16873000Y-48853000D01*
X17127000Y-48853000D01*
X17127000Y-48873000D01*
X18326250Y-48873000D01*
X18485000Y-48714250D01*
X18485000Y-48023690D01*
X18388327Y-47790301D01*
X18209698Y-47611673D01*
X18048967Y-47545096D01*
X18070625Y-47530625D01*
X18111133Y-47470000D01*
X22662322Y-47470000D01*
X22502235Y-47501843D01*
X22292191Y-47642191D01*
X22151843Y-47852235D01*
X22102560Y-48100000D01*
X22102560Y-49119084D01*
X19356163Y-51865482D01*
X19271831Y-51921831D01*
X19048601Y-52255919D01*
X18990000Y-52550525D01*
X18990000Y-52550529D01*
X18970214Y-52650000D01*
X18990000Y-52749471D01*
X18990001Y-55900520D01*
X18990000Y-55900525D01*
X18990001Y-57900525D01*
X18970214Y-58000000D01*
X19048602Y-58394082D01*
X19215482Y-58643837D01*
X19215485Y-58643840D01*
X19271832Y-58728169D01*
X19356161Y-58784516D01*
X20715482Y-60143837D01*
X20771831Y-60228169D01*
X21105918Y-60451399D01*
X21400524Y-60510000D01*
X21400528Y-60510000D01*
X21499999Y-60529786D01*
X21599470Y-60510000D01*
X24452560Y-60510000D01*
X24452560Y-61250000D01*
X24501843Y-61497765D01*
X24642191Y-61707809D01*
X24852235Y-61848157D01*
X25100000Y-61897440D01*
X26900000Y-61897440D01*
X27147765Y-61848157D01*
X27357809Y-61707809D01*
X27498157Y-61497765D01*
X27547440Y-61250000D01*
X27547440Y-60510000D01*
X30571440Y-60510000D01*
X30601161Y-60659418D01*
X30929375Y-61150625D01*
X31420582Y-61478839D01*
X31853744Y-61565000D01*
X32146256Y-61565000D01*
X32579418Y-61478839D01*
X33070625Y-61150625D01*
X33111133Y-61090000D01*
X37452560Y-61090000D01*
X37452560Y-61250000D01*
X37501843Y-61497765D01*
X37642191Y-61707809D01*
X37852235Y-61848157D01*
X38100000Y-61897440D01*
X39900000Y-61897440D01*
X40147765Y-61848157D01*
X40357809Y-61707809D01*
X40498157Y-61497765D01*
X40547440Y-61250000D01*
X40547440Y-60555431D01*
X48765000Y-60555431D01*
X48765000Y-61444569D01*
X49105259Y-62266026D01*
X49733974Y-62894741D01*
X50555431Y-63235000D01*
X51444569Y-63235000D01*
X52266026Y-62894741D01*
X52894741Y-62266026D01*
X53235000Y-61444569D01*
X53235000Y-60555431D01*
X52894741Y-59733974D01*
X52266026Y-59105259D01*
X51444569Y-58765000D01*
X50555431Y-58765000D01*
X49733974Y-59105259D01*
X49105259Y-59733974D01*
X48765000Y-60555431D01*
X40547440Y-60555431D01*
X40547440Y-58773250D01*
X44490000Y-58773250D01*
X44490000Y-59326309D01*
X44586673Y-59559698D01*
X44765301Y-59738327D01*
X44998690Y-59835000D01*
X45714250Y-59835000D01*
X45873000Y-59676250D01*
X45873000Y-58614500D01*
X46127000Y-58614500D01*
X46127000Y-59676250D01*
X46285750Y-59835000D01*
X47001310Y-59835000D01*
X47234699Y-59738327D01*
X47413327Y-59559698D01*
X47510000Y-59326309D01*
X47510000Y-58773250D01*
X47351250Y-58614500D01*
X46127000Y-58614500D01*
X45873000Y-58614500D01*
X44648750Y-58614500D01*
X44490000Y-58773250D01*
X40547440Y-58773250D01*
X40547440Y-57750000D01*
X40527289Y-57648691D01*
X44490000Y-57648691D01*
X44490000Y-58201750D01*
X44648750Y-58360500D01*
X45873000Y-58360500D01*
X45873000Y-57298750D01*
X46127000Y-57298750D01*
X46127000Y-58360500D01*
X47351250Y-58360500D01*
X47510000Y-58201750D01*
X47510000Y-57648691D01*
X47413327Y-57415302D01*
X47234699Y-57236673D01*
X47001310Y-57140000D01*
X46285750Y-57140000D01*
X46127000Y-57298750D01*
X45873000Y-57298750D01*
X45714250Y-57140000D01*
X44998690Y-57140000D01*
X44765301Y-57236673D01*
X44586673Y-57415302D01*
X44490000Y-57648691D01*
X40527289Y-57648691D01*
X40498157Y-57502235D01*
X40357809Y-57292191D01*
X40147765Y-57151843D01*
X39900000Y-57102560D01*
X38100000Y-57102560D01*
X37852235Y-57151843D01*
X37642191Y-57292191D01*
X37501843Y-57502235D01*
X37452560Y-57750000D01*
X37452560Y-59070000D01*
X33111133Y-59070000D01*
X33070625Y-59009375D01*
X32772239Y-58810000D01*
X33070625Y-58610625D01*
X33111133Y-58550000D01*
X33360529Y-58550000D01*
X33460000Y-58569786D01*
X33559471Y-58550000D01*
X33559476Y-58550000D01*
X33854082Y-58491399D01*
X34188169Y-58268169D01*
X34244518Y-58183837D01*
X36918355Y-55510000D01*
X37452560Y-55510000D01*
X37452560Y-56250000D01*
X37501843Y-56497765D01*
X37642191Y-56707809D01*
X37852235Y-56848157D01*
X38100000Y-56897440D01*
X39900000Y-56897440D01*
X40147765Y-56848157D01*
X40357809Y-56707809D01*
X40498157Y-56497765D01*
X40547440Y-56250000D01*
X40547440Y-55510000D01*
X44477560Y-55510000D01*
X44477560Y-55975000D01*
X44545874Y-56318435D01*
X44740414Y-56609586D01*
X45031565Y-56804126D01*
X45375000Y-56872440D01*
X46625000Y-56872440D01*
X46968435Y-56804126D01*
X47259586Y-56609586D01*
X47317775Y-56522500D01*
X50468029Y-56522500D01*
X50567500Y-56542286D01*
X50653526Y-56525174D01*
X50853744Y-56565000D01*
X51146256Y-56565000D01*
X51579418Y-56478839D01*
X52070625Y-56150625D01*
X52194443Y-55965319D01*
X52280000Y-55982337D01*
X52367161Y-55965000D01*
X52367165Y-55965000D01*
X52625310Y-55913652D01*
X52918049Y-55718049D01*
X52967425Y-55644153D01*
X53290001Y-55321578D01*
X53290001Y-63290000D01*
X14710000Y-63290000D01*
X14710000Y-60555431D01*
X14765000Y-60555431D01*
X14765000Y-61444569D01*
X15105259Y-62266026D01*
X15733974Y-62894741D01*
X16555431Y-63235000D01*
X17444569Y-63235000D01*
X18266026Y-62894741D01*
X18894741Y-62266026D01*
X19235000Y-61444569D01*
X19235000Y-60555431D01*
X18894741Y-59733974D01*
X18266026Y-59105259D01*
X17444569Y-58765000D01*
X16555431Y-58765000D01*
X15733974Y-59105259D01*
X15105259Y-59733974D01*
X14765000Y-60555431D01*
X14710000Y-60555431D01*
X14710000Y-49285750D01*
X15515000Y-49285750D01*
X15515000Y-49976310D01*
X15611673Y-50209699D01*
X15790302Y-50388327D01*
X16023691Y-50485000D01*
X16714250Y-50485000D01*
X16873000Y-50326250D01*
X16873000Y-49127000D01*
X17127000Y-49127000D01*
X17127000Y-50326250D01*
X17285750Y-50485000D01*
X17976309Y-50485000D01*
X18209698Y-50388327D01*
X18388327Y-50209699D01*
X18485000Y-49976310D01*
X18485000Y-49285750D01*
X18326250Y-49127000D01*
X17127000Y-49127000D01*
X16873000Y-49127000D01*
X15673750Y-49127000D01*
X15515000Y-49285750D01*
X14710000Y-49285750D01*
X14710000Y-44285750D01*
X20765000Y-44285750D01*
X20765000Y-44826310D01*
X20861673Y-45059699D01*
X21040302Y-45238327D01*
X21273691Y-45335000D01*
X21689250Y-45335000D01*
X21848000Y-45176250D01*
X21848000Y-44127000D01*
X20923750Y-44127000D01*
X20765000Y-44285750D01*
X14710000Y-44285750D01*
X14710000Y-43173690D01*
X20765000Y-43173690D01*
X20765000Y-43714250D01*
X20923750Y-43873000D01*
X21848000Y-43873000D01*
X21848000Y-42823750D01*
X21689250Y-42665000D01*
X21273691Y-42665000D01*
X21040302Y-42761673D01*
X20861673Y-42940301D01*
X20765000Y-43173690D01*
X14710000Y-43173690D01*
X14710000Y-38285750D01*
X16515000Y-38285750D01*
X16515000Y-38976309D01*
X16611673Y-39209698D01*
X16790301Y-39388327D01*
X17023690Y-39485000D01*
X17714250Y-39485000D01*
X17873000Y-39326250D01*
X17873000Y-38127000D01*
X16673750Y-38127000D01*
X16515000Y-38285750D01*
X14710000Y-38285750D01*
X14710000Y-37023691D01*
X16515000Y-37023691D01*
X16515000Y-37714250D01*
X16673750Y-37873000D01*
X17873000Y-37873000D01*
X17873000Y-36673750D01*
X17714250Y-36515000D01*
X17023690Y-36515000D01*
X16790301Y-36611673D01*
X16611673Y-36790302D01*
X16515000Y-37023691D01*
X14710000Y-37023691D01*
X14710000Y-33285750D01*
X16965000Y-33285750D01*
X16965000Y-33601310D01*
X17061673Y-33834699D01*
X17240302Y-34013327D01*
X17473691Y-34110000D01*
X17839250Y-34110000D01*
X17998000Y-33951250D01*
X17998000Y-33127000D01*
X17123750Y-33127000D01*
X16965000Y-33285750D01*
X14710000Y-33285750D01*
X14710000Y-32398690D01*
X16965000Y-32398690D01*
X16965000Y-32714250D01*
X17123750Y-32873000D01*
X17998000Y-32873000D01*
X17998000Y-32048750D01*
X17839250Y-31890000D01*
X17473691Y-31890000D01*
X17240302Y-31986673D01*
X17061673Y-32165301D01*
X16965000Y-32398690D01*
X14710000Y-32398690D01*
X14710000Y-28555431D01*
X14765000Y-28555431D01*
X14765000Y-29444569D01*
X15105259Y-30266026D01*
X15733974Y-30894741D01*
X16555431Y-31235000D01*
X17444569Y-31235000D01*
X18266026Y-30894741D01*
X18894741Y-30266026D01*
X19235000Y-29444569D01*
X19235000Y-28555431D01*
X18894741Y-27733974D01*
X18443990Y-27283223D01*
X22553035Y-27283223D01*
X22580222Y-27853454D01*
X22746136Y-28254005D01*
X22992255Y-28328139D01*
X23820395Y-27500000D01*
X24179605Y-27500000D01*
X25007745Y-28328139D01*
X25253864Y-28254005D01*
X25446965Y-27716777D01*
X25419778Y-27146546D01*
X25253864Y-26745995D01*
X25007745Y-26671861D01*
X24179605Y-27500000D01*
X23820395Y-27500000D01*
X22992255Y-26671861D01*
X22746136Y-26745995D01*
X22553035Y-27283223D01*
X18443990Y-27283223D01*
X18266026Y-27105259D01*
X17444569Y-26765000D01*
X16555431Y-26765000D01*
X15733974Y-27105259D01*
X15105259Y-27733974D01*
X14765000Y-28555431D01*
X14710000Y-28555431D01*
X14710000Y-26492255D01*
X23171861Y-26492255D01*
X24000000Y-27320395D01*
X24828139Y-26492255D01*
X24754005Y-26246136D01*
X24216777Y-26053035D01*
X23646546Y-26080222D01*
X23245995Y-26246136D01*
X23171861Y-26492255D01*
X14710000Y-26492255D01*
X14710000Y-19127000D01*
X28714926Y-19127000D01*
X28692191Y-19142191D01*
X28692191Y-19142191D01*
G37*
X28692191Y-19142191D02*
X28643541Y-19215000D01*
X28112161Y-19215000D01*
X28025000Y-19197663D01*
X27937839Y-19215000D01*
X27937835Y-19215000D01*
X27679690Y-19266348D01*
X27460845Y-19412576D01*
X27460844Y-19412577D01*
X27386951Y-19461951D01*
X27337577Y-19535844D01*
X26920861Y-19952560D01*
X26762500Y-19952560D01*
X26423848Y-20019922D01*
X26136753Y-20211753D01*
X26117879Y-20240000D01*
X23882121Y-20240000D01*
X23863247Y-20211753D01*
X23576152Y-20019922D01*
X23237500Y-19952560D01*
X22762500Y-19952560D01*
X22423848Y-20019922D01*
X22136753Y-20211753D01*
X21944922Y-20498848D01*
X21877560Y-20837500D01*
X21877560Y-21412500D01*
X21944922Y-21751152D01*
X22111197Y-22000000D01*
X21944922Y-22248848D01*
X21877560Y-22587500D01*
X21877560Y-23162500D01*
X21944922Y-23501152D01*
X22136753Y-23788247D01*
X22423848Y-23980078D01*
X22762500Y-24047440D01*
X23237500Y-24047440D01*
X23576152Y-23980078D01*
X23667478Y-23919056D01*
X26412577Y-26664156D01*
X26461951Y-26738049D01*
X26535844Y-26787423D01*
X26535845Y-26787424D01*
X26754690Y-26933652D01*
X27012835Y-26985000D01*
X27012839Y-26985000D01*
X27100000Y-27002337D01*
X27187161Y-26985000D01*
X28643541Y-26985000D01*
X28692191Y-27057809D01*
X28755334Y-27100000D01*
X28692191Y-27142191D01*
X28551843Y-27352235D01*
X28502560Y-27600000D01*
X28502560Y-28600000D01*
X28551843Y-28847765D01*
X28692191Y-29057809D01*
X28755334Y-29100000D01*
X28692191Y-29142191D01*
X28551843Y-29352235D01*
X28502560Y-29600000D01*
X28502560Y-30600000D01*
X28551843Y-30847765D01*
X28692191Y-31057809D01*
X28755334Y-31100000D01*
X28692191Y-31142191D01*
X28551843Y-31352235D01*
X28502560Y-31600000D01*
X28502560Y-32600000D01*
X28551843Y-32847765D01*
X28692191Y-33057809D01*
X28740368Y-33090000D01*
X25010000Y-33090000D01*
X25010000Y-31405669D01*
X25047765Y-31398157D01*
X25257809Y-31257809D01*
X25398157Y-31047765D01*
X25447440Y-30800000D01*
X25447440Y-29200000D01*
X25398157Y-28952235D01*
X25257809Y-28742191D01*
X25047765Y-28601843D01*
X24813813Y-28555307D01*
X24828139Y-28507745D01*
X24000000Y-27679605D01*
X23171861Y-28507745D01*
X23186187Y-28555307D01*
X22952235Y-28601843D01*
X22742191Y-28742191D01*
X22601843Y-28952235D01*
X22552560Y-29200000D01*
X22552560Y-30800000D01*
X22601843Y-31047765D01*
X22742191Y-31257809D01*
X22952235Y-31398157D01*
X22990000Y-31405669D01*
X22990001Y-33088116D01*
X22899999Y-33070214D01*
X22800528Y-33090000D01*
X22800524Y-33090000D01*
X22505918Y-33148601D01*
X22171831Y-33371831D01*
X22115482Y-33456163D01*
X20885000Y-34686645D01*
X20885000Y-33718446D01*
X20980078Y-33576152D01*
X21047440Y-33237500D01*
X21047440Y-32762500D01*
X20980078Y-32423848D01*
X20788247Y-32136753D01*
X20501152Y-31944922D01*
X20162500Y-31877560D01*
X19587500Y-31877560D01*
X19248848Y-31944922D01*
X19080460Y-32057435D01*
X19009698Y-31986673D01*
X18776309Y-31890000D01*
X18410750Y-31890000D01*
X18252000Y-32048750D01*
X18252000Y-32873000D01*
X18272000Y-32873000D01*
X18272000Y-33127000D01*
X18252000Y-33127000D01*
X18252000Y-33951250D01*
X18410750Y-34110000D01*
X18776309Y-34110000D01*
X18865000Y-34073263D01*
X18865001Y-35695525D01*
X18845214Y-35795000D01*
X18923602Y-36189082D01*
X19090482Y-36438837D01*
X19090485Y-36438840D01*
X19146832Y-36523169D01*
X19231161Y-36579516D01*
X19530001Y-36878356D01*
X19530001Y-36888866D01*
X19469375Y-36929375D01*
X19454904Y-36951033D01*
X19388327Y-36790302D01*
X19209699Y-36611673D01*
X18976310Y-36515000D01*
X18285750Y-36515000D01*
X18127000Y-36673750D01*
X18127000Y-37873000D01*
X18147000Y-37873000D01*
X18147000Y-38127000D01*
X18127000Y-38127000D01*
X18127000Y-39326250D01*
X18285750Y-39485000D01*
X18976310Y-39485000D01*
X19209699Y-39388327D01*
X19388327Y-39209698D01*
X19454904Y-39048967D01*
X19469375Y-39070625D01*
X19960582Y-39398839D01*
X20393744Y-39485000D01*
X20686256Y-39485000D01*
X21119418Y-39398839D01*
X21610625Y-39070625D01*
X21810000Y-38772239D01*
X22009375Y-39070625D01*
X22500582Y-39398839D01*
X22933744Y-39485000D01*
X22990000Y-39485000D01*
X22990001Y-42841975D01*
X22909698Y-42761673D01*
X22676309Y-42665000D01*
X22260750Y-42665000D01*
X22102000Y-42823750D01*
X22102000Y-43873000D01*
X22122000Y-43873000D01*
X22122000Y-44127000D01*
X22102000Y-44127000D01*
X22102000Y-45176250D01*
X22260750Y-45335000D01*
X22676309Y-45335000D01*
X22909698Y-45238327D01*
X22990001Y-45158025D01*
X22990001Y-45450000D01*
X18111133Y-45450000D01*
X18070625Y-45389375D01*
X17579418Y-45061161D01*
X17146256Y-44975000D01*
X16853744Y-44975000D01*
X16420582Y-45061161D01*
X15929375Y-45389375D01*
X15601161Y-45880582D01*
X15485908Y-46460000D01*
X15601161Y-47039418D01*
X15929375Y-47530625D01*
X15951033Y-47545096D01*
X15790302Y-47611673D01*
X15611673Y-47790301D01*
X15515000Y-48023690D01*
X15515000Y-48714250D01*
X15673750Y-48873000D01*
X16873000Y-48873000D01*
X16873000Y-48853000D01*
X17127000Y-48853000D01*
X17127000Y-48873000D01*
X18326250Y-48873000D01*
X18485000Y-48714250D01*
X18485000Y-48023690D01*
X18388327Y-47790301D01*
X18209698Y-47611673D01*
X18048967Y-47545096D01*
X18070625Y-47530625D01*
X18111133Y-47470000D01*
X22662322Y-47470000D01*
X22502235Y-47501843D01*
X22292191Y-47642191D01*
X22151843Y-47852235D01*
X22102560Y-48100000D01*
X22102560Y-49119084D01*
X19356163Y-51865482D01*
X19271831Y-51921831D01*
X19048601Y-52255919D01*
X18990000Y-52550525D01*
X18990000Y-52550529D01*
X18970214Y-52650000D01*
X18990000Y-52749471D01*
X18990001Y-55900520D01*
X18990000Y-55900525D01*
X18990001Y-57900525D01*
X18970214Y-58000000D01*
X19048602Y-58394082D01*
X19215482Y-58643837D01*
X19215485Y-58643840D01*
X19271832Y-58728169D01*
X19356161Y-58784516D01*
X20715482Y-60143837D01*
X20771831Y-60228169D01*
X21105918Y-60451399D01*
X21400524Y-60510000D01*
X21400528Y-60510000D01*
X21499999Y-60529786D01*
X21599470Y-60510000D01*
X24452560Y-60510000D01*
X24452560Y-61250000D01*
X24501843Y-61497765D01*
X24642191Y-61707809D01*
X24852235Y-61848157D01*
X25100000Y-61897440D01*
X26900000Y-61897440D01*
X27147765Y-61848157D01*
X27357809Y-61707809D01*
X27498157Y-61497765D01*
X27547440Y-61250000D01*
X27547440Y-60510000D01*
X30571440Y-60510000D01*
X30601161Y-60659418D01*
X30929375Y-61150625D01*
X31420582Y-61478839D01*
X31853744Y-61565000D01*
X32146256Y-61565000D01*
X32579418Y-61478839D01*
X33070625Y-61150625D01*
X33111133Y-61090000D01*
X37452560Y-61090000D01*
X37452560Y-61250000D01*
X37501843Y-61497765D01*
X37642191Y-61707809D01*
X37852235Y-61848157D01*
X38100000Y-61897440D01*
X39900000Y-61897440D01*
X40147765Y-61848157D01*
X40357809Y-61707809D01*
X40498157Y-61497765D01*
X40547440Y-61250000D01*
X40547440Y-60555431D01*
X48765000Y-60555431D01*
X48765000Y-61444569D01*
X49105259Y-62266026D01*
X49733974Y-62894741D01*
X50555431Y-63235000D01*
X51444569Y-63235000D01*
X52266026Y-62894741D01*
X52894741Y-62266026D01*
X53235000Y-61444569D01*
X53235000Y-60555431D01*
X52894741Y-59733974D01*
X52266026Y-59105259D01*
X51444569Y-58765000D01*
X50555431Y-58765000D01*
X49733974Y-59105259D01*
X49105259Y-59733974D01*
X48765000Y-60555431D01*
X40547440Y-60555431D01*
X40547440Y-58773250D01*
X44490000Y-58773250D01*
X44490000Y-59326309D01*
X44586673Y-59559698D01*
X44765301Y-59738327D01*
X44998690Y-59835000D01*
X45714250Y-59835000D01*
X45873000Y-59676250D01*
X45873000Y-58614500D01*
X46127000Y-58614500D01*
X46127000Y-59676250D01*
X46285750Y-59835000D01*
X47001310Y-59835000D01*
X47234699Y-59738327D01*
X47413327Y-59559698D01*
X47510000Y-59326309D01*
X47510000Y-58773250D01*
X47351250Y-58614500D01*
X46127000Y-58614500D01*
X45873000Y-58614500D01*
X44648750Y-58614500D01*
X44490000Y-58773250D01*
X40547440Y-58773250D01*
X40547440Y-57750000D01*
X40527289Y-57648691D01*
X44490000Y-57648691D01*
X44490000Y-58201750D01*
X44648750Y-58360500D01*
X45873000Y-58360500D01*
X45873000Y-57298750D01*
X46127000Y-57298750D01*
X46127000Y-58360500D01*
X47351250Y-58360500D01*
X47510000Y-58201750D01*
X47510000Y-57648691D01*
X47413327Y-57415302D01*
X47234699Y-57236673D01*
X47001310Y-57140000D01*
X46285750Y-57140000D01*
X46127000Y-57298750D01*
X45873000Y-57298750D01*
X45714250Y-57140000D01*
X44998690Y-57140000D01*
X44765301Y-57236673D01*
X44586673Y-57415302D01*
X44490000Y-57648691D01*
X40527289Y-57648691D01*
X40498157Y-57502235D01*
X40357809Y-57292191D01*
X40147765Y-57151843D01*
X39900000Y-57102560D01*
X38100000Y-57102560D01*
X37852235Y-57151843D01*
X37642191Y-57292191D01*
X37501843Y-57502235D01*
X37452560Y-57750000D01*
X37452560Y-59070000D01*
X33111133Y-59070000D01*
X33070625Y-59009375D01*
X32772239Y-58810000D01*
X33070625Y-58610625D01*
X33111133Y-58550000D01*
X33360529Y-58550000D01*
X33460000Y-58569786D01*
X33559471Y-58550000D01*
X33559476Y-58550000D01*
X33854082Y-58491399D01*
X34188169Y-58268169D01*
X34244518Y-58183837D01*
X36918355Y-55510000D01*
X37452560Y-55510000D01*
X37452560Y-56250000D01*
X37501843Y-56497765D01*
X37642191Y-56707809D01*
X37852235Y-56848157D01*
X38100000Y-56897440D01*
X39900000Y-56897440D01*
X40147765Y-56848157D01*
X40357809Y-56707809D01*
X40498157Y-56497765D01*
X40547440Y-56250000D01*
X40547440Y-55510000D01*
X44477560Y-55510000D01*
X44477560Y-55975000D01*
X44545874Y-56318435D01*
X44740414Y-56609586D01*
X45031565Y-56804126D01*
X45375000Y-56872440D01*
X46625000Y-56872440D01*
X46968435Y-56804126D01*
X47259586Y-56609586D01*
X47317775Y-56522500D01*
X50468029Y-56522500D01*
X50567500Y-56542286D01*
X50653526Y-56525174D01*
X50853744Y-56565000D01*
X51146256Y-56565000D01*
X51579418Y-56478839D01*
X52070625Y-56150625D01*
X52194443Y-55965319D01*
X52280000Y-55982337D01*
X52367161Y-55965000D01*
X52367165Y-55965000D01*
X52625310Y-55913652D01*
X52918049Y-55718049D01*
X52967425Y-55644153D01*
X53290001Y-55321578D01*
X53290001Y-63290000D01*
X14710000Y-63290000D01*
X14710000Y-60555431D01*
X14765000Y-60555431D01*
X14765000Y-61444569D01*
X15105259Y-62266026D01*
X15733974Y-62894741D01*
X16555431Y-63235000D01*
X17444569Y-63235000D01*
X18266026Y-62894741D01*
X18894741Y-62266026D01*
X19235000Y-61444569D01*
X19235000Y-60555431D01*
X18894741Y-59733974D01*
X18266026Y-59105259D01*
X17444569Y-58765000D01*
X16555431Y-58765000D01*
X15733974Y-59105259D01*
X15105259Y-59733974D01*
X14765000Y-60555431D01*
X14710000Y-60555431D01*
X14710000Y-49285750D01*
X15515000Y-49285750D01*
X15515000Y-49976310D01*
X15611673Y-50209699D01*
X15790302Y-50388327D01*
X16023691Y-50485000D01*
X16714250Y-50485000D01*
X16873000Y-50326250D01*
X16873000Y-49127000D01*
X17127000Y-49127000D01*
X17127000Y-50326250D01*
X17285750Y-50485000D01*
X17976309Y-50485000D01*
X18209698Y-50388327D01*
X18388327Y-50209699D01*
X18485000Y-49976310D01*
X18485000Y-49285750D01*
X18326250Y-49127000D01*
X17127000Y-49127000D01*
X16873000Y-49127000D01*
X15673750Y-49127000D01*
X15515000Y-49285750D01*
X14710000Y-49285750D01*
X14710000Y-44285750D01*
X20765000Y-44285750D01*
X20765000Y-44826310D01*
X20861673Y-45059699D01*
X21040302Y-45238327D01*
X21273691Y-45335000D01*
X21689250Y-45335000D01*
X21848000Y-45176250D01*
X21848000Y-44127000D01*
X20923750Y-44127000D01*
X20765000Y-44285750D01*
X14710000Y-44285750D01*
X14710000Y-43173690D01*
X20765000Y-43173690D01*
X20765000Y-43714250D01*
X20923750Y-43873000D01*
X21848000Y-43873000D01*
X21848000Y-42823750D01*
X21689250Y-42665000D01*
X21273691Y-42665000D01*
X21040302Y-42761673D01*
X20861673Y-42940301D01*
X20765000Y-43173690D01*
X14710000Y-43173690D01*
X14710000Y-38285750D01*
X16515000Y-38285750D01*
X16515000Y-38976309D01*
X16611673Y-39209698D01*
X16790301Y-39388327D01*
X17023690Y-39485000D01*
X17714250Y-39485000D01*
X17873000Y-39326250D01*
X17873000Y-38127000D01*
X16673750Y-38127000D01*
X16515000Y-38285750D01*
X14710000Y-38285750D01*
X14710000Y-37023691D01*
X16515000Y-37023691D01*
X16515000Y-37714250D01*
X16673750Y-37873000D01*
X17873000Y-37873000D01*
X17873000Y-36673750D01*
X17714250Y-36515000D01*
X17023690Y-36515000D01*
X16790301Y-36611673D01*
X16611673Y-36790302D01*
X16515000Y-37023691D01*
X14710000Y-37023691D01*
X14710000Y-33285750D01*
X16965000Y-33285750D01*
X16965000Y-33601310D01*
X17061673Y-33834699D01*
X17240302Y-34013327D01*
X17473691Y-34110000D01*
X17839250Y-34110000D01*
X17998000Y-33951250D01*
X17998000Y-33127000D01*
X17123750Y-33127000D01*
X16965000Y-33285750D01*
X14710000Y-33285750D01*
X14710000Y-32398690D01*
X16965000Y-32398690D01*
X16965000Y-32714250D01*
X17123750Y-32873000D01*
X17998000Y-32873000D01*
X17998000Y-32048750D01*
X17839250Y-31890000D01*
X17473691Y-31890000D01*
X17240302Y-31986673D01*
X17061673Y-32165301D01*
X16965000Y-32398690D01*
X14710000Y-32398690D01*
X14710000Y-28555431D01*
X14765000Y-28555431D01*
X14765000Y-29444569D01*
X15105259Y-30266026D01*
X15733974Y-30894741D01*
X16555431Y-31235000D01*
X17444569Y-31235000D01*
X18266026Y-30894741D01*
X18894741Y-30266026D01*
X19235000Y-29444569D01*
X19235000Y-28555431D01*
X18894741Y-27733974D01*
X18443990Y-27283223D01*
X22553035Y-27283223D01*
X22580222Y-27853454D01*
X22746136Y-28254005D01*
X22992255Y-28328139D01*
X23820395Y-27500000D01*
X24179605Y-27500000D01*
X25007745Y-28328139D01*
X25253864Y-28254005D01*
X25446965Y-27716777D01*
X25419778Y-27146546D01*
X25253864Y-26745995D01*
X25007745Y-26671861D01*
X24179605Y-27500000D01*
X23820395Y-27500000D01*
X22992255Y-26671861D01*
X22746136Y-26745995D01*
X22553035Y-27283223D01*
X18443990Y-27283223D01*
X18266026Y-27105259D01*
X17444569Y-26765000D01*
X16555431Y-26765000D01*
X15733974Y-27105259D01*
X15105259Y-27733974D01*
X14765000Y-28555431D01*
X14710000Y-28555431D01*
X14710000Y-26492255D01*
X23171861Y-26492255D01*
X24000000Y-27320395D01*
X24828139Y-26492255D01*
X24754005Y-26246136D01*
X24216777Y-26053035D01*
X23646546Y-26080222D01*
X23245995Y-26246136D01*
X23171861Y-26492255D01*
X14710000Y-26492255D01*
X14710000Y-19127000D01*
X28714926Y-19127000D01*
X28692191Y-19142191D01*
G36*
X43715000Y-33814250D02*
X43873750Y-33973000D01*
X45473000Y-33973000D01*
X45473000Y-33953000D01*
X45727000Y-33953000D01*
X45727000Y-33973000D01*
X45747000Y-33973000D01*
X45747000Y-34227000D01*
X45727000Y-34227000D01*
X45727000Y-35076250D01*
X45885750Y-35235000D01*
X46976309Y-35235000D01*
X47115001Y-35177552D01*
X47115001Y-37887165D01*
X47166349Y-38145310D01*
X47240000Y-38255536D01*
X47240000Y-38285000D01*
X47222998Y-38285000D01*
X47222998Y-38416748D01*
X47091250Y-38285000D01*
X47023690Y-38285000D01*
X46790301Y-38381673D01*
X46611673Y-38560302D01*
X46515000Y-38793691D01*
X46515000Y-39384250D01*
X46673750Y-39543000D01*
X47152560Y-39543000D01*
X47152560Y-39797000D01*
X46673750Y-39797000D01*
X46515000Y-39955750D01*
X46515000Y-40546309D01*
X46611673Y-40779698D01*
X46790301Y-40958327D01*
X46881126Y-40995948D01*
X46692191Y-41122191D01*
X46551843Y-41332235D01*
X46502560Y-41580000D01*
X46502560Y-43080000D01*
X46551843Y-43327765D01*
X46590000Y-43384871D01*
X46590001Y-44877560D01*
X46587500Y-44877560D01*
X46248848Y-44944922D01*
X46000000Y-45111197D01*
X45751152Y-44944922D01*
X45412500Y-44877560D01*
X44837500Y-44877560D01*
X44498848Y-44944922D01*
X44211753Y-45136753D01*
X44019922Y-45423848D01*
X43952560Y-45762500D01*
X43952560Y-46237500D01*
X43995425Y-46452997D01*
X43335847Y-47112575D01*
X43261951Y-47161951D01*
X43066348Y-47454691D01*
X43015000Y-47712836D01*
X43015000Y-47712839D01*
X42997663Y-47800000D01*
X43015000Y-47887161D01*
X43015001Y-50812835D01*
X42997663Y-50900000D01*
X43066348Y-51245309D01*
X43212576Y-51464154D01*
X43212578Y-51464156D01*
X43261952Y-51538049D01*
X43335845Y-51587423D01*
X44187577Y-52439156D01*
X44236951Y-52513049D01*
X44310844Y-52562423D01*
X44310845Y-52562424D01*
X44421880Y-52636615D01*
X44529690Y-52708652D01*
X44787835Y-52760000D01*
X44787839Y-52760000D01*
X44874999Y-52777337D01*
X44962159Y-52760000D01*
X45117879Y-52760000D01*
X45136753Y-52788247D01*
X45423848Y-52980078D01*
X45762500Y-53047440D01*
X46237500Y-53047440D01*
X46576152Y-52980078D01*
X46863247Y-52788247D01*
X46882121Y-52760000D01*
X49529669Y-52760000D01*
X49601161Y-53119418D01*
X49929375Y-53610625D01*
X50227761Y-53810000D01*
X49929375Y-54009375D01*
X49601161Y-54500582D01*
X49600779Y-54502500D01*
X47317775Y-54502500D01*
X47259586Y-54415414D01*
X46968435Y-54220874D01*
X46625000Y-54152560D01*
X46068415Y-54152560D01*
X45772018Y-53856163D01*
X45715669Y-53771831D01*
X45381582Y-53548601D01*
X45086976Y-53490000D01*
X45086971Y-53490000D01*
X44987500Y-53470214D01*
X44888029Y-53490000D01*
X40547440Y-53490000D01*
X40547440Y-52750000D01*
X40498157Y-52502235D01*
X40357809Y-52292191D01*
X40147765Y-52151843D01*
X39900000Y-52102560D01*
X38100000Y-52102560D01*
X37852235Y-52151843D01*
X37642191Y-52292191D01*
X37501843Y-52502235D01*
X37452560Y-52750000D01*
X37452560Y-53490000D01*
X36599470Y-53490000D01*
X36499999Y-53470214D01*
X36400528Y-53490000D01*
X36400524Y-53490000D01*
X36105918Y-53548601D01*
X35791145Y-53758926D01*
X35815851Y-53721951D01*
X35833652Y-53695310D01*
X35885000Y-53437165D01*
X35885000Y-53437161D01*
X35902337Y-53350001D01*
X35885000Y-53262841D01*
X35885000Y-50867115D01*
X35998157Y-50697765D01*
X36047440Y-50450000D01*
X36047440Y-49550000D01*
X35998157Y-49302235D01*
X35861316Y-49097440D01*
X36350000Y-49097440D01*
X36597765Y-49048157D01*
X36807809Y-48907809D01*
X36906573Y-48760000D01*
X39117879Y-48760000D01*
X39136753Y-48788247D01*
X39423848Y-48980078D01*
X39762500Y-49047440D01*
X40237500Y-49047440D01*
X40576152Y-48980078D01*
X40863247Y-48788247D01*
X41055078Y-48501152D01*
X41122440Y-48162500D01*
X41122440Y-47587500D01*
X41055078Y-47248848D01*
X40888803Y-47000000D01*
X41055078Y-46751152D01*
X41122440Y-46412500D01*
X41122440Y-46254138D01*
X41689156Y-45687423D01*
X41763049Y-45638049D01*
X41825017Y-45545309D01*
X41906174Y-45423848D01*
X41958652Y-45345310D01*
X42010000Y-45087165D01*
X42010000Y-45087161D01*
X42027337Y-45000001D01*
X42010000Y-44912841D01*
X42010000Y-44021486D01*
X42223691Y-44110000D01*
X42589250Y-44110000D01*
X42748000Y-43951250D01*
X42748000Y-43127000D01*
X43002000Y-43127000D01*
X43002000Y-43951250D01*
X43160750Y-44110000D01*
X43526309Y-44110000D01*
X43759698Y-44013327D01*
X43938327Y-43834699D01*
X44035000Y-43601310D01*
X44035000Y-43285750D01*
X43876250Y-43127000D01*
X43002000Y-43127000D01*
X42748000Y-43127000D01*
X42728000Y-43127000D01*
X42728000Y-42873000D01*
X42748000Y-42873000D01*
X42748000Y-42048750D01*
X43002000Y-42048750D01*
X43002000Y-42873000D01*
X43876250Y-42873000D01*
X44035000Y-42714250D01*
X44035000Y-42398690D01*
X43938327Y-42165301D01*
X43759698Y-41986673D01*
X43526309Y-41890000D01*
X43160750Y-41890000D01*
X43002000Y-42048750D01*
X42748000Y-42048750D01*
X42589250Y-41890000D01*
X42223691Y-41890000D01*
X42010000Y-41978514D01*
X42010000Y-35191578D01*
X42815828Y-34385750D01*
X43715000Y-34385750D01*
X43715000Y-34726310D01*
X43811673Y-34959699D01*
X43990302Y-35138327D01*
X44223691Y-35235000D01*
X45314250Y-35235000D01*
X45473000Y-35076250D01*
X45473000Y-34227000D01*
X43873750Y-34227000D01*
X43715000Y-34385750D01*
X42815828Y-34385750D01*
X43715000Y-33486579D01*
X43715000Y-33814250D01*
X43715000Y-33814250D01*
G37*
X43715000Y-33814250D02*
X43873750Y-33973000D01*
X45473000Y-33973000D01*
X45473000Y-33953000D01*
X45727000Y-33953000D01*
X45727000Y-33973000D01*
X45747000Y-33973000D01*
X45747000Y-34227000D01*
X45727000Y-34227000D01*
X45727000Y-35076250D01*
X45885750Y-35235000D01*
X46976309Y-35235000D01*
X47115001Y-35177552D01*
X47115001Y-37887165D01*
X47166349Y-38145310D01*
X47240000Y-38255536D01*
X47240000Y-38285000D01*
X47222998Y-38285000D01*
X47222998Y-38416748D01*
X47091250Y-38285000D01*
X47023690Y-38285000D01*
X46790301Y-38381673D01*
X46611673Y-38560302D01*
X46515000Y-38793691D01*
X46515000Y-39384250D01*
X46673750Y-39543000D01*
X47152560Y-39543000D01*
X47152560Y-39797000D01*
X46673750Y-39797000D01*
X46515000Y-39955750D01*
X46515000Y-40546309D01*
X46611673Y-40779698D01*
X46790301Y-40958327D01*
X46881126Y-40995948D01*
X46692191Y-41122191D01*
X46551843Y-41332235D01*
X46502560Y-41580000D01*
X46502560Y-43080000D01*
X46551843Y-43327765D01*
X46590000Y-43384871D01*
X46590001Y-44877560D01*
X46587500Y-44877560D01*
X46248848Y-44944922D01*
X46000000Y-45111197D01*
X45751152Y-44944922D01*
X45412500Y-44877560D01*
X44837500Y-44877560D01*
X44498848Y-44944922D01*
X44211753Y-45136753D01*
X44019922Y-45423848D01*
X43952560Y-45762500D01*
X43952560Y-46237500D01*
X43995425Y-46452997D01*
X43335847Y-47112575D01*
X43261951Y-47161951D01*
X43066348Y-47454691D01*
X43015000Y-47712836D01*
X43015000Y-47712839D01*
X42997663Y-47800000D01*
X43015000Y-47887161D01*
X43015001Y-50812835D01*
X42997663Y-50900000D01*
X43066348Y-51245309D01*
X43212576Y-51464154D01*
X43212578Y-51464156D01*
X43261952Y-51538049D01*
X43335845Y-51587423D01*
X44187577Y-52439156D01*
X44236951Y-52513049D01*
X44310844Y-52562423D01*
X44310845Y-52562424D01*
X44421880Y-52636615D01*
X44529690Y-52708652D01*
X44787835Y-52760000D01*
X44787839Y-52760000D01*
X44874999Y-52777337D01*
X44962159Y-52760000D01*
X45117879Y-52760000D01*
X45136753Y-52788247D01*
X45423848Y-52980078D01*
X45762500Y-53047440D01*
X46237500Y-53047440D01*
X46576152Y-52980078D01*
X46863247Y-52788247D01*
X46882121Y-52760000D01*
X49529669Y-52760000D01*
X49601161Y-53119418D01*
X49929375Y-53610625D01*
X50227761Y-53810000D01*
X49929375Y-54009375D01*
X49601161Y-54500582D01*
X49600779Y-54502500D01*
X47317775Y-54502500D01*
X47259586Y-54415414D01*
X46968435Y-54220874D01*
X46625000Y-54152560D01*
X46068415Y-54152560D01*
X45772018Y-53856163D01*
X45715669Y-53771831D01*
X45381582Y-53548601D01*
X45086976Y-53490000D01*
X45086971Y-53490000D01*
X44987500Y-53470214D01*
X44888029Y-53490000D01*
X40547440Y-53490000D01*
X40547440Y-52750000D01*
X40498157Y-52502235D01*
X40357809Y-52292191D01*
X40147765Y-52151843D01*
X39900000Y-52102560D01*
X38100000Y-52102560D01*
X37852235Y-52151843D01*
X37642191Y-52292191D01*
X37501843Y-52502235D01*
X37452560Y-52750000D01*
X37452560Y-53490000D01*
X36599470Y-53490000D01*
X36499999Y-53470214D01*
X36400528Y-53490000D01*
X36400524Y-53490000D01*
X36105918Y-53548601D01*
X35791145Y-53758926D01*
X35815851Y-53721951D01*
X35833652Y-53695310D01*
X35885000Y-53437165D01*
X35885000Y-53437161D01*
X35902337Y-53350001D01*
X35885000Y-53262841D01*
X35885000Y-50867115D01*
X35998157Y-50697765D01*
X36047440Y-50450000D01*
X36047440Y-49550000D01*
X35998157Y-49302235D01*
X35861316Y-49097440D01*
X36350000Y-49097440D01*
X36597765Y-49048157D01*
X36807809Y-48907809D01*
X36906573Y-48760000D01*
X39117879Y-48760000D01*
X39136753Y-48788247D01*
X39423848Y-48980078D01*
X39762500Y-49047440D01*
X40237500Y-49047440D01*
X40576152Y-48980078D01*
X40863247Y-48788247D01*
X41055078Y-48501152D01*
X41122440Y-48162500D01*
X41122440Y-47587500D01*
X41055078Y-47248848D01*
X40888803Y-47000000D01*
X41055078Y-46751152D01*
X41122440Y-46412500D01*
X41122440Y-46254138D01*
X41689156Y-45687423D01*
X41763049Y-45638049D01*
X41825017Y-45545309D01*
X41906174Y-45423848D01*
X41958652Y-45345310D01*
X42010000Y-45087165D01*
X42010000Y-45087161D01*
X42027337Y-45000001D01*
X42010000Y-44912841D01*
X42010000Y-44021486D01*
X42223691Y-44110000D01*
X42589250Y-44110000D01*
X42748000Y-43951250D01*
X42748000Y-43127000D01*
X43002000Y-43127000D01*
X43002000Y-43951250D01*
X43160750Y-44110000D01*
X43526309Y-44110000D01*
X43759698Y-44013327D01*
X43938327Y-43834699D01*
X44035000Y-43601310D01*
X44035000Y-43285750D01*
X43876250Y-43127000D01*
X43002000Y-43127000D01*
X42748000Y-43127000D01*
X42728000Y-43127000D01*
X42728000Y-42873000D01*
X42748000Y-42873000D01*
X42748000Y-42048750D01*
X43002000Y-42048750D01*
X43002000Y-42873000D01*
X43876250Y-42873000D01*
X44035000Y-42714250D01*
X44035000Y-42398690D01*
X43938327Y-42165301D01*
X43759698Y-41986673D01*
X43526309Y-41890000D01*
X43160750Y-41890000D01*
X43002000Y-42048750D01*
X42748000Y-42048750D01*
X42589250Y-41890000D01*
X42223691Y-41890000D01*
X42010000Y-41978514D01*
X42010000Y-35191578D01*
X42815828Y-34385750D01*
X43715000Y-34385750D01*
X43715000Y-34726310D01*
X43811673Y-34959699D01*
X43990302Y-35138327D01*
X44223691Y-35235000D01*
X45314250Y-35235000D01*
X45473000Y-35076250D01*
X45473000Y-34227000D01*
X43873750Y-34227000D01*
X43715000Y-34385750D01*
X42815828Y-34385750D01*
X43715000Y-33486579D01*
X43715000Y-33814250D01*
G36*
X40240001Y-42117878D02*
X40211753Y-42136753D01*
X40019922Y-42423848D01*
X39952560Y-42762500D01*
X39952560Y-43237500D01*
X40019922Y-43576152D01*
X40211753Y-43863247D01*
X40240000Y-43882121D01*
X40240001Y-44633420D01*
X39920862Y-44952560D01*
X39762500Y-44952560D01*
X39423848Y-45019922D01*
X39136753Y-45211753D01*
X38944922Y-45498848D01*
X38877560Y-45837500D01*
X38877560Y-46412500D01*
X38944922Y-46751152D01*
X39104515Y-46990000D01*
X36654871Y-46990000D01*
X36597765Y-46951843D01*
X36350000Y-46902560D01*
X35550000Y-46902560D01*
X35302235Y-46951843D01*
X35092191Y-47092191D01*
X35002987Y-47225694D01*
X34988327Y-47190302D01*
X34809699Y-47011673D01*
X34576310Y-46915000D01*
X34335750Y-46915000D01*
X34177000Y-47073750D01*
X34177000Y-47873000D01*
X34197000Y-47873000D01*
X34197000Y-48127000D01*
X34177000Y-48127000D01*
X34177000Y-48926250D01*
X34262531Y-49011781D01*
X34142191Y-49092191D01*
X34001843Y-49302235D01*
X33952560Y-49550000D01*
X33952560Y-50450000D01*
X34001843Y-50697765D01*
X34115000Y-50867116D01*
X34115001Y-52983420D01*
X33347231Y-53751190D01*
X33307809Y-53692191D01*
X33097765Y-53551843D01*
X32850000Y-53502560D01*
X31150000Y-53502560D01*
X30902235Y-53551843D01*
X30692191Y-53692191D01*
X30551843Y-53902235D01*
X30509522Y-54115000D01*
X27547440Y-54115000D01*
X27547440Y-52750000D01*
X27498157Y-52502235D01*
X27357809Y-52292191D01*
X27147765Y-52151843D01*
X26900000Y-52102560D01*
X25100000Y-52102560D01*
X24852235Y-52151843D01*
X24642191Y-52292191D01*
X24501843Y-52502235D01*
X24452560Y-52750000D01*
X24452560Y-53240000D01*
X22882121Y-53240000D01*
X22863247Y-53211753D01*
X22576152Y-53019922D01*
X22237500Y-52952560D01*
X21762500Y-52952560D01*
X21423848Y-53019922D01*
X21136753Y-53211753D01*
X21010000Y-53401452D01*
X21010000Y-53068355D01*
X23530916Y-50547440D01*
X26250000Y-50547440D01*
X26497765Y-50498157D01*
X26707809Y-50357809D01*
X26848157Y-50147765D01*
X26897440Y-49900000D01*
X26897440Y-49285750D01*
X27115000Y-49285750D01*
X27115000Y-50026310D01*
X27211673Y-50259699D01*
X27390302Y-50438327D01*
X27623691Y-50535000D01*
X29214250Y-50535000D01*
X29373000Y-50376250D01*
X29373000Y-49127000D01*
X29627000Y-49127000D01*
X29627000Y-50376250D01*
X29785750Y-50535000D01*
X31376309Y-50535000D01*
X31609698Y-50438327D01*
X31788327Y-50259699D01*
X31885000Y-50026310D01*
X31885000Y-49285750D01*
X31726250Y-49127000D01*
X29627000Y-49127000D01*
X29373000Y-49127000D01*
X27273750Y-49127000D01*
X27115000Y-49285750D01*
X26897440Y-49285750D01*
X26897440Y-48100000D01*
X26872316Y-47973690D01*
X27115000Y-47973690D01*
X27115000Y-48714250D01*
X27273750Y-48873000D01*
X29373000Y-48873000D01*
X29373000Y-47623750D01*
X29627000Y-47623750D01*
X29627000Y-48873000D01*
X31726250Y-48873000D01*
X31885000Y-48714250D01*
X31885000Y-48285750D01*
X33015000Y-48285750D01*
X33015000Y-48576309D01*
X33111673Y-48809698D01*
X33290301Y-48988327D01*
X33523690Y-49085000D01*
X33764250Y-49085000D01*
X33923000Y-48926250D01*
X33923000Y-48127000D01*
X33173750Y-48127000D01*
X33015000Y-48285750D01*
X31885000Y-48285750D01*
X31885000Y-47973690D01*
X31788327Y-47740301D01*
X31609698Y-47561673D01*
X31376309Y-47465000D01*
X29785750Y-47465000D01*
X29627000Y-47623750D01*
X29373000Y-47623750D01*
X29214250Y-47465000D01*
X27623691Y-47465000D01*
X27390302Y-47561673D01*
X27211673Y-47740301D01*
X27115000Y-47973690D01*
X26872316Y-47973690D01*
X26848157Y-47852235D01*
X26707809Y-47642191D01*
X26497765Y-47501843D01*
X26250000Y-47452560D01*
X25510000Y-47452560D01*
X25510000Y-47423691D01*
X33015000Y-47423691D01*
X33015000Y-47714250D01*
X33173750Y-47873000D01*
X33923000Y-47873000D01*
X33923000Y-47073750D01*
X33764250Y-46915000D01*
X33523690Y-46915000D01*
X33290301Y-47011673D01*
X33111673Y-47190302D01*
X33015000Y-47423691D01*
X25510000Y-47423691D01*
X25510000Y-46599471D01*
X25529786Y-46500000D01*
X25510000Y-46400529D01*
X25510000Y-46400524D01*
X25451399Y-46105918D01*
X25228169Y-45771831D01*
X25143838Y-45715483D01*
X25010000Y-45581645D01*
X25010000Y-45046551D01*
X25034423Y-45010000D01*
X28594331Y-45010000D01*
X28601843Y-45047765D01*
X28742191Y-45257809D01*
X28952235Y-45398157D01*
X29200000Y-45447440D01*
X30800000Y-45447440D01*
X31047765Y-45398157D01*
X31257809Y-45257809D01*
X31398157Y-45047765D01*
X31447440Y-44800000D01*
X31447440Y-43200000D01*
X31398157Y-42952235D01*
X31257809Y-42742191D01*
X31047765Y-42601843D01*
X30813813Y-42555307D01*
X30828139Y-42507745D01*
X30000000Y-41679605D01*
X29171861Y-42507745D01*
X29186187Y-42555307D01*
X28952235Y-42601843D01*
X28742191Y-42742191D01*
X28601843Y-42952235D01*
X28594331Y-42990000D01*
X25034423Y-42990000D01*
X25010000Y-42953449D01*
X25010000Y-41283223D01*
X28553035Y-41283223D01*
X28580222Y-41853454D01*
X28746136Y-42254005D01*
X28992255Y-42328139D01*
X29820395Y-41500000D01*
X30179605Y-41500000D01*
X31007745Y-42328139D01*
X31253864Y-42254005D01*
X31446965Y-41716777D01*
X31419778Y-41146546D01*
X31253864Y-40745995D01*
X31007745Y-40671861D01*
X30179605Y-41500000D01*
X29820395Y-41500000D01*
X28992255Y-40671861D01*
X28746136Y-40745995D01*
X28553035Y-41283223D01*
X25010000Y-41283223D01*
X25010000Y-40492255D01*
X29171861Y-40492255D01*
X30000000Y-41320395D01*
X30828139Y-40492255D01*
X30754005Y-40246136D01*
X30216777Y-40053035D01*
X29646546Y-40080222D01*
X29245995Y-40246136D01*
X29171861Y-40492255D01*
X25010000Y-40492255D01*
X25010000Y-39019470D01*
X25029786Y-38919999D01*
X25010000Y-38820528D01*
X25010000Y-38820524D01*
X24951399Y-38525918D01*
X24863308Y-38394081D01*
X24790925Y-38285750D01*
X27765000Y-38285750D01*
X27765000Y-38826310D01*
X27861673Y-39059699D01*
X28040302Y-39238327D01*
X28273691Y-39335000D01*
X28689250Y-39335000D01*
X28848000Y-39176250D01*
X28848000Y-38127000D01*
X27923750Y-38127000D01*
X27765000Y-38285750D01*
X24790925Y-38285750D01*
X24784517Y-38276161D01*
X24784516Y-38276160D01*
X24728169Y-38191831D01*
X24643840Y-38135485D01*
X24579867Y-38071512D01*
X24594092Y-38000000D01*
X24478839Y-37420582D01*
X24313872Y-37173690D01*
X27765000Y-37173690D01*
X27765000Y-37714250D01*
X27923750Y-37873000D01*
X28848000Y-37873000D01*
X28848000Y-36823750D01*
X28689250Y-36665000D01*
X28273691Y-36665000D01*
X28040302Y-36761673D01*
X27861673Y-36940301D01*
X27765000Y-37173690D01*
X24313872Y-37173690D01*
X24150625Y-36929375D01*
X23659418Y-36601161D01*
X23226256Y-36515000D01*
X22933744Y-36515000D01*
X22500582Y-36601161D01*
X22009375Y-36929375D01*
X21810000Y-37227761D01*
X21610625Y-36929375D01*
X21550000Y-36888867D01*
X21550000Y-36878355D01*
X23318355Y-35110000D01*
X23900525Y-35110000D01*
X24000000Y-35129787D01*
X24099476Y-35110000D01*
X28770300Y-35110000D01*
X28902235Y-35198157D01*
X29150000Y-35247440D01*
X30015001Y-35247440D01*
X30015000Y-36866975D01*
X29909698Y-36761673D01*
X29676309Y-36665000D01*
X29260750Y-36665000D01*
X29102000Y-36823750D01*
X29102000Y-37873000D01*
X29122000Y-37873000D01*
X29122000Y-38127000D01*
X29102000Y-38127000D01*
X29102000Y-39176250D01*
X29260750Y-39335000D01*
X29676309Y-39335000D01*
X29909698Y-39238327D01*
X30064623Y-39083403D01*
X30065414Y-39084586D01*
X30356564Y-39279127D01*
X30699999Y-39347440D01*
X31350001Y-39347440D01*
X31693436Y-39279127D01*
X31984586Y-39084586D01*
X32117946Y-38885000D01*
X33758422Y-38885000D01*
X33952560Y-39079138D01*
X33952560Y-39237500D01*
X34019922Y-39576152D01*
X34211753Y-39863247D01*
X34240000Y-39882121D01*
X34240001Y-41117878D01*
X34211753Y-41136753D01*
X34019922Y-41423848D01*
X33952560Y-41762500D01*
X33952560Y-42237500D01*
X34019922Y-42576152D01*
X34211753Y-42863247D01*
X34498848Y-43055078D01*
X34837500Y-43122440D01*
X35412500Y-43122440D01*
X35751152Y-43055078D01*
X36000000Y-42888803D01*
X36248848Y-43055078D01*
X36587500Y-43122440D01*
X37162500Y-43122440D01*
X37501152Y-43055078D01*
X37755691Y-42885000D01*
X37912839Y-42885000D01*
X38000000Y-42902337D01*
X38087161Y-42885000D01*
X38087165Y-42885000D01*
X38345310Y-42833652D01*
X38638049Y-42638049D01*
X38687425Y-42564153D01*
X39564156Y-41687423D01*
X39638049Y-41638049D01*
X39731853Y-41497663D01*
X39833652Y-41345310D01*
X39846002Y-41283223D01*
X39885000Y-41087165D01*
X39885000Y-41087161D01*
X39902337Y-41000000D01*
X39885000Y-40912839D01*
X39885000Y-35316578D01*
X40240000Y-34961578D01*
X40240001Y-42117878D01*
X40240001Y-42117878D01*
G37*
X40240001Y-42117878D02*
X40211753Y-42136753D01*
X40019922Y-42423848D01*
X39952560Y-42762500D01*
X39952560Y-43237500D01*
X40019922Y-43576152D01*
X40211753Y-43863247D01*
X40240000Y-43882121D01*
X40240001Y-44633420D01*
X39920862Y-44952560D01*
X39762500Y-44952560D01*
X39423848Y-45019922D01*
X39136753Y-45211753D01*
X38944922Y-45498848D01*
X38877560Y-45837500D01*
X38877560Y-46412500D01*
X38944922Y-46751152D01*
X39104515Y-46990000D01*
X36654871Y-46990000D01*
X36597765Y-46951843D01*
X36350000Y-46902560D01*
X35550000Y-46902560D01*
X35302235Y-46951843D01*
X35092191Y-47092191D01*
X35002987Y-47225694D01*
X34988327Y-47190302D01*
X34809699Y-47011673D01*
X34576310Y-46915000D01*
X34335750Y-46915000D01*
X34177000Y-47073750D01*
X34177000Y-47873000D01*
X34197000Y-47873000D01*
X34197000Y-48127000D01*
X34177000Y-48127000D01*
X34177000Y-48926250D01*
X34262531Y-49011781D01*
X34142191Y-49092191D01*
X34001843Y-49302235D01*
X33952560Y-49550000D01*
X33952560Y-50450000D01*
X34001843Y-50697765D01*
X34115000Y-50867116D01*
X34115001Y-52983420D01*
X33347231Y-53751190D01*
X33307809Y-53692191D01*
X33097765Y-53551843D01*
X32850000Y-53502560D01*
X31150000Y-53502560D01*
X30902235Y-53551843D01*
X30692191Y-53692191D01*
X30551843Y-53902235D01*
X30509522Y-54115000D01*
X27547440Y-54115000D01*
X27547440Y-52750000D01*
X27498157Y-52502235D01*
X27357809Y-52292191D01*
X27147765Y-52151843D01*
X26900000Y-52102560D01*
X25100000Y-52102560D01*
X24852235Y-52151843D01*
X24642191Y-52292191D01*
X24501843Y-52502235D01*
X24452560Y-52750000D01*
X24452560Y-53240000D01*
X22882121Y-53240000D01*
X22863247Y-53211753D01*
X22576152Y-53019922D01*
X22237500Y-52952560D01*
X21762500Y-52952560D01*
X21423848Y-53019922D01*
X21136753Y-53211753D01*
X21010000Y-53401452D01*
X21010000Y-53068355D01*
X23530916Y-50547440D01*
X26250000Y-50547440D01*
X26497765Y-50498157D01*
X26707809Y-50357809D01*
X26848157Y-50147765D01*
X26897440Y-49900000D01*
X26897440Y-49285750D01*
X27115000Y-49285750D01*
X27115000Y-50026310D01*
X27211673Y-50259699D01*
X27390302Y-50438327D01*
X27623691Y-50535000D01*
X29214250Y-50535000D01*
X29373000Y-50376250D01*
X29373000Y-49127000D01*
X29627000Y-49127000D01*
X29627000Y-50376250D01*
X29785750Y-50535000D01*
X31376309Y-50535000D01*
X31609698Y-50438327D01*
X31788327Y-50259699D01*
X31885000Y-50026310D01*
X31885000Y-49285750D01*
X31726250Y-49127000D01*
X29627000Y-49127000D01*
X29373000Y-49127000D01*
X27273750Y-49127000D01*
X27115000Y-49285750D01*
X26897440Y-49285750D01*
X26897440Y-48100000D01*
X26872316Y-47973690D01*
X27115000Y-47973690D01*
X27115000Y-48714250D01*
X27273750Y-48873000D01*
X29373000Y-48873000D01*
X29373000Y-47623750D01*
X29627000Y-47623750D01*
X29627000Y-48873000D01*
X31726250Y-48873000D01*
X31885000Y-48714250D01*
X31885000Y-48285750D01*
X33015000Y-48285750D01*
X33015000Y-48576309D01*
X33111673Y-48809698D01*
X33290301Y-48988327D01*
X33523690Y-49085000D01*
X33764250Y-49085000D01*
X33923000Y-48926250D01*
X33923000Y-48127000D01*
X33173750Y-48127000D01*
X33015000Y-48285750D01*
X31885000Y-48285750D01*
X31885000Y-47973690D01*
X31788327Y-47740301D01*
X31609698Y-47561673D01*
X31376309Y-47465000D01*
X29785750Y-47465000D01*
X29627000Y-47623750D01*
X29373000Y-47623750D01*
X29214250Y-47465000D01*
X27623691Y-47465000D01*
X27390302Y-47561673D01*
X27211673Y-47740301D01*
X27115000Y-47973690D01*
X26872316Y-47973690D01*
X26848157Y-47852235D01*
X26707809Y-47642191D01*
X26497765Y-47501843D01*
X26250000Y-47452560D01*
X25510000Y-47452560D01*
X25510000Y-47423691D01*
X33015000Y-47423691D01*
X33015000Y-47714250D01*
X33173750Y-47873000D01*
X33923000Y-47873000D01*
X33923000Y-47073750D01*
X33764250Y-46915000D01*
X33523690Y-46915000D01*
X33290301Y-47011673D01*
X33111673Y-47190302D01*
X33015000Y-47423691D01*
X25510000Y-47423691D01*
X25510000Y-46599471D01*
X25529786Y-46500000D01*
X25510000Y-46400529D01*
X25510000Y-46400524D01*
X25451399Y-46105918D01*
X25228169Y-45771831D01*
X25143838Y-45715483D01*
X25010000Y-45581645D01*
X25010000Y-45046551D01*
X25034423Y-45010000D01*
X28594331Y-45010000D01*
X28601843Y-45047765D01*
X28742191Y-45257809D01*
X28952235Y-45398157D01*
X29200000Y-45447440D01*
X30800000Y-45447440D01*
X31047765Y-45398157D01*
X31257809Y-45257809D01*
X31398157Y-45047765D01*
X31447440Y-44800000D01*
X31447440Y-43200000D01*
X31398157Y-42952235D01*
X31257809Y-42742191D01*
X31047765Y-42601843D01*
X30813813Y-42555307D01*
X30828139Y-42507745D01*
X30000000Y-41679605D01*
X29171861Y-42507745D01*
X29186187Y-42555307D01*
X28952235Y-42601843D01*
X28742191Y-42742191D01*
X28601843Y-42952235D01*
X28594331Y-42990000D01*
X25034423Y-42990000D01*
X25010000Y-42953449D01*
X25010000Y-41283223D01*
X28553035Y-41283223D01*
X28580222Y-41853454D01*
X28746136Y-42254005D01*
X28992255Y-42328139D01*
X29820395Y-41500000D01*
X30179605Y-41500000D01*
X31007745Y-42328139D01*
X31253864Y-42254005D01*
X31446965Y-41716777D01*
X31419778Y-41146546D01*
X31253864Y-40745995D01*
X31007745Y-40671861D01*
X30179605Y-41500000D01*
X29820395Y-41500000D01*
X28992255Y-40671861D01*
X28746136Y-40745995D01*
X28553035Y-41283223D01*
X25010000Y-41283223D01*
X25010000Y-40492255D01*
X29171861Y-40492255D01*
X30000000Y-41320395D01*
X30828139Y-40492255D01*
X30754005Y-40246136D01*
X30216777Y-40053035D01*
X29646546Y-40080222D01*
X29245995Y-40246136D01*
X29171861Y-40492255D01*
X25010000Y-40492255D01*
X25010000Y-39019470D01*
X25029786Y-38919999D01*
X25010000Y-38820528D01*
X25010000Y-38820524D01*
X24951399Y-38525918D01*
X24863308Y-38394081D01*
X24790925Y-38285750D01*
X27765000Y-38285750D01*
X27765000Y-38826310D01*
X27861673Y-39059699D01*
X28040302Y-39238327D01*
X28273691Y-39335000D01*
X28689250Y-39335000D01*
X28848000Y-39176250D01*
X28848000Y-38127000D01*
X27923750Y-38127000D01*
X27765000Y-38285750D01*
X24790925Y-38285750D01*
X24784517Y-38276161D01*
X24784516Y-38276160D01*
X24728169Y-38191831D01*
X24643840Y-38135485D01*
X24579867Y-38071512D01*
X24594092Y-38000000D01*
X24478839Y-37420582D01*
X24313872Y-37173690D01*
X27765000Y-37173690D01*
X27765000Y-37714250D01*
X27923750Y-37873000D01*
X28848000Y-37873000D01*
X28848000Y-36823750D01*
X28689250Y-36665000D01*
X28273691Y-36665000D01*
X28040302Y-36761673D01*
X27861673Y-36940301D01*
X27765000Y-37173690D01*
X24313872Y-37173690D01*
X24150625Y-36929375D01*
X23659418Y-36601161D01*
X23226256Y-36515000D01*
X22933744Y-36515000D01*
X22500582Y-36601161D01*
X22009375Y-36929375D01*
X21810000Y-37227761D01*
X21610625Y-36929375D01*
X21550000Y-36888867D01*
X21550000Y-36878355D01*
X23318355Y-35110000D01*
X23900525Y-35110000D01*
X24000000Y-35129787D01*
X24099476Y-35110000D01*
X28770300Y-35110000D01*
X28902235Y-35198157D01*
X29150000Y-35247440D01*
X30015001Y-35247440D01*
X30015000Y-36866975D01*
X29909698Y-36761673D01*
X29676309Y-36665000D01*
X29260750Y-36665000D01*
X29102000Y-36823750D01*
X29102000Y-37873000D01*
X29122000Y-37873000D01*
X29122000Y-38127000D01*
X29102000Y-38127000D01*
X29102000Y-39176250D01*
X29260750Y-39335000D01*
X29676309Y-39335000D01*
X29909698Y-39238327D01*
X30064623Y-39083403D01*
X30065414Y-39084586D01*
X30356564Y-39279127D01*
X30699999Y-39347440D01*
X31350001Y-39347440D01*
X31693436Y-39279127D01*
X31984586Y-39084586D01*
X32117946Y-38885000D01*
X33758422Y-38885000D01*
X33952560Y-39079138D01*
X33952560Y-39237500D01*
X34019922Y-39576152D01*
X34211753Y-39863247D01*
X34240000Y-39882121D01*
X34240001Y-41117878D01*
X34211753Y-41136753D01*
X34019922Y-41423848D01*
X33952560Y-41762500D01*
X33952560Y-42237500D01*
X34019922Y-42576152D01*
X34211753Y-42863247D01*
X34498848Y-43055078D01*
X34837500Y-43122440D01*
X35412500Y-43122440D01*
X35751152Y-43055078D01*
X36000000Y-42888803D01*
X36248848Y-43055078D01*
X36587500Y-43122440D01*
X37162500Y-43122440D01*
X37501152Y-43055078D01*
X37755691Y-42885000D01*
X37912839Y-42885000D01*
X38000000Y-42902337D01*
X38087161Y-42885000D01*
X38087165Y-42885000D01*
X38345310Y-42833652D01*
X38638049Y-42638049D01*
X38687425Y-42564153D01*
X39564156Y-41687423D01*
X39638049Y-41638049D01*
X39731853Y-41497663D01*
X39833652Y-41345310D01*
X39846002Y-41283223D01*
X39885000Y-41087165D01*
X39885000Y-41087161D01*
X39902337Y-41000000D01*
X39885000Y-40912839D01*
X39885000Y-35316578D01*
X40240000Y-34961578D01*
X40240001Y-42117878D01*
G36*
X52115001Y-45566580D02*
X52115001Y-48572448D01*
X51976309Y-48515000D01*
X51285750Y-48515000D01*
X51127000Y-48673750D01*
X51127000Y-49873000D01*
X51147000Y-49873000D01*
X51147000Y-50127000D01*
X51127000Y-50127000D01*
X51127000Y-50147000D01*
X50873000Y-50147000D01*
X50873000Y-50127000D01*
X49673750Y-50127000D01*
X49515000Y-50285750D01*
X49515000Y-50976310D01*
X49520671Y-50990000D01*
X47021486Y-50990000D01*
X47110000Y-50776309D01*
X47110000Y-50410750D01*
X46951250Y-50252000D01*
X46127000Y-50252000D01*
X46127000Y-50272000D01*
X45873000Y-50272000D01*
X45873000Y-50252000D01*
X45048750Y-50252000D01*
X44890000Y-50410750D01*
X44890000Y-50638422D01*
X44785000Y-50533422D01*
X44785000Y-49473691D01*
X44890000Y-49473691D01*
X44890000Y-49839250D01*
X45048750Y-49998000D01*
X45873000Y-49998000D01*
X45873000Y-49123750D01*
X46127000Y-49123750D01*
X46127000Y-49998000D01*
X46951250Y-49998000D01*
X47110000Y-49839250D01*
X47110000Y-49473691D01*
X47013327Y-49240302D01*
X46834699Y-49061673D01*
X46743001Y-49023690D01*
X49515000Y-49023690D01*
X49515000Y-49714250D01*
X49673750Y-49873000D01*
X50873000Y-49873000D01*
X50873000Y-48673750D01*
X50714250Y-48515000D01*
X50023691Y-48515000D01*
X49790302Y-48611673D01*
X49611673Y-48790301D01*
X49515000Y-49023690D01*
X46743001Y-49023690D01*
X46601310Y-48965000D01*
X46285750Y-48965000D01*
X46127000Y-49123750D01*
X45873000Y-49123750D01*
X45714250Y-48965000D01*
X45398690Y-48965000D01*
X45165301Y-49061673D01*
X44986673Y-49240302D01*
X44890000Y-49473691D01*
X44785000Y-49473691D01*
X44785000Y-48166578D01*
X45689156Y-47262423D01*
X45763049Y-47213049D01*
X45823593Y-47122440D01*
X45958652Y-46920310D01*
X45959542Y-46915836D01*
X46000000Y-46888803D01*
X46248848Y-47055078D01*
X46587500Y-47122440D01*
X47162500Y-47122440D01*
X47501152Y-47055078D01*
X47788247Y-46863247D01*
X47980078Y-46576152D01*
X48047440Y-46237500D01*
X48047440Y-45849170D01*
X48065904Y-45821537D01*
X48110000Y-45599852D01*
X48110000Y-45599848D01*
X48124888Y-45525001D01*
X48110000Y-45450154D01*
X48110000Y-43616527D01*
X48202235Y-43678157D01*
X48450000Y-43727440D01*
X48850000Y-43727440D01*
X49097765Y-43678157D01*
X49307809Y-43537809D01*
X49448157Y-43327765D01*
X49495451Y-43090000D01*
X49638422Y-43090000D01*
X52115001Y-45566580D01*
X52115001Y-45566580D01*
G37*
X52115001Y-45566580D02*
X52115001Y-48572448D01*
X51976309Y-48515000D01*
X51285750Y-48515000D01*
X51127000Y-48673750D01*
X51127000Y-49873000D01*
X51147000Y-49873000D01*
X51147000Y-50127000D01*
X51127000Y-50127000D01*
X51127000Y-50147000D01*
X50873000Y-50147000D01*
X50873000Y-50127000D01*
X49673750Y-50127000D01*
X49515000Y-50285750D01*
X49515000Y-50976310D01*
X49520671Y-50990000D01*
X47021486Y-50990000D01*
X47110000Y-50776309D01*
X47110000Y-50410750D01*
X46951250Y-50252000D01*
X46127000Y-50252000D01*
X46127000Y-50272000D01*
X45873000Y-50272000D01*
X45873000Y-50252000D01*
X45048750Y-50252000D01*
X44890000Y-50410750D01*
X44890000Y-50638422D01*
X44785000Y-50533422D01*
X44785000Y-49473691D01*
X44890000Y-49473691D01*
X44890000Y-49839250D01*
X45048750Y-49998000D01*
X45873000Y-49998000D01*
X45873000Y-49123750D01*
X46127000Y-49123750D01*
X46127000Y-49998000D01*
X46951250Y-49998000D01*
X47110000Y-49839250D01*
X47110000Y-49473691D01*
X47013327Y-49240302D01*
X46834699Y-49061673D01*
X46743001Y-49023690D01*
X49515000Y-49023690D01*
X49515000Y-49714250D01*
X49673750Y-49873000D01*
X50873000Y-49873000D01*
X50873000Y-48673750D01*
X50714250Y-48515000D01*
X50023691Y-48515000D01*
X49790302Y-48611673D01*
X49611673Y-48790301D01*
X49515000Y-49023690D01*
X46743001Y-49023690D01*
X46601310Y-48965000D01*
X46285750Y-48965000D01*
X46127000Y-49123750D01*
X45873000Y-49123750D01*
X45714250Y-48965000D01*
X45398690Y-48965000D01*
X45165301Y-49061673D01*
X44986673Y-49240302D01*
X44890000Y-49473691D01*
X44785000Y-49473691D01*
X44785000Y-48166578D01*
X45689156Y-47262423D01*
X45763049Y-47213049D01*
X45823593Y-47122440D01*
X45958652Y-46920310D01*
X45959542Y-46915836D01*
X46000000Y-46888803D01*
X46248848Y-47055078D01*
X46587500Y-47122440D01*
X47162500Y-47122440D01*
X47501152Y-47055078D01*
X47788247Y-46863247D01*
X47980078Y-46576152D01*
X48047440Y-46237500D01*
X48047440Y-45849170D01*
X48065904Y-45821537D01*
X48110000Y-45599852D01*
X48110000Y-45599848D01*
X48124888Y-45525001D01*
X48110000Y-45450154D01*
X48110000Y-43616527D01*
X48202235Y-43678157D01*
X48450000Y-43727440D01*
X48850000Y-43727440D01*
X49097765Y-43678157D01*
X49307809Y-43537809D01*
X49448157Y-43327765D01*
X49495451Y-43090000D01*
X49638422Y-43090000D01*
X52115001Y-45566580D01*
G36*
X53290001Y-44238422D02*
X50764154Y-41712576D01*
X50545309Y-41566348D01*
X50200000Y-41497663D01*
X49854691Y-41566348D01*
X49849225Y-41570000D01*
X49495451Y-41570000D01*
X49448157Y-41332235D01*
X49307809Y-41122191D01*
X49118874Y-40995948D01*
X49209699Y-40958327D01*
X49388327Y-40779698D01*
X49485000Y-40546309D01*
X49485000Y-39955750D01*
X49326250Y-39797000D01*
X48847440Y-39797000D01*
X48847440Y-39543000D01*
X49326250Y-39543000D01*
X49485000Y-39384250D01*
X49485000Y-38793691D01*
X49388327Y-38560302D01*
X49209699Y-38381673D01*
X48976310Y-38285000D01*
X48908750Y-38285000D01*
X48777002Y-38416748D01*
X48777002Y-38285000D01*
X48760000Y-38285000D01*
X48760000Y-38255537D01*
X48833652Y-38145310D01*
X48885000Y-37887165D01*
X48885000Y-30837161D01*
X48902337Y-30750000D01*
X48885000Y-30662839D01*
X48885000Y-30662835D01*
X48833652Y-30404690D01*
X48638049Y-30111951D01*
X48564156Y-30062577D01*
X48037425Y-29535847D01*
X47988049Y-29461951D01*
X47695310Y-29266348D01*
X47437165Y-29215000D01*
X47437161Y-29215000D01*
X47350000Y-29197663D01*
X47345476Y-29198563D01*
X47307809Y-29142191D01*
X47244666Y-29100000D01*
X47307809Y-29057809D01*
X47448157Y-28847765D01*
X47497440Y-28600000D01*
X47497440Y-28555431D01*
X48765000Y-28555431D01*
X48765000Y-29444569D01*
X49105259Y-30266026D01*
X49733974Y-30894741D01*
X50555431Y-31235000D01*
X51444569Y-31235000D01*
X52266026Y-30894741D01*
X52894741Y-30266026D01*
X53235000Y-29444569D01*
X53235000Y-28555431D01*
X52894741Y-27733974D01*
X52266026Y-27105259D01*
X51444569Y-26765000D01*
X50555431Y-26765000D01*
X49733974Y-27105259D01*
X49105259Y-27733974D01*
X48765000Y-28555431D01*
X47497440Y-28555431D01*
X47497440Y-27600000D01*
X47448157Y-27352235D01*
X47307809Y-27142191D01*
X47244666Y-27100000D01*
X47307809Y-27057809D01*
X47448157Y-26847765D01*
X47497440Y-26600000D01*
X47497440Y-25600000D01*
X47448157Y-25352235D01*
X47307809Y-25142191D01*
X47244666Y-25100000D01*
X47307809Y-25057809D01*
X47448157Y-24847765D01*
X47497440Y-24600000D01*
X47497440Y-23600000D01*
X47448157Y-23352235D01*
X47307809Y-23142191D01*
X47244666Y-23100000D01*
X47307809Y-23057809D01*
X47448157Y-22847765D01*
X47497440Y-22600000D01*
X47497440Y-21600000D01*
X47448157Y-21352235D01*
X47307809Y-21142191D01*
X47244666Y-21100000D01*
X47307809Y-21057809D01*
X47448157Y-20847765D01*
X47497440Y-20600000D01*
X47497440Y-19600000D01*
X47448157Y-19352235D01*
X47307809Y-19142191D01*
X47285074Y-19127000D01*
X53290000Y-19127000D01*
X53290001Y-44238422D01*
X53290001Y-44238422D01*
G37*
X53290001Y-44238422D02*
X50764154Y-41712576D01*
X50545309Y-41566348D01*
X50200000Y-41497663D01*
X49854691Y-41566348D01*
X49849225Y-41570000D01*
X49495451Y-41570000D01*
X49448157Y-41332235D01*
X49307809Y-41122191D01*
X49118874Y-40995948D01*
X49209699Y-40958327D01*
X49388327Y-40779698D01*
X49485000Y-40546309D01*
X49485000Y-39955750D01*
X49326250Y-39797000D01*
X48847440Y-39797000D01*
X48847440Y-39543000D01*
X49326250Y-39543000D01*
X49485000Y-39384250D01*
X49485000Y-38793691D01*
X49388327Y-38560302D01*
X49209699Y-38381673D01*
X48976310Y-38285000D01*
X48908750Y-38285000D01*
X48777002Y-38416748D01*
X48777002Y-38285000D01*
X48760000Y-38285000D01*
X48760000Y-38255537D01*
X48833652Y-38145310D01*
X48885000Y-37887165D01*
X48885000Y-30837161D01*
X48902337Y-30750000D01*
X48885000Y-30662839D01*
X48885000Y-30662835D01*
X48833652Y-30404690D01*
X48638049Y-30111951D01*
X48564156Y-30062577D01*
X48037425Y-29535847D01*
X47988049Y-29461951D01*
X47695310Y-29266348D01*
X47437165Y-29215000D01*
X47437161Y-29215000D01*
X47350000Y-29197663D01*
X47345476Y-29198563D01*
X47307809Y-29142191D01*
X47244666Y-29100000D01*
X47307809Y-29057809D01*
X47448157Y-28847765D01*
X47497440Y-28600000D01*
X47497440Y-28555431D01*
X48765000Y-28555431D01*
X48765000Y-29444569D01*
X49105259Y-30266026D01*
X49733974Y-30894741D01*
X50555431Y-31235000D01*
X51444569Y-31235000D01*
X52266026Y-30894741D01*
X52894741Y-30266026D01*
X53235000Y-29444569D01*
X53235000Y-28555431D01*
X52894741Y-27733974D01*
X52266026Y-27105259D01*
X51444569Y-26765000D01*
X50555431Y-26765000D01*
X49733974Y-27105259D01*
X49105259Y-27733974D01*
X48765000Y-28555431D01*
X47497440Y-28555431D01*
X47497440Y-27600000D01*
X47448157Y-27352235D01*
X47307809Y-27142191D01*
X47244666Y-27100000D01*
X47307809Y-27057809D01*
X47448157Y-26847765D01*
X47497440Y-26600000D01*
X47497440Y-25600000D01*
X47448157Y-25352235D01*
X47307809Y-25142191D01*
X47244666Y-25100000D01*
X47307809Y-25057809D01*
X47448157Y-24847765D01*
X47497440Y-24600000D01*
X47497440Y-23600000D01*
X47448157Y-23352235D01*
X47307809Y-23142191D01*
X47244666Y-23100000D01*
X47307809Y-23057809D01*
X47448157Y-22847765D01*
X47497440Y-22600000D01*
X47497440Y-21600000D01*
X47448157Y-21352235D01*
X47307809Y-21142191D01*
X47244666Y-21100000D01*
X47307809Y-21057809D01*
X47448157Y-20847765D01*
X47497440Y-20600000D01*
X47497440Y-19600000D01*
X47448157Y-19352235D01*
X47307809Y-19142191D01*
X47285074Y-19127000D01*
X53290000Y-19127000D01*
X53290001Y-44238422D01*
G36*
X43892191Y-19142191D02*
X43751843Y-19352235D01*
X43702560Y-19600000D01*
X43702560Y-20600000D01*
X43751843Y-20847765D01*
X43892191Y-21057809D01*
X43955334Y-21100000D01*
X43892191Y-21142191D01*
X43751843Y-21352235D01*
X43702560Y-21600000D01*
X43702560Y-22600000D01*
X43751843Y-22847765D01*
X43892191Y-23057809D01*
X43955334Y-23100000D01*
X43892191Y-23142191D01*
X43751843Y-23352235D01*
X43702560Y-23600000D01*
X43702560Y-24600000D01*
X43751843Y-24847765D01*
X43892191Y-25057809D01*
X43955334Y-25100000D01*
X43892191Y-25142191D01*
X43751843Y-25352235D01*
X43702560Y-25600000D01*
X43702560Y-26600000D01*
X43751843Y-26847765D01*
X43892191Y-27057809D01*
X43955334Y-27100000D01*
X43892191Y-27142191D01*
X43854524Y-27198563D01*
X43850000Y-27197663D01*
X43762839Y-27215000D01*
X43762835Y-27215000D01*
X43504690Y-27266348D01*
X43285845Y-27412576D01*
X43285844Y-27412577D01*
X43211951Y-27461951D01*
X43162577Y-27535844D01*
X36310847Y-34387575D01*
X36236951Y-34436951D01*
X36041348Y-34729691D01*
X35990000Y-34987836D01*
X35990000Y-34987839D01*
X35972663Y-35075000D01*
X35990000Y-35162161D01*
X35990001Y-38104516D01*
X35751152Y-37944922D01*
X35412500Y-37877560D01*
X35254139Y-37877560D01*
X34812425Y-37435847D01*
X34763049Y-37361951D01*
X34470310Y-37166348D01*
X34212165Y-37115000D01*
X34212161Y-37115000D01*
X34125000Y-37097663D01*
X34037839Y-37115000D01*
X32117946Y-37115000D01*
X32035000Y-36990864D01*
X32035000Y-35110000D01*
X32800529Y-35110000D01*
X32900000Y-35129786D01*
X32999471Y-35110000D01*
X32999476Y-35110000D01*
X33294082Y-35051399D01*
X33628169Y-34828169D01*
X33684518Y-34743837D01*
X34643840Y-33784516D01*
X34728169Y-33728169D01*
X34784516Y-33643840D01*
X34784518Y-33643838D01*
X34951398Y-33394083D01*
X34951399Y-33394082D01*
X35010000Y-33099476D01*
X35010000Y-33099471D01*
X35029786Y-33000000D01*
X35010000Y-32900529D01*
X35010000Y-25799471D01*
X35029786Y-25700000D01*
X35010000Y-25600529D01*
X35010000Y-25600524D01*
X34951399Y-25305918D01*
X34901411Y-25231105D01*
X34784518Y-25056162D01*
X34784516Y-25056160D01*
X34728169Y-24971831D01*
X34643841Y-24915485D01*
X33184518Y-23456162D01*
X33128169Y-23371831D01*
X32794082Y-23148601D01*
X32499476Y-23090000D01*
X32499471Y-23090000D01*
X32400000Y-23070214D01*
X32300529Y-23090000D01*
X32059632Y-23090000D01*
X32107809Y-23057809D01*
X32248157Y-22847765D01*
X32297440Y-22600000D01*
X32297440Y-21600000D01*
X32248157Y-21352235D01*
X32107809Y-21142191D01*
X32044666Y-21100000D01*
X32107809Y-21057809D01*
X32248157Y-20847765D01*
X32297440Y-20600000D01*
X32297440Y-19600000D01*
X32248157Y-19352235D01*
X32107809Y-19142191D01*
X32085074Y-19127000D01*
X43914926Y-19127000D01*
X43892191Y-19142191D01*
X43892191Y-19142191D01*
G37*
X43892191Y-19142191D02*
X43751843Y-19352235D01*
X43702560Y-19600000D01*
X43702560Y-20600000D01*
X43751843Y-20847765D01*
X43892191Y-21057809D01*
X43955334Y-21100000D01*
X43892191Y-21142191D01*
X43751843Y-21352235D01*
X43702560Y-21600000D01*
X43702560Y-22600000D01*
X43751843Y-22847765D01*
X43892191Y-23057809D01*
X43955334Y-23100000D01*
X43892191Y-23142191D01*
X43751843Y-23352235D01*
X43702560Y-23600000D01*
X43702560Y-24600000D01*
X43751843Y-24847765D01*
X43892191Y-25057809D01*
X43955334Y-25100000D01*
X43892191Y-25142191D01*
X43751843Y-25352235D01*
X43702560Y-25600000D01*
X43702560Y-26600000D01*
X43751843Y-26847765D01*
X43892191Y-27057809D01*
X43955334Y-27100000D01*
X43892191Y-27142191D01*
X43854524Y-27198563D01*
X43850000Y-27197663D01*
X43762839Y-27215000D01*
X43762835Y-27215000D01*
X43504690Y-27266348D01*
X43285845Y-27412576D01*
X43285844Y-27412577D01*
X43211951Y-27461951D01*
X43162577Y-27535844D01*
X36310847Y-34387575D01*
X36236951Y-34436951D01*
X36041348Y-34729691D01*
X35990000Y-34987836D01*
X35990000Y-34987839D01*
X35972663Y-35075000D01*
X35990000Y-35162161D01*
X35990001Y-38104516D01*
X35751152Y-37944922D01*
X35412500Y-37877560D01*
X35254139Y-37877560D01*
X34812425Y-37435847D01*
X34763049Y-37361951D01*
X34470310Y-37166348D01*
X34212165Y-37115000D01*
X34212161Y-37115000D01*
X34125000Y-37097663D01*
X34037839Y-37115000D01*
X32117946Y-37115000D01*
X32035000Y-36990864D01*
X32035000Y-35110000D01*
X32800529Y-35110000D01*
X32900000Y-35129786D01*
X32999471Y-35110000D01*
X32999476Y-35110000D01*
X33294082Y-35051399D01*
X33628169Y-34828169D01*
X33684518Y-34743837D01*
X34643840Y-33784516D01*
X34728169Y-33728169D01*
X34784516Y-33643840D01*
X34784518Y-33643838D01*
X34951398Y-33394083D01*
X34951399Y-33394082D01*
X35010000Y-33099476D01*
X35010000Y-33099471D01*
X35029786Y-33000000D01*
X35010000Y-32900529D01*
X35010000Y-25799471D01*
X35029786Y-25700000D01*
X35010000Y-25600529D01*
X35010000Y-25600524D01*
X34951399Y-25305918D01*
X34901411Y-25231105D01*
X34784518Y-25056162D01*
X34784516Y-25056160D01*
X34728169Y-24971831D01*
X34643841Y-24915485D01*
X33184518Y-23456162D01*
X33128169Y-23371831D01*
X32794082Y-23148601D01*
X32499476Y-23090000D01*
X32499471Y-23090000D01*
X32400000Y-23070214D01*
X32300529Y-23090000D01*
X32059632Y-23090000D01*
X32107809Y-23057809D01*
X32248157Y-22847765D01*
X32297440Y-22600000D01*
X32297440Y-21600000D01*
X32248157Y-21352235D01*
X32107809Y-21142191D01*
X32044666Y-21100000D01*
X32107809Y-21057809D01*
X32248157Y-20847765D01*
X32297440Y-20600000D01*
X32297440Y-19600000D01*
X32248157Y-19352235D01*
X32107809Y-19142191D01*
X32085074Y-19127000D01*
X43914926Y-19127000D01*
X43892191Y-19142191D01*
G04 #@! TD*
M02*
