G04 #@! TF.GenerationSoftware,KiCad,Pcbnew,(5.1.12)-1*
G04 #@! TF.CreationDate,2022-11-12T20:16:50+02:00*
G04 #@! TF.ProjectId,MagicLightsPCBNeo,4d616769-634c-4696-9768-74735043424e,rev?*
G04 #@! TF.SameCoordinates,Original*
G04 #@! TF.FileFunction,Paste,Top*
G04 #@! TF.FilePolarity,Positive*
%FSLAX46Y46*%
G04 Gerber Fmt 4.6, Leading zero omitted, Abs format (unit mm)*
G04 Created by KiCad (PCBNEW (5.1.12)-1) date 2022-11-12 20:16:50*
%MOMM*%
%LPD*%
G01*
G04 APERTURE LIST*
%ADD10R,2.500000X1.000000*%
%ADD11R,1.800000X3.500000*%
%ADD12R,0.510000X0.700000*%
G04 APERTURE END LIST*
G36*
G01*
X44900000Y-65662500D02*
X44900000Y-66137500D01*
G75*
G02*
X44662500Y-66375000I-237500J0D01*
G01*
X44162500Y-66375000D01*
G75*
G02*
X43925000Y-66137500I0J237500D01*
G01*
X43925000Y-65662500D01*
G75*
G02*
X44162500Y-65425000I237500J0D01*
G01*
X44662500Y-65425000D01*
G75*
G02*
X44900000Y-65662500I0J-237500D01*
G01*
G37*
G36*
G01*
X43075000Y-65662500D02*
X43075000Y-66137500D01*
G75*
G02*
X42837500Y-66375000I-237500J0D01*
G01*
X42337500Y-66375000D01*
G75*
G02*
X42100000Y-66137500I0J237500D01*
G01*
X42100000Y-65662500D01*
G75*
G02*
X42337500Y-65425000I237500J0D01*
G01*
X42837500Y-65425000D01*
G75*
G02*
X43075000Y-65662500I0J-237500D01*
G01*
G37*
G36*
G01*
X37850000Y-57849999D02*
X37850000Y-58750001D01*
G75*
G02*
X37600001Y-59000000I-249999J0D01*
G01*
X36949999Y-59000000D01*
G75*
G02*
X36700000Y-58750001I0J249999D01*
G01*
X36700000Y-57849999D01*
G75*
G02*
X36949999Y-57600000I249999J0D01*
G01*
X37600001Y-57600000D01*
G75*
G02*
X37850000Y-57849999I0J-249999D01*
G01*
G37*
G36*
G01*
X39900000Y-57849999D02*
X39900000Y-58750001D01*
G75*
G02*
X39650001Y-59000000I-249999J0D01*
G01*
X38999999Y-59000000D01*
G75*
G02*
X38750000Y-58750001I0J249999D01*
G01*
X38750000Y-57849999D01*
G75*
G02*
X38999999Y-57600000I249999J0D01*
G01*
X39650001Y-57600000D01*
G75*
G02*
X39900000Y-57849999I0J-249999D01*
G01*
G37*
G36*
G01*
X34837500Y-42400000D02*
X34362500Y-42400000D01*
G75*
G02*
X34125000Y-42162500I0J237500D01*
G01*
X34125000Y-41587500D01*
G75*
G02*
X34362500Y-41350000I237500J0D01*
G01*
X34837500Y-41350000D01*
G75*
G02*
X35075000Y-41587500I0J-237500D01*
G01*
X35075000Y-42162500D01*
G75*
G02*
X34837500Y-42400000I-237500J0D01*
G01*
G37*
G36*
G01*
X34837500Y-40650000D02*
X34362500Y-40650000D01*
G75*
G02*
X34125000Y-40412500I0J237500D01*
G01*
X34125000Y-39837500D01*
G75*
G02*
X34362500Y-39600000I237500J0D01*
G01*
X34837500Y-39600000D01*
G75*
G02*
X35075000Y-39837500I0J-237500D01*
G01*
X35075000Y-40412500D01*
G75*
G02*
X34837500Y-40650000I-237500J0D01*
G01*
G37*
G36*
G01*
X62800000Y-66662500D02*
X62800000Y-67137500D01*
G75*
G02*
X62562500Y-67375000I-237500J0D01*
G01*
X61987500Y-67375000D01*
G75*
G02*
X61750000Y-67137500I0J237500D01*
G01*
X61750000Y-66662500D01*
G75*
G02*
X61987500Y-66425000I237500J0D01*
G01*
X62562500Y-66425000D01*
G75*
G02*
X62800000Y-66662500I0J-237500D01*
G01*
G37*
G36*
G01*
X61050000Y-66662500D02*
X61050000Y-67137500D01*
G75*
G02*
X60812500Y-67375000I-237500J0D01*
G01*
X60237500Y-67375000D01*
G75*
G02*
X60000000Y-67137500I0J237500D01*
G01*
X60000000Y-66662500D01*
G75*
G02*
X60237500Y-66425000I237500J0D01*
G01*
X60812500Y-66425000D01*
G75*
G02*
X61050000Y-66662500I0J-237500D01*
G01*
G37*
G36*
G01*
X34850001Y-61400000D02*
X33949999Y-61400000D01*
G75*
G02*
X33700000Y-61150001I0J249999D01*
G01*
X33700000Y-60499999D01*
G75*
G02*
X33949999Y-60250000I249999J0D01*
G01*
X34850001Y-60250000D01*
G75*
G02*
X35100000Y-60499999I0J-249999D01*
G01*
X35100000Y-61150001D01*
G75*
G02*
X34850001Y-61400000I-249999J0D01*
G01*
G37*
G36*
G01*
X34850001Y-59350000D02*
X33949999Y-59350000D01*
G75*
G02*
X33700000Y-59100001I0J249999D01*
G01*
X33700000Y-58449999D01*
G75*
G02*
X33949999Y-58200000I249999J0D01*
G01*
X34850001Y-58200000D01*
G75*
G02*
X35100000Y-58449999I0J-249999D01*
G01*
X35100000Y-59100001D01*
G75*
G02*
X34850001Y-59350000I-249999J0D01*
G01*
G37*
D10*
X53600000Y-40100000D03*
X53600000Y-42100000D03*
X53600000Y-44100000D03*
X53600000Y-46100000D03*
X53600000Y-48100000D03*
X53600000Y-50100000D03*
X53600000Y-52100000D03*
X53600000Y-54100000D03*
X38400000Y-54100000D03*
X38400000Y-52100000D03*
X38400000Y-50100000D03*
X38400000Y-48100000D03*
X38400000Y-46100000D03*
X38400000Y-44100000D03*
X38400000Y-42100000D03*
X38400000Y-40100000D03*
G36*
G01*
X55300000Y-58337500D02*
X55300000Y-57862500D01*
G75*
G02*
X55537500Y-57625000I237500J0D01*
G01*
X56112500Y-57625000D01*
G75*
G02*
X56350000Y-57862500I0J-237500D01*
G01*
X56350000Y-58337500D01*
G75*
G02*
X56112500Y-58575000I-237500J0D01*
G01*
X55537500Y-58575000D01*
G75*
G02*
X55300000Y-58337500I0J237500D01*
G01*
G37*
G36*
G01*
X57050000Y-58337500D02*
X57050000Y-57862500D01*
G75*
G02*
X57287500Y-57625000I237500J0D01*
G01*
X57862500Y-57625000D01*
G75*
G02*
X58100000Y-57862500I0J-237500D01*
G01*
X58100000Y-58337500D01*
G75*
G02*
X57862500Y-58575000I-237500J0D01*
G01*
X57287500Y-58575000D01*
G75*
G02*
X57050000Y-58337500I0J237500D01*
G01*
G37*
G36*
G01*
X57050000Y-61237500D02*
X57050000Y-60762500D01*
G75*
G02*
X57287500Y-60525000I237500J0D01*
G01*
X57862500Y-60525000D01*
G75*
G02*
X58100000Y-60762500I0J-237500D01*
G01*
X58100000Y-61237500D01*
G75*
G02*
X57862500Y-61475000I-237500J0D01*
G01*
X57287500Y-61475000D01*
G75*
G02*
X57050000Y-61237500I0J237500D01*
G01*
G37*
G36*
G01*
X55300000Y-61237500D02*
X55300000Y-60762500D01*
G75*
G02*
X55537500Y-60525000I237500J0D01*
G01*
X56112500Y-60525000D01*
G75*
G02*
X56350000Y-60762500I0J-237500D01*
G01*
X56350000Y-61237500D01*
G75*
G02*
X56112500Y-61475000I-237500J0D01*
G01*
X55537500Y-61475000D01*
G75*
G02*
X55300000Y-61237500I0J237500D01*
G01*
G37*
G36*
G01*
X34362500Y-45750000D02*
X34837500Y-45750000D01*
G75*
G02*
X35075000Y-45987500I0J-237500D01*
G01*
X35075000Y-46562500D01*
G75*
G02*
X34837500Y-46800000I-237500J0D01*
G01*
X34362500Y-46800000D01*
G75*
G02*
X34125000Y-46562500I0J237500D01*
G01*
X34125000Y-45987500D01*
G75*
G02*
X34362500Y-45750000I237500J0D01*
G01*
G37*
G36*
G01*
X34362500Y-44000000D02*
X34837500Y-44000000D01*
G75*
G02*
X35075000Y-44237500I0J-237500D01*
G01*
X35075000Y-44812500D01*
G75*
G02*
X34837500Y-45050000I-237500J0D01*
G01*
X34362500Y-45050000D01*
G75*
G02*
X34125000Y-44812500I0J237500D01*
G01*
X34125000Y-44237500D01*
G75*
G02*
X34362500Y-44000000I237500J0D01*
G01*
G37*
G36*
G01*
X34837500Y-52850000D02*
X34362500Y-52850000D01*
G75*
G02*
X34125000Y-52612500I0J237500D01*
G01*
X34125000Y-52037500D01*
G75*
G02*
X34362500Y-51800000I237500J0D01*
G01*
X34837500Y-51800000D01*
G75*
G02*
X35075000Y-52037500I0J-237500D01*
G01*
X35075000Y-52612500D01*
G75*
G02*
X34837500Y-52850000I-237500J0D01*
G01*
G37*
G36*
G01*
X34837500Y-54600000D02*
X34362500Y-54600000D01*
G75*
G02*
X34125000Y-54362500I0J237500D01*
G01*
X34125000Y-53787500D01*
G75*
G02*
X34362500Y-53550000I237500J0D01*
G01*
X34837500Y-53550000D01*
G75*
G02*
X35075000Y-53787500I0J-237500D01*
G01*
X35075000Y-54362500D01*
G75*
G02*
X34837500Y-54600000I-237500J0D01*
G01*
G37*
D11*
X33900000Y-79400000D03*
X33900000Y-74400000D03*
G36*
G01*
X59075000Y-45125000D02*
X58125000Y-45125000D01*
G75*
G02*
X57875000Y-44875000I0J250000D01*
G01*
X57875000Y-44200000D01*
G75*
G02*
X58125000Y-43950000I250000J0D01*
G01*
X59075000Y-43950000D01*
G75*
G02*
X59325000Y-44200000I0J-250000D01*
G01*
X59325000Y-44875000D01*
G75*
G02*
X59075000Y-45125000I-250000J0D01*
G01*
G37*
G36*
G01*
X59075000Y-43050000D02*
X58125000Y-43050000D01*
G75*
G02*
X57875000Y-42800000I0J250000D01*
G01*
X57875000Y-42125000D01*
G75*
G02*
X58125000Y-41875000I250000J0D01*
G01*
X59075000Y-41875000D01*
G75*
G02*
X59325000Y-42125000I0J-250000D01*
G01*
X59325000Y-42800000D01*
G75*
G02*
X59075000Y-43050000I-250000J0D01*
G01*
G37*
G36*
G01*
X43362500Y-57600000D02*
X43837500Y-57600000D01*
G75*
G02*
X44075000Y-57837500I0J-237500D01*
G01*
X44075000Y-58412500D01*
G75*
G02*
X43837500Y-58650000I-237500J0D01*
G01*
X43362500Y-58650000D01*
G75*
G02*
X43125000Y-58412500I0J237500D01*
G01*
X43125000Y-57837500D01*
G75*
G02*
X43362500Y-57600000I237500J0D01*
G01*
G37*
G36*
G01*
X43362500Y-59350000D02*
X43837500Y-59350000D01*
G75*
G02*
X44075000Y-59587500I0J-237500D01*
G01*
X44075000Y-60162500D01*
G75*
G02*
X43837500Y-60400000I-237500J0D01*
G01*
X43362500Y-60400000D01*
G75*
G02*
X43125000Y-60162500I0J237500D01*
G01*
X43125000Y-59587500D01*
G75*
G02*
X43362500Y-59350000I237500J0D01*
G01*
G37*
G36*
G01*
X44900000Y-62762500D02*
X44900000Y-63237500D01*
G75*
G02*
X44662500Y-63475000I-237500J0D01*
G01*
X44162500Y-63475000D01*
G75*
G02*
X43925000Y-63237500I0J237500D01*
G01*
X43925000Y-62762500D01*
G75*
G02*
X44162500Y-62525000I237500J0D01*
G01*
X44662500Y-62525000D01*
G75*
G02*
X44900000Y-62762500I0J-237500D01*
G01*
G37*
G36*
G01*
X43075000Y-62762500D02*
X43075000Y-63237500D01*
G75*
G02*
X42837500Y-63475000I-237500J0D01*
G01*
X42337500Y-63475000D01*
G75*
G02*
X42100000Y-63237500I0J237500D01*
G01*
X42100000Y-62762500D01*
G75*
G02*
X42337500Y-62525000I237500J0D01*
G01*
X42837500Y-62525000D01*
G75*
G02*
X43075000Y-62762500I0J-237500D01*
G01*
G37*
G36*
G01*
X62100000Y-53937500D02*
X62100000Y-53462500D01*
G75*
G02*
X62337500Y-53225000I237500J0D01*
G01*
X62837500Y-53225000D01*
G75*
G02*
X63075000Y-53462500I0J-237500D01*
G01*
X63075000Y-53937500D01*
G75*
G02*
X62837500Y-54175000I-237500J0D01*
G01*
X62337500Y-54175000D01*
G75*
G02*
X62100000Y-53937500I0J237500D01*
G01*
G37*
G36*
G01*
X63925000Y-53937500D02*
X63925000Y-53462500D01*
G75*
G02*
X64162500Y-53225000I237500J0D01*
G01*
X64662500Y-53225000D01*
G75*
G02*
X64900000Y-53462500I0J-237500D01*
G01*
X64900000Y-53937500D01*
G75*
G02*
X64662500Y-54175000I-237500J0D01*
G01*
X64162500Y-54175000D01*
G75*
G02*
X63925000Y-53937500I0J237500D01*
G01*
G37*
G36*
G01*
X63825000Y-50737500D02*
X63825000Y-50262500D01*
G75*
G02*
X64062500Y-50025000I237500J0D01*
G01*
X64562500Y-50025000D01*
G75*
G02*
X64800000Y-50262500I0J-237500D01*
G01*
X64800000Y-50737500D01*
G75*
G02*
X64562500Y-50975000I-237500J0D01*
G01*
X64062500Y-50975000D01*
G75*
G02*
X63825000Y-50737500I0J237500D01*
G01*
G37*
G36*
G01*
X62000000Y-50737500D02*
X62000000Y-50262500D01*
G75*
G02*
X62237500Y-50025000I237500J0D01*
G01*
X62737500Y-50025000D01*
G75*
G02*
X62975000Y-50262500I0J-237500D01*
G01*
X62975000Y-50737500D01*
G75*
G02*
X62737500Y-50975000I-237500J0D01*
G01*
X62237500Y-50975000D01*
G75*
G02*
X62000000Y-50737500I0J237500D01*
G01*
G37*
G36*
G01*
X70437500Y-59800000D02*
X69962500Y-59800000D01*
G75*
G02*
X69725000Y-59562500I0J237500D01*
G01*
X69725000Y-59062500D01*
G75*
G02*
X69962500Y-58825000I237500J0D01*
G01*
X70437500Y-58825000D01*
G75*
G02*
X70675000Y-59062500I0J-237500D01*
G01*
X70675000Y-59562500D01*
G75*
G02*
X70437500Y-59800000I-237500J0D01*
G01*
G37*
G36*
G01*
X70437500Y-57975000D02*
X69962500Y-57975000D01*
G75*
G02*
X69725000Y-57737500I0J237500D01*
G01*
X69725000Y-57237500D01*
G75*
G02*
X69962500Y-57000000I237500J0D01*
G01*
X70437500Y-57000000D01*
G75*
G02*
X70675000Y-57237500I0J-237500D01*
G01*
X70675000Y-57737500D01*
G75*
G02*
X70437500Y-57975000I-237500J0D01*
G01*
G37*
G36*
G01*
X64062500Y-47125000D02*
X64537500Y-47125000D01*
G75*
G02*
X64775000Y-47362500I0J-237500D01*
G01*
X64775000Y-47862500D01*
G75*
G02*
X64537500Y-48100000I-237500J0D01*
G01*
X64062500Y-48100000D01*
G75*
G02*
X63825000Y-47862500I0J237500D01*
G01*
X63825000Y-47362500D01*
G75*
G02*
X64062500Y-47125000I237500J0D01*
G01*
G37*
G36*
G01*
X64062500Y-45300000D02*
X64537500Y-45300000D01*
G75*
G02*
X64775000Y-45537500I0J-237500D01*
G01*
X64775000Y-46037500D01*
G75*
G02*
X64537500Y-46275000I-237500J0D01*
G01*
X64062500Y-46275000D01*
G75*
G02*
X63825000Y-46037500I0J237500D01*
G01*
X63825000Y-45537500D01*
G75*
G02*
X64062500Y-45300000I237500J0D01*
G01*
G37*
D12*
X57650000Y-49460000D03*
X58600000Y-49460000D03*
X59550000Y-49460000D03*
X59550000Y-47140000D03*
X58600000Y-47140000D03*
X57650000Y-47140000D03*
G36*
G01*
X57125000Y-64237500D02*
X57125000Y-63762500D01*
G75*
G02*
X57362500Y-63525000I237500J0D01*
G01*
X57862500Y-63525000D01*
G75*
G02*
X58100000Y-63762500I0J-237500D01*
G01*
X58100000Y-64237500D01*
G75*
G02*
X57862500Y-64475000I-237500J0D01*
G01*
X57362500Y-64475000D01*
G75*
G02*
X57125000Y-64237500I0J237500D01*
G01*
G37*
G36*
G01*
X55300000Y-64237500D02*
X55300000Y-63762500D01*
G75*
G02*
X55537500Y-63525000I237500J0D01*
G01*
X56037500Y-63525000D01*
G75*
G02*
X56275000Y-63762500I0J-237500D01*
G01*
X56275000Y-64237500D01*
G75*
G02*
X56037500Y-64475000I-237500J0D01*
G01*
X55537500Y-64475000D01*
G75*
G02*
X55300000Y-64237500I0J237500D01*
G01*
G37*
G36*
G01*
X55300000Y-67137500D02*
X55300000Y-66662500D01*
G75*
G02*
X55537500Y-66425000I237500J0D01*
G01*
X56037500Y-66425000D01*
G75*
G02*
X56275000Y-66662500I0J-237500D01*
G01*
X56275000Y-67137500D01*
G75*
G02*
X56037500Y-67375000I-237500J0D01*
G01*
X55537500Y-67375000D01*
G75*
G02*
X55300000Y-67137500I0J237500D01*
G01*
G37*
G36*
G01*
X57125000Y-67137500D02*
X57125000Y-66662500D01*
G75*
G02*
X57362500Y-66425000I237500J0D01*
G01*
X57862500Y-66425000D01*
G75*
G02*
X58100000Y-66662500I0J-237500D01*
G01*
X58100000Y-67137500D01*
G75*
G02*
X57862500Y-67375000I-237500J0D01*
G01*
X57362500Y-67375000D01*
G75*
G02*
X57125000Y-67137500I0J237500D01*
G01*
G37*
G36*
G01*
X48445000Y-75000000D02*
X48145000Y-75000000D01*
G75*
G02*
X47995000Y-74850000I0J150000D01*
G01*
X47995000Y-73500000D01*
G75*
G02*
X48145000Y-73350000I150000J0D01*
G01*
X48445000Y-73350000D01*
G75*
G02*
X48595000Y-73500000I0J-150000D01*
G01*
X48595000Y-74850000D01*
G75*
G02*
X48445000Y-75000000I-150000J0D01*
G01*
G37*
G36*
G01*
X49715000Y-75000000D02*
X49415000Y-75000000D01*
G75*
G02*
X49265000Y-74850000I0J150000D01*
G01*
X49265000Y-73500000D01*
G75*
G02*
X49415000Y-73350000I150000J0D01*
G01*
X49715000Y-73350000D01*
G75*
G02*
X49865000Y-73500000I0J-150000D01*
G01*
X49865000Y-74850000D01*
G75*
G02*
X49715000Y-75000000I-150000J0D01*
G01*
G37*
G36*
G01*
X50985000Y-75000000D02*
X50685000Y-75000000D01*
G75*
G02*
X50535000Y-74850000I0J150000D01*
G01*
X50535000Y-73500000D01*
G75*
G02*
X50685000Y-73350000I150000J0D01*
G01*
X50985000Y-73350000D01*
G75*
G02*
X51135000Y-73500000I0J-150000D01*
G01*
X51135000Y-74850000D01*
G75*
G02*
X50985000Y-75000000I-150000J0D01*
G01*
G37*
G36*
G01*
X52255000Y-75000000D02*
X51955000Y-75000000D01*
G75*
G02*
X51805000Y-74850000I0J150000D01*
G01*
X51805000Y-73500000D01*
G75*
G02*
X51955000Y-73350000I150000J0D01*
G01*
X52255000Y-73350000D01*
G75*
G02*
X52405000Y-73500000I0J-150000D01*
G01*
X52405000Y-74850000D01*
G75*
G02*
X52255000Y-75000000I-150000J0D01*
G01*
G37*
G36*
G01*
X52255000Y-80250000D02*
X51955000Y-80250000D01*
G75*
G02*
X51805000Y-80100000I0J150000D01*
G01*
X51805000Y-78750000D01*
G75*
G02*
X51955000Y-78600000I150000J0D01*
G01*
X52255000Y-78600000D01*
G75*
G02*
X52405000Y-78750000I0J-150000D01*
G01*
X52405000Y-80100000D01*
G75*
G02*
X52255000Y-80250000I-150000J0D01*
G01*
G37*
G36*
G01*
X50985000Y-80250000D02*
X50685000Y-80250000D01*
G75*
G02*
X50535000Y-80100000I0J150000D01*
G01*
X50535000Y-78750000D01*
G75*
G02*
X50685000Y-78600000I150000J0D01*
G01*
X50985000Y-78600000D01*
G75*
G02*
X51135000Y-78750000I0J-150000D01*
G01*
X51135000Y-80100000D01*
G75*
G02*
X50985000Y-80250000I-150000J0D01*
G01*
G37*
G36*
G01*
X49715000Y-80250000D02*
X49415000Y-80250000D01*
G75*
G02*
X49265000Y-80100000I0J150000D01*
G01*
X49265000Y-78750000D01*
G75*
G02*
X49415000Y-78600000I150000J0D01*
G01*
X49715000Y-78600000D01*
G75*
G02*
X49865000Y-78750000I0J-150000D01*
G01*
X49865000Y-80100000D01*
G75*
G02*
X49715000Y-80250000I-150000J0D01*
G01*
G37*
G36*
G01*
X48445000Y-80250000D02*
X48145000Y-80250000D01*
G75*
G02*
X47995000Y-80100000I0J150000D01*
G01*
X47995000Y-78750000D01*
G75*
G02*
X48145000Y-78600000I150000J0D01*
G01*
X48445000Y-78600000D01*
G75*
G02*
X48595000Y-78750000I0J-150000D01*
G01*
X48595000Y-80100000D01*
G75*
G02*
X48445000Y-80250000I-150000J0D01*
G01*
G37*
G36*
G01*
X60345000Y-80250000D02*
X60045000Y-80250000D01*
G75*
G02*
X59895000Y-80100000I0J150000D01*
G01*
X59895000Y-78750000D01*
G75*
G02*
X60045000Y-78600000I150000J0D01*
G01*
X60345000Y-78600000D01*
G75*
G02*
X60495000Y-78750000I0J-150000D01*
G01*
X60495000Y-80100000D01*
G75*
G02*
X60345000Y-80250000I-150000J0D01*
G01*
G37*
G36*
G01*
X61615000Y-80250000D02*
X61315000Y-80250000D01*
G75*
G02*
X61165000Y-80100000I0J150000D01*
G01*
X61165000Y-78750000D01*
G75*
G02*
X61315000Y-78600000I150000J0D01*
G01*
X61615000Y-78600000D01*
G75*
G02*
X61765000Y-78750000I0J-150000D01*
G01*
X61765000Y-80100000D01*
G75*
G02*
X61615000Y-80250000I-150000J0D01*
G01*
G37*
G36*
G01*
X62885000Y-80250000D02*
X62585000Y-80250000D01*
G75*
G02*
X62435000Y-80100000I0J150000D01*
G01*
X62435000Y-78750000D01*
G75*
G02*
X62585000Y-78600000I150000J0D01*
G01*
X62885000Y-78600000D01*
G75*
G02*
X63035000Y-78750000I0J-150000D01*
G01*
X63035000Y-80100000D01*
G75*
G02*
X62885000Y-80250000I-150000J0D01*
G01*
G37*
G36*
G01*
X64155000Y-80250000D02*
X63855000Y-80250000D01*
G75*
G02*
X63705000Y-80100000I0J150000D01*
G01*
X63705000Y-78750000D01*
G75*
G02*
X63855000Y-78600000I150000J0D01*
G01*
X64155000Y-78600000D01*
G75*
G02*
X64305000Y-78750000I0J-150000D01*
G01*
X64305000Y-80100000D01*
G75*
G02*
X64155000Y-80250000I-150000J0D01*
G01*
G37*
G36*
G01*
X64155000Y-75000000D02*
X63855000Y-75000000D01*
G75*
G02*
X63705000Y-74850000I0J150000D01*
G01*
X63705000Y-73500000D01*
G75*
G02*
X63855000Y-73350000I150000J0D01*
G01*
X64155000Y-73350000D01*
G75*
G02*
X64305000Y-73500000I0J-150000D01*
G01*
X64305000Y-74850000D01*
G75*
G02*
X64155000Y-75000000I-150000J0D01*
G01*
G37*
G36*
G01*
X62885000Y-75000000D02*
X62585000Y-75000000D01*
G75*
G02*
X62435000Y-74850000I0J150000D01*
G01*
X62435000Y-73500000D01*
G75*
G02*
X62585000Y-73350000I150000J0D01*
G01*
X62885000Y-73350000D01*
G75*
G02*
X63035000Y-73500000I0J-150000D01*
G01*
X63035000Y-74850000D01*
G75*
G02*
X62885000Y-75000000I-150000J0D01*
G01*
G37*
G36*
G01*
X61615000Y-75000000D02*
X61315000Y-75000000D01*
G75*
G02*
X61165000Y-74850000I0J150000D01*
G01*
X61165000Y-73500000D01*
G75*
G02*
X61315000Y-73350000I150000J0D01*
G01*
X61615000Y-73350000D01*
G75*
G02*
X61765000Y-73500000I0J-150000D01*
G01*
X61765000Y-74850000D01*
G75*
G02*
X61615000Y-75000000I-150000J0D01*
G01*
G37*
G36*
G01*
X60345000Y-75000000D02*
X60045000Y-75000000D01*
G75*
G02*
X59895000Y-74850000I0J150000D01*
G01*
X59895000Y-73500000D01*
G75*
G02*
X60045000Y-73350000I150000J0D01*
G01*
X60345000Y-73350000D01*
G75*
G02*
X60495000Y-73500000I0J-150000D01*
G01*
X60495000Y-74850000D01*
G75*
G02*
X60345000Y-75000000I-150000J0D01*
G01*
G37*
G36*
G01*
X57762500Y-70200000D02*
X58237500Y-70200000D01*
G75*
G02*
X58475000Y-70437500I0J-237500D01*
G01*
X58475000Y-70937500D01*
G75*
G02*
X58237500Y-71175000I-237500J0D01*
G01*
X57762500Y-71175000D01*
G75*
G02*
X57525000Y-70937500I0J237500D01*
G01*
X57525000Y-70437500D01*
G75*
G02*
X57762500Y-70200000I237500J0D01*
G01*
G37*
G36*
G01*
X57762500Y-72025000D02*
X58237500Y-72025000D01*
G75*
G02*
X58475000Y-72262500I0J-237500D01*
G01*
X58475000Y-72762500D01*
G75*
G02*
X58237500Y-73000000I-237500J0D01*
G01*
X57762500Y-73000000D01*
G75*
G02*
X57525000Y-72762500I0J237500D01*
G01*
X57525000Y-72262500D01*
G75*
G02*
X57762500Y-72025000I237500J0D01*
G01*
G37*
G36*
G01*
X45262500Y-73525000D02*
X45737500Y-73525000D01*
G75*
G02*
X45975000Y-73762500I0J-237500D01*
G01*
X45975000Y-74262500D01*
G75*
G02*
X45737500Y-74500000I-237500J0D01*
G01*
X45262500Y-74500000D01*
G75*
G02*
X45025000Y-74262500I0J237500D01*
G01*
X45025000Y-73762500D01*
G75*
G02*
X45262500Y-73525000I237500J0D01*
G01*
G37*
G36*
G01*
X45262500Y-71700000D02*
X45737500Y-71700000D01*
G75*
G02*
X45975000Y-71937500I0J-237500D01*
G01*
X45975000Y-72437500D01*
G75*
G02*
X45737500Y-72675000I-237500J0D01*
G01*
X45262500Y-72675000D01*
G75*
G02*
X45025000Y-72437500I0J237500D01*
G01*
X45025000Y-71937500D01*
G75*
G02*
X45262500Y-71700000I237500J0D01*
G01*
G37*
G36*
G01*
X53762500Y-70200000D02*
X54237500Y-70200000D01*
G75*
G02*
X54475000Y-70437500I0J-237500D01*
G01*
X54475000Y-70937500D01*
G75*
G02*
X54237500Y-71175000I-237500J0D01*
G01*
X53762500Y-71175000D01*
G75*
G02*
X53525000Y-70937500I0J237500D01*
G01*
X53525000Y-70437500D01*
G75*
G02*
X53762500Y-70200000I237500J0D01*
G01*
G37*
G36*
G01*
X53762500Y-72025000D02*
X54237500Y-72025000D01*
G75*
G02*
X54475000Y-72262500I0J-237500D01*
G01*
X54475000Y-72762500D01*
G75*
G02*
X54237500Y-73000000I-237500J0D01*
G01*
X53762500Y-73000000D01*
G75*
G02*
X53525000Y-72762500I0J237500D01*
G01*
X53525000Y-72262500D01*
G75*
G02*
X53762500Y-72025000I237500J0D01*
G01*
G37*
M02*
