G04 #@! TF.GenerationSoftware,KiCad,Pcbnew,(5.1.12)-1*
G04 #@! TF.CreationDate,2022-11-12T20:16:50+02:00*
G04 #@! TF.ProjectId,MagicLightsPCBNeo,4d616769-634c-4696-9768-74735043424e,rev?*
G04 #@! TF.SameCoordinates,Original*
G04 #@! TF.FileFunction,Legend,Top*
G04 #@! TF.FilePolarity,Positive*
%FSLAX46Y46*%
G04 Gerber Fmt 4.6, Leading zero omitted, Abs format (unit mm)*
G04 Created by KiCad (PCBNEW (5.1.12)-1) date 2022-11-12 20:16:50*
%MOMM*%
%LPD*%
G01*
G04 APERTURE LIST*
%ADD10C,0.150000*%
%ADD11C,0.160000*%
%ADD12C,0.200000*%
%ADD13C,0.120000*%
G04 APERTURE END LIST*
D10*
X65214285Y-62252380D02*
X65214285Y-61252380D01*
X65214285Y-61728571D02*
X65785714Y-61728571D01*
X65785714Y-62252380D02*
X65785714Y-61252380D01*
X66261904Y-61871428D02*
X67023809Y-61871428D01*
X67833333Y-61728571D02*
X67976190Y-61776190D01*
X68023809Y-61823809D01*
X68071428Y-61919047D01*
X68071428Y-62061904D01*
X68023809Y-62157142D01*
X67976190Y-62204761D01*
X67880952Y-62252380D01*
X67500000Y-62252380D01*
X67500000Y-61252380D01*
X67833333Y-61252380D01*
X67928571Y-61300000D01*
X67976190Y-61347619D01*
X68023809Y-61442857D01*
X68023809Y-61538095D01*
X67976190Y-61633333D01*
X67928571Y-61680952D01*
X67833333Y-61728571D01*
X67500000Y-61728571D01*
X68500000Y-62252380D02*
X68500000Y-61585714D01*
X68500000Y-61776190D02*
X68547619Y-61680952D01*
X68595238Y-61633333D01*
X68690476Y-61585714D01*
X68785714Y-61585714D01*
X69119047Y-62252380D02*
X69119047Y-61585714D01*
X69119047Y-61252380D02*
X69071428Y-61300000D01*
X69119047Y-61347619D01*
X69166666Y-61300000D01*
X69119047Y-61252380D01*
X69119047Y-61347619D01*
X70023809Y-62252380D02*
X70023809Y-61252380D01*
X70023809Y-62204761D02*
X69928571Y-62252380D01*
X69738095Y-62252380D01*
X69642857Y-62204761D01*
X69595238Y-62157142D01*
X69547619Y-62061904D01*
X69547619Y-61776190D01*
X69595238Y-61680952D01*
X69642857Y-61633333D01*
X69738095Y-61585714D01*
X69928571Y-61585714D01*
X70023809Y-61633333D01*
X70928571Y-61585714D02*
X70928571Y-62395238D01*
X70880952Y-62490476D01*
X70833333Y-62538095D01*
X70738095Y-62585714D01*
X70595238Y-62585714D01*
X70500000Y-62538095D01*
X70928571Y-62204761D02*
X70833333Y-62252380D01*
X70642857Y-62252380D01*
X70547619Y-62204761D01*
X70500000Y-62157142D01*
X70452380Y-62061904D01*
X70452380Y-61776190D01*
X70500000Y-61680952D01*
X70547619Y-61633333D01*
X70642857Y-61585714D01*
X70833333Y-61585714D01*
X70928571Y-61633333D01*
X71785714Y-62204761D02*
X71690476Y-62252380D01*
X71500000Y-62252380D01*
X71404761Y-62204761D01*
X71357142Y-62109523D01*
X71357142Y-61728571D01*
X71404761Y-61633333D01*
X71500000Y-61585714D01*
X71690476Y-61585714D01*
X71785714Y-61633333D01*
X71833333Y-61728571D01*
X71833333Y-61823809D01*
X71357142Y-61919047D01*
X66695238Y-75828571D02*
X66838095Y-75876190D01*
X66885714Y-75923809D01*
X66933333Y-76019047D01*
X66933333Y-76161904D01*
X66885714Y-76257142D01*
X66838095Y-76304761D01*
X66742857Y-76352380D01*
X66361904Y-76352380D01*
X66361904Y-75352380D01*
X66695238Y-75352380D01*
X66790476Y-75400000D01*
X66838095Y-75447619D01*
X66885714Y-75542857D01*
X66885714Y-75638095D01*
X66838095Y-75733333D01*
X66790476Y-75780952D01*
X66695238Y-75828571D01*
X66361904Y-75828571D01*
X67314285Y-75447619D02*
X67361904Y-75400000D01*
X67457142Y-75352380D01*
X67695238Y-75352380D01*
X67790476Y-75400000D01*
X67838095Y-75447619D01*
X67885714Y-75542857D01*
X67885714Y-75638095D01*
X67838095Y-75780952D01*
X67266666Y-76352380D01*
X67885714Y-76352380D01*
X63985714Y-70566666D02*
X64461904Y-70566666D01*
X63890476Y-70852380D02*
X64223809Y-69852380D01*
X64557142Y-70852380D01*
X64842857Y-69947619D02*
X64890476Y-69900000D01*
X64985714Y-69852380D01*
X65223809Y-69852380D01*
X65319047Y-69900000D01*
X65366666Y-69947619D01*
X65414285Y-70042857D01*
X65414285Y-70138095D01*
X65366666Y-70280952D01*
X64795238Y-70852380D01*
X65414285Y-70852380D01*
X64295238Y-67828571D02*
X64438095Y-67876190D01*
X64485714Y-67923809D01*
X64533333Y-68019047D01*
X64533333Y-68161904D01*
X64485714Y-68257142D01*
X64438095Y-68304761D01*
X64342857Y-68352380D01*
X63961904Y-68352380D01*
X63961904Y-67352380D01*
X64295238Y-67352380D01*
X64390476Y-67400000D01*
X64438095Y-67447619D01*
X64485714Y-67542857D01*
X64485714Y-67638095D01*
X64438095Y-67733333D01*
X64390476Y-67780952D01*
X64295238Y-67828571D01*
X63961904Y-67828571D01*
X65485714Y-68352380D02*
X64914285Y-68352380D01*
X65200000Y-68352380D02*
X65200000Y-67352380D01*
X65104761Y-67495238D01*
X65009523Y-67590476D01*
X64914285Y-67638095D01*
X63985714Y-65366666D02*
X64461904Y-65366666D01*
X63890476Y-65652380D02*
X64223809Y-64652380D01*
X64557142Y-65652380D01*
X65414285Y-65652380D02*
X64842857Y-65652380D01*
X65128571Y-65652380D02*
X65128571Y-64652380D01*
X65033333Y-64795238D01*
X64938095Y-64890476D01*
X64842857Y-64938095D01*
D11*
X57114285Y-82338095D02*
X57152380Y-82300000D01*
X57228571Y-82261904D01*
X57419047Y-82261904D01*
X57495238Y-82300000D01*
X57533333Y-82338095D01*
X57571428Y-82414285D01*
X57571428Y-82490476D01*
X57533333Y-82604761D01*
X57076190Y-83061904D01*
X57571428Y-83061904D01*
X58066666Y-82261904D02*
X58142857Y-82261904D01*
X58219047Y-82300000D01*
X58257142Y-82338095D01*
X58295238Y-82414285D01*
X58333333Y-82566666D01*
X58333333Y-82757142D01*
X58295238Y-82909523D01*
X58257142Y-82985714D01*
X58219047Y-83023809D01*
X58142857Y-83061904D01*
X58066666Y-83061904D01*
X57990476Y-83023809D01*
X57952380Y-82985714D01*
X57914285Y-82909523D01*
X57876190Y-82757142D01*
X57876190Y-82566666D01*
X57914285Y-82414285D01*
X57952380Y-82338095D01*
X57990476Y-82300000D01*
X58066666Y-82261904D01*
X58638095Y-82338095D02*
X58676190Y-82300000D01*
X58752380Y-82261904D01*
X58942857Y-82261904D01*
X59019047Y-82300000D01*
X59057142Y-82338095D01*
X59095238Y-82414285D01*
X59095238Y-82490476D01*
X59057142Y-82604761D01*
X58600000Y-83061904D01*
X59095238Y-83061904D01*
X59400000Y-82338095D02*
X59438095Y-82300000D01*
X59514285Y-82261904D01*
X59704761Y-82261904D01*
X59780952Y-82300000D01*
X59819047Y-82338095D01*
X59857142Y-82414285D01*
X59857142Y-82490476D01*
X59819047Y-82604761D01*
X59361904Y-83061904D01*
X59857142Y-83061904D01*
X60200000Y-82757142D02*
X60809523Y-82757142D01*
X61609523Y-83061904D02*
X61152380Y-83061904D01*
X61380952Y-83061904D02*
X61380952Y-82261904D01*
X61304761Y-82376190D01*
X61228571Y-82452380D01*
X61152380Y-82490476D01*
X62371428Y-83061904D02*
X61914285Y-83061904D01*
X62142857Y-83061904D02*
X62142857Y-82261904D01*
X62066666Y-82376190D01*
X61990476Y-82452380D01*
X61914285Y-82490476D01*
X62714285Y-82757142D02*
X63323809Y-82757142D01*
X64123809Y-83061904D02*
X63666666Y-83061904D01*
X63895238Y-83061904D02*
X63895238Y-82261904D01*
X63819047Y-82376190D01*
X63742857Y-82452380D01*
X63666666Y-82490476D01*
X64428571Y-82338095D02*
X64466666Y-82300000D01*
X64542857Y-82261904D01*
X64733333Y-82261904D01*
X64809523Y-82300000D01*
X64847619Y-82338095D01*
X64885714Y-82414285D01*
X64885714Y-82490476D01*
X64847619Y-82604761D01*
X64390476Y-83061904D01*
X64885714Y-83061904D01*
D10*
X65100000Y-44600000D02*
X67200000Y-47000000D01*
X63100000Y-44600000D02*
X65100000Y-44600000D01*
X65138095Y-48200000D02*
X65042857Y-48152380D01*
X64900000Y-48152380D01*
X64757142Y-48200000D01*
X64661904Y-48295238D01*
X64614285Y-48390476D01*
X64566666Y-48580952D01*
X64566666Y-48723809D01*
X64614285Y-48914285D01*
X64661904Y-49009523D01*
X64757142Y-49104761D01*
X64900000Y-49152380D01*
X64995238Y-49152380D01*
X65138095Y-49104761D01*
X65185714Y-49057142D01*
X65185714Y-48723809D01*
X64995238Y-48723809D01*
X65614285Y-49152380D02*
X65614285Y-48152380D01*
X66185714Y-49152380D01*
X66185714Y-48152380D01*
X66661904Y-49152380D02*
X66661904Y-48152380D01*
X66900000Y-48152380D01*
X67042857Y-48200000D01*
X67138095Y-48295238D01*
X67185714Y-48390476D01*
X67233333Y-48580952D01*
X67233333Y-48723809D01*
X67185714Y-48914285D01*
X67138095Y-49009523D01*
X67042857Y-49104761D01*
X66900000Y-49152380D01*
X66661904Y-49152380D01*
X58514285Y-56552380D02*
X58514285Y-55552380D01*
X58895238Y-55552380D01*
X58990476Y-55600000D01*
X59038095Y-55647619D01*
X59085714Y-55742857D01*
X59085714Y-55885714D01*
X59038095Y-55980952D01*
X58990476Y-56028571D01*
X58895238Y-56076190D01*
X58514285Y-56076190D01*
X60085714Y-56552380D02*
X59752380Y-56076190D01*
X59514285Y-56552380D02*
X59514285Y-55552380D01*
X59895238Y-55552380D01*
X59990476Y-55600000D01*
X60038095Y-55647619D01*
X60085714Y-55742857D01*
X60085714Y-55885714D01*
X60038095Y-55980952D01*
X59990476Y-56028571D01*
X59895238Y-56076190D01*
X59514285Y-56076190D01*
X60704761Y-55552380D02*
X60895238Y-55552380D01*
X60990476Y-55600000D01*
X61085714Y-55695238D01*
X61133333Y-55885714D01*
X61133333Y-56219047D01*
X61085714Y-56409523D01*
X60990476Y-56504761D01*
X60895238Y-56552380D01*
X60704761Y-56552380D01*
X60609523Y-56504761D01*
X60514285Y-56409523D01*
X60466666Y-56219047D01*
X60466666Y-55885714D01*
X60514285Y-55695238D01*
X60609523Y-55600000D01*
X60704761Y-55552380D01*
X62085714Y-55600000D02*
X61990476Y-55552380D01*
X61847619Y-55552380D01*
X61704761Y-55600000D01*
X61609523Y-55695238D01*
X61561904Y-55790476D01*
X61514285Y-55980952D01*
X61514285Y-56123809D01*
X61561904Y-56314285D01*
X61609523Y-56409523D01*
X61704761Y-56504761D01*
X61847619Y-56552380D01*
X61942857Y-56552380D01*
X62085714Y-56504761D01*
X62133333Y-56457142D01*
X62133333Y-56123809D01*
X61942857Y-56123809D01*
X45209523Y-65652380D02*
X45828571Y-65652380D01*
X45495238Y-66033333D01*
X45638095Y-66033333D01*
X45733333Y-66080952D01*
X45780952Y-66128571D01*
X45828571Y-66223809D01*
X45828571Y-66461904D01*
X45780952Y-66557142D01*
X45733333Y-66604761D01*
X45638095Y-66652380D01*
X45352380Y-66652380D01*
X45257142Y-66604761D01*
X45209523Y-66557142D01*
X46161904Y-65985714D02*
X46400000Y-66652380D01*
X46638095Y-65985714D01*
X46923809Y-65652380D02*
X47542857Y-65652380D01*
X47209523Y-66033333D01*
X47352380Y-66033333D01*
X47447619Y-66080952D01*
X47495238Y-66128571D01*
X47542857Y-66223809D01*
X47542857Y-66461904D01*
X47495238Y-66557142D01*
X47447619Y-66604761D01*
X47352380Y-66652380D01*
X47066666Y-66652380D01*
X46971428Y-66604761D01*
X46923809Y-66557142D01*
X45209523Y-63904761D02*
X45352380Y-63952380D01*
X45590476Y-63952380D01*
X45685714Y-63904761D01*
X45733333Y-63857142D01*
X45780952Y-63761904D01*
X45780952Y-63666666D01*
X45733333Y-63571428D01*
X45685714Y-63523809D01*
X45590476Y-63476190D01*
X45400000Y-63428571D01*
X45304761Y-63380952D01*
X45257142Y-63333333D01*
X45209523Y-63238095D01*
X45209523Y-63142857D01*
X45257142Y-63047619D01*
X45304761Y-63000000D01*
X45400000Y-62952380D01*
X45638095Y-62952380D01*
X45780952Y-63000000D01*
X46780952Y-63857142D02*
X46733333Y-63904761D01*
X46590476Y-63952380D01*
X46495238Y-63952380D01*
X46352380Y-63904761D01*
X46257142Y-63809523D01*
X46209523Y-63714285D01*
X46161904Y-63523809D01*
X46161904Y-63380952D01*
X46209523Y-63190476D01*
X46257142Y-63095238D01*
X46352380Y-63000000D01*
X46495238Y-62952380D01*
X46590476Y-62952380D01*
X46733333Y-63000000D01*
X46780952Y-63047619D01*
X47685714Y-63952380D02*
X47209523Y-63952380D01*
X47209523Y-62952380D01*
X45185714Y-61304761D02*
X45328571Y-61352380D01*
X45566666Y-61352380D01*
X45661904Y-61304761D01*
X45709523Y-61257142D01*
X45757142Y-61161904D01*
X45757142Y-61066666D01*
X45709523Y-60971428D01*
X45661904Y-60923809D01*
X45566666Y-60876190D01*
X45376190Y-60828571D01*
X45280952Y-60780952D01*
X45233333Y-60733333D01*
X45185714Y-60638095D01*
X45185714Y-60542857D01*
X45233333Y-60447619D01*
X45280952Y-60400000D01*
X45376190Y-60352380D01*
X45614285Y-60352380D01*
X45757142Y-60400000D01*
X46185714Y-61352380D02*
X46185714Y-60352380D01*
X46423809Y-60352380D01*
X46566666Y-60400000D01*
X46661904Y-60495238D01*
X46709523Y-60590476D01*
X46757142Y-60780952D01*
X46757142Y-60923809D01*
X46709523Y-61114285D01*
X46661904Y-61209523D01*
X46566666Y-61304761D01*
X46423809Y-61352380D01*
X46185714Y-61352380D01*
X47138095Y-61066666D02*
X47614285Y-61066666D01*
X47042857Y-61352380D02*
X47376190Y-60352380D01*
X47709523Y-61352380D01*
X45538095Y-58000000D02*
X45442857Y-57952380D01*
X45300000Y-57952380D01*
X45157142Y-58000000D01*
X45061904Y-58095238D01*
X45014285Y-58190476D01*
X44966666Y-58380952D01*
X44966666Y-58523809D01*
X45014285Y-58714285D01*
X45061904Y-58809523D01*
X45157142Y-58904761D01*
X45300000Y-58952380D01*
X45395238Y-58952380D01*
X45538095Y-58904761D01*
X45585714Y-58857142D01*
X45585714Y-58523809D01*
X45395238Y-58523809D01*
X46014285Y-58952380D02*
X46014285Y-57952380D01*
X46585714Y-58952380D01*
X46585714Y-57952380D01*
X47061904Y-58952380D02*
X47061904Y-57952380D01*
X47300000Y-57952380D01*
X47442857Y-58000000D01*
X47538095Y-58095238D01*
X47585714Y-58190476D01*
X47633333Y-58380952D01*
X47633333Y-58523809D01*
X47585714Y-58714285D01*
X47538095Y-58809523D01*
X47442857Y-58904761D01*
X47300000Y-58952380D01*
X47061904Y-58952380D01*
X52452380Y-64566666D02*
X51452380Y-64566666D01*
X51547619Y-64138095D02*
X51500000Y-64090476D01*
X51452380Y-63995238D01*
X51452380Y-63757142D01*
X51500000Y-63661904D01*
X51547619Y-63614285D01*
X51642857Y-63566666D01*
X51738095Y-63566666D01*
X51880952Y-63614285D01*
X52452380Y-64185714D01*
X52452380Y-63566666D01*
X52357142Y-62566666D02*
X52404761Y-62614285D01*
X52452380Y-62757142D01*
X52452380Y-62852380D01*
X52404761Y-62995238D01*
X52309523Y-63090476D01*
X52214285Y-63138095D01*
X52023809Y-63185714D01*
X51880952Y-63185714D01*
X51690476Y-63138095D01*
X51595238Y-63090476D01*
X51500000Y-62995238D01*
X51452380Y-62852380D01*
X51452380Y-62757142D01*
X51500000Y-62614285D01*
X51547619Y-62566666D01*
X52452380Y-61376190D02*
X51452380Y-61376190D01*
X51833333Y-61376190D02*
X51785714Y-61280952D01*
X51785714Y-61090476D01*
X51833333Y-60995238D01*
X51880952Y-60947619D01*
X51976190Y-60900000D01*
X52261904Y-60900000D01*
X52357142Y-60947619D01*
X52404761Y-60995238D01*
X52452380Y-61090476D01*
X52452380Y-61280952D01*
X52404761Y-61376190D01*
X51785714Y-60042857D02*
X52452380Y-60042857D01*
X51785714Y-60471428D02*
X52309523Y-60471428D01*
X52404761Y-60423809D01*
X52452380Y-60328571D01*
X52452380Y-60185714D01*
X52404761Y-60090476D01*
X52357142Y-60042857D01*
X52404761Y-59614285D02*
X52452380Y-59519047D01*
X52452380Y-59328571D01*
X52404761Y-59233333D01*
X52309523Y-59185714D01*
X52261904Y-59185714D01*
X52166666Y-59233333D01*
X52119047Y-59328571D01*
X52119047Y-59471428D01*
X52071428Y-59566666D01*
X51976190Y-59614285D01*
X51928571Y-59614285D01*
X51833333Y-59566666D01*
X51785714Y-59471428D01*
X51785714Y-59328571D01*
X51833333Y-59233333D01*
X28973809Y-61602380D02*
X28973809Y-60602380D01*
X29354761Y-60602380D01*
X29450000Y-60650000D01*
X29497619Y-60697619D01*
X29545238Y-60792857D01*
X29545238Y-60935714D01*
X29497619Y-61030952D01*
X29450000Y-61078571D01*
X29354761Y-61126190D01*
X28973809Y-61126190D01*
X29878571Y-60602380D02*
X30116666Y-61602380D01*
X30307142Y-60888095D01*
X30497619Y-61602380D01*
X30735714Y-60602380D01*
X31688095Y-61602380D02*
X31354761Y-61126190D01*
X31116666Y-61602380D02*
X31116666Y-60602380D01*
X31497619Y-60602380D01*
X31592857Y-60650000D01*
X31640476Y-60697619D01*
X31688095Y-60792857D01*
X31688095Y-60935714D01*
X31640476Y-61030952D01*
X31592857Y-61078571D01*
X31497619Y-61126190D01*
X31116666Y-61126190D01*
X31878571Y-61697619D02*
X32640476Y-61697619D01*
X32878571Y-61602380D02*
X32878571Y-60602380D01*
X33354761Y-61602380D02*
X33354761Y-60602380D01*
X33926190Y-61602380D01*
X33926190Y-60602380D01*
X29559523Y-57952380D02*
X30178571Y-57952380D01*
X29845238Y-58333333D01*
X29988095Y-58333333D01*
X30083333Y-58380952D01*
X30130952Y-58428571D01*
X30178571Y-58523809D01*
X30178571Y-58761904D01*
X30130952Y-58857142D01*
X30083333Y-58904761D01*
X29988095Y-58952380D01*
X29702380Y-58952380D01*
X29607142Y-58904761D01*
X29559523Y-58857142D01*
X30511904Y-58285714D02*
X30750000Y-58952380D01*
X30988095Y-58285714D01*
X31273809Y-57952380D02*
X31892857Y-57952380D01*
X31559523Y-58333333D01*
X31702380Y-58333333D01*
X31797619Y-58380952D01*
X31845238Y-58428571D01*
X31892857Y-58523809D01*
X31892857Y-58761904D01*
X31845238Y-58857142D01*
X31797619Y-58904761D01*
X31702380Y-58952380D01*
X31416666Y-58952380D01*
X31321428Y-58904761D01*
X31273809Y-58857142D01*
X29938095Y-55450000D02*
X29842857Y-55402380D01*
X29700000Y-55402380D01*
X29557142Y-55450000D01*
X29461904Y-55545238D01*
X29414285Y-55640476D01*
X29366666Y-55830952D01*
X29366666Y-55973809D01*
X29414285Y-56164285D01*
X29461904Y-56259523D01*
X29557142Y-56354761D01*
X29700000Y-56402380D01*
X29795238Y-56402380D01*
X29938095Y-56354761D01*
X29985714Y-56307142D01*
X29985714Y-55973809D01*
X29795238Y-55973809D01*
X30414285Y-56402380D02*
X30414285Y-55402380D01*
X30985714Y-56402380D01*
X30985714Y-55402380D01*
X31461904Y-56402380D02*
X31461904Y-55402380D01*
X31700000Y-55402380D01*
X31842857Y-55450000D01*
X31938095Y-55545238D01*
X31985714Y-55640476D01*
X32033333Y-55830952D01*
X32033333Y-55973809D01*
X31985714Y-56164285D01*
X31938095Y-56259523D01*
X31842857Y-56354761D01*
X31700000Y-56402380D01*
X31461904Y-56402380D01*
X24309523Y-52652380D02*
X24928571Y-52652380D01*
X24595238Y-53033333D01*
X24738095Y-53033333D01*
X24833333Y-53080952D01*
X24880952Y-53128571D01*
X24928571Y-53223809D01*
X24928571Y-53461904D01*
X24880952Y-53557142D01*
X24833333Y-53604761D01*
X24738095Y-53652380D01*
X24452380Y-53652380D01*
X24357142Y-53604761D01*
X24309523Y-53557142D01*
X25261904Y-52985714D02*
X25500000Y-53652380D01*
X25738095Y-52985714D01*
X26023809Y-52652380D02*
X26642857Y-52652380D01*
X26309523Y-53033333D01*
X26452380Y-53033333D01*
X26547619Y-53080952D01*
X26595238Y-53128571D01*
X26642857Y-53223809D01*
X26642857Y-53461904D01*
X26595238Y-53557142D01*
X26547619Y-53604761D01*
X26452380Y-53652380D01*
X26166666Y-53652380D01*
X26071428Y-53604761D01*
X26023809Y-53557142D01*
X28404761Y-53652380D02*
X28071428Y-53176190D01*
X27833333Y-53652380D02*
X27833333Y-52652380D01*
X28214285Y-52652380D01*
X28309523Y-52700000D01*
X28357142Y-52747619D01*
X28404761Y-52842857D01*
X28404761Y-52985714D01*
X28357142Y-53080952D01*
X28309523Y-53128571D01*
X28214285Y-53176190D01*
X27833333Y-53176190D01*
X29214285Y-53604761D02*
X29119047Y-53652380D01*
X28928571Y-53652380D01*
X28833333Y-53604761D01*
X28785714Y-53509523D01*
X28785714Y-53128571D01*
X28833333Y-53033333D01*
X28928571Y-52985714D01*
X29119047Y-52985714D01*
X29214285Y-53033333D01*
X29261904Y-53128571D01*
X29261904Y-53223809D01*
X28785714Y-53319047D01*
X30119047Y-52985714D02*
X30119047Y-53795238D01*
X30071428Y-53890476D01*
X30023809Y-53938095D01*
X29928571Y-53985714D01*
X29785714Y-53985714D01*
X29690476Y-53938095D01*
X30119047Y-53604761D02*
X30023809Y-53652380D01*
X29833333Y-53652380D01*
X29738095Y-53604761D01*
X29690476Y-53557142D01*
X29642857Y-53461904D01*
X29642857Y-53176190D01*
X29690476Y-53080952D01*
X29738095Y-53033333D01*
X29833333Y-52985714D01*
X30023809Y-52985714D01*
X30119047Y-53033333D01*
X30595238Y-53557142D02*
X30642857Y-53604761D01*
X30595238Y-53652380D01*
X30547619Y-53604761D01*
X30595238Y-53557142D01*
X30595238Y-53652380D01*
X65833333Y-54252380D02*
X65500000Y-53776190D01*
X65261904Y-54252380D02*
X65261904Y-53252380D01*
X65642857Y-53252380D01*
X65738095Y-53300000D01*
X65785714Y-53347619D01*
X65833333Y-53442857D01*
X65833333Y-53585714D01*
X65785714Y-53680952D01*
X65738095Y-53728571D01*
X65642857Y-53776190D01*
X65261904Y-53776190D01*
X66166666Y-53252380D02*
X66833333Y-54252380D01*
X66833333Y-53252380D02*
X66166666Y-54252380D01*
X65138095Y-50652380D02*
X65709523Y-50652380D01*
X65423809Y-51652380D02*
X65423809Y-50652380D01*
X65947619Y-50652380D02*
X66614285Y-51652380D01*
X66614285Y-50652380D02*
X65947619Y-51652380D01*
X63152380Y-44252380D02*
X63152380Y-43252380D01*
X64342857Y-43204761D02*
X63485714Y-44490476D01*
X64866666Y-43252380D02*
X65057142Y-43252380D01*
X65152380Y-43300000D01*
X65247619Y-43395238D01*
X65295238Y-43585714D01*
X65295238Y-43919047D01*
X65247619Y-44109523D01*
X65152380Y-44204761D01*
X65057142Y-44252380D01*
X64866666Y-44252380D01*
X64771428Y-44204761D01*
X64676190Y-44109523D01*
X64628571Y-43919047D01*
X64628571Y-43585714D01*
X64676190Y-43395238D01*
X64771428Y-43300000D01*
X64866666Y-43252380D01*
D11*
X29838095Y-83266666D02*
X29800000Y-83228571D01*
X29723809Y-83114285D01*
X29685714Y-83038095D01*
X29647619Y-82923809D01*
X29609523Y-82733333D01*
X29609523Y-82580952D01*
X29647619Y-82390476D01*
X29685714Y-82276190D01*
X29723809Y-82200000D01*
X29800000Y-82085714D01*
X29838095Y-82047619D01*
X30485714Y-82923809D02*
X30409523Y-82961904D01*
X30257142Y-82961904D01*
X30180952Y-82923809D01*
X30142857Y-82885714D01*
X30104761Y-82809523D01*
X30104761Y-82580952D01*
X30142857Y-82504761D01*
X30180952Y-82466666D01*
X30257142Y-82428571D01*
X30409523Y-82428571D01*
X30485714Y-82466666D01*
X30752380Y-83266666D02*
X30790476Y-83228571D01*
X30866666Y-83114285D01*
X30904761Y-83038095D01*
X30942857Y-82923809D01*
X30980952Y-82733333D01*
X30980952Y-82580952D01*
X30942857Y-82390476D01*
X30904761Y-82276190D01*
X30866666Y-82200000D01*
X30790476Y-82085714D01*
X30752380Y-82047619D01*
X31971428Y-82961904D02*
X31971428Y-82428571D01*
X31971428Y-82580952D02*
X32009523Y-82504761D01*
X32047619Y-82466666D01*
X32123809Y-82428571D01*
X32200000Y-82428571D01*
X32580952Y-82961904D02*
X32504761Y-82923809D01*
X32466666Y-82885714D01*
X32428571Y-82809523D01*
X32428571Y-82580952D01*
X32466666Y-82504761D01*
X32504761Y-82466666D01*
X32580952Y-82428571D01*
X32695238Y-82428571D01*
X32771428Y-82466666D01*
X32809523Y-82504761D01*
X32847619Y-82580952D01*
X32847619Y-82809523D01*
X32809523Y-82885714D01*
X32771428Y-82923809D01*
X32695238Y-82961904D01*
X32580952Y-82961904D01*
X33190476Y-82961904D02*
X33190476Y-82161904D01*
X33190476Y-82466666D02*
X33266666Y-82428571D01*
X33419047Y-82428571D01*
X33495238Y-82466666D01*
X33533333Y-82504761D01*
X33571428Y-82580952D01*
X33571428Y-82809523D01*
X33533333Y-82885714D01*
X33495238Y-82923809D01*
X33419047Y-82961904D01*
X33266666Y-82961904D01*
X33190476Y-82923809D01*
X34219047Y-82923809D02*
X34142857Y-82961904D01*
X33990476Y-82961904D01*
X33914285Y-82923809D01*
X33876190Y-82847619D01*
X33876190Y-82542857D01*
X33914285Y-82466666D01*
X33990476Y-82428571D01*
X34142857Y-82428571D01*
X34219047Y-82466666D01*
X34257142Y-82542857D01*
X34257142Y-82619047D01*
X33876190Y-82695238D01*
X34600000Y-82961904D02*
X34600000Y-82428571D01*
X34600000Y-82580952D02*
X34638095Y-82504761D01*
X34676190Y-82466666D01*
X34752380Y-82428571D01*
X34828571Y-82428571D01*
X34980952Y-82428571D02*
X35285714Y-82428571D01*
X35095238Y-82161904D02*
X35095238Y-82847619D01*
X35133333Y-82923809D01*
X35209523Y-82961904D01*
X35285714Y-82961904D01*
X35895238Y-82961904D02*
X35895238Y-82542857D01*
X35857142Y-82466666D01*
X35780952Y-82428571D01*
X35628571Y-82428571D01*
X35552380Y-82466666D01*
X35895238Y-82923809D02*
X35819047Y-82961904D01*
X35628571Y-82961904D01*
X35552380Y-82923809D01*
X35514285Y-82847619D01*
X35514285Y-82771428D01*
X35552380Y-82695238D01*
X35628571Y-82657142D01*
X35819047Y-82657142D01*
X35895238Y-82619047D01*
X36238095Y-82923809D02*
X36314285Y-82961904D01*
X36466666Y-82961904D01*
X36542857Y-82923809D01*
X36580952Y-82847619D01*
X36580952Y-82809523D01*
X36542857Y-82733333D01*
X36466666Y-82695238D01*
X36352380Y-82695238D01*
X36276190Y-82657142D01*
X36238095Y-82580952D01*
X36238095Y-82542857D01*
X36276190Y-82466666D01*
X36352380Y-82428571D01*
X36466666Y-82428571D01*
X36542857Y-82466666D01*
X36923809Y-82885714D02*
X36961904Y-82923809D01*
X36923809Y-82961904D01*
X36885714Y-82923809D01*
X36923809Y-82885714D01*
X36923809Y-82961904D01*
X37647619Y-82961904D02*
X37647619Y-82161904D01*
X37647619Y-82923809D02*
X37571428Y-82961904D01*
X37419047Y-82961904D01*
X37342857Y-82923809D01*
X37304761Y-82885714D01*
X37266666Y-82809523D01*
X37266666Y-82580952D01*
X37304761Y-82504761D01*
X37342857Y-82466666D01*
X37419047Y-82428571D01*
X37571428Y-82428571D01*
X37647619Y-82466666D01*
X38371428Y-82428571D02*
X38371428Y-82961904D01*
X38028571Y-82428571D02*
X38028571Y-82847619D01*
X38066666Y-82923809D01*
X38142857Y-82961904D01*
X38257142Y-82961904D01*
X38333333Y-82923809D01*
X38371428Y-82885714D01*
X38752380Y-82961904D02*
X38752380Y-82428571D01*
X38752380Y-82504761D02*
X38790476Y-82466666D01*
X38866666Y-82428571D01*
X38980952Y-82428571D01*
X39057142Y-82466666D01*
X39095238Y-82542857D01*
X39095238Y-82961904D01*
X39095238Y-82542857D02*
X39133333Y-82466666D01*
X39209523Y-82428571D01*
X39323809Y-82428571D01*
X39400000Y-82466666D01*
X39438095Y-82542857D01*
X39438095Y-82961904D01*
X39819047Y-82428571D02*
X39819047Y-83228571D01*
X39819047Y-82466666D02*
X39895238Y-82428571D01*
X40047619Y-82428571D01*
X40123809Y-82466666D01*
X40161904Y-82504761D01*
X40200000Y-82580952D01*
X40200000Y-82809523D01*
X40161904Y-82885714D01*
X40123809Y-82923809D01*
X40047619Y-82961904D01*
X39895238Y-82961904D01*
X39819047Y-82923809D01*
X40542857Y-82961904D02*
X40542857Y-82428571D01*
X40542857Y-82161904D02*
X40504761Y-82200000D01*
X40542857Y-82238095D01*
X40580952Y-82200000D01*
X40542857Y-82161904D01*
X40542857Y-82238095D01*
X40885714Y-82923809D02*
X40961904Y-82961904D01*
X41114285Y-82961904D01*
X41190476Y-82923809D01*
X41228571Y-82847619D01*
X41228571Y-82809523D01*
X41190476Y-82733333D01*
X41114285Y-82695238D01*
X41000000Y-82695238D01*
X40923809Y-82657142D01*
X40885714Y-82580952D01*
X40885714Y-82542857D01*
X40923809Y-82466666D01*
X41000000Y-82428571D01*
X41114285Y-82428571D01*
X41190476Y-82466666D01*
X42066666Y-82580952D02*
X42028571Y-82542857D01*
X41952380Y-82504761D01*
X41876190Y-82504761D01*
X41800000Y-82542857D01*
X41761904Y-82580952D01*
X41723809Y-82657142D01*
X41723809Y-82733333D01*
X41761904Y-82809523D01*
X41800000Y-82847619D01*
X41876190Y-82885714D01*
X41952380Y-82885714D01*
X42028571Y-82847619D01*
X42066666Y-82809523D01*
X42066666Y-82504761D02*
X42066666Y-82809523D01*
X42104761Y-82847619D01*
X42142857Y-82847619D01*
X42219047Y-82809523D01*
X42257142Y-82733333D01*
X42257142Y-82542857D01*
X42180952Y-82428571D01*
X42066666Y-82352380D01*
X41914285Y-82314285D01*
X41761904Y-82352380D01*
X41647619Y-82428571D01*
X41571428Y-82542857D01*
X41533333Y-82695238D01*
X41571428Y-82847619D01*
X41647619Y-82961904D01*
X41761904Y-83038095D01*
X41914285Y-83076190D01*
X42066666Y-83038095D01*
X42180952Y-82961904D01*
X42942857Y-82428571D02*
X42942857Y-83076190D01*
X42904761Y-83152380D01*
X42866666Y-83190476D01*
X42790476Y-83228571D01*
X42676190Y-83228571D01*
X42600000Y-83190476D01*
X42942857Y-82923809D02*
X42866666Y-82961904D01*
X42714285Y-82961904D01*
X42638095Y-82923809D01*
X42600000Y-82885714D01*
X42561904Y-82809523D01*
X42561904Y-82580952D01*
X42600000Y-82504761D01*
X42638095Y-82466666D01*
X42714285Y-82428571D01*
X42866666Y-82428571D01*
X42942857Y-82466666D01*
X43323809Y-82961904D02*
X43323809Y-82428571D01*
X43323809Y-82504761D02*
X43361904Y-82466666D01*
X43438095Y-82428571D01*
X43552380Y-82428571D01*
X43628571Y-82466666D01*
X43666666Y-82542857D01*
X43666666Y-82961904D01*
X43666666Y-82542857D02*
X43704761Y-82466666D01*
X43780952Y-82428571D01*
X43895238Y-82428571D01*
X43971428Y-82466666D01*
X44009523Y-82542857D01*
X44009523Y-82961904D01*
X44733333Y-82961904D02*
X44733333Y-82542857D01*
X44695238Y-82466666D01*
X44619047Y-82428571D01*
X44466666Y-82428571D01*
X44390476Y-82466666D01*
X44733333Y-82923809D02*
X44657142Y-82961904D01*
X44466666Y-82961904D01*
X44390476Y-82923809D01*
X44352380Y-82847619D01*
X44352380Y-82771428D01*
X44390476Y-82695238D01*
X44466666Y-82657142D01*
X44657142Y-82657142D01*
X44733333Y-82619047D01*
X45114285Y-82961904D02*
X45114285Y-82428571D01*
X45114285Y-82161904D02*
X45076190Y-82200000D01*
X45114285Y-82238095D01*
X45152380Y-82200000D01*
X45114285Y-82161904D01*
X45114285Y-82238095D01*
X45609523Y-82961904D02*
X45533333Y-82923809D01*
X45495238Y-82847619D01*
X45495238Y-82161904D01*
X45914285Y-82885714D02*
X45952380Y-82923809D01*
X45914285Y-82961904D01*
X45876190Y-82923809D01*
X45914285Y-82885714D01*
X45914285Y-82961904D01*
X46638095Y-82923809D02*
X46561904Y-82961904D01*
X46409523Y-82961904D01*
X46333333Y-82923809D01*
X46295238Y-82885714D01*
X46257142Y-82809523D01*
X46257142Y-82580952D01*
X46295238Y-82504761D01*
X46333333Y-82466666D01*
X46409523Y-82428571D01*
X46561904Y-82428571D01*
X46638095Y-82466666D01*
X47095238Y-82961904D02*
X47019047Y-82923809D01*
X46980952Y-82885714D01*
X46942857Y-82809523D01*
X46942857Y-82580952D01*
X46980952Y-82504761D01*
X47019047Y-82466666D01*
X47095238Y-82428571D01*
X47209523Y-82428571D01*
X47285714Y-82466666D01*
X47323809Y-82504761D01*
X47361904Y-82580952D01*
X47361904Y-82809523D01*
X47323809Y-82885714D01*
X47285714Y-82923809D01*
X47209523Y-82961904D01*
X47095238Y-82961904D01*
X47704761Y-82961904D02*
X47704761Y-82428571D01*
X47704761Y-82504761D02*
X47742857Y-82466666D01*
X47819047Y-82428571D01*
X47933333Y-82428571D01*
X48009523Y-82466666D01*
X48047619Y-82542857D01*
X48047619Y-82961904D01*
X48047619Y-82542857D02*
X48085714Y-82466666D01*
X48161904Y-82428571D01*
X48276190Y-82428571D01*
X48352380Y-82466666D01*
X48390476Y-82542857D01*
X48390476Y-82961904D01*
D12*
X25766666Y-35752380D02*
X25766666Y-34752380D01*
X26004761Y-34752380D01*
X26147619Y-34800000D01*
X26242857Y-34895238D01*
X26290476Y-34990476D01*
X26338095Y-35180952D01*
X26338095Y-35323809D01*
X26290476Y-35514285D01*
X26242857Y-35609523D01*
X26147619Y-35704761D01*
X26004761Y-35752380D01*
X25766666Y-35752380D01*
X26766666Y-34752380D02*
X26766666Y-35561904D01*
X26814285Y-35657142D01*
X26861904Y-35704761D01*
X26957142Y-35752380D01*
X27147619Y-35752380D01*
X27242857Y-35704761D01*
X27290476Y-35657142D01*
X27338095Y-35561904D01*
X27338095Y-34752380D01*
X27766666Y-35466666D02*
X28242857Y-35466666D01*
X27671428Y-35752380D02*
X28004761Y-34752380D01*
X28338095Y-35752380D01*
X29147619Y-35752380D02*
X28671428Y-35752380D01*
X28671428Y-34752380D01*
X30242857Y-35752380D02*
X30242857Y-34752380D01*
X30242857Y-35228571D02*
X30814285Y-35228571D01*
X30814285Y-35752380D02*
X30814285Y-34752380D01*
X31290476Y-35371428D02*
X32052380Y-35371428D01*
X32861904Y-35228571D02*
X33004761Y-35276190D01*
X33052380Y-35323809D01*
X33100000Y-35419047D01*
X33100000Y-35561904D01*
X33052380Y-35657142D01*
X33004761Y-35704761D01*
X32909523Y-35752380D01*
X32528571Y-35752380D01*
X32528571Y-34752380D01*
X32861904Y-34752380D01*
X32957142Y-34800000D01*
X33004761Y-34847619D01*
X33052380Y-34942857D01*
X33052380Y-35038095D01*
X33004761Y-35133333D01*
X32957142Y-35180952D01*
X32861904Y-35228571D01*
X32528571Y-35228571D01*
X34100000Y-35752380D02*
X33766666Y-35276190D01*
X33528571Y-35752380D02*
X33528571Y-34752380D01*
X33909523Y-34752380D01*
X34004761Y-34800000D01*
X34052380Y-34847619D01*
X34100000Y-34942857D01*
X34100000Y-35085714D01*
X34052380Y-35180952D01*
X34004761Y-35228571D01*
X33909523Y-35276190D01*
X33528571Y-35276190D01*
X34528571Y-35752380D02*
X34528571Y-34752380D01*
X35004761Y-35752380D02*
X35004761Y-34752380D01*
X35242857Y-34752380D01*
X35385714Y-34800000D01*
X35480952Y-34895238D01*
X35528571Y-34990476D01*
X35576190Y-35180952D01*
X35576190Y-35323809D01*
X35528571Y-35514285D01*
X35480952Y-35609523D01*
X35385714Y-35704761D01*
X35242857Y-35752380D01*
X35004761Y-35752380D01*
X36528571Y-34800000D02*
X36433333Y-34752380D01*
X36290476Y-34752380D01*
X36147619Y-34800000D01*
X36052380Y-34895238D01*
X36004761Y-34990476D01*
X35957142Y-35180952D01*
X35957142Y-35323809D01*
X36004761Y-35514285D01*
X36052380Y-35609523D01*
X36147619Y-35704761D01*
X36290476Y-35752380D01*
X36385714Y-35752380D01*
X36528571Y-35704761D01*
X36576190Y-35657142D01*
X36576190Y-35323809D01*
X36385714Y-35323809D01*
X37004761Y-35228571D02*
X37338095Y-35228571D01*
X37480952Y-35752380D02*
X37004761Y-35752380D01*
X37004761Y-34752380D01*
X37480952Y-34752380D01*
X26385714Y-37452380D02*
X26385714Y-36452380D01*
X26623809Y-36452380D01*
X26766666Y-36500000D01*
X26861904Y-36595238D01*
X26909523Y-36690476D01*
X26957142Y-36880952D01*
X26957142Y-37023809D01*
X26909523Y-37214285D01*
X26861904Y-37309523D01*
X26766666Y-37404761D01*
X26623809Y-37452380D01*
X26385714Y-37452380D01*
X27957142Y-37452380D02*
X27623809Y-36976190D01*
X27385714Y-37452380D02*
X27385714Y-36452380D01*
X27766666Y-36452380D01*
X27861904Y-36500000D01*
X27909523Y-36547619D01*
X27957142Y-36642857D01*
X27957142Y-36785714D01*
X27909523Y-36880952D01*
X27861904Y-36928571D01*
X27766666Y-36976190D01*
X27385714Y-36976190D01*
X28385714Y-37452380D02*
X28385714Y-36452380D01*
X28719047Y-36452380D02*
X29052380Y-37452380D01*
X29385714Y-36452380D01*
X29719047Y-36928571D02*
X30052380Y-36928571D01*
X30195238Y-37452380D02*
X29719047Y-37452380D01*
X29719047Y-36452380D01*
X30195238Y-36452380D01*
X31195238Y-37452380D02*
X30861904Y-36976190D01*
X30623809Y-37452380D02*
X30623809Y-36452380D01*
X31004761Y-36452380D01*
X31100000Y-36500000D01*
X31147619Y-36547619D01*
X31195238Y-36642857D01*
X31195238Y-36785714D01*
X31147619Y-36880952D01*
X31100000Y-36928571D01*
X31004761Y-36976190D01*
X30623809Y-36976190D01*
X32719047Y-36928571D02*
X32861904Y-36976190D01*
X32909523Y-37023809D01*
X32957142Y-37119047D01*
X32957142Y-37261904D01*
X32909523Y-37357142D01*
X32861904Y-37404761D01*
X32766666Y-37452380D01*
X32385714Y-37452380D01*
X32385714Y-36452380D01*
X32719047Y-36452380D01*
X32814285Y-36500000D01*
X32861904Y-36547619D01*
X32909523Y-36642857D01*
X32909523Y-36738095D01*
X32861904Y-36833333D01*
X32814285Y-36880952D01*
X32719047Y-36928571D01*
X32385714Y-36928571D01*
X33576190Y-36452380D02*
X33766666Y-36452380D01*
X33861904Y-36500000D01*
X33957142Y-36595238D01*
X34004761Y-36785714D01*
X34004761Y-37119047D01*
X33957142Y-37309523D01*
X33861904Y-37404761D01*
X33766666Y-37452380D01*
X33576190Y-37452380D01*
X33480952Y-37404761D01*
X33385714Y-37309523D01*
X33338095Y-37119047D01*
X33338095Y-36785714D01*
X33385714Y-36595238D01*
X33480952Y-36500000D01*
X33576190Y-36452380D01*
X34385714Y-37166666D02*
X34861904Y-37166666D01*
X34290476Y-37452380D02*
X34623809Y-36452380D01*
X34957142Y-37452380D01*
X35861904Y-37452380D02*
X35528571Y-36976190D01*
X35290476Y-37452380D02*
X35290476Y-36452380D01*
X35671428Y-36452380D01*
X35766666Y-36500000D01*
X35814285Y-36547619D01*
X35861904Y-36642857D01*
X35861904Y-36785714D01*
X35814285Y-36880952D01*
X35766666Y-36928571D01*
X35671428Y-36976190D01*
X35290476Y-36976190D01*
X36290476Y-37452380D02*
X36290476Y-36452380D01*
X36528571Y-36452380D01*
X36671428Y-36500000D01*
X36766666Y-36595238D01*
X36814285Y-36690476D01*
X36861904Y-36880952D01*
X36861904Y-37023809D01*
X36814285Y-37214285D01*
X36766666Y-37309523D01*
X36671428Y-37404761D01*
X36528571Y-37452380D01*
X36290476Y-37452380D01*
X27147619Y-38152380D02*
X27480952Y-39152380D01*
X27814285Y-38152380D01*
X29433333Y-39152380D02*
X28861904Y-39152380D01*
X29147619Y-39152380D02*
X29147619Y-38152380D01*
X29052380Y-38295238D01*
X28957142Y-38390476D01*
X28861904Y-38438095D01*
X29861904Y-39057142D02*
X29909523Y-39104761D01*
X29861904Y-39152380D01*
X29814285Y-39104761D01*
X29861904Y-39057142D01*
X29861904Y-39152380D01*
X30528571Y-38152380D02*
X30623809Y-38152380D01*
X30719047Y-38200000D01*
X30766666Y-38247619D01*
X30814285Y-38342857D01*
X30861904Y-38533333D01*
X30861904Y-38771428D01*
X30814285Y-38961904D01*
X30766666Y-39057142D01*
X30719047Y-39104761D01*
X30623809Y-39152380D01*
X30528571Y-39152380D01*
X30433333Y-39104761D01*
X30385714Y-39057142D01*
X30338095Y-38961904D01*
X30290476Y-38771428D01*
X30290476Y-38533333D01*
X30338095Y-38342857D01*
X30385714Y-38247619D01*
X30433333Y-38200000D01*
X30528571Y-38152380D01*
X32052380Y-39152380D02*
X32052380Y-38485714D01*
X32052380Y-38676190D02*
X32100000Y-38580952D01*
X32147619Y-38533333D01*
X32242857Y-38485714D01*
X32338095Y-38485714D01*
X33052380Y-39104761D02*
X32957142Y-39152380D01*
X32766666Y-39152380D01*
X32671428Y-39104761D01*
X32623809Y-39009523D01*
X32623809Y-38628571D01*
X32671428Y-38533333D01*
X32766666Y-38485714D01*
X32957142Y-38485714D01*
X33052380Y-38533333D01*
X33100000Y-38628571D01*
X33100000Y-38723809D01*
X32623809Y-38819047D01*
X33433333Y-38485714D02*
X33671428Y-39152380D01*
X33909523Y-38485714D01*
X34290476Y-39057142D02*
X34338095Y-39104761D01*
X34290476Y-39152380D01*
X34242857Y-39104761D01*
X34290476Y-39057142D01*
X34290476Y-39152380D01*
X35480952Y-38866666D02*
X35957142Y-38866666D01*
X35385714Y-39152380D02*
X35719047Y-38152380D01*
X36052380Y-39152380D01*
X29519047Y-72071428D02*
X30280952Y-72071428D01*
X29519047Y-69471428D02*
X30280952Y-69471428D01*
X29900000Y-69852380D02*
X29900000Y-69090476D01*
X25552380Y-66552380D02*
X25552380Y-65552380D01*
X26028571Y-66552380D02*
X26028571Y-65552380D01*
X26600000Y-66552380D01*
X26600000Y-65552380D01*
X28314285Y-65552380D02*
X27838095Y-65552380D01*
X27790476Y-66028571D01*
X27838095Y-65980952D01*
X27933333Y-65933333D01*
X28171428Y-65933333D01*
X28266666Y-65980952D01*
X28314285Y-66028571D01*
X28361904Y-66123809D01*
X28361904Y-66361904D01*
X28314285Y-66457142D01*
X28266666Y-66504761D01*
X28171428Y-66552380D01*
X27933333Y-66552380D01*
X27838095Y-66504761D01*
X27790476Y-66457142D01*
X28647619Y-65552380D02*
X28980952Y-66552380D01*
X29314285Y-65552380D01*
X29504761Y-66171428D02*
X29552380Y-66123809D01*
X29647619Y-66076190D01*
X29838095Y-66171428D01*
X29933333Y-66123809D01*
X29980952Y-66076190D01*
X30885714Y-66552380D02*
X30314285Y-66552380D01*
X30600000Y-66552380D02*
X30600000Y-65552380D01*
X30504761Y-65695238D01*
X30409523Y-65790476D01*
X30314285Y-65838095D01*
X31266666Y-65647619D02*
X31314285Y-65600000D01*
X31409523Y-65552380D01*
X31647619Y-65552380D01*
X31742857Y-65600000D01*
X31790476Y-65647619D01*
X31838095Y-65742857D01*
X31838095Y-65838095D01*
X31790476Y-65980952D01*
X31219047Y-66552380D01*
X31838095Y-66552380D01*
X32123809Y-65552380D02*
X32457142Y-66552380D01*
X32790476Y-65552380D01*
D13*
X43754724Y-65377500D02*
X43245276Y-65377500D01*
X43754724Y-66422500D02*
X43245276Y-66422500D01*
X38561252Y-57590000D02*
X38038748Y-57590000D01*
X38561252Y-59010000D02*
X38038748Y-59010000D01*
X34090000Y-41171267D02*
X34090000Y-40828733D01*
X35110000Y-41171267D02*
X35110000Y-40828733D01*
X47970000Y-57170000D02*
X49300000Y-57170000D01*
X47970000Y-58500000D02*
X47970000Y-57170000D01*
X47970000Y-59770000D02*
X50630000Y-59770000D01*
X50630000Y-59770000D02*
X50630000Y-67450000D01*
X47970000Y-59770000D02*
X47970000Y-67450000D01*
X47970000Y-67450000D02*
X50630000Y-67450000D01*
X61571267Y-67410000D02*
X61228733Y-67410000D01*
X61571267Y-66390000D02*
X61228733Y-66390000D01*
X33690000Y-60061252D02*
X33690000Y-59538748D01*
X35110000Y-60061252D02*
X35110000Y-59538748D01*
X67670000Y-55110000D02*
X70330000Y-55110000D01*
X67670000Y-49970000D02*
X67670000Y-55110000D01*
X70330000Y-49970000D02*
X70330000Y-55110000D01*
X67670000Y-49970000D02*
X70330000Y-49970000D01*
X67670000Y-48700000D02*
X67670000Y-47370000D01*
X67670000Y-47370000D02*
X69000000Y-47370000D01*
X54120000Y-41300000D02*
X54120000Y-40900000D01*
X37880000Y-41300000D02*
X37880000Y-40900000D01*
X54120000Y-43300000D02*
X54120000Y-42900000D01*
X37880000Y-43300000D02*
X37880000Y-42900000D01*
X54120000Y-45300000D02*
X54120000Y-44900000D01*
X37880000Y-45300000D02*
X37880000Y-44900000D01*
X54120000Y-47300000D02*
X54120000Y-46900000D01*
X37880000Y-47300000D02*
X37880000Y-46900000D01*
X54120000Y-49300000D02*
X54120000Y-48900000D01*
X37880000Y-49300000D02*
X37880000Y-48900000D01*
X54120000Y-51300000D02*
X54120000Y-50900000D01*
X37880000Y-51300000D02*
X37880000Y-50900000D01*
X54120000Y-53300000D02*
X54120000Y-52900000D01*
X37880000Y-53300000D02*
X37880000Y-52900000D01*
X36850000Y-39600000D02*
X36850000Y-40600000D01*
X37880000Y-55720000D02*
X37880000Y-54900000D01*
X54120000Y-55720000D02*
X37880000Y-55720000D01*
X54120000Y-54900000D02*
X54120000Y-55720000D01*
X37970000Y-64200000D02*
G75*
G03*
X37970000Y-64200000I-2370000J0D01*
G01*
X35600000Y-66570000D02*
X35600000Y-67780000D01*
X56528733Y-57590000D02*
X56871267Y-57590000D01*
X56528733Y-58610000D02*
X56871267Y-58610000D01*
X56528733Y-61510000D02*
X56871267Y-61510000D01*
X56528733Y-60490000D02*
X56871267Y-60490000D01*
X33970000Y-49450000D02*
G75*
G03*
X33970000Y-49450000I-3270000J0D01*
G01*
X27470000Y-49450000D02*
X33930000Y-49450000D01*
X27470000Y-49410000D02*
X33930000Y-49410000D01*
X27470000Y-49370000D02*
X33930000Y-49370000D01*
X27472000Y-49330000D02*
X33928000Y-49330000D01*
X27473000Y-49290000D02*
X33927000Y-49290000D01*
X27476000Y-49250000D02*
X33924000Y-49250000D01*
X27478000Y-49210000D02*
X29660000Y-49210000D01*
X31740000Y-49210000D02*
X33922000Y-49210000D01*
X27482000Y-49170000D02*
X29660000Y-49170000D01*
X31740000Y-49170000D02*
X33918000Y-49170000D01*
X27485000Y-49130000D02*
X29660000Y-49130000D01*
X31740000Y-49130000D02*
X33915000Y-49130000D01*
X27489000Y-49090000D02*
X29660000Y-49090000D01*
X31740000Y-49090000D02*
X33911000Y-49090000D01*
X27494000Y-49050000D02*
X29660000Y-49050000D01*
X31740000Y-49050000D02*
X33906000Y-49050000D01*
X27499000Y-49010000D02*
X29660000Y-49010000D01*
X31740000Y-49010000D02*
X33901000Y-49010000D01*
X27505000Y-48970000D02*
X29660000Y-48970000D01*
X31740000Y-48970000D02*
X33895000Y-48970000D01*
X27511000Y-48930000D02*
X29660000Y-48930000D01*
X31740000Y-48930000D02*
X33889000Y-48930000D01*
X27518000Y-48890000D02*
X29660000Y-48890000D01*
X31740000Y-48890000D02*
X33882000Y-48890000D01*
X27525000Y-48850000D02*
X29660000Y-48850000D01*
X31740000Y-48850000D02*
X33875000Y-48850000D01*
X27533000Y-48810000D02*
X29660000Y-48810000D01*
X31740000Y-48810000D02*
X33867000Y-48810000D01*
X27541000Y-48770000D02*
X29660000Y-48770000D01*
X31740000Y-48770000D02*
X33859000Y-48770000D01*
X27550000Y-48729000D02*
X29660000Y-48729000D01*
X31740000Y-48729000D02*
X33850000Y-48729000D01*
X27559000Y-48689000D02*
X29660000Y-48689000D01*
X31740000Y-48689000D02*
X33841000Y-48689000D01*
X27569000Y-48649000D02*
X29660000Y-48649000D01*
X31740000Y-48649000D02*
X33831000Y-48649000D01*
X27579000Y-48609000D02*
X29660000Y-48609000D01*
X31740000Y-48609000D02*
X33821000Y-48609000D01*
X27590000Y-48569000D02*
X29660000Y-48569000D01*
X31740000Y-48569000D02*
X33810000Y-48569000D01*
X27602000Y-48529000D02*
X29660000Y-48529000D01*
X31740000Y-48529000D02*
X33798000Y-48529000D01*
X27614000Y-48489000D02*
X29660000Y-48489000D01*
X31740000Y-48489000D02*
X33786000Y-48489000D01*
X27626000Y-48449000D02*
X29660000Y-48449000D01*
X31740000Y-48449000D02*
X33774000Y-48449000D01*
X27639000Y-48409000D02*
X29660000Y-48409000D01*
X31740000Y-48409000D02*
X33761000Y-48409000D01*
X27653000Y-48369000D02*
X29660000Y-48369000D01*
X31740000Y-48369000D02*
X33747000Y-48369000D01*
X27667000Y-48329000D02*
X29660000Y-48329000D01*
X31740000Y-48329000D02*
X33733000Y-48329000D01*
X27682000Y-48289000D02*
X29660000Y-48289000D01*
X31740000Y-48289000D02*
X33718000Y-48289000D01*
X27698000Y-48249000D02*
X29660000Y-48249000D01*
X31740000Y-48249000D02*
X33702000Y-48249000D01*
X27714000Y-48209000D02*
X29660000Y-48209000D01*
X31740000Y-48209000D02*
X33686000Y-48209000D01*
X27730000Y-48169000D02*
X29660000Y-48169000D01*
X31740000Y-48169000D02*
X33670000Y-48169000D01*
X27748000Y-48129000D02*
X29660000Y-48129000D01*
X31740000Y-48129000D02*
X33652000Y-48129000D01*
X27766000Y-48089000D02*
X29660000Y-48089000D01*
X31740000Y-48089000D02*
X33634000Y-48089000D01*
X27784000Y-48049000D02*
X29660000Y-48049000D01*
X31740000Y-48049000D02*
X33616000Y-48049000D01*
X27804000Y-48009000D02*
X29660000Y-48009000D01*
X31740000Y-48009000D02*
X33596000Y-48009000D01*
X27824000Y-47969000D02*
X29660000Y-47969000D01*
X31740000Y-47969000D02*
X33576000Y-47969000D01*
X27844000Y-47929000D02*
X29660000Y-47929000D01*
X31740000Y-47929000D02*
X33556000Y-47929000D01*
X27866000Y-47889000D02*
X29660000Y-47889000D01*
X31740000Y-47889000D02*
X33534000Y-47889000D01*
X27888000Y-47849000D02*
X29660000Y-47849000D01*
X31740000Y-47849000D02*
X33512000Y-47849000D01*
X27910000Y-47809000D02*
X29660000Y-47809000D01*
X31740000Y-47809000D02*
X33490000Y-47809000D01*
X27934000Y-47769000D02*
X29660000Y-47769000D01*
X31740000Y-47769000D02*
X33466000Y-47769000D01*
X27958000Y-47729000D02*
X29660000Y-47729000D01*
X31740000Y-47729000D02*
X33442000Y-47729000D01*
X27984000Y-47689000D02*
X29660000Y-47689000D01*
X31740000Y-47689000D02*
X33416000Y-47689000D01*
X28010000Y-47649000D02*
X29660000Y-47649000D01*
X31740000Y-47649000D02*
X33390000Y-47649000D01*
X28036000Y-47609000D02*
X29660000Y-47609000D01*
X31740000Y-47609000D02*
X33364000Y-47609000D01*
X28064000Y-47569000D02*
X29660000Y-47569000D01*
X31740000Y-47569000D02*
X33336000Y-47569000D01*
X28093000Y-47529000D02*
X29660000Y-47529000D01*
X31740000Y-47529000D02*
X33307000Y-47529000D01*
X28122000Y-47489000D02*
X29660000Y-47489000D01*
X31740000Y-47489000D02*
X33278000Y-47489000D01*
X28152000Y-47449000D02*
X29660000Y-47449000D01*
X31740000Y-47449000D02*
X33248000Y-47449000D01*
X28184000Y-47409000D02*
X29660000Y-47409000D01*
X31740000Y-47409000D02*
X33216000Y-47409000D01*
X28216000Y-47369000D02*
X29660000Y-47369000D01*
X31740000Y-47369000D02*
X33184000Y-47369000D01*
X28250000Y-47329000D02*
X29660000Y-47329000D01*
X31740000Y-47329000D02*
X33150000Y-47329000D01*
X28284000Y-47289000D02*
X29660000Y-47289000D01*
X31740000Y-47289000D02*
X33116000Y-47289000D01*
X28320000Y-47249000D02*
X29660000Y-47249000D01*
X31740000Y-47249000D02*
X33080000Y-47249000D01*
X28357000Y-47209000D02*
X29660000Y-47209000D01*
X31740000Y-47209000D02*
X33043000Y-47209000D01*
X28395000Y-47169000D02*
X29660000Y-47169000D01*
X31740000Y-47169000D02*
X33005000Y-47169000D01*
X28435000Y-47129000D02*
X32965000Y-47129000D01*
X28476000Y-47089000D02*
X32924000Y-47089000D01*
X28518000Y-47049000D02*
X32882000Y-47049000D01*
X28563000Y-47009000D02*
X32837000Y-47009000D01*
X28608000Y-46969000D02*
X32792000Y-46969000D01*
X28656000Y-46929000D02*
X32744000Y-46929000D01*
X28705000Y-46889000D02*
X32695000Y-46889000D01*
X28756000Y-46849000D02*
X32644000Y-46849000D01*
X28810000Y-46809000D02*
X32590000Y-46809000D01*
X28866000Y-46769000D02*
X32534000Y-46769000D01*
X28924000Y-46729000D02*
X32476000Y-46729000D01*
X28986000Y-46689000D02*
X32414000Y-46689000D01*
X29050000Y-46649000D02*
X32350000Y-46649000D01*
X29119000Y-46609000D02*
X32281000Y-46609000D01*
X29191000Y-46569000D02*
X32209000Y-46569000D01*
X29268000Y-46529000D02*
X32132000Y-46529000D01*
X29350000Y-46489000D02*
X32050000Y-46489000D01*
X29438000Y-46449000D02*
X31962000Y-46449000D01*
X29535000Y-46409000D02*
X31865000Y-46409000D01*
X29641000Y-46369000D02*
X31759000Y-46369000D01*
X29760000Y-46329000D02*
X31640000Y-46329000D01*
X29898000Y-46289000D02*
X31502000Y-46289000D01*
X30067000Y-46249000D02*
X31333000Y-46249000D01*
X30298000Y-46209000D02*
X31102000Y-46209000D01*
X28861000Y-52950241D02*
X28861000Y-52320241D01*
X28546000Y-52635241D02*
X29176000Y-52635241D01*
X42154000Y-71064759D02*
X41524000Y-71064759D01*
X41839000Y-70749759D02*
X41839000Y-71379759D01*
X40402000Y-77491000D02*
X39598000Y-77491000D01*
X40633000Y-77451000D02*
X39367000Y-77451000D01*
X40802000Y-77411000D02*
X39198000Y-77411000D01*
X40940000Y-77371000D02*
X39060000Y-77371000D01*
X41059000Y-77331000D02*
X38941000Y-77331000D01*
X41165000Y-77291000D02*
X38835000Y-77291000D01*
X41262000Y-77251000D02*
X38738000Y-77251000D01*
X41350000Y-77211000D02*
X38650000Y-77211000D01*
X41432000Y-77171000D02*
X38568000Y-77171000D01*
X41509000Y-77131000D02*
X38491000Y-77131000D01*
X41581000Y-77091000D02*
X38419000Y-77091000D01*
X41650000Y-77051000D02*
X38350000Y-77051000D01*
X41714000Y-77011000D02*
X38286000Y-77011000D01*
X41776000Y-76971000D02*
X38224000Y-76971000D01*
X41834000Y-76931000D02*
X38166000Y-76931000D01*
X41890000Y-76891000D02*
X38110000Y-76891000D01*
X41944000Y-76851000D02*
X38056000Y-76851000D01*
X41995000Y-76811000D02*
X38005000Y-76811000D01*
X42044000Y-76771000D02*
X37956000Y-76771000D01*
X42092000Y-76731000D02*
X37908000Y-76731000D01*
X42137000Y-76691000D02*
X37863000Y-76691000D01*
X42182000Y-76651000D02*
X37818000Y-76651000D01*
X42224000Y-76611000D02*
X37776000Y-76611000D01*
X42265000Y-76571000D02*
X37735000Y-76571000D01*
X38960000Y-76531000D02*
X37695000Y-76531000D01*
X42305000Y-76531000D02*
X41040000Y-76531000D01*
X38960000Y-76491000D02*
X37657000Y-76491000D01*
X42343000Y-76491000D02*
X41040000Y-76491000D01*
X38960000Y-76451000D02*
X37620000Y-76451000D01*
X42380000Y-76451000D02*
X41040000Y-76451000D01*
X38960000Y-76411000D02*
X37584000Y-76411000D01*
X42416000Y-76411000D02*
X41040000Y-76411000D01*
X38960000Y-76371000D02*
X37550000Y-76371000D01*
X42450000Y-76371000D02*
X41040000Y-76371000D01*
X38960000Y-76331000D02*
X37516000Y-76331000D01*
X42484000Y-76331000D02*
X41040000Y-76331000D01*
X38960000Y-76291000D02*
X37484000Y-76291000D01*
X42516000Y-76291000D02*
X41040000Y-76291000D01*
X38960000Y-76251000D02*
X37452000Y-76251000D01*
X42548000Y-76251000D02*
X41040000Y-76251000D01*
X38960000Y-76211000D02*
X37422000Y-76211000D01*
X42578000Y-76211000D02*
X41040000Y-76211000D01*
X38960000Y-76171000D02*
X37393000Y-76171000D01*
X42607000Y-76171000D02*
X41040000Y-76171000D01*
X38960000Y-76131000D02*
X37364000Y-76131000D01*
X42636000Y-76131000D02*
X41040000Y-76131000D01*
X38960000Y-76091000D02*
X37336000Y-76091000D01*
X42664000Y-76091000D02*
X41040000Y-76091000D01*
X38960000Y-76051000D02*
X37310000Y-76051000D01*
X42690000Y-76051000D02*
X41040000Y-76051000D01*
X38960000Y-76011000D02*
X37284000Y-76011000D01*
X42716000Y-76011000D02*
X41040000Y-76011000D01*
X38960000Y-75971000D02*
X37258000Y-75971000D01*
X42742000Y-75971000D02*
X41040000Y-75971000D01*
X38960000Y-75931000D02*
X37234000Y-75931000D01*
X42766000Y-75931000D02*
X41040000Y-75931000D01*
X38960000Y-75891000D02*
X37210000Y-75891000D01*
X42790000Y-75891000D02*
X41040000Y-75891000D01*
X38960000Y-75851000D02*
X37188000Y-75851000D01*
X42812000Y-75851000D02*
X41040000Y-75851000D01*
X38960000Y-75811000D02*
X37166000Y-75811000D01*
X42834000Y-75811000D02*
X41040000Y-75811000D01*
X38960000Y-75771000D02*
X37144000Y-75771000D01*
X42856000Y-75771000D02*
X41040000Y-75771000D01*
X38960000Y-75731000D02*
X37124000Y-75731000D01*
X42876000Y-75731000D02*
X41040000Y-75731000D01*
X38960000Y-75691000D02*
X37104000Y-75691000D01*
X42896000Y-75691000D02*
X41040000Y-75691000D01*
X38960000Y-75651000D02*
X37084000Y-75651000D01*
X42916000Y-75651000D02*
X41040000Y-75651000D01*
X38960000Y-75611000D02*
X37066000Y-75611000D01*
X42934000Y-75611000D02*
X41040000Y-75611000D01*
X38960000Y-75571000D02*
X37048000Y-75571000D01*
X42952000Y-75571000D02*
X41040000Y-75571000D01*
X38960000Y-75531000D02*
X37030000Y-75531000D01*
X42970000Y-75531000D02*
X41040000Y-75531000D01*
X38960000Y-75491000D02*
X37014000Y-75491000D01*
X42986000Y-75491000D02*
X41040000Y-75491000D01*
X38960000Y-75451000D02*
X36998000Y-75451000D01*
X43002000Y-75451000D02*
X41040000Y-75451000D01*
X38960000Y-75411000D02*
X36982000Y-75411000D01*
X43018000Y-75411000D02*
X41040000Y-75411000D01*
X38960000Y-75371000D02*
X36967000Y-75371000D01*
X43033000Y-75371000D02*
X41040000Y-75371000D01*
X38960000Y-75331000D02*
X36953000Y-75331000D01*
X43047000Y-75331000D02*
X41040000Y-75331000D01*
X38960000Y-75291000D02*
X36939000Y-75291000D01*
X43061000Y-75291000D02*
X41040000Y-75291000D01*
X38960000Y-75251000D02*
X36926000Y-75251000D01*
X43074000Y-75251000D02*
X41040000Y-75251000D01*
X38960000Y-75211000D02*
X36914000Y-75211000D01*
X43086000Y-75211000D02*
X41040000Y-75211000D01*
X38960000Y-75171000D02*
X36902000Y-75171000D01*
X43098000Y-75171000D02*
X41040000Y-75171000D01*
X38960000Y-75131000D02*
X36890000Y-75131000D01*
X43110000Y-75131000D02*
X41040000Y-75131000D01*
X38960000Y-75091000D02*
X36879000Y-75091000D01*
X43121000Y-75091000D02*
X41040000Y-75091000D01*
X38960000Y-75051000D02*
X36869000Y-75051000D01*
X43131000Y-75051000D02*
X41040000Y-75051000D01*
X38960000Y-75011000D02*
X36859000Y-75011000D01*
X43141000Y-75011000D02*
X41040000Y-75011000D01*
X38960000Y-74971000D02*
X36850000Y-74971000D01*
X43150000Y-74971000D02*
X41040000Y-74971000D01*
X38960000Y-74930000D02*
X36841000Y-74930000D01*
X43159000Y-74930000D02*
X41040000Y-74930000D01*
X38960000Y-74890000D02*
X36833000Y-74890000D01*
X43167000Y-74890000D02*
X41040000Y-74890000D01*
X38960000Y-74850000D02*
X36825000Y-74850000D01*
X43175000Y-74850000D02*
X41040000Y-74850000D01*
X38960000Y-74810000D02*
X36818000Y-74810000D01*
X43182000Y-74810000D02*
X41040000Y-74810000D01*
X38960000Y-74770000D02*
X36811000Y-74770000D01*
X43189000Y-74770000D02*
X41040000Y-74770000D01*
X38960000Y-74730000D02*
X36805000Y-74730000D01*
X43195000Y-74730000D02*
X41040000Y-74730000D01*
X38960000Y-74690000D02*
X36799000Y-74690000D01*
X43201000Y-74690000D02*
X41040000Y-74690000D01*
X38960000Y-74650000D02*
X36794000Y-74650000D01*
X43206000Y-74650000D02*
X41040000Y-74650000D01*
X38960000Y-74610000D02*
X36789000Y-74610000D01*
X43211000Y-74610000D02*
X41040000Y-74610000D01*
X38960000Y-74570000D02*
X36785000Y-74570000D01*
X43215000Y-74570000D02*
X41040000Y-74570000D01*
X38960000Y-74530000D02*
X36782000Y-74530000D01*
X43218000Y-74530000D02*
X41040000Y-74530000D01*
X38960000Y-74490000D02*
X36778000Y-74490000D01*
X43222000Y-74490000D02*
X41040000Y-74490000D01*
X43224000Y-74450000D02*
X36776000Y-74450000D01*
X43227000Y-74410000D02*
X36773000Y-74410000D01*
X43228000Y-74370000D02*
X36772000Y-74370000D01*
X43230000Y-74330000D02*
X36770000Y-74330000D01*
X43230000Y-74290000D02*
X36770000Y-74290000D01*
X43230000Y-74250000D02*
X36770000Y-74250000D01*
X43270000Y-74250000D02*
G75*
G03*
X43270000Y-74250000I-3270000J0D01*
G01*
X25670000Y-54670000D02*
X27000000Y-54670000D01*
X25670000Y-56000000D02*
X25670000Y-54670000D01*
X25670000Y-57270000D02*
X28330000Y-57270000D01*
X28330000Y-57270000D02*
X28330000Y-62410000D01*
X25670000Y-57270000D02*
X25670000Y-62410000D01*
X25670000Y-62410000D02*
X28330000Y-62410000D01*
X28330000Y-68130000D02*
X25670000Y-68130000D01*
X28330000Y-70730000D02*
X28330000Y-68130000D01*
X25670000Y-70730000D02*
X25670000Y-68130000D01*
X28330000Y-70730000D02*
X25670000Y-70730000D01*
X28330000Y-72000000D02*
X28330000Y-73330000D01*
X28330000Y-73330000D02*
X27000000Y-73330000D01*
X34090000Y-45228733D02*
X34090000Y-45571267D01*
X35110000Y-45228733D02*
X35110000Y-45571267D01*
X35110000Y-53371267D02*
X35110000Y-53028733D01*
X34090000Y-53371267D02*
X34090000Y-53028733D01*
X35550000Y-72500000D02*
X35550000Y-79400000D01*
X32250000Y-72500000D02*
X32250000Y-79400000D01*
X35550000Y-72500000D02*
X32250000Y-72500000D01*
X57865000Y-43761252D02*
X57865000Y-43238748D01*
X59335000Y-43761252D02*
X59335000Y-43238748D01*
X44335000Y-59800000D02*
X44335000Y-57340000D01*
X44335000Y-57340000D02*
X42865000Y-57340000D01*
X42865000Y-57340000D02*
X42865000Y-59800000D01*
X62930000Y-57030000D02*
X60270000Y-57030000D01*
X62930000Y-59630000D02*
X62930000Y-57030000D01*
X60270000Y-59630000D02*
X60270000Y-57030000D01*
X62930000Y-59630000D02*
X60270000Y-59630000D01*
X62930000Y-60900000D02*
X62930000Y-62230000D01*
X62930000Y-62230000D02*
X61600000Y-62230000D01*
X43754724Y-63522500D02*
X43245276Y-63522500D01*
X43754724Y-62477500D02*
X43245276Y-62477500D01*
X63245276Y-53177500D02*
X63754724Y-53177500D01*
X63245276Y-54222500D02*
X63754724Y-54222500D01*
X63145276Y-51022500D02*
X63654724Y-51022500D01*
X63145276Y-49977500D02*
X63654724Y-49977500D01*
X69677500Y-58654724D02*
X69677500Y-58145276D01*
X70722500Y-58654724D02*
X70722500Y-58145276D01*
X63777500Y-46445276D02*
X63777500Y-46954724D01*
X64822500Y-46445276D02*
X64822500Y-46954724D01*
X60200000Y-49100000D02*
X60200000Y-47500000D01*
X57000000Y-47500000D02*
X57000000Y-49800000D01*
X56445276Y-63477500D02*
X56954724Y-63477500D01*
X56445276Y-64522500D02*
X56954724Y-64522500D01*
X56445276Y-67422500D02*
X56954724Y-67422500D01*
X56445276Y-66377500D02*
X56954724Y-66377500D01*
X67670000Y-74150000D02*
X70330000Y-74150000D01*
X67670000Y-66470000D02*
X67670000Y-74150000D01*
X70330000Y-66470000D02*
X70330000Y-74150000D01*
X67670000Y-66470000D02*
X70330000Y-66470000D01*
X67670000Y-65200000D02*
X67670000Y-63870000D01*
X67670000Y-63870000D02*
X69000000Y-63870000D01*
X47640000Y-76800000D02*
X47640000Y-80250000D01*
X47640000Y-76800000D02*
X47640000Y-74850000D01*
X52760000Y-76800000D02*
X52760000Y-78750000D01*
X52760000Y-76800000D02*
X52760000Y-74850000D01*
X64660000Y-76800000D02*
X64660000Y-74850000D01*
X64660000Y-76800000D02*
X64660000Y-78750000D01*
X59540000Y-76800000D02*
X59540000Y-74850000D01*
X59540000Y-76800000D02*
X59540000Y-80250000D01*
X58522500Y-71345276D02*
X58522500Y-71854724D01*
X57477500Y-71345276D02*
X57477500Y-71854724D01*
X44977500Y-72845276D02*
X44977500Y-73354724D01*
X46022500Y-72845276D02*
X46022500Y-73354724D01*
X54522500Y-71345276D02*
X54522500Y-71854724D01*
X53477500Y-71345276D02*
X53477500Y-71854724D01*
D10*
X43333333Y-67782380D02*
X43000000Y-67306190D01*
X42761904Y-67782380D02*
X42761904Y-66782380D01*
X43142857Y-66782380D01*
X43238095Y-66830000D01*
X43285714Y-66877619D01*
X43333333Y-66972857D01*
X43333333Y-67115714D01*
X43285714Y-67210952D01*
X43238095Y-67258571D01*
X43142857Y-67306190D01*
X42761904Y-67306190D01*
X43809523Y-67782380D02*
X44000000Y-67782380D01*
X44095238Y-67734761D01*
X44142857Y-67687142D01*
X44238095Y-67544285D01*
X44285714Y-67353809D01*
X44285714Y-66972857D01*
X44238095Y-66877619D01*
X44190476Y-66830000D01*
X44095238Y-66782380D01*
X43904761Y-66782380D01*
X43809523Y-66830000D01*
X43761904Y-66877619D01*
X43714285Y-66972857D01*
X43714285Y-67210952D01*
X43761904Y-67306190D01*
X43809523Y-67353809D01*
X43904761Y-67401428D01*
X44095238Y-67401428D01*
X44190476Y-67353809D01*
X44238095Y-67306190D01*
X44285714Y-67210952D01*
X38333333Y-60557142D02*
X38285714Y-60604761D01*
X38142857Y-60652380D01*
X38047619Y-60652380D01*
X37904761Y-60604761D01*
X37809523Y-60509523D01*
X37761904Y-60414285D01*
X37714285Y-60223809D01*
X37714285Y-60080952D01*
X37761904Y-59890476D01*
X37809523Y-59795238D01*
X37904761Y-59700000D01*
X38047619Y-59652380D01*
X38142857Y-59652380D01*
X38285714Y-59700000D01*
X38333333Y-59747619D01*
X38666666Y-59652380D02*
X39285714Y-59652380D01*
X38952380Y-60033333D01*
X39095238Y-60033333D01*
X39190476Y-60080952D01*
X39238095Y-60128571D01*
X39285714Y-60223809D01*
X39285714Y-60461904D01*
X39238095Y-60557142D01*
X39190476Y-60604761D01*
X39095238Y-60652380D01*
X38809523Y-60652380D01*
X38714285Y-60604761D01*
X38666666Y-60557142D01*
X33622380Y-41166666D02*
X33146190Y-41500000D01*
X33622380Y-41738095D02*
X32622380Y-41738095D01*
X32622380Y-41357142D01*
X32670000Y-41261904D01*
X32717619Y-41214285D01*
X32812857Y-41166666D01*
X32955714Y-41166666D01*
X33050952Y-41214285D01*
X33098571Y-41261904D01*
X33146190Y-41357142D01*
X33146190Y-41738095D01*
X32622380Y-40833333D02*
X32622380Y-40214285D01*
X33003333Y-40547619D01*
X33003333Y-40404761D01*
X33050952Y-40309523D01*
X33098571Y-40261904D01*
X33193809Y-40214285D01*
X33431904Y-40214285D01*
X33527142Y-40261904D01*
X33574761Y-40309523D01*
X33622380Y-40404761D01*
X33622380Y-40690476D01*
X33574761Y-40785714D01*
X33527142Y-40833333D01*
X51566666Y-65752380D02*
X51566666Y-66466666D01*
X51519047Y-66609523D01*
X51423809Y-66704761D01*
X51280952Y-66752380D01*
X51185714Y-66752380D01*
X51947619Y-65752380D02*
X52614285Y-65752380D01*
X52185714Y-66752380D01*
X61333333Y-65852380D02*
X61000000Y-65376190D01*
X60761904Y-65852380D02*
X60761904Y-64852380D01*
X61142857Y-64852380D01*
X61238095Y-64900000D01*
X61285714Y-64947619D01*
X61333333Y-65042857D01*
X61333333Y-65185714D01*
X61285714Y-65280952D01*
X61238095Y-65328571D01*
X61142857Y-65376190D01*
X60761904Y-65376190D01*
X61904761Y-65280952D02*
X61809523Y-65233333D01*
X61761904Y-65185714D01*
X61714285Y-65090476D01*
X61714285Y-65042857D01*
X61761904Y-64947619D01*
X61809523Y-64900000D01*
X61904761Y-64852380D01*
X62095238Y-64852380D01*
X62190476Y-64900000D01*
X62238095Y-64947619D01*
X62285714Y-65042857D01*
X62285714Y-65090476D01*
X62238095Y-65185714D01*
X62190476Y-65233333D01*
X62095238Y-65280952D01*
X61904761Y-65280952D01*
X61809523Y-65328571D01*
X61761904Y-65376190D01*
X61714285Y-65471428D01*
X61714285Y-65661904D01*
X61761904Y-65757142D01*
X61809523Y-65804761D01*
X61904761Y-65852380D01*
X62095238Y-65852380D01*
X62190476Y-65804761D01*
X62238095Y-65757142D01*
X62285714Y-65661904D01*
X62285714Y-65471428D01*
X62238095Y-65376190D01*
X62190476Y-65328571D01*
X62095238Y-65280952D01*
X33057142Y-60066666D02*
X33104761Y-60114285D01*
X33152380Y-60257142D01*
X33152380Y-60352380D01*
X33104761Y-60495238D01*
X33009523Y-60590476D01*
X32914285Y-60638095D01*
X32723809Y-60685714D01*
X32580952Y-60685714D01*
X32390476Y-60638095D01*
X32295238Y-60590476D01*
X32200000Y-60495238D01*
X32152380Y-60352380D01*
X32152380Y-60257142D01*
X32200000Y-60114285D01*
X32247619Y-60066666D01*
X32152380Y-59209523D02*
X32152380Y-59400000D01*
X32200000Y-59495238D01*
X32247619Y-59542857D01*
X32390476Y-59638095D01*
X32580952Y-59685714D01*
X32961904Y-59685714D01*
X33057142Y-59638095D01*
X33104761Y-59590476D01*
X33152380Y-59495238D01*
X33152380Y-59304761D01*
X33104761Y-59209523D01*
X33057142Y-59161904D01*
X32961904Y-59114285D01*
X32723809Y-59114285D01*
X32628571Y-59161904D01*
X32580952Y-59209523D01*
X32533333Y-59304761D01*
X32533333Y-59495238D01*
X32580952Y-59590476D01*
X32628571Y-59638095D01*
X32723809Y-59685714D01*
X68666666Y-45822380D02*
X68666666Y-46536666D01*
X68619047Y-46679523D01*
X68523809Y-46774761D01*
X68380952Y-46822380D01*
X68285714Y-46822380D01*
X69571428Y-45822380D02*
X69380952Y-45822380D01*
X69285714Y-45870000D01*
X69238095Y-45917619D01*
X69142857Y-46060476D01*
X69095238Y-46250952D01*
X69095238Y-46631904D01*
X69142857Y-46727142D01*
X69190476Y-46774761D01*
X69285714Y-46822380D01*
X69476190Y-46822380D01*
X69571428Y-46774761D01*
X69619047Y-46727142D01*
X69666666Y-46631904D01*
X69666666Y-46393809D01*
X69619047Y-46298571D01*
X69571428Y-46250952D01*
X69476190Y-46203333D01*
X69285714Y-46203333D01*
X69190476Y-46250952D01*
X69142857Y-46298571D01*
X69095238Y-46393809D01*
X45238095Y-56052380D02*
X45238095Y-56861904D01*
X45285714Y-56957142D01*
X45333333Y-57004761D01*
X45428571Y-57052380D01*
X45619047Y-57052380D01*
X45714285Y-57004761D01*
X45761904Y-56957142D01*
X45809523Y-56861904D01*
X45809523Y-56052380D01*
X46238095Y-56147619D02*
X46285714Y-56100000D01*
X46380952Y-56052380D01*
X46619047Y-56052380D01*
X46714285Y-56100000D01*
X46761904Y-56147619D01*
X46809523Y-56242857D01*
X46809523Y-56338095D01*
X46761904Y-56480952D01*
X46190476Y-57052380D01*
X46809523Y-57052380D01*
X43238095Y-54528571D02*
X43571428Y-54528571D01*
X43714285Y-55052380D02*
X43238095Y-55052380D01*
X43238095Y-54052380D01*
X43714285Y-54052380D01*
X44095238Y-55004761D02*
X44238095Y-55052380D01*
X44476190Y-55052380D01*
X44571428Y-55004761D01*
X44619047Y-54957142D01*
X44666666Y-54861904D01*
X44666666Y-54766666D01*
X44619047Y-54671428D01*
X44571428Y-54623809D01*
X44476190Y-54576190D01*
X44285714Y-54528571D01*
X44190476Y-54480952D01*
X44142857Y-54433333D01*
X44095238Y-54338095D01*
X44095238Y-54242857D01*
X44142857Y-54147619D01*
X44190476Y-54100000D01*
X44285714Y-54052380D01*
X44523809Y-54052380D01*
X44666666Y-54100000D01*
X45095238Y-55052380D02*
X45095238Y-54052380D01*
X45476190Y-54052380D01*
X45571428Y-54100000D01*
X45619047Y-54147619D01*
X45666666Y-54242857D01*
X45666666Y-54385714D01*
X45619047Y-54480952D01*
X45571428Y-54528571D01*
X45476190Y-54576190D01*
X45095238Y-54576190D01*
X46095238Y-54671428D02*
X46857142Y-54671428D01*
X47523809Y-54052380D02*
X47619047Y-54052380D01*
X47714285Y-54100000D01*
X47761904Y-54147619D01*
X47809523Y-54242857D01*
X47857142Y-54433333D01*
X47857142Y-54671428D01*
X47809523Y-54861904D01*
X47761904Y-54957142D01*
X47714285Y-55004761D01*
X47619047Y-55052380D01*
X47523809Y-55052380D01*
X47428571Y-55004761D01*
X47380952Y-54957142D01*
X47333333Y-54861904D01*
X47285714Y-54671428D01*
X47285714Y-54433333D01*
X47333333Y-54242857D01*
X47380952Y-54147619D01*
X47428571Y-54100000D01*
X47523809Y-54052380D01*
X48190476Y-54052380D02*
X48857142Y-54052380D01*
X48428571Y-55052380D01*
X38898571Y-67073333D02*
X38898571Y-67406666D01*
X39422380Y-67406666D02*
X38422380Y-67406666D01*
X38422380Y-66930476D01*
X39422380Y-66025714D02*
X39422380Y-66597142D01*
X39422380Y-66311428D02*
X38422380Y-66311428D01*
X38565238Y-66406666D01*
X38660476Y-66501904D01*
X38708095Y-66597142D01*
X56533333Y-57122380D02*
X56200000Y-56646190D01*
X55961904Y-57122380D02*
X55961904Y-56122380D01*
X56342857Y-56122380D01*
X56438095Y-56170000D01*
X56485714Y-56217619D01*
X56533333Y-56312857D01*
X56533333Y-56455714D01*
X56485714Y-56550952D01*
X56438095Y-56598571D01*
X56342857Y-56646190D01*
X55961904Y-56646190D01*
X57485714Y-57122380D02*
X56914285Y-57122380D01*
X57200000Y-57122380D02*
X57200000Y-56122380D01*
X57104761Y-56265238D01*
X57009523Y-56360476D01*
X56914285Y-56408095D01*
X56533333Y-60022380D02*
X56200000Y-59546190D01*
X55961904Y-60022380D02*
X55961904Y-59022380D01*
X56342857Y-59022380D01*
X56438095Y-59070000D01*
X56485714Y-59117619D01*
X56533333Y-59212857D01*
X56533333Y-59355714D01*
X56485714Y-59450952D01*
X56438095Y-59498571D01*
X56342857Y-59546190D01*
X55961904Y-59546190D01*
X57390476Y-59355714D02*
X57390476Y-60022380D01*
X57152380Y-58974761D02*
X56914285Y-59689047D01*
X57533333Y-59689047D01*
X26233333Y-47657142D02*
X26185714Y-47704761D01*
X26042857Y-47752380D01*
X25947619Y-47752380D01*
X25804761Y-47704761D01*
X25709523Y-47609523D01*
X25661904Y-47514285D01*
X25614285Y-47323809D01*
X25614285Y-47180952D01*
X25661904Y-46990476D01*
X25709523Y-46895238D01*
X25804761Y-46800000D01*
X25947619Y-46752380D01*
X26042857Y-46752380D01*
X26185714Y-46800000D01*
X26233333Y-46847619D01*
X26614285Y-46847619D02*
X26661904Y-46800000D01*
X26757142Y-46752380D01*
X26995238Y-46752380D01*
X27090476Y-46800000D01*
X27138095Y-46847619D01*
X27185714Y-46942857D01*
X27185714Y-47038095D01*
X27138095Y-47180952D01*
X26566666Y-47752380D01*
X27185714Y-47752380D01*
X38833333Y-70357142D02*
X38785714Y-70404761D01*
X38642857Y-70452380D01*
X38547619Y-70452380D01*
X38404761Y-70404761D01*
X38309523Y-70309523D01*
X38261904Y-70214285D01*
X38214285Y-70023809D01*
X38214285Y-69880952D01*
X38261904Y-69690476D01*
X38309523Y-69595238D01*
X38404761Y-69500000D01*
X38547619Y-69452380D01*
X38642857Y-69452380D01*
X38785714Y-69500000D01*
X38833333Y-69547619D01*
X39166666Y-69452380D02*
X39833333Y-69452380D01*
X39404761Y-70452380D01*
X26466666Y-63002380D02*
X26466666Y-63716666D01*
X26419047Y-63859523D01*
X26323809Y-63954761D01*
X26180952Y-64002380D01*
X26085714Y-64002380D01*
X26895238Y-63097619D02*
X26942857Y-63050000D01*
X27038095Y-63002380D01*
X27276190Y-63002380D01*
X27371428Y-63050000D01*
X27419047Y-63097619D01*
X27466666Y-63192857D01*
X27466666Y-63288095D01*
X27419047Y-63430952D01*
X26847619Y-64002380D01*
X27466666Y-64002380D01*
X26666666Y-73782380D02*
X26666666Y-74496666D01*
X26619047Y-74639523D01*
X26523809Y-74734761D01*
X26380952Y-74782380D01*
X26285714Y-74782380D01*
X27047619Y-73782380D02*
X27666666Y-73782380D01*
X27333333Y-74163333D01*
X27476190Y-74163333D01*
X27571428Y-74210952D01*
X27619047Y-74258571D01*
X27666666Y-74353809D01*
X27666666Y-74591904D01*
X27619047Y-74687142D01*
X27571428Y-74734761D01*
X27476190Y-74782380D01*
X27190476Y-74782380D01*
X27095238Y-74734761D01*
X27047619Y-74687142D01*
X33652380Y-45566666D02*
X33176190Y-45900000D01*
X33652380Y-46138095D02*
X32652380Y-46138095D01*
X32652380Y-45757142D01*
X32700000Y-45661904D01*
X32747619Y-45614285D01*
X32842857Y-45566666D01*
X32985714Y-45566666D01*
X33080952Y-45614285D01*
X33128571Y-45661904D01*
X33176190Y-45757142D01*
X33176190Y-46138095D01*
X32652380Y-44661904D02*
X32652380Y-45138095D01*
X33128571Y-45185714D01*
X33080952Y-45138095D01*
X33033333Y-45042857D01*
X33033333Y-44804761D01*
X33080952Y-44709523D01*
X33128571Y-44661904D01*
X33223809Y-44614285D01*
X33461904Y-44614285D01*
X33557142Y-44661904D01*
X33604761Y-44709523D01*
X33652380Y-44804761D01*
X33652380Y-45042857D01*
X33604761Y-45138095D01*
X33557142Y-45185714D01*
X36457142Y-53366666D02*
X36504761Y-53414285D01*
X36552380Y-53557142D01*
X36552380Y-53652380D01*
X36504761Y-53795238D01*
X36409523Y-53890476D01*
X36314285Y-53938095D01*
X36123809Y-53985714D01*
X35980952Y-53985714D01*
X35790476Y-53938095D01*
X35695238Y-53890476D01*
X35600000Y-53795238D01*
X35552380Y-53652380D01*
X35552380Y-53557142D01*
X35600000Y-53414285D01*
X35647619Y-53366666D01*
X35552380Y-52461904D02*
X35552380Y-52938095D01*
X36028571Y-52985714D01*
X35980952Y-52938095D01*
X35933333Y-52842857D01*
X35933333Y-52604761D01*
X35980952Y-52509523D01*
X36028571Y-52461904D01*
X36123809Y-52414285D01*
X36361904Y-52414285D01*
X36457142Y-52461904D01*
X36504761Y-52509523D01*
X36552380Y-52604761D01*
X36552380Y-52842857D01*
X36504761Y-52938095D01*
X36457142Y-52985714D01*
X36852380Y-77638095D02*
X35852380Y-77638095D01*
X35852380Y-77400000D01*
X35900000Y-77257142D01*
X35995238Y-77161904D01*
X36090476Y-77114285D01*
X36280952Y-77066666D01*
X36423809Y-77066666D01*
X36614285Y-77114285D01*
X36709523Y-77161904D01*
X36804761Y-77257142D01*
X36852380Y-77400000D01*
X36852380Y-77638095D01*
X35947619Y-76685714D02*
X35900000Y-76638095D01*
X35852380Y-76542857D01*
X35852380Y-76304761D01*
X35900000Y-76209523D01*
X35947619Y-76161904D01*
X36042857Y-76114285D01*
X36138095Y-76114285D01*
X36280952Y-76161904D01*
X36852380Y-76733333D01*
X36852380Y-76114285D01*
X57277142Y-43666666D02*
X57324761Y-43714285D01*
X57372380Y-43857142D01*
X57372380Y-43952380D01*
X57324761Y-44095238D01*
X57229523Y-44190476D01*
X57134285Y-44238095D01*
X56943809Y-44285714D01*
X56800952Y-44285714D01*
X56610476Y-44238095D01*
X56515238Y-44190476D01*
X56420000Y-44095238D01*
X56372380Y-43952380D01*
X56372380Y-43857142D01*
X56420000Y-43714285D01*
X56467619Y-43666666D01*
X56800952Y-43095238D02*
X56753333Y-43190476D01*
X56705714Y-43238095D01*
X56610476Y-43285714D01*
X56562857Y-43285714D01*
X56467619Y-43238095D01*
X56420000Y-43190476D01*
X56372380Y-43095238D01*
X56372380Y-42904761D01*
X56420000Y-42809523D01*
X56467619Y-42761904D01*
X56562857Y-42714285D01*
X56610476Y-42714285D01*
X56705714Y-42761904D01*
X56753333Y-42809523D01*
X56800952Y-42904761D01*
X56800952Y-43095238D01*
X56848571Y-43190476D01*
X56896190Y-43238095D01*
X56991428Y-43285714D01*
X57181904Y-43285714D01*
X57277142Y-43238095D01*
X57324761Y-43190476D01*
X57372380Y-43095238D01*
X57372380Y-42904761D01*
X57324761Y-42809523D01*
X57277142Y-42761904D01*
X57181904Y-42714285D01*
X56991428Y-42714285D01*
X56896190Y-42761904D01*
X56848571Y-42809523D01*
X56800952Y-42904761D01*
X42361904Y-57052380D02*
X42361904Y-56052380D01*
X42600000Y-56052380D01*
X42742857Y-56100000D01*
X42838095Y-56195238D01*
X42885714Y-56290476D01*
X42933333Y-56480952D01*
X42933333Y-56623809D01*
X42885714Y-56814285D01*
X42838095Y-56909523D01*
X42742857Y-57004761D01*
X42600000Y-57052380D01*
X42361904Y-57052380D01*
X43790476Y-56385714D02*
X43790476Y-57052380D01*
X43552380Y-56004761D02*
X43314285Y-56719047D01*
X43933333Y-56719047D01*
X61266666Y-62682380D02*
X61266666Y-63396666D01*
X61219047Y-63539523D01*
X61123809Y-63634761D01*
X60980952Y-63682380D01*
X60885714Y-63682380D01*
X62171428Y-63015714D02*
X62171428Y-63682380D01*
X61933333Y-62634761D02*
X61695238Y-63349047D01*
X62314285Y-63349047D01*
X42857142Y-64882380D02*
X42523809Y-64406190D01*
X42285714Y-64882380D02*
X42285714Y-63882380D01*
X42666666Y-63882380D01*
X42761904Y-63930000D01*
X42809523Y-63977619D01*
X42857142Y-64072857D01*
X42857142Y-64215714D01*
X42809523Y-64310952D01*
X42761904Y-64358571D01*
X42666666Y-64406190D01*
X42285714Y-64406190D01*
X43809523Y-64882380D02*
X43238095Y-64882380D01*
X43523809Y-64882380D02*
X43523809Y-63882380D01*
X43428571Y-64025238D01*
X43333333Y-64120476D01*
X43238095Y-64168095D01*
X44428571Y-63882380D02*
X44523809Y-63882380D01*
X44619047Y-63930000D01*
X44666666Y-63977619D01*
X44714285Y-64072857D01*
X44761904Y-64263333D01*
X44761904Y-64501428D01*
X44714285Y-64691904D01*
X44666666Y-64787142D01*
X44619047Y-64834761D01*
X44523809Y-64882380D01*
X44428571Y-64882380D01*
X44333333Y-64834761D01*
X44285714Y-64787142D01*
X44238095Y-64691904D01*
X44190476Y-64501428D01*
X44190476Y-64263333D01*
X44238095Y-64072857D01*
X44285714Y-63977619D01*
X44333333Y-63930000D01*
X44428571Y-63882380D01*
X59357142Y-54152380D02*
X59023809Y-53676190D01*
X58785714Y-54152380D02*
X58785714Y-53152380D01*
X59166666Y-53152380D01*
X59261904Y-53200000D01*
X59309523Y-53247619D01*
X59357142Y-53342857D01*
X59357142Y-53485714D01*
X59309523Y-53580952D01*
X59261904Y-53628571D01*
X59166666Y-53676190D01*
X58785714Y-53676190D01*
X60309523Y-54152380D02*
X59738095Y-54152380D01*
X60023809Y-54152380D02*
X60023809Y-53152380D01*
X59928571Y-53295238D01*
X59833333Y-53390476D01*
X59738095Y-53438095D01*
X61261904Y-54152380D02*
X60690476Y-54152380D01*
X60976190Y-54152380D02*
X60976190Y-53152380D01*
X60880952Y-53295238D01*
X60785714Y-53390476D01*
X60690476Y-53438095D01*
X59357142Y-51452380D02*
X59023809Y-50976190D01*
X58785714Y-51452380D02*
X58785714Y-50452380D01*
X59166666Y-50452380D01*
X59261904Y-50500000D01*
X59309523Y-50547619D01*
X59357142Y-50642857D01*
X59357142Y-50785714D01*
X59309523Y-50880952D01*
X59261904Y-50928571D01*
X59166666Y-50976190D01*
X58785714Y-50976190D01*
X60309523Y-51452380D02*
X59738095Y-51452380D01*
X60023809Y-51452380D02*
X60023809Y-50452380D01*
X59928571Y-50595238D01*
X59833333Y-50690476D01*
X59738095Y-50738095D01*
X60690476Y-50547619D02*
X60738095Y-50500000D01*
X60833333Y-50452380D01*
X61071428Y-50452380D01*
X61166666Y-50500000D01*
X61214285Y-50547619D01*
X61261904Y-50642857D01*
X61261904Y-50738095D01*
X61214285Y-50880952D01*
X60642857Y-51452380D01*
X61261904Y-51452380D01*
X69222380Y-58795238D02*
X68746190Y-59128571D01*
X69222380Y-59366666D02*
X68222380Y-59366666D01*
X68222380Y-58985714D01*
X68270000Y-58890476D01*
X68317619Y-58842857D01*
X68412857Y-58795238D01*
X68555714Y-58795238D01*
X68650952Y-58842857D01*
X68698571Y-58890476D01*
X68746190Y-58985714D01*
X68746190Y-59366666D01*
X68222380Y-58509523D02*
X69222380Y-58176190D01*
X68222380Y-57842857D01*
X68555714Y-57080952D02*
X69222380Y-57080952D01*
X68174761Y-57319047D02*
X68889047Y-57557142D01*
X68889047Y-56938095D01*
X63352380Y-47295238D02*
X62876190Y-47628571D01*
X63352380Y-47866666D02*
X62352380Y-47866666D01*
X62352380Y-47485714D01*
X62400000Y-47390476D01*
X62447619Y-47342857D01*
X62542857Y-47295238D01*
X62685714Y-47295238D01*
X62780952Y-47342857D01*
X62828571Y-47390476D01*
X62876190Y-47485714D01*
X62876190Y-47866666D01*
X62352380Y-47009523D02*
X63352380Y-46676190D01*
X62352380Y-46342857D01*
X62352380Y-45533333D02*
X62352380Y-46009523D01*
X62828571Y-46057142D01*
X62780952Y-46009523D01*
X62733333Y-45914285D01*
X62733333Y-45676190D01*
X62780952Y-45580952D01*
X62828571Y-45533333D01*
X62923809Y-45485714D01*
X63161904Y-45485714D01*
X63257142Y-45533333D01*
X63304761Y-45580952D01*
X63352380Y-45676190D01*
X63352380Y-45914285D01*
X63304761Y-46009523D01*
X63257142Y-46057142D01*
X55602380Y-49061904D02*
X56411904Y-49061904D01*
X56507142Y-49014285D01*
X56554761Y-48966666D01*
X56602380Y-48871428D01*
X56602380Y-48680952D01*
X56554761Y-48585714D01*
X56507142Y-48538095D01*
X56411904Y-48490476D01*
X55602380Y-48490476D01*
X55602380Y-48109523D02*
X55602380Y-47490476D01*
X55983333Y-47823809D01*
X55983333Y-47680952D01*
X56030952Y-47585714D01*
X56078571Y-47538095D01*
X56173809Y-47490476D01*
X56411904Y-47490476D01*
X56507142Y-47538095D01*
X56554761Y-47585714D01*
X56602380Y-47680952D01*
X56602380Y-47966666D01*
X56554761Y-48061904D01*
X56507142Y-48109523D01*
X56057142Y-63022380D02*
X55723809Y-62546190D01*
X55485714Y-63022380D02*
X55485714Y-62022380D01*
X55866666Y-62022380D01*
X55961904Y-62070000D01*
X56009523Y-62117619D01*
X56057142Y-62212857D01*
X56057142Y-62355714D01*
X56009523Y-62450952D01*
X55961904Y-62498571D01*
X55866666Y-62546190D01*
X55485714Y-62546190D01*
X57009523Y-63022380D02*
X56438095Y-63022380D01*
X56723809Y-63022380D02*
X56723809Y-62022380D01*
X56628571Y-62165238D01*
X56533333Y-62260476D01*
X56438095Y-62308095D01*
X57342857Y-62022380D02*
X57961904Y-62022380D01*
X57628571Y-62403333D01*
X57771428Y-62403333D01*
X57866666Y-62450952D01*
X57914285Y-62498571D01*
X57961904Y-62593809D01*
X57961904Y-62831904D01*
X57914285Y-62927142D01*
X57866666Y-62974761D01*
X57771428Y-63022380D01*
X57485714Y-63022380D01*
X57390476Y-62974761D01*
X57342857Y-62927142D01*
X56057142Y-65922380D02*
X55723809Y-65446190D01*
X55485714Y-65922380D02*
X55485714Y-64922380D01*
X55866666Y-64922380D01*
X55961904Y-64970000D01*
X56009523Y-65017619D01*
X56057142Y-65112857D01*
X56057142Y-65255714D01*
X56009523Y-65350952D01*
X55961904Y-65398571D01*
X55866666Y-65446190D01*
X55485714Y-65446190D01*
X57009523Y-65922380D02*
X56438095Y-65922380D01*
X56723809Y-65922380D02*
X56723809Y-64922380D01*
X56628571Y-65065238D01*
X56533333Y-65160476D01*
X56438095Y-65208095D01*
X57866666Y-65255714D02*
X57866666Y-65922380D01*
X57628571Y-64874761D02*
X57390476Y-65589047D01*
X58009523Y-65589047D01*
X69266666Y-74752380D02*
X69266666Y-75466666D01*
X69219047Y-75609523D01*
X69123809Y-75704761D01*
X68980952Y-75752380D01*
X68885714Y-75752380D01*
X69885714Y-75180952D02*
X69790476Y-75133333D01*
X69742857Y-75085714D01*
X69695238Y-74990476D01*
X69695238Y-74942857D01*
X69742857Y-74847619D01*
X69790476Y-74800000D01*
X69885714Y-74752380D01*
X70076190Y-74752380D01*
X70171428Y-74800000D01*
X70219047Y-74847619D01*
X70266666Y-74942857D01*
X70266666Y-74990476D01*
X70219047Y-75085714D01*
X70171428Y-75133333D01*
X70076190Y-75180952D01*
X69885714Y-75180952D01*
X69790476Y-75228571D01*
X69742857Y-75276190D01*
X69695238Y-75371428D01*
X69695238Y-75561904D01*
X69742857Y-75657142D01*
X69790476Y-75704761D01*
X69885714Y-75752380D01*
X70076190Y-75752380D01*
X70171428Y-75704761D01*
X70219047Y-75657142D01*
X70266666Y-75561904D01*
X70266666Y-75371428D01*
X70219047Y-75276190D01*
X70171428Y-75228571D01*
X70076190Y-75180952D01*
X46252380Y-77561904D02*
X47061904Y-77561904D01*
X47157142Y-77514285D01*
X47204761Y-77466666D01*
X47252380Y-77371428D01*
X47252380Y-77180952D01*
X47204761Y-77085714D01*
X47157142Y-77038095D01*
X47061904Y-76990476D01*
X46252380Y-76990476D01*
X46252380Y-76038095D02*
X46252380Y-76514285D01*
X46728571Y-76561904D01*
X46680952Y-76514285D01*
X46633333Y-76419047D01*
X46633333Y-76180952D01*
X46680952Y-76085714D01*
X46728571Y-76038095D01*
X46823809Y-75990476D01*
X47061904Y-75990476D01*
X47157142Y-76038095D01*
X47204761Y-76085714D01*
X47252380Y-76180952D01*
X47252380Y-76419047D01*
X47204761Y-76514285D01*
X47157142Y-76561904D01*
X58152380Y-77561904D02*
X58961904Y-77561904D01*
X59057142Y-77514285D01*
X59104761Y-77466666D01*
X59152380Y-77371428D01*
X59152380Y-77180952D01*
X59104761Y-77085714D01*
X59057142Y-77038095D01*
X58961904Y-76990476D01*
X58152380Y-76990476D01*
X58152380Y-76085714D02*
X58152380Y-76276190D01*
X58200000Y-76371428D01*
X58247619Y-76419047D01*
X58390476Y-76514285D01*
X58580952Y-76561904D01*
X58961904Y-76561904D01*
X59057142Y-76514285D01*
X59104761Y-76466666D01*
X59152380Y-76371428D01*
X59152380Y-76180952D01*
X59104761Y-76085714D01*
X59057142Y-76038095D01*
X58961904Y-75990476D01*
X58723809Y-75990476D01*
X58628571Y-76038095D01*
X58580952Y-76085714D01*
X58533333Y-76180952D01*
X58533333Y-76371428D01*
X58580952Y-76466666D01*
X58628571Y-76514285D01*
X58723809Y-76561904D01*
X59882380Y-72242857D02*
X59406190Y-72576190D01*
X59882380Y-72814285D02*
X58882380Y-72814285D01*
X58882380Y-72433333D01*
X58930000Y-72338095D01*
X58977619Y-72290476D01*
X59072857Y-72242857D01*
X59215714Y-72242857D01*
X59310952Y-72290476D01*
X59358571Y-72338095D01*
X59406190Y-72433333D01*
X59406190Y-72814285D01*
X59882380Y-71290476D02*
X59882380Y-71861904D01*
X59882380Y-71576190D02*
X58882380Y-71576190D01*
X59025238Y-71671428D01*
X59120476Y-71766666D01*
X59168095Y-71861904D01*
X58882380Y-70385714D02*
X58882380Y-70861904D01*
X59358571Y-70909523D01*
X59310952Y-70861904D01*
X59263333Y-70766666D01*
X59263333Y-70528571D01*
X59310952Y-70433333D01*
X59358571Y-70385714D01*
X59453809Y-70338095D01*
X59691904Y-70338095D01*
X59787142Y-70385714D01*
X59834761Y-70433333D01*
X59882380Y-70528571D01*
X59882380Y-70766666D01*
X59834761Y-70861904D01*
X59787142Y-70909523D01*
X47382380Y-73742857D02*
X46906190Y-74076190D01*
X47382380Y-74314285D02*
X46382380Y-74314285D01*
X46382380Y-73933333D01*
X46430000Y-73838095D01*
X46477619Y-73790476D01*
X46572857Y-73742857D01*
X46715714Y-73742857D01*
X46810952Y-73790476D01*
X46858571Y-73838095D01*
X46906190Y-73933333D01*
X46906190Y-74314285D01*
X47382380Y-72790476D02*
X47382380Y-73361904D01*
X47382380Y-73076190D02*
X46382380Y-73076190D01*
X46525238Y-73171428D01*
X46620476Y-73266666D01*
X46668095Y-73361904D01*
X46382380Y-71933333D02*
X46382380Y-72123809D01*
X46430000Y-72219047D01*
X46477619Y-72266666D01*
X46620476Y-72361904D01*
X46810952Y-72409523D01*
X47191904Y-72409523D01*
X47287142Y-72361904D01*
X47334761Y-72314285D01*
X47382380Y-72219047D01*
X47382380Y-72028571D01*
X47334761Y-71933333D01*
X47287142Y-71885714D01*
X47191904Y-71838095D01*
X46953809Y-71838095D01*
X46858571Y-71885714D01*
X46810952Y-71933333D01*
X46763333Y-72028571D01*
X46763333Y-72219047D01*
X46810952Y-72314285D01*
X46858571Y-72361904D01*
X46953809Y-72409523D01*
X55882380Y-72242857D02*
X55406190Y-72576190D01*
X55882380Y-72814285D02*
X54882380Y-72814285D01*
X54882380Y-72433333D01*
X54930000Y-72338095D01*
X54977619Y-72290476D01*
X55072857Y-72242857D01*
X55215714Y-72242857D01*
X55310952Y-72290476D01*
X55358571Y-72338095D01*
X55406190Y-72433333D01*
X55406190Y-72814285D01*
X55882380Y-71290476D02*
X55882380Y-71861904D01*
X55882380Y-71576190D02*
X54882380Y-71576190D01*
X55025238Y-71671428D01*
X55120476Y-71766666D01*
X55168095Y-71861904D01*
X54882380Y-70957142D02*
X54882380Y-70290476D01*
X55882380Y-70719047D01*
M02*
