G04 #@! TF.GenerationSoftware,KiCad,Pcbnew,(5.0.1)-4*
G04 #@! TF.CreationDate,2021-12-12T21:25:55+02:00*
G04 #@! TF.ProjectId,MagicLightsPCBNeo,4D616769634C69676874735043424E65,rev?*
G04 #@! TF.SameCoordinates,Original*
G04 #@! TF.FileFunction,Soldermask,Bot*
G04 #@! TF.FilePolarity,Negative*
%FSLAX46Y46*%
G04 Gerber Fmt 4.6, Leading zero omitted, Abs format (unit mm)*
G04 Created by KiCad (PCBNEW (5.0.1)-4) date 2021-12-12 21:25:55*
%MOMM*%
%LPD*%
G01*
G04 APERTURE LIST*
%ADD10C,0.100000*%
G04 APERTURE END LIST*
D10*
G36*
X51375256Y-59391298D02*
X51481579Y-59412447D01*
X51782042Y-59536903D01*
X52048852Y-59715180D01*
X52052454Y-59717587D01*
X52282413Y-59947546D01*
X52463098Y-60217960D01*
X52587553Y-60518422D01*
X52651000Y-60837389D01*
X52651000Y-61162611D01*
X52587553Y-61481578D01*
X52463098Y-61782040D01*
X52282413Y-62052454D01*
X52052454Y-62282413D01*
X52052451Y-62282415D01*
X51782042Y-62463097D01*
X51481579Y-62587553D01*
X51375256Y-62608702D01*
X51162611Y-62651000D01*
X50837389Y-62651000D01*
X50624744Y-62608702D01*
X50518421Y-62587553D01*
X50217958Y-62463097D01*
X49947549Y-62282415D01*
X49947546Y-62282413D01*
X49717587Y-62052454D01*
X49536902Y-61782040D01*
X49412447Y-61481578D01*
X49349000Y-61162611D01*
X49349000Y-60837389D01*
X49412447Y-60518422D01*
X49536902Y-60217960D01*
X49717587Y-59947546D01*
X49947546Y-59717587D01*
X49951148Y-59715180D01*
X50217958Y-59536903D01*
X50518421Y-59412447D01*
X50624744Y-59391298D01*
X50837389Y-59349000D01*
X51162611Y-59349000D01*
X51375256Y-59391298D01*
X51375256Y-59391298D01*
G37*
G36*
X17375256Y-59391298D02*
X17481579Y-59412447D01*
X17782042Y-59536903D01*
X18048852Y-59715180D01*
X18052454Y-59717587D01*
X18282413Y-59947546D01*
X18463098Y-60217960D01*
X18587553Y-60518422D01*
X18651000Y-60837389D01*
X18651000Y-61162611D01*
X18587553Y-61481578D01*
X18463098Y-61782040D01*
X18282413Y-62052454D01*
X18052454Y-62282413D01*
X18052451Y-62282415D01*
X17782042Y-62463097D01*
X17481579Y-62587553D01*
X17375256Y-62608702D01*
X17162611Y-62651000D01*
X16837389Y-62651000D01*
X16624744Y-62608702D01*
X16518421Y-62587553D01*
X16217958Y-62463097D01*
X15947549Y-62282415D01*
X15947546Y-62282413D01*
X15717587Y-62052454D01*
X15536902Y-61782040D01*
X15412447Y-61481578D01*
X15349000Y-61162611D01*
X15349000Y-60837389D01*
X15412447Y-60518422D01*
X15536902Y-60217960D01*
X15717587Y-59947546D01*
X15947546Y-59717587D01*
X15951148Y-59715180D01*
X16217958Y-59536903D01*
X16518421Y-59412447D01*
X16624744Y-59391298D01*
X16837389Y-59349000D01*
X17162611Y-59349000D01*
X17375256Y-59391298D01*
X17375256Y-59391298D01*
G37*
G36*
X32110442Y-59185518D02*
X32176627Y-59192037D01*
X32289853Y-59226384D01*
X32346467Y-59243557D01*
X32485087Y-59317652D01*
X32502991Y-59327222D01*
X32529527Y-59349000D01*
X32640186Y-59439814D01*
X32719863Y-59536902D01*
X32752778Y-59577009D01*
X32752779Y-59577011D01*
X32836443Y-59733533D01*
X32836443Y-59733534D01*
X32887963Y-59903373D01*
X32905359Y-60080000D01*
X32887963Y-60256627D01*
X32853616Y-60369853D01*
X32836443Y-60426467D01*
X32787292Y-60518421D01*
X32752778Y-60582991D01*
X32723448Y-60618729D01*
X32640186Y-60720186D01*
X32538729Y-60803448D01*
X32502991Y-60832778D01*
X32502989Y-60832779D01*
X32346467Y-60916443D01*
X32289853Y-60933616D01*
X32176627Y-60967963D01*
X32110443Y-60974481D01*
X32044260Y-60981000D01*
X31955740Y-60981000D01*
X31889557Y-60974481D01*
X31823373Y-60967963D01*
X31710147Y-60933616D01*
X31653533Y-60916443D01*
X31497011Y-60832779D01*
X31497009Y-60832778D01*
X31461271Y-60803448D01*
X31359814Y-60720186D01*
X31276552Y-60618729D01*
X31247222Y-60582991D01*
X31212708Y-60518421D01*
X31163557Y-60426467D01*
X31146384Y-60369853D01*
X31112037Y-60256627D01*
X31094641Y-60080000D01*
X31112037Y-59903373D01*
X31163557Y-59733534D01*
X31163557Y-59733533D01*
X31247221Y-59577011D01*
X31247222Y-59577009D01*
X31280137Y-59536902D01*
X31359814Y-59439814D01*
X31470473Y-59349000D01*
X31497009Y-59327222D01*
X31514913Y-59317652D01*
X31653533Y-59243557D01*
X31710147Y-59226384D01*
X31823373Y-59192037D01*
X31889558Y-59185518D01*
X31955740Y-59179000D01*
X32044260Y-59179000D01*
X32110442Y-59185518D01*
X32110442Y-59185518D01*
G37*
G36*
X32110443Y-56645519D02*
X32176627Y-56652037D01*
X32289853Y-56686384D01*
X32346467Y-56703557D01*
X32485087Y-56777652D01*
X32502991Y-56787222D01*
X32538729Y-56816552D01*
X32640186Y-56899814D01*
X32723448Y-57001271D01*
X32752778Y-57037009D01*
X32752779Y-57037011D01*
X32836443Y-57193533D01*
X32836443Y-57193534D01*
X32887963Y-57363373D01*
X32905359Y-57540000D01*
X32887963Y-57716627D01*
X32853616Y-57829853D01*
X32836443Y-57886467D01*
X32762348Y-58025087D01*
X32752778Y-58042991D01*
X32723448Y-58078729D01*
X32640186Y-58180186D01*
X32538729Y-58263448D01*
X32502991Y-58292778D01*
X32502989Y-58292779D01*
X32346467Y-58376443D01*
X32289853Y-58393616D01*
X32176627Y-58427963D01*
X32110443Y-58434481D01*
X32044260Y-58441000D01*
X31955740Y-58441000D01*
X31889557Y-58434481D01*
X31823373Y-58427963D01*
X31710147Y-58393616D01*
X31653533Y-58376443D01*
X31497011Y-58292779D01*
X31497009Y-58292778D01*
X31461271Y-58263448D01*
X31359814Y-58180186D01*
X31276552Y-58078729D01*
X31247222Y-58042991D01*
X31237652Y-58025087D01*
X31163557Y-57886467D01*
X31146384Y-57829853D01*
X31112037Y-57716627D01*
X31094641Y-57540000D01*
X31112037Y-57363373D01*
X31163557Y-57193534D01*
X31163557Y-57193533D01*
X31247221Y-57037011D01*
X31247222Y-57037009D01*
X31276552Y-57001271D01*
X31359814Y-56899814D01*
X31461271Y-56816552D01*
X31497009Y-56787222D01*
X31514913Y-56777652D01*
X31653533Y-56703557D01*
X31710147Y-56686384D01*
X31823373Y-56652037D01*
X31889557Y-56645519D01*
X31955740Y-56639000D01*
X32044260Y-56639000D01*
X32110443Y-56645519D01*
X32110443Y-56645519D01*
G37*
G36*
X51110443Y-54185519D02*
X51176627Y-54192037D01*
X51289853Y-54226384D01*
X51346467Y-54243557D01*
X51485087Y-54317652D01*
X51502991Y-54327222D01*
X51538729Y-54356552D01*
X51640186Y-54439814D01*
X51723448Y-54541271D01*
X51752778Y-54577009D01*
X51752779Y-54577011D01*
X51836443Y-54733533D01*
X51836443Y-54733534D01*
X51887963Y-54903373D01*
X51905359Y-55080000D01*
X51887963Y-55256627D01*
X51853616Y-55369853D01*
X51836443Y-55426467D01*
X51762348Y-55565087D01*
X51752778Y-55582991D01*
X51723448Y-55618729D01*
X51640186Y-55720186D01*
X51538729Y-55803448D01*
X51502991Y-55832778D01*
X51502989Y-55832779D01*
X51346467Y-55916443D01*
X51289853Y-55933616D01*
X51176627Y-55967963D01*
X51110442Y-55974482D01*
X51044260Y-55981000D01*
X50955740Y-55981000D01*
X50889558Y-55974482D01*
X50823373Y-55967963D01*
X50710147Y-55933616D01*
X50653533Y-55916443D01*
X50497011Y-55832779D01*
X50497009Y-55832778D01*
X50461271Y-55803448D01*
X50359814Y-55720186D01*
X50276552Y-55618729D01*
X50247222Y-55582991D01*
X50237652Y-55565087D01*
X50163557Y-55426467D01*
X50146384Y-55369853D01*
X50112037Y-55256627D01*
X50094641Y-55080000D01*
X50112037Y-54903373D01*
X50163557Y-54733534D01*
X50163557Y-54733533D01*
X50247221Y-54577011D01*
X50247222Y-54577009D01*
X50276552Y-54541271D01*
X50359814Y-54439814D01*
X50461271Y-54356552D01*
X50497009Y-54327222D01*
X50514913Y-54317652D01*
X50653533Y-54243557D01*
X50710147Y-54226384D01*
X50823373Y-54192037D01*
X50889557Y-54185519D01*
X50955740Y-54179000D01*
X51044260Y-54179000D01*
X51110443Y-54185519D01*
X51110443Y-54185519D01*
G37*
G36*
X32901000Y-55901000D02*
X31099000Y-55901000D01*
X31099000Y-54099000D01*
X32901000Y-54099000D01*
X32901000Y-55901000D01*
X32901000Y-55901000D01*
G37*
G36*
X51110443Y-51645519D02*
X51176627Y-51652037D01*
X51289853Y-51686384D01*
X51346467Y-51703557D01*
X51485087Y-51777652D01*
X51502991Y-51787222D01*
X51538729Y-51816552D01*
X51640186Y-51899814D01*
X51723448Y-52001271D01*
X51752778Y-52037009D01*
X51752779Y-52037011D01*
X51836443Y-52193533D01*
X51836443Y-52193534D01*
X51887963Y-52363373D01*
X51905359Y-52540000D01*
X51887963Y-52716627D01*
X51853616Y-52829853D01*
X51836443Y-52886467D01*
X51762348Y-53025087D01*
X51752778Y-53042991D01*
X51723448Y-53078729D01*
X51640186Y-53180186D01*
X51538729Y-53263448D01*
X51502991Y-53292778D01*
X51502989Y-53292779D01*
X51346467Y-53376443D01*
X51289853Y-53393616D01*
X51176627Y-53427963D01*
X51110443Y-53434481D01*
X51044260Y-53441000D01*
X50955740Y-53441000D01*
X50889557Y-53434481D01*
X50823373Y-53427963D01*
X50710147Y-53393616D01*
X50653533Y-53376443D01*
X50497011Y-53292779D01*
X50497009Y-53292778D01*
X50461271Y-53263448D01*
X50359814Y-53180186D01*
X50276552Y-53078729D01*
X50247222Y-53042991D01*
X50237652Y-53025087D01*
X50163557Y-52886467D01*
X50146384Y-52829853D01*
X50112037Y-52716627D01*
X50094641Y-52540000D01*
X50112037Y-52363373D01*
X50163557Y-52193534D01*
X50163557Y-52193533D01*
X50247221Y-52037011D01*
X50247222Y-52037009D01*
X50276552Y-52001271D01*
X50359814Y-51899814D01*
X50461271Y-51816552D01*
X50497009Y-51787222D01*
X50514913Y-51777652D01*
X50653533Y-51703557D01*
X50710147Y-51686384D01*
X50823373Y-51652037D01*
X50889557Y-51645519D01*
X50955740Y-51639000D01*
X51044260Y-51639000D01*
X51110443Y-51645519D01*
X51110443Y-51645519D01*
G37*
G36*
X51901000Y-50901000D02*
X50099000Y-50901000D01*
X50099000Y-49099000D01*
X51901000Y-49099000D01*
X51901000Y-50901000D01*
X51901000Y-50901000D01*
G37*
G36*
X17901000Y-49901000D02*
X16099000Y-49901000D01*
X16099000Y-48099000D01*
X17901000Y-48099000D01*
X17901000Y-49901000D01*
X17901000Y-49901000D01*
G37*
G36*
X17110443Y-45565519D02*
X17176627Y-45572037D01*
X17289853Y-45606384D01*
X17346467Y-45623557D01*
X17485087Y-45697652D01*
X17502991Y-45707222D01*
X17538729Y-45736552D01*
X17640186Y-45819814D01*
X17723448Y-45921271D01*
X17752778Y-45957009D01*
X17752779Y-45957011D01*
X17836443Y-46113533D01*
X17836443Y-46113534D01*
X17887963Y-46283373D01*
X17905359Y-46460000D01*
X17887963Y-46636627D01*
X17853616Y-46749853D01*
X17836443Y-46806467D01*
X17762348Y-46945087D01*
X17752778Y-46962991D01*
X17723448Y-46998729D01*
X17640186Y-47100186D01*
X17538729Y-47183448D01*
X17502991Y-47212778D01*
X17502989Y-47212779D01*
X17346467Y-47296443D01*
X17289853Y-47313616D01*
X17176627Y-47347963D01*
X17110442Y-47354482D01*
X17044260Y-47361000D01*
X16955740Y-47361000D01*
X16889558Y-47354482D01*
X16823373Y-47347963D01*
X16710147Y-47313616D01*
X16653533Y-47296443D01*
X16497011Y-47212779D01*
X16497009Y-47212778D01*
X16461271Y-47183448D01*
X16359814Y-47100186D01*
X16276552Y-46998729D01*
X16247222Y-46962991D01*
X16237652Y-46945087D01*
X16163557Y-46806467D01*
X16146384Y-46749853D01*
X16112037Y-46636627D01*
X16094641Y-46460000D01*
X16112037Y-46283373D01*
X16163557Y-46113534D01*
X16163557Y-46113533D01*
X16247221Y-45957011D01*
X16247222Y-45957009D01*
X16276552Y-45921271D01*
X16359814Y-45819814D01*
X16461271Y-45736552D01*
X16497009Y-45707222D01*
X16514913Y-45697652D01*
X16653533Y-45623557D01*
X16710147Y-45606384D01*
X16823373Y-45572037D01*
X16889557Y-45565519D01*
X16955740Y-45559000D01*
X17044260Y-45559000D01*
X17110443Y-45565519D01*
X17110443Y-45565519D01*
G37*
G36*
X30851000Y-44851000D02*
X29149000Y-44851000D01*
X29149000Y-43149000D01*
X30851000Y-43149000D01*
X30851000Y-44851000D01*
X30851000Y-44851000D01*
G37*
G36*
X30248228Y-40681703D02*
X30403100Y-40745853D01*
X30542481Y-40838985D01*
X30661015Y-40957519D01*
X30754147Y-41096900D01*
X30818297Y-41251772D01*
X30851000Y-41416184D01*
X30851000Y-41583816D01*
X30818297Y-41748228D01*
X30754147Y-41903100D01*
X30661015Y-42042481D01*
X30542481Y-42161015D01*
X30403100Y-42254147D01*
X30248228Y-42318297D01*
X30083816Y-42351000D01*
X29916184Y-42351000D01*
X29751772Y-42318297D01*
X29596900Y-42254147D01*
X29457519Y-42161015D01*
X29338985Y-42042481D01*
X29245853Y-41903100D01*
X29181703Y-41748228D01*
X29149000Y-41583816D01*
X29149000Y-41416184D01*
X29181703Y-41251772D01*
X29245853Y-41096900D01*
X29338985Y-40957519D01*
X29457519Y-40838985D01*
X29596900Y-40745853D01*
X29751772Y-40681703D01*
X29916184Y-40649000D01*
X30083816Y-40649000D01*
X30248228Y-40681703D01*
X30248228Y-40681703D01*
G37*
G36*
X23190443Y-37105519D02*
X23256627Y-37112037D01*
X23369853Y-37146384D01*
X23426467Y-37163557D01*
X23565087Y-37237652D01*
X23582991Y-37247222D01*
X23618729Y-37276552D01*
X23720186Y-37359814D01*
X23803448Y-37461271D01*
X23832778Y-37497009D01*
X23832779Y-37497011D01*
X23916443Y-37653533D01*
X23916443Y-37653534D01*
X23967963Y-37823373D01*
X23985359Y-38000000D01*
X23967963Y-38176627D01*
X23933616Y-38289853D01*
X23916443Y-38346467D01*
X23842348Y-38485087D01*
X23832778Y-38502991D01*
X23803448Y-38538729D01*
X23720186Y-38640186D01*
X23618729Y-38723448D01*
X23582991Y-38752778D01*
X23582989Y-38752779D01*
X23426467Y-38836443D01*
X23369853Y-38853616D01*
X23256627Y-38887963D01*
X23190443Y-38894481D01*
X23124260Y-38901000D01*
X23035740Y-38901000D01*
X22969557Y-38894481D01*
X22903373Y-38887963D01*
X22790147Y-38853616D01*
X22733533Y-38836443D01*
X22577011Y-38752779D01*
X22577009Y-38752778D01*
X22541271Y-38723448D01*
X22439814Y-38640186D01*
X22356552Y-38538729D01*
X22327222Y-38502991D01*
X22317652Y-38485087D01*
X22243557Y-38346467D01*
X22226384Y-38289853D01*
X22192037Y-38176627D01*
X22174641Y-38000000D01*
X22192037Y-37823373D01*
X22243557Y-37653534D01*
X22243557Y-37653533D01*
X22327221Y-37497011D01*
X22327222Y-37497009D01*
X22356552Y-37461271D01*
X22439814Y-37359814D01*
X22541271Y-37276552D01*
X22577009Y-37247222D01*
X22594913Y-37237652D01*
X22733533Y-37163557D01*
X22790147Y-37146384D01*
X22903373Y-37112037D01*
X22969557Y-37105519D01*
X23035740Y-37099000D01*
X23124260Y-37099000D01*
X23190443Y-37105519D01*
X23190443Y-37105519D01*
G37*
G36*
X20650443Y-37105519D02*
X20716627Y-37112037D01*
X20829853Y-37146384D01*
X20886467Y-37163557D01*
X21025087Y-37237652D01*
X21042991Y-37247222D01*
X21078729Y-37276552D01*
X21180186Y-37359814D01*
X21263448Y-37461271D01*
X21292778Y-37497009D01*
X21292779Y-37497011D01*
X21376443Y-37653533D01*
X21376443Y-37653534D01*
X21427963Y-37823373D01*
X21445359Y-38000000D01*
X21427963Y-38176627D01*
X21393616Y-38289853D01*
X21376443Y-38346467D01*
X21302348Y-38485087D01*
X21292778Y-38502991D01*
X21263448Y-38538729D01*
X21180186Y-38640186D01*
X21078729Y-38723448D01*
X21042991Y-38752778D01*
X21042989Y-38752779D01*
X20886467Y-38836443D01*
X20829853Y-38853616D01*
X20716627Y-38887963D01*
X20650443Y-38894481D01*
X20584260Y-38901000D01*
X20495740Y-38901000D01*
X20429557Y-38894481D01*
X20363373Y-38887963D01*
X20250147Y-38853616D01*
X20193533Y-38836443D01*
X20037011Y-38752779D01*
X20037009Y-38752778D01*
X20001271Y-38723448D01*
X19899814Y-38640186D01*
X19816552Y-38538729D01*
X19787222Y-38502991D01*
X19777652Y-38485087D01*
X19703557Y-38346467D01*
X19686384Y-38289853D01*
X19652037Y-38176627D01*
X19634641Y-38000000D01*
X19652037Y-37823373D01*
X19703557Y-37653534D01*
X19703557Y-37653533D01*
X19787221Y-37497011D01*
X19787222Y-37497009D01*
X19816552Y-37461271D01*
X19899814Y-37359814D01*
X20001271Y-37276552D01*
X20037009Y-37247222D01*
X20054913Y-37237652D01*
X20193533Y-37163557D01*
X20250147Y-37146384D01*
X20363373Y-37112037D01*
X20429557Y-37105519D01*
X20495740Y-37099000D01*
X20584260Y-37099000D01*
X20650443Y-37105519D01*
X20650443Y-37105519D01*
G37*
G36*
X18901000Y-38901000D02*
X17099000Y-38901000D01*
X17099000Y-37099000D01*
X18901000Y-37099000D01*
X18901000Y-38901000D01*
X18901000Y-38901000D01*
G37*
G36*
X24851000Y-30851000D02*
X23149000Y-30851000D01*
X23149000Y-29149000D01*
X24851000Y-29149000D01*
X24851000Y-30851000D01*
X24851000Y-30851000D01*
G37*
G36*
X17375256Y-27391298D02*
X17481579Y-27412447D01*
X17782042Y-27536903D01*
X17852252Y-27583816D01*
X18052454Y-27717587D01*
X18282413Y-27947546D01*
X18463098Y-28217960D01*
X18587553Y-28518422D01*
X18651000Y-28837389D01*
X18651000Y-29162611D01*
X18587553Y-29481578D01*
X18463098Y-29782040D01*
X18282413Y-30052454D01*
X18052454Y-30282413D01*
X18052451Y-30282415D01*
X17782042Y-30463097D01*
X17481579Y-30587553D01*
X17375256Y-30608702D01*
X17162611Y-30651000D01*
X16837389Y-30651000D01*
X16624744Y-30608702D01*
X16518421Y-30587553D01*
X16217958Y-30463097D01*
X15947549Y-30282415D01*
X15947546Y-30282413D01*
X15717587Y-30052454D01*
X15536902Y-29782040D01*
X15412447Y-29481578D01*
X15349000Y-29162611D01*
X15349000Y-28837389D01*
X15412447Y-28518422D01*
X15536902Y-28217960D01*
X15717587Y-27947546D01*
X15947546Y-27717587D01*
X16147748Y-27583816D01*
X16217958Y-27536903D01*
X16518421Y-27412447D01*
X16624744Y-27391298D01*
X16837389Y-27349000D01*
X17162611Y-27349000D01*
X17375256Y-27391298D01*
X17375256Y-27391298D01*
G37*
G36*
X51375256Y-27391298D02*
X51481579Y-27412447D01*
X51782042Y-27536903D01*
X51852252Y-27583816D01*
X52052454Y-27717587D01*
X52282413Y-27947546D01*
X52463098Y-28217960D01*
X52587553Y-28518422D01*
X52651000Y-28837389D01*
X52651000Y-29162611D01*
X52587553Y-29481578D01*
X52463098Y-29782040D01*
X52282413Y-30052454D01*
X52052454Y-30282413D01*
X52052451Y-30282415D01*
X51782042Y-30463097D01*
X51481579Y-30587553D01*
X51375256Y-30608702D01*
X51162611Y-30651000D01*
X50837389Y-30651000D01*
X50624744Y-30608702D01*
X50518421Y-30587553D01*
X50217958Y-30463097D01*
X49947549Y-30282415D01*
X49947546Y-30282413D01*
X49717587Y-30052454D01*
X49536902Y-29782040D01*
X49412447Y-29481578D01*
X49349000Y-29162611D01*
X49349000Y-28837389D01*
X49412447Y-28518422D01*
X49536902Y-28217960D01*
X49717587Y-27947546D01*
X49947546Y-27717587D01*
X50147748Y-27583816D01*
X50217958Y-27536903D01*
X50518421Y-27412447D01*
X50624744Y-27391298D01*
X50837389Y-27349000D01*
X51162611Y-27349000D01*
X51375256Y-27391298D01*
X51375256Y-27391298D01*
G37*
G36*
X24248228Y-26681703D02*
X24403100Y-26745853D01*
X24542481Y-26838985D01*
X24661015Y-26957519D01*
X24754147Y-27096900D01*
X24818297Y-27251772D01*
X24851000Y-27416184D01*
X24851000Y-27583816D01*
X24818297Y-27748228D01*
X24754147Y-27903100D01*
X24661015Y-28042481D01*
X24542481Y-28161015D01*
X24403100Y-28254147D01*
X24248228Y-28318297D01*
X24083816Y-28351000D01*
X23916184Y-28351000D01*
X23751772Y-28318297D01*
X23596900Y-28254147D01*
X23457519Y-28161015D01*
X23338985Y-28042481D01*
X23245853Y-27903100D01*
X23181703Y-27748228D01*
X23149000Y-27583816D01*
X23149000Y-27416184D01*
X23181703Y-27251772D01*
X23245853Y-27096900D01*
X23338985Y-26957519D01*
X23457519Y-26838985D01*
X23596900Y-26745853D01*
X23751772Y-26681703D01*
X23916184Y-26649000D01*
X24083816Y-26649000D01*
X24248228Y-26681703D01*
X24248228Y-26681703D01*
G37*
M02*
