G04 #@! TF.GenerationSoftware,KiCad,Pcbnew,(5.0.1)-4*
G04 #@! TF.CreationDate,2021-12-12T21:25:55+02:00*
G04 #@! TF.ProjectId,MagicLightsPCBNeo,4D616769634C69676874735043424E65,rev?*
G04 #@! TF.SameCoordinates,Original*
G04 #@! TF.FileFunction,Soldermask,Top*
G04 #@! TF.FilePolarity,Negative*
%FSLAX46Y46*%
G04 Gerber Fmt 4.6, Leading zero omitted, Abs format (unit mm)*
G04 Created by KiCad (PCBNEW (5.0.1)-4) date 2021-12-12 21:25:55*
%MOMM*%
%LPD*%
G01*
G04 APERTURE LIST*
%ADD10C,0.100000*%
G04 APERTURE END LIST*
D10*
G36*
X51375256Y-59391298D02*
X51481579Y-59412447D01*
X51782042Y-59536903D01*
X52048852Y-59715180D01*
X52052454Y-59717587D01*
X52282413Y-59947546D01*
X52463098Y-60217960D01*
X52587553Y-60518422D01*
X52651000Y-60837389D01*
X52651000Y-61162611D01*
X52587553Y-61481578D01*
X52463098Y-61782040D01*
X52282413Y-62052454D01*
X52052454Y-62282413D01*
X52052451Y-62282415D01*
X51782042Y-62463097D01*
X51481579Y-62587553D01*
X51375256Y-62608702D01*
X51162611Y-62651000D01*
X50837389Y-62651000D01*
X50624744Y-62608702D01*
X50518421Y-62587553D01*
X50217958Y-62463097D01*
X49947549Y-62282415D01*
X49947546Y-62282413D01*
X49717587Y-62052454D01*
X49536902Y-61782040D01*
X49412447Y-61481578D01*
X49349000Y-61162611D01*
X49349000Y-60837389D01*
X49412447Y-60518422D01*
X49536902Y-60217960D01*
X49717587Y-59947546D01*
X49947546Y-59717587D01*
X49951148Y-59715180D01*
X50217958Y-59536903D01*
X50518421Y-59412447D01*
X50624744Y-59391298D01*
X50837389Y-59349000D01*
X51162611Y-59349000D01*
X51375256Y-59391298D01*
X51375256Y-59391298D01*
G37*
G36*
X17375256Y-59391298D02*
X17481579Y-59412447D01*
X17782042Y-59536903D01*
X18048852Y-59715180D01*
X18052454Y-59717587D01*
X18282413Y-59947546D01*
X18463098Y-60217960D01*
X18587553Y-60518422D01*
X18651000Y-60837389D01*
X18651000Y-61162611D01*
X18587553Y-61481578D01*
X18463098Y-61782040D01*
X18282413Y-62052454D01*
X18052454Y-62282413D01*
X18052451Y-62282415D01*
X17782042Y-62463097D01*
X17481579Y-62587553D01*
X17375256Y-62608702D01*
X17162611Y-62651000D01*
X16837389Y-62651000D01*
X16624744Y-62608702D01*
X16518421Y-62587553D01*
X16217958Y-62463097D01*
X15947549Y-62282415D01*
X15947546Y-62282413D01*
X15717587Y-62052454D01*
X15536902Y-61782040D01*
X15412447Y-61481578D01*
X15349000Y-61162611D01*
X15349000Y-60837389D01*
X15412447Y-60518422D01*
X15536902Y-60217960D01*
X15717587Y-59947546D01*
X15947546Y-59717587D01*
X15951148Y-59715180D01*
X16217958Y-59536903D01*
X16518421Y-59412447D01*
X16624744Y-59391298D01*
X16837389Y-59349000D01*
X17162611Y-59349000D01*
X17375256Y-59391298D01*
X17375256Y-59391298D01*
G37*
G36*
X26951000Y-61301000D02*
X25049000Y-61301000D01*
X25049000Y-57699000D01*
X26951000Y-57699000D01*
X26951000Y-61301000D01*
X26951000Y-61301000D01*
G37*
G36*
X39951000Y-61301000D02*
X38049000Y-61301000D01*
X38049000Y-57699000D01*
X39951000Y-57699000D01*
X39951000Y-61301000D01*
X39951000Y-61301000D01*
G37*
G36*
X32110442Y-59185518D02*
X32176627Y-59192037D01*
X32289853Y-59226384D01*
X32346467Y-59243557D01*
X32485087Y-59317652D01*
X32502991Y-59327222D01*
X32529527Y-59349000D01*
X32640186Y-59439814D01*
X32719863Y-59536902D01*
X32752778Y-59577009D01*
X32752779Y-59577011D01*
X32836443Y-59733533D01*
X32836443Y-59733534D01*
X32887963Y-59903373D01*
X32905359Y-60080000D01*
X32887963Y-60256627D01*
X32853616Y-60369853D01*
X32836443Y-60426467D01*
X32787292Y-60518421D01*
X32752778Y-60582991D01*
X32723448Y-60618729D01*
X32640186Y-60720186D01*
X32538729Y-60803448D01*
X32502991Y-60832778D01*
X32502989Y-60832779D01*
X32346467Y-60916443D01*
X32289853Y-60933616D01*
X32176627Y-60967963D01*
X32110443Y-60974481D01*
X32044260Y-60981000D01*
X31955740Y-60981000D01*
X31889557Y-60974481D01*
X31823373Y-60967963D01*
X31710147Y-60933616D01*
X31653533Y-60916443D01*
X31497011Y-60832779D01*
X31497009Y-60832778D01*
X31461271Y-60803448D01*
X31359814Y-60720186D01*
X31276552Y-60618729D01*
X31247222Y-60582991D01*
X31212708Y-60518421D01*
X31163557Y-60426467D01*
X31146384Y-60369853D01*
X31112037Y-60256627D01*
X31094641Y-60080000D01*
X31112037Y-59903373D01*
X31163557Y-59733534D01*
X31163557Y-59733533D01*
X31247221Y-59577011D01*
X31247222Y-59577009D01*
X31280137Y-59536902D01*
X31359814Y-59439814D01*
X31470473Y-59349000D01*
X31497009Y-59327222D01*
X31514913Y-59317652D01*
X31653533Y-59243557D01*
X31710147Y-59226384D01*
X31823373Y-59192037D01*
X31889558Y-59185518D01*
X31955740Y-59179000D01*
X32044260Y-59179000D01*
X32110442Y-59185518D01*
X32110442Y-59185518D01*
G37*
G36*
X46775562Y-57728181D02*
X46810477Y-57738773D01*
X46842665Y-57755978D01*
X46870873Y-57779127D01*
X46894022Y-57807335D01*
X46911227Y-57839523D01*
X46921819Y-57874438D01*
X46926000Y-57916895D01*
X46926000Y-59058105D01*
X46921819Y-59100562D01*
X46911227Y-59135477D01*
X46894022Y-59167665D01*
X46870873Y-59195873D01*
X46842665Y-59219022D01*
X46810477Y-59236227D01*
X46775562Y-59246819D01*
X46733105Y-59251000D01*
X45266895Y-59251000D01*
X45224438Y-59246819D01*
X45189523Y-59236227D01*
X45157335Y-59219022D01*
X45129127Y-59195873D01*
X45105978Y-59167665D01*
X45088773Y-59135477D01*
X45078181Y-59100562D01*
X45074000Y-59058105D01*
X45074000Y-57916895D01*
X45078181Y-57874438D01*
X45088773Y-57839523D01*
X45105978Y-57807335D01*
X45129127Y-57779127D01*
X45157335Y-57755978D01*
X45189523Y-57738773D01*
X45224438Y-57728181D01*
X45266895Y-57724000D01*
X46733105Y-57724000D01*
X46775562Y-57728181D01*
X46775562Y-57728181D01*
G37*
G36*
X32110443Y-56645519D02*
X32176627Y-56652037D01*
X32289853Y-56686384D01*
X32346467Y-56703557D01*
X32485087Y-56777652D01*
X32502991Y-56787222D01*
X32538729Y-56816552D01*
X32640186Y-56899814D01*
X32723448Y-57001271D01*
X32752778Y-57037009D01*
X32752779Y-57037011D01*
X32836443Y-57193533D01*
X32836443Y-57193534D01*
X32887963Y-57363373D01*
X32905359Y-57540000D01*
X32887963Y-57716627D01*
X32876026Y-57755978D01*
X32836443Y-57886467D01*
X32780090Y-57991895D01*
X32752778Y-58042991D01*
X32723448Y-58078729D01*
X32640186Y-58180186D01*
X32538729Y-58263448D01*
X32502991Y-58292778D01*
X32502989Y-58292779D01*
X32346467Y-58376443D01*
X32289853Y-58393616D01*
X32176627Y-58427963D01*
X32110443Y-58434481D01*
X32044260Y-58441000D01*
X31955740Y-58441000D01*
X31889557Y-58434481D01*
X31823373Y-58427963D01*
X31710147Y-58393616D01*
X31653533Y-58376443D01*
X31497011Y-58292779D01*
X31497009Y-58292778D01*
X31461271Y-58263448D01*
X31359814Y-58180186D01*
X31276552Y-58078729D01*
X31247222Y-58042991D01*
X31219910Y-57991895D01*
X31163557Y-57886467D01*
X31123974Y-57755978D01*
X31112037Y-57716627D01*
X31094641Y-57540000D01*
X31112037Y-57363373D01*
X31163557Y-57193534D01*
X31163557Y-57193533D01*
X31247221Y-57037011D01*
X31247222Y-57037009D01*
X31276552Y-57001271D01*
X31359814Y-56899814D01*
X31461271Y-56816552D01*
X31497009Y-56787222D01*
X31514913Y-56777652D01*
X31653533Y-56703557D01*
X31710147Y-56686384D01*
X31823373Y-56652037D01*
X31889557Y-56645519D01*
X31955740Y-56639000D01*
X32044260Y-56639000D01*
X32110443Y-56645519D01*
X32110443Y-56645519D01*
G37*
G36*
X22364499Y-55303445D02*
X22401993Y-55314819D01*
X22436557Y-55333294D01*
X22466847Y-55358153D01*
X22491706Y-55388443D01*
X22510181Y-55423007D01*
X22521555Y-55460501D01*
X22526000Y-55505638D01*
X22526000Y-56244362D01*
X22521555Y-56289499D01*
X22510181Y-56326993D01*
X22491706Y-56361557D01*
X22466847Y-56391847D01*
X22436557Y-56416706D01*
X22401993Y-56435181D01*
X22364499Y-56446555D01*
X22319362Y-56451000D01*
X21680638Y-56451000D01*
X21635501Y-56446555D01*
X21598007Y-56435181D01*
X21563443Y-56416706D01*
X21533153Y-56391847D01*
X21508294Y-56361557D01*
X21489819Y-56326993D01*
X21478445Y-56289499D01*
X21474000Y-56244362D01*
X21474000Y-55505638D01*
X21478445Y-55460501D01*
X21489819Y-55423007D01*
X21508294Y-55388443D01*
X21533153Y-55358153D01*
X21563443Y-55333294D01*
X21598007Y-55314819D01*
X21635501Y-55303445D01*
X21680638Y-55299000D01*
X22319362Y-55299000D01*
X22364499Y-55303445D01*
X22364499Y-55303445D01*
G37*
G36*
X39951000Y-56301000D02*
X38049000Y-56301000D01*
X38049000Y-52699000D01*
X39951000Y-52699000D01*
X39951000Y-56301000D01*
X39951000Y-56301000D01*
G37*
G36*
X26951000Y-56301000D02*
X25049000Y-56301000D01*
X25049000Y-52699000D01*
X26951000Y-52699000D01*
X26951000Y-56301000D01*
X26951000Y-56301000D01*
G37*
G36*
X46775562Y-54753181D02*
X46810477Y-54763773D01*
X46842665Y-54780978D01*
X46870873Y-54804127D01*
X46894022Y-54832335D01*
X46911227Y-54864523D01*
X46921819Y-54899438D01*
X46926000Y-54941895D01*
X46926000Y-56083105D01*
X46921819Y-56125562D01*
X46911227Y-56160477D01*
X46894022Y-56192665D01*
X46870873Y-56220873D01*
X46842665Y-56244022D01*
X46810477Y-56261227D01*
X46775562Y-56271819D01*
X46733105Y-56276000D01*
X45266895Y-56276000D01*
X45224438Y-56271819D01*
X45189523Y-56261227D01*
X45157335Y-56244022D01*
X45129127Y-56220873D01*
X45105978Y-56192665D01*
X45088773Y-56160477D01*
X45078181Y-56125562D01*
X45074000Y-56083105D01*
X45074000Y-54941895D01*
X45078181Y-54899438D01*
X45088773Y-54864523D01*
X45105978Y-54832335D01*
X45129127Y-54804127D01*
X45157335Y-54780978D01*
X45189523Y-54763773D01*
X45224438Y-54753181D01*
X45266895Y-54749000D01*
X46733105Y-54749000D01*
X46775562Y-54753181D01*
X46775562Y-54753181D01*
G37*
G36*
X51110443Y-54185519D02*
X51176627Y-54192037D01*
X51289853Y-54226384D01*
X51346467Y-54243557D01*
X51485087Y-54317652D01*
X51502991Y-54327222D01*
X51538729Y-54356552D01*
X51640186Y-54439814D01*
X51721294Y-54538646D01*
X51752778Y-54577009D01*
X51752779Y-54577011D01*
X51836443Y-54733533D01*
X51836443Y-54733534D01*
X51887963Y-54903373D01*
X51905359Y-55080000D01*
X51887963Y-55256627D01*
X51869036Y-55319020D01*
X51836443Y-55426467D01*
X51763998Y-55562000D01*
X51752778Y-55582991D01*
X51723448Y-55618729D01*
X51640186Y-55720186D01*
X51538729Y-55803448D01*
X51502991Y-55832778D01*
X51502989Y-55832779D01*
X51346467Y-55916443D01*
X51289853Y-55933616D01*
X51176627Y-55967963D01*
X51110442Y-55974482D01*
X51044260Y-55981000D01*
X50955740Y-55981000D01*
X50889558Y-55974482D01*
X50823373Y-55967963D01*
X50710147Y-55933616D01*
X50653533Y-55916443D01*
X50497011Y-55832779D01*
X50497009Y-55832778D01*
X50461271Y-55803448D01*
X50359814Y-55720186D01*
X50276552Y-55618729D01*
X50247222Y-55582991D01*
X50236002Y-55562000D01*
X50163557Y-55426467D01*
X50130964Y-55319020D01*
X50112037Y-55256627D01*
X50094641Y-55080000D01*
X50112037Y-54903373D01*
X50163557Y-54733534D01*
X50163557Y-54733533D01*
X50247221Y-54577011D01*
X50247222Y-54577009D01*
X50278706Y-54538646D01*
X50359814Y-54439814D01*
X50461271Y-54356552D01*
X50497009Y-54327222D01*
X50514913Y-54317652D01*
X50653533Y-54243557D01*
X50710147Y-54226384D01*
X50823373Y-54192037D01*
X50889557Y-54185519D01*
X50955740Y-54179000D01*
X51044260Y-54179000D01*
X51110443Y-54185519D01*
X51110443Y-54185519D01*
G37*
G36*
X32901000Y-55901000D02*
X31099000Y-55901000D01*
X31099000Y-54099000D01*
X32901000Y-54099000D01*
X32901000Y-55901000D01*
X32901000Y-55901000D01*
G37*
G36*
X22364499Y-53553445D02*
X22401993Y-53564819D01*
X22436557Y-53583294D01*
X22466847Y-53608153D01*
X22491706Y-53638443D01*
X22510181Y-53673007D01*
X22521555Y-53710501D01*
X22526000Y-53755638D01*
X22526000Y-54494362D01*
X22521555Y-54539499D01*
X22510181Y-54576993D01*
X22491706Y-54611557D01*
X22466847Y-54641847D01*
X22436557Y-54666706D01*
X22401993Y-54685181D01*
X22364499Y-54696555D01*
X22319362Y-54701000D01*
X21680638Y-54701000D01*
X21635501Y-54696555D01*
X21598007Y-54685181D01*
X21563443Y-54666706D01*
X21533153Y-54641847D01*
X21508294Y-54611557D01*
X21489819Y-54576993D01*
X21478445Y-54539499D01*
X21474000Y-54494362D01*
X21474000Y-53755638D01*
X21478445Y-53710501D01*
X21489819Y-53673007D01*
X21508294Y-53638443D01*
X21533153Y-53608153D01*
X21563443Y-53583294D01*
X21598007Y-53564819D01*
X21635501Y-53553445D01*
X21680638Y-53549000D01*
X22319362Y-53549000D01*
X22364499Y-53553445D01*
X22364499Y-53553445D01*
G37*
G36*
X51110443Y-51645519D02*
X51176627Y-51652037D01*
X51289853Y-51686384D01*
X51346467Y-51703557D01*
X51485087Y-51777652D01*
X51502991Y-51787222D01*
X51538729Y-51816552D01*
X51640186Y-51899814D01*
X51723448Y-52001271D01*
X51752778Y-52037009D01*
X51752779Y-52037011D01*
X51836443Y-52193533D01*
X51853616Y-52250147D01*
X51887963Y-52363373D01*
X51905359Y-52540000D01*
X51887963Y-52716627D01*
X51853616Y-52829853D01*
X51836443Y-52886467D01*
X51762348Y-53025087D01*
X51752778Y-53042991D01*
X51723448Y-53078729D01*
X51640186Y-53180186D01*
X51538729Y-53263448D01*
X51502991Y-53292778D01*
X51502989Y-53292779D01*
X51346467Y-53376443D01*
X51289853Y-53393616D01*
X51176627Y-53427963D01*
X51110443Y-53434481D01*
X51044260Y-53441000D01*
X50955740Y-53441000D01*
X50889557Y-53434481D01*
X50823373Y-53427963D01*
X50710147Y-53393616D01*
X50653533Y-53376443D01*
X50497011Y-53292779D01*
X50497009Y-53292778D01*
X50461271Y-53263448D01*
X50359814Y-53180186D01*
X50276552Y-53078729D01*
X50247222Y-53042991D01*
X50237652Y-53025087D01*
X50163557Y-52886467D01*
X50146384Y-52829853D01*
X50112037Y-52716627D01*
X50094641Y-52540000D01*
X50112037Y-52363373D01*
X50146384Y-52250147D01*
X50163557Y-52193533D01*
X50247221Y-52037011D01*
X50247222Y-52037009D01*
X50276552Y-52001271D01*
X50359814Y-51899814D01*
X50461271Y-51816552D01*
X50497009Y-51787222D01*
X50514913Y-51777652D01*
X50653533Y-51703557D01*
X50710147Y-51686384D01*
X50823373Y-51652037D01*
X50889557Y-51645519D01*
X50955740Y-51639000D01*
X51044260Y-51639000D01*
X51110443Y-51645519D01*
X51110443Y-51645519D01*
G37*
G36*
X46364499Y-51303445D02*
X46401993Y-51314819D01*
X46436557Y-51333294D01*
X46466847Y-51358153D01*
X46491706Y-51388443D01*
X46510181Y-51423007D01*
X46521555Y-51460501D01*
X46526000Y-51505638D01*
X46526000Y-52244362D01*
X46521555Y-52289499D01*
X46510181Y-52326993D01*
X46491706Y-52361557D01*
X46466847Y-52391847D01*
X46436557Y-52416706D01*
X46401993Y-52435181D01*
X46364499Y-52446555D01*
X46319362Y-52451000D01*
X45680638Y-52451000D01*
X45635501Y-52446555D01*
X45598007Y-52435181D01*
X45563443Y-52416706D01*
X45533153Y-52391847D01*
X45508294Y-52361557D01*
X45489819Y-52326993D01*
X45478445Y-52289499D01*
X45474000Y-52244362D01*
X45474000Y-51505638D01*
X45478445Y-51460501D01*
X45489819Y-51423007D01*
X45508294Y-51388443D01*
X45533153Y-51358153D01*
X45563443Y-51333294D01*
X45598007Y-51314819D01*
X45635501Y-51303445D01*
X45680638Y-51299000D01*
X46319362Y-51299000D01*
X46364499Y-51303445D01*
X46364499Y-51303445D01*
G37*
G36*
X51901000Y-50901000D02*
X50099000Y-50901000D01*
X50099000Y-49099000D01*
X51901000Y-49099000D01*
X51901000Y-50901000D01*
X51901000Y-50901000D01*
G37*
G36*
X46364499Y-49553445D02*
X46401993Y-49564819D01*
X46436557Y-49583294D01*
X46466847Y-49608153D01*
X46491706Y-49638443D01*
X46510181Y-49673007D01*
X46521555Y-49710501D01*
X46526000Y-49755638D01*
X46526000Y-50494362D01*
X46521555Y-50539499D01*
X46510181Y-50576993D01*
X46491706Y-50611557D01*
X46466847Y-50641847D01*
X46436557Y-50666706D01*
X46401993Y-50685181D01*
X46364499Y-50696555D01*
X46319362Y-50701000D01*
X45680638Y-50701000D01*
X45635501Y-50696555D01*
X45598007Y-50685181D01*
X45563443Y-50666706D01*
X45533153Y-50641847D01*
X45508294Y-50611557D01*
X45489819Y-50576993D01*
X45478445Y-50539499D01*
X45474000Y-50494362D01*
X45474000Y-49755638D01*
X45478445Y-49710501D01*
X45489819Y-49673007D01*
X45508294Y-49638443D01*
X45533153Y-49608153D01*
X45563443Y-49583294D01*
X45598007Y-49564819D01*
X45635501Y-49553445D01*
X45680638Y-49549000D01*
X46319362Y-49549000D01*
X46364499Y-49553445D01*
X46364499Y-49553445D01*
G37*
G36*
X35451000Y-50501000D02*
X34549000Y-50501000D01*
X34549000Y-49499000D01*
X35451000Y-49499000D01*
X35451000Y-50501000D01*
X35451000Y-50501000D01*
G37*
G36*
X31301000Y-49951000D02*
X27699000Y-49951000D01*
X27699000Y-48049000D01*
X31301000Y-48049000D01*
X31301000Y-49951000D01*
X31301000Y-49951000D01*
G37*
G36*
X26301000Y-49951000D02*
X22699000Y-49951000D01*
X22699000Y-48049000D01*
X26301000Y-48049000D01*
X26301000Y-49951000D01*
X26301000Y-49951000D01*
G37*
G36*
X17901000Y-49901000D02*
X16099000Y-49901000D01*
X16099000Y-48099000D01*
X17901000Y-48099000D01*
X17901000Y-49901000D01*
X17901000Y-49901000D01*
G37*
G36*
X36401000Y-48501000D02*
X35499000Y-48501000D01*
X35499000Y-47499000D01*
X36401000Y-47499000D01*
X36401000Y-48501000D01*
X36401000Y-48501000D01*
G37*
G36*
X34501000Y-48501000D02*
X33599000Y-48501000D01*
X33599000Y-47499000D01*
X34501000Y-47499000D01*
X34501000Y-48501000D01*
X34501000Y-48501000D01*
G37*
G36*
X40364499Y-47303445D02*
X40401993Y-47314819D01*
X40436557Y-47333294D01*
X40466847Y-47358153D01*
X40491706Y-47388443D01*
X40510181Y-47423007D01*
X40521555Y-47460501D01*
X40526000Y-47505638D01*
X40526000Y-48244362D01*
X40521555Y-48289499D01*
X40510181Y-48326993D01*
X40491706Y-48361557D01*
X40466847Y-48391847D01*
X40436557Y-48416706D01*
X40401993Y-48435181D01*
X40364499Y-48446555D01*
X40319362Y-48451000D01*
X39680638Y-48451000D01*
X39635501Y-48446555D01*
X39598007Y-48435181D01*
X39563443Y-48416706D01*
X39533153Y-48391847D01*
X39508294Y-48361557D01*
X39489819Y-48326993D01*
X39478445Y-48289499D01*
X39474000Y-48244362D01*
X39474000Y-47505638D01*
X39478445Y-47460501D01*
X39489819Y-47423007D01*
X39508294Y-47388443D01*
X39533153Y-47358153D01*
X39563443Y-47333294D01*
X39598007Y-47314819D01*
X39635501Y-47303445D01*
X39680638Y-47299000D01*
X40319362Y-47299000D01*
X40364499Y-47303445D01*
X40364499Y-47303445D01*
G37*
G36*
X17103340Y-45564819D02*
X17176627Y-45572037D01*
X17289853Y-45606384D01*
X17346467Y-45623557D01*
X17374316Y-45638443D01*
X17502991Y-45707222D01*
X17538729Y-45736552D01*
X17640186Y-45819814D01*
X17723448Y-45921271D01*
X17752778Y-45957009D01*
X17752779Y-45957011D01*
X17836443Y-46113533D01*
X17836443Y-46113534D01*
X17887963Y-46283373D01*
X17905359Y-46460000D01*
X17887963Y-46636627D01*
X17853616Y-46749853D01*
X17836443Y-46806467D01*
X17762348Y-46945087D01*
X17752778Y-46962991D01*
X17723448Y-46998729D01*
X17640186Y-47100186D01*
X17538729Y-47183448D01*
X17502991Y-47212778D01*
X17502989Y-47212779D01*
X17346467Y-47296443D01*
X17289853Y-47313616D01*
X17176627Y-47347963D01*
X17110442Y-47354482D01*
X17044260Y-47361000D01*
X16955740Y-47361000D01*
X16889558Y-47354482D01*
X16823373Y-47347963D01*
X16710147Y-47313616D01*
X16653533Y-47296443D01*
X16497011Y-47212779D01*
X16497009Y-47212778D01*
X16461271Y-47183448D01*
X16359814Y-47100186D01*
X16276552Y-46998729D01*
X16247222Y-46962991D01*
X16237652Y-46945087D01*
X16163557Y-46806467D01*
X16146384Y-46749853D01*
X16112037Y-46636627D01*
X16094641Y-46460000D01*
X16112037Y-46283373D01*
X16163557Y-46113534D01*
X16163557Y-46113533D01*
X16247221Y-45957011D01*
X16247222Y-45957009D01*
X16276552Y-45921271D01*
X16359814Y-45819814D01*
X16461271Y-45736552D01*
X16497009Y-45707222D01*
X16625684Y-45638443D01*
X16653533Y-45623557D01*
X16710147Y-45606384D01*
X16823373Y-45572037D01*
X16896660Y-45564819D01*
X16955740Y-45559000D01*
X17044260Y-45559000D01*
X17103340Y-45564819D01*
X17103340Y-45564819D01*
G37*
G36*
X40364499Y-45553445D02*
X40401993Y-45564819D01*
X40436557Y-45583294D01*
X40466847Y-45608153D01*
X40491706Y-45638443D01*
X40510181Y-45673007D01*
X40521555Y-45710501D01*
X40526000Y-45755638D01*
X40526000Y-46494362D01*
X40521555Y-46539499D01*
X40510181Y-46576993D01*
X40491706Y-46611557D01*
X40466847Y-46641847D01*
X40436557Y-46666706D01*
X40401993Y-46685181D01*
X40364499Y-46696555D01*
X40319362Y-46701000D01*
X39680638Y-46701000D01*
X39635501Y-46696555D01*
X39598007Y-46685181D01*
X39563443Y-46666706D01*
X39533153Y-46641847D01*
X39508294Y-46611557D01*
X39489819Y-46576993D01*
X39478445Y-46539499D01*
X39474000Y-46494362D01*
X39474000Y-45755638D01*
X39478445Y-45710501D01*
X39489819Y-45673007D01*
X39508294Y-45638443D01*
X39533153Y-45608153D01*
X39563443Y-45583294D01*
X39598007Y-45564819D01*
X39635501Y-45553445D01*
X39680638Y-45549000D01*
X40319362Y-45549000D01*
X40364499Y-45553445D01*
X40364499Y-45553445D01*
G37*
G36*
X45539499Y-45478445D02*
X45576993Y-45489819D01*
X45611557Y-45508294D01*
X45641847Y-45533153D01*
X45666706Y-45563443D01*
X45685181Y-45598007D01*
X45696555Y-45635501D01*
X45701000Y-45680638D01*
X45701000Y-46319362D01*
X45696555Y-46364499D01*
X45685181Y-46401993D01*
X45666706Y-46436557D01*
X45641847Y-46466847D01*
X45611557Y-46491706D01*
X45576993Y-46510181D01*
X45539499Y-46521555D01*
X45494362Y-46526000D01*
X44755638Y-46526000D01*
X44710501Y-46521555D01*
X44673007Y-46510181D01*
X44638443Y-46491706D01*
X44608153Y-46466847D01*
X44583294Y-46436557D01*
X44564819Y-46401993D01*
X44553445Y-46364499D01*
X44549000Y-46319362D01*
X44549000Y-45680638D01*
X44553445Y-45635501D01*
X44564819Y-45598007D01*
X44583294Y-45563443D01*
X44608153Y-45533153D01*
X44638443Y-45508294D01*
X44673007Y-45489819D01*
X44710501Y-45478445D01*
X44755638Y-45474000D01*
X45494362Y-45474000D01*
X45539499Y-45478445D01*
X45539499Y-45478445D01*
G37*
G36*
X47289499Y-45478445D02*
X47326993Y-45489819D01*
X47361557Y-45508294D01*
X47391847Y-45533153D01*
X47416706Y-45563443D01*
X47435181Y-45598007D01*
X47446555Y-45635501D01*
X47451000Y-45680638D01*
X47451000Y-46319362D01*
X47446555Y-46364499D01*
X47435181Y-46401993D01*
X47416706Y-46436557D01*
X47391847Y-46466847D01*
X47361557Y-46491706D01*
X47326993Y-46510181D01*
X47289499Y-46521555D01*
X47244362Y-46526000D01*
X46505638Y-46526000D01*
X46460501Y-46521555D01*
X46423007Y-46510181D01*
X46388443Y-46491706D01*
X46358153Y-46466847D01*
X46333294Y-46436557D01*
X46314819Y-46401993D01*
X46303445Y-46364499D01*
X46299000Y-46319362D01*
X46299000Y-45680638D01*
X46303445Y-45635501D01*
X46314819Y-45598007D01*
X46333294Y-45563443D01*
X46358153Y-45533153D01*
X46388443Y-45508294D01*
X46423007Y-45489819D01*
X46460501Y-45478445D01*
X46505638Y-45474000D01*
X47244362Y-45474000D01*
X47289499Y-45478445D01*
X47289499Y-45478445D01*
G37*
G36*
X30851000Y-44851000D02*
X29149000Y-44851000D01*
X29149000Y-43149000D01*
X30851000Y-43149000D01*
X30851000Y-44851000D01*
X30851000Y-44851000D01*
G37*
G36*
X22438677Y-43253465D02*
X22476364Y-43264898D01*
X22511103Y-43283466D01*
X22541548Y-43308452D01*
X22566534Y-43338897D01*
X22585102Y-43373636D01*
X22596535Y-43411323D01*
X22601000Y-43456661D01*
X22601000Y-44543339D01*
X22596535Y-44588677D01*
X22585102Y-44626364D01*
X22566534Y-44661103D01*
X22541548Y-44691548D01*
X22511103Y-44716534D01*
X22476364Y-44735102D01*
X22438677Y-44746535D01*
X22393339Y-44751000D01*
X21556661Y-44751000D01*
X21511323Y-44746535D01*
X21473636Y-44735102D01*
X21438897Y-44716534D01*
X21408452Y-44691548D01*
X21383466Y-44661103D01*
X21364898Y-44626364D01*
X21353465Y-44588677D01*
X21349000Y-44543339D01*
X21349000Y-43456661D01*
X21353465Y-43411323D01*
X21364898Y-43373636D01*
X21383466Y-43338897D01*
X21408452Y-43308452D01*
X21438897Y-43283466D01*
X21473636Y-43264898D01*
X21511323Y-43253465D01*
X21556661Y-43249000D01*
X22393339Y-43249000D01*
X22438677Y-43253465D01*
X22438677Y-43253465D01*
G37*
G36*
X24488677Y-43253465D02*
X24526364Y-43264898D01*
X24561103Y-43283466D01*
X24591548Y-43308452D01*
X24616534Y-43338897D01*
X24635102Y-43373636D01*
X24646535Y-43411323D01*
X24651000Y-43456661D01*
X24651000Y-44543339D01*
X24646535Y-44588677D01*
X24635102Y-44626364D01*
X24616534Y-44661103D01*
X24591548Y-44691548D01*
X24561103Y-44716534D01*
X24526364Y-44735102D01*
X24488677Y-44746535D01*
X24443339Y-44751000D01*
X23606661Y-44751000D01*
X23561323Y-44746535D01*
X23523636Y-44735102D01*
X23488897Y-44716534D01*
X23458452Y-44691548D01*
X23433466Y-44661103D01*
X23414898Y-44626364D01*
X23403465Y-44588677D01*
X23399000Y-44543339D01*
X23399000Y-43456661D01*
X23403465Y-43411323D01*
X23414898Y-43373636D01*
X23433466Y-43338897D01*
X23458452Y-43308452D01*
X23488897Y-43283466D01*
X23523636Y-43264898D01*
X23561323Y-43253465D01*
X23606661Y-43249000D01*
X24443339Y-43249000D01*
X24488677Y-43253465D01*
X24488677Y-43253465D01*
G37*
G36*
X43289499Y-42478445D02*
X43326993Y-42489819D01*
X43361557Y-42508294D01*
X43391847Y-42533153D01*
X43416706Y-42563443D01*
X43435181Y-42598007D01*
X43446555Y-42635501D01*
X43451000Y-42680638D01*
X43451000Y-43319362D01*
X43446555Y-43364499D01*
X43435181Y-43401993D01*
X43416706Y-43436557D01*
X43391847Y-43466847D01*
X43361557Y-43491706D01*
X43326993Y-43510181D01*
X43289499Y-43521555D01*
X43244362Y-43526000D01*
X42505638Y-43526000D01*
X42460501Y-43521555D01*
X42423007Y-43510181D01*
X42388443Y-43491706D01*
X42358153Y-43466847D01*
X42333294Y-43436557D01*
X42314819Y-43401993D01*
X42303445Y-43364499D01*
X42299000Y-43319362D01*
X42299000Y-42680638D01*
X42303445Y-42635501D01*
X42314819Y-42598007D01*
X42333294Y-42563443D01*
X42358153Y-42533153D01*
X42388443Y-42508294D01*
X42423007Y-42489819D01*
X42460501Y-42478445D01*
X42505638Y-42474000D01*
X43244362Y-42474000D01*
X43289499Y-42478445D01*
X43289499Y-42478445D01*
G37*
G36*
X41539499Y-42478445D02*
X41576993Y-42489819D01*
X41611557Y-42508294D01*
X41641847Y-42533153D01*
X41666706Y-42563443D01*
X41685181Y-42598007D01*
X41696555Y-42635501D01*
X41701000Y-42680638D01*
X41701000Y-43319362D01*
X41696555Y-43364499D01*
X41685181Y-43401993D01*
X41666706Y-43436557D01*
X41641847Y-43466847D01*
X41611557Y-43491706D01*
X41576993Y-43510181D01*
X41539499Y-43521555D01*
X41494362Y-43526000D01*
X40755638Y-43526000D01*
X40710501Y-43521555D01*
X40673007Y-43510181D01*
X40638443Y-43491706D01*
X40608153Y-43466847D01*
X40583294Y-43436557D01*
X40564819Y-43401993D01*
X40553445Y-43364499D01*
X40549000Y-43319362D01*
X40549000Y-42680638D01*
X40553445Y-42635501D01*
X40564819Y-42598007D01*
X40583294Y-42563443D01*
X40608153Y-42533153D01*
X40638443Y-42508294D01*
X40673007Y-42489819D01*
X40710501Y-42478445D01*
X40755638Y-42474000D01*
X41494362Y-42474000D01*
X41539499Y-42478445D01*
X41539499Y-42478445D01*
G37*
G36*
X47601000Y-43131000D02*
X47099000Y-43131000D01*
X47099000Y-41529000D01*
X47601000Y-41529000D01*
X47601000Y-43131000D01*
X47601000Y-43131000D01*
G37*
G36*
X48901000Y-43131000D02*
X48399000Y-43131000D01*
X48399000Y-41529000D01*
X48901000Y-41529000D01*
X48901000Y-43131000D01*
X48901000Y-43131000D01*
G37*
G36*
X37289499Y-41478445D02*
X37326993Y-41489819D01*
X37361557Y-41508294D01*
X37391847Y-41533153D01*
X37416706Y-41563443D01*
X37435181Y-41598007D01*
X37446555Y-41635501D01*
X37451000Y-41680638D01*
X37451000Y-42319362D01*
X37446555Y-42364499D01*
X37435181Y-42401993D01*
X37416706Y-42436557D01*
X37391847Y-42466847D01*
X37361557Y-42491706D01*
X37326993Y-42510181D01*
X37289499Y-42521555D01*
X37244362Y-42526000D01*
X36505638Y-42526000D01*
X36460501Y-42521555D01*
X36423007Y-42510181D01*
X36388443Y-42491706D01*
X36358153Y-42466847D01*
X36333294Y-42436557D01*
X36314819Y-42401993D01*
X36303445Y-42364499D01*
X36299000Y-42319362D01*
X36299000Y-41680638D01*
X36303445Y-41635501D01*
X36314819Y-41598007D01*
X36333294Y-41563443D01*
X36358153Y-41533153D01*
X36388443Y-41508294D01*
X36423007Y-41489819D01*
X36460501Y-41478445D01*
X36505638Y-41474000D01*
X37244362Y-41474000D01*
X37289499Y-41478445D01*
X37289499Y-41478445D01*
G37*
G36*
X35539499Y-41478445D02*
X35576993Y-41489819D01*
X35611557Y-41508294D01*
X35641847Y-41533153D01*
X35666706Y-41563443D01*
X35685181Y-41598007D01*
X35696555Y-41635501D01*
X35701000Y-41680638D01*
X35701000Y-42319362D01*
X35696555Y-42364499D01*
X35685181Y-42401993D01*
X35666706Y-42436557D01*
X35641847Y-42466847D01*
X35611557Y-42491706D01*
X35576993Y-42510181D01*
X35539499Y-42521555D01*
X35494362Y-42526000D01*
X34755638Y-42526000D01*
X34710501Y-42521555D01*
X34673007Y-42510181D01*
X34638443Y-42491706D01*
X34608153Y-42466847D01*
X34583294Y-42436557D01*
X34564819Y-42401993D01*
X34553445Y-42364499D01*
X34549000Y-42319362D01*
X34549000Y-41680638D01*
X34553445Y-41635501D01*
X34564819Y-41598007D01*
X34583294Y-41563443D01*
X34608153Y-41533153D01*
X34638443Y-41508294D01*
X34673007Y-41489819D01*
X34710501Y-41478445D01*
X34755638Y-41474000D01*
X35494362Y-41474000D01*
X35539499Y-41478445D01*
X35539499Y-41478445D01*
G37*
G36*
X30248228Y-40681703D02*
X30403100Y-40745853D01*
X30542481Y-40838985D01*
X30661015Y-40957519D01*
X30754147Y-41096900D01*
X30818297Y-41251772D01*
X30851000Y-41416184D01*
X30851000Y-41583816D01*
X30818297Y-41748228D01*
X30754147Y-41903100D01*
X30661015Y-42042481D01*
X30542481Y-42161015D01*
X30403100Y-42254147D01*
X30248228Y-42318297D01*
X30083816Y-42351000D01*
X29916184Y-42351000D01*
X29751772Y-42318297D01*
X29596900Y-42254147D01*
X29457519Y-42161015D01*
X29338985Y-42042481D01*
X29245853Y-41903100D01*
X29181703Y-41748228D01*
X29149000Y-41583816D01*
X29149000Y-41416184D01*
X29181703Y-41251772D01*
X29245853Y-41096900D01*
X29338985Y-40957519D01*
X29457519Y-40838985D01*
X29596900Y-40745853D01*
X29751772Y-40681703D01*
X29916184Y-40649000D01*
X30083816Y-40649000D01*
X30248228Y-40681703D01*
X30248228Y-40681703D01*
G37*
G36*
X48901000Y-40471000D02*
X47099000Y-40471000D01*
X47099000Y-38869000D01*
X48901000Y-38869000D01*
X48901000Y-40471000D01*
X48901000Y-40471000D01*
G37*
G36*
X35539499Y-38478445D02*
X35576993Y-38489819D01*
X35611557Y-38508294D01*
X35641847Y-38533153D01*
X35666706Y-38563443D01*
X35685181Y-38598007D01*
X35696555Y-38635501D01*
X35701000Y-38680638D01*
X35701000Y-39319362D01*
X35696555Y-39364499D01*
X35685181Y-39401993D01*
X35666706Y-39436557D01*
X35641847Y-39466847D01*
X35611557Y-39491706D01*
X35576993Y-39510181D01*
X35539499Y-39521555D01*
X35494362Y-39526000D01*
X34755638Y-39526000D01*
X34710501Y-39521555D01*
X34673007Y-39510181D01*
X34638443Y-39491706D01*
X34608153Y-39466847D01*
X34583294Y-39436557D01*
X34564819Y-39401993D01*
X34553445Y-39364499D01*
X34549000Y-39319362D01*
X34549000Y-38680638D01*
X34553445Y-38635501D01*
X34564819Y-38598007D01*
X34583294Y-38563443D01*
X34608153Y-38533153D01*
X34638443Y-38508294D01*
X34673007Y-38489819D01*
X34710501Y-38478445D01*
X34755638Y-38474000D01*
X35494362Y-38474000D01*
X35539499Y-38478445D01*
X35539499Y-38478445D01*
G37*
G36*
X37289499Y-38478445D02*
X37326993Y-38489819D01*
X37361557Y-38508294D01*
X37391847Y-38533153D01*
X37416706Y-38563443D01*
X37435181Y-38598007D01*
X37446555Y-38635501D01*
X37451000Y-38680638D01*
X37451000Y-39319362D01*
X37446555Y-39364499D01*
X37435181Y-39401993D01*
X37416706Y-39436557D01*
X37391847Y-39466847D01*
X37361557Y-39491706D01*
X37326993Y-39510181D01*
X37289499Y-39521555D01*
X37244362Y-39526000D01*
X36505638Y-39526000D01*
X36460501Y-39521555D01*
X36423007Y-39510181D01*
X36388443Y-39491706D01*
X36358153Y-39466847D01*
X36333294Y-39436557D01*
X36314819Y-39401993D01*
X36303445Y-39364499D01*
X36299000Y-39319362D01*
X36299000Y-38680638D01*
X36303445Y-38635501D01*
X36314819Y-38598007D01*
X36333294Y-38563443D01*
X36358153Y-38533153D01*
X36388443Y-38508294D01*
X36423007Y-38489819D01*
X36460501Y-38478445D01*
X36505638Y-38474000D01*
X37244362Y-38474000D01*
X37289499Y-38478445D01*
X37289499Y-38478445D01*
G37*
G36*
X23190443Y-37105519D02*
X23256627Y-37112037D01*
X23369853Y-37146384D01*
X23426467Y-37163557D01*
X23565087Y-37237652D01*
X23582991Y-37247222D01*
X23591530Y-37254230D01*
X23720186Y-37359814D01*
X23799665Y-37456661D01*
X23832778Y-37497009D01*
X23832779Y-37497011D01*
X23916443Y-37653533D01*
X23916443Y-37653534D01*
X23967963Y-37823373D01*
X23985359Y-38000000D01*
X23967963Y-38176627D01*
X23933616Y-38289853D01*
X23916443Y-38346467D01*
X23848274Y-38474000D01*
X23832778Y-38502991D01*
X23803448Y-38538729D01*
X23720186Y-38640186D01*
X23641049Y-38705131D01*
X23582991Y-38752778D01*
X23582989Y-38752779D01*
X23426467Y-38836443D01*
X23369853Y-38853616D01*
X23256627Y-38887963D01*
X23190443Y-38894481D01*
X23124260Y-38901000D01*
X23035740Y-38901000D01*
X22969557Y-38894481D01*
X22903373Y-38887963D01*
X22790147Y-38853616D01*
X22733533Y-38836443D01*
X22577011Y-38752779D01*
X22577009Y-38752778D01*
X22518951Y-38705131D01*
X22439814Y-38640186D01*
X22356552Y-38538729D01*
X22327222Y-38502991D01*
X22311726Y-38474000D01*
X22243557Y-38346467D01*
X22226384Y-38289853D01*
X22192037Y-38176627D01*
X22174641Y-38000000D01*
X22192037Y-37823373D01*
X22243557Y-37653534D01*
X22243557Y-37653533D01*
X22327221Y-37497011D01*
X22327222Y-37497009D01*
X22360335Y-37456661D01*
X22439814Y-37359814D01*
X22568470Y-37254230D01*
X22577009Y-37247222D01*
X22594913Y-37237652D01*
X22733533Y-37163557D01*
X22790147Y-37146384D01*
X22903373Y-37112037D01*
X22969557Y-37105519D01*
X23035740Y-37099000D01*
X23124260Y-37099000D01*
X23190443Y-37105519D01*
X23190443Y-37105519D01*
G37*
G36*
X18901000Y-38901000D02*
X17099000Y-38901000D01*
X17099000Y-37099000D01*
X18901000Y-37099000D01*
X18901000Y-38901000D01*
X18901000Y-38901000D01*
G37*
G36*
X20650443Y-37105519D02*
X20716627Y-37112037D01*
X20829853Y-37146384D01*
X20886467Y-37163557D01*
X21025087Y-37237652D01*
X21042991Y-37247222D01*
X21051530Y-37254230D01*
X21180186Y-37359814D01*
X21259665Y-37456661D01*
X21292778Y-37497009D01*
X21292779Y-37497011D01*
X21376443Y-37653533D01*
X21376443Y-37653534D01*
X21427963Y-37823373D01*
X21445359Y-38000000D01*
X21427963Y-38176627D01*
X21393616Y-38289853D01*
X21376443Y-38346467D01*
X21308274Y-38474000D01*
X21292778Y-38502991D01*
X21263448Y-38538729D01*
X21180186Y-38640186D01*
X21101049Y-38705131D01*
X21042991Y-38752778D01*
X21042989Y-38752779D01*
X20886467Y-38836443D01*
X20829853Y-38853616D01*
X20716627Y-38887963D01*
X20650443Y-38894481D01*
X20584260Y-38901000D01*
X20495740Y-38901000D01*
X20429557Y-38894481D01*
X20363373Y-38887963D01*
X20250147Y-38853616D01*
X20193533Y-38836443D01*
X20037011Y-38752779D01*
X20037009Y-38752778D01*
X19978951Y-38705131D01*
X19899814Y-38640186D01*
X19816552Y-38538729D01*
X19787222Y-38502991D01*
X19771726Y-38474000D01*
X19703557Y-38346467D01*
X19686384Y-38289853D01*
X19652037Y-38176627D01*
X19634641Y-38000000D01*
X19652037Y-37823373D01*
X19703557Y-37653534D01*
X19703557Y-37653533D01*
X19787221Y-37497011D01*
X19787222Y-37497009D01*
X19820335Y-37456661D01*
X19899814Y-37359814D01*
X20028470Y-37254230D01*
X20037009Y-37247222D01*
X20054913Y-37237652D01*
X20193533Y-37163557D01*
X20250147Y-37146384D01*
X20363373Y-37112037D01*
X20429557Y-37105519D01*
X20495740Y-37099000D01*
X20584260Y-37099000D01*
X20650443Y-37105519D01*
X20650443Y-37105519D01*
G37*
G36*
X29438677Y-37253465D02*
X29476364Y-37264898D01*
X29511103Y-37283466D01*
X29541548Y-37308452D01*
X29566534Y-37338897D01*
X29585102Y-37373636D01*
X29596535Y-37411323D01*
X29601000Y-37456661D01*
X29601000Y-38543339D01*
X29596535Y-38588677D01*
X29585102Y-38626364D01*
X29566534Y-38661103D01*
X29541548Y-38691548D01*
X29511103Y-38716534D01*
X29476364Y-38735102D01*
X29438677Y-38746535D01*
X29393339Y-38751000D01*
X28556661Y-38751000D01*
X28511323Y-38746535D01*
X28473636Y-38735102D01*
X28438897Y-38716534D01*
X28408452Y-38691548D01*
X28383466Y-38661103D01*
X28364898Y-38626364D01*
X28353465Y-38588677D01*
X28349000Y-38543339D01*
X28349000Y-37456661D01*
X28353465Y-37411323D01*
X28364898Y-37373636D01*
X28383466Y-37338897D01*
X28408452Y-37308452D01*
X28438897Y-37283466D01*
X28473636Y-37264898D01*
X28511323Y-37253465D01*
X28556661Y-37249000D01*
X29393339Y-37249000D01*
X29438677Y-37253465D01*
X29438677Y-37253465D01*
G37*
G36*
X31488677Y-37253465D02*
X31526364Y-37264898D01*
X31561103Y-37283466D01*
X31591548Y-37308452D01*
X31616534Y-37338897D01*
X31635102Y-37373636D01*
X31646535Y-37411323D01*
X31651000Y-37456661D01*
X31651000Y-38543339D01*
X31646535Y-38588677D01*
X31635102Y-38626364D01*
X31616534Y-38661103D01*
X31591548Y-38691548D01*
X31561103Y-38716534D01*
X31526364Y-38735102D01*
X31488677Y-38746535D01*
X31443339Y-38751000D01*
X30606661Y-38751000D01*
X30561323Y-38746535D01*
X30523636Y-38735102D01*
X30488897Y-38716534D01*
X30458452Y-38691548D01*
X30433466Y-38661103D01*
X30414898Y-38626364D01*
X30403465Y-38588677D01*
X30399000Y-38543339D01*
X30399000Y-37456661D01*
X30403465Y-37411323D01*
X30414898Y-37373636D01*
X30433466Y-37338897D01*
X30458452Y-37308452D01*
X30488897Y-37283466D01*
X30523636Y-37264898D01*
X30561323Y-37253465D01*
X30606661Y-37249000D01*
X31443339Y-37249000D01*
X31488677Y-37253465D01*
X31488677Y-37253465D01*
G37*
G36*
X46901000Y-34651000D02*
X44299000Y-34651000D01*
X44299000Y-33549000D01*
X46901000Y-33549000D01*
X46901000Y-34651000D01*
X46901000Y-34651000D01*
G37*
G36*
X31701000Y-34651000D02*
X29099000Y-34651000D01*
X29099000Y-33549000D01*
X31701000Y-33549000D01*
X31701000Y-34651000D01*
X31701000Y-34651000D01*
G37*
G36*
X18539499Y-32478445D02*
X18576993Y-32489819D01*
X18611557Y-32508294D01*
X18641847Y-32533153D01*
X18666706Y-32563443D01*
X18685181Y-32598007D01*
X18696555Y-32635501D01*
X18701000Y-32680638D01*
X18701000Y-33319362D01*
X18696555Y-33364499D01*
X18685181Y-33401993D01*
X18666706Y-33436557D01*
X18641847Y-33466847D01*
X18611557Y-33491706D01*
X18576993Y-33510181D01*
X18539499Y-33521555D01*
X18494362Y-33526000D01*
X17755638Y-33526000D01*
X17710501Y-33521555D01*
X17673007Y-33510181D01*
X17638443Y-33491706D01*
X17608153Y-33466847D01*
X17583294Y-33436557D01*
X17564819Y-33401993D01*
X17553445Y-33364499D01*
X17549000Y-33319362D01*
X17549000Y-32680638D01*
X17553445Y-32635501D01*
X17564819Y-32598007D01*
X17583294Y-32563443D01*
X17608153Y-32533153D01*
X17638443Y-32508294D01*
X17673007Y-32489819D01*
X17710501Y-32478445D01*
X17755638Y-32474000D01*
X18494362Y-32474000D01*
X18539499Y-32478445D01*
X18539499Y-32478445D01*
G37*
G36*
X20289499Y-32478445D02*
X20326993Y-32489819D01*
X20361557Y-32508294D01*
X20391847Y-32533153D01*
X20416706Y-32563443D01*
X20435181Y-32598007D01*
X20446555Y-32635501D01*
X20451000Y-32680638D01*
X20451000Y-33319362D01*
X20446555Y-33364499D01*
X20435181Y-33401993D01*
X20416706Y-33436557D01*
X20391847Y-33466847D01*
X20361557Y-33491706D01*
X20326993Y-33510181D01*
X20289499Y-33521555D01*
X20244362Y-33526000D01*
X19505638Y-33526000D01*
X19460501Y-33521555D01*
X19423007Y-33510181D01*
X19388443Y-33491706D01*
X19358153Y-33466847D01*
X19333294Y-33436557D01*
X19314819Y-33401993D01*
X19303445Y-33364499D01*
X19299000Y-33319362D01*
X19299000Y-32680638D01*
X19303445Y-32635501D01*
X19314819Y-32598007D01*
X19333294Y-32563443D01*
X19358153Y-32533153D01*
X19388443Y-32508294D01*
X19423007Y-32489819D01*
X19460501Y-32478445D01*
X19505638Y-32474000D01*
X20244362Y-32474000D01*
X20289499Y-32478445D01*
X20289499Y-32478445D01*
G37*
G36*
X31701000Y-32651000D02*
X29099000Y-32651000D01*
X29099000Y-31549000D01*
X31701000Y-31549000D01*
X31701000Y-32651000D01*
X31701000Y-32651000D01*
G37*
G36*
X46901000Y-32651000D02*
X44299000Y-32651000D01*
X44299000Y-31549000D01*
X46901000Y-31549000D01*
X46901000Y-32651000D01*
X46901000Y-32651000D01*
G37*
G36*
X24851000Y-30851000D02*
X23149000Y-30851000D01*
X23149000Y-29149000D01*
X24851000Y-29149000D01*
X24851000Y-30851000D01*
X24851000Y-30851000D01*
G37*
G36*
X51375256Y-27391298D02*
X51481579Y-27412447D01*
X51782042Y-27536903D01*
X51800146Y-27549000D01*
X52052454Y-27717587D01*
X52282413Y-27947546D01*
X52463098Y-28217960D01*
X52587553Y-28518422D01*
X52651000Y-28837389D01*
X52651000Y-29162611D01*
X52587553Y-29481578D01*
X52463098Y-29782040D01*
X52282413Y-30052454D01*
X52052454Y-30282413D01*
X52052451Y-30282415D01*
X51782042Y-30463097D01*
X51481579Y-30587553D01*
X51375256Y-30608702D01*
X51162611Y-30651000D01*
X50837389Y-30651000D01*
X50624744Y-30608702D01*
X50518421Y-30587553D01*
X50217958Y-30463097D01*
X49947549Y-30282415D01*
X49947546Y-30282413D01*
X49717587Y-30052454D01*
X49536902Y-29782040D01*
X49412447Y-29481578D01*
X49349000Y-29162611D01*
X49349000Y-28837389D01*
X49412447Y-28518422D01*
X49536902Y-28217960D01*
X49717587Y-27947546D01*
X49947546Y-27717587D01*
X50199854Y-27549000D01*
X50217958Y-27536903D01*
X50518421Y-27412447D01*
X50624744Y-27391298D01*
X50837389Y-27349000D01*
X51162611Y-27349000D01*
X51375256Y-27391298D01*
X51375256Y-27391298D01*
G37*
G36*
X31701000Y-30651000D02*
X29099000Y-30651000D01*
X29099000Y-29549000D01*
X31701000Y-29549000D01*
X31701000Y-30651000D01*
X31701000Y-30651000D01*
G37*
G36*
X17375256Y-27391298D02*
X17481579Y-27412447D01*
X17782042Y-27536903D01*
X17800146Y-27549000D01*
X18052454Y-27717587D01*
X18282413Y-27947546D01*
X18463098Y-28217960D01*
X18587553Y-28518422D01*
X18651000Y-28837389D01*
X18651000Y-29162611D01*
X18587553Y-29481578D01*
X18463098Y-29782040D01*
X18282413Y-30052454D01*
X18052454Y-30282413D01*
X18052451Y-30282415D01*
X17782042Y-30463097D01*
X17481579Y-30587553D01*
X17375256Y-30608702D01*
X17162611Y-30651000D01*
X16837389Y-30651000D01*
X16624744Y-30608702D01*
X16518421Y-30587553D01*
X16217958Y-30463097D01*
X15947549Y-30282415D01*
X15947546Y-30282413D01*
X15717587Y-30052454D01*
X15536902Y-29782040D01*
X15412447Y-29481578D01*
X15349000Y-29162611D01*
X15349000Y-28837389D01*
X15412447Y-28518422D01*
X15536902Y-28217960D01*
X15717587Y-27947546D01*
X15947546Y-27717587D01*
X16199854Y-27549000D01*
X16217958Y-27536903D01*
X16518421Y-27412447D01*
X16624744Y-27391298D01*
X16837389Y-27349000D01*
X17162611Y-27349000D01*
X17375256Y-27391298D01*
X17375256Y-27391298D01*
G37*
G36*
X46901000Y-30651000D02*
X44299000Y-30651000D01*
X44299000Y-29549000D01*
X46901000Y-29549000D01*
X46901000Y-30651000D01*
X46901000Y-30651000D01*
G37*
G36*
X46901000Y-28651000D02*
X44299000Y-28651000D01*
X44299000Y-27549000D01*
X46901000Y-27549000D01*
X46901000Y-28651000D01*
X46901000Y-28651000D01*
G37*
G36*
X31701000Y-28651000D02*
X29099000Y-28651000D01*
X29099000Y-27549000D01*
X31701000Y-27549000D01*
X31701000Y-28651000D01*
X31701000Y-28651000D01*
G37*
G36*
X24248228Y-26681703D02*
X24403100Y-26745853D01*
X24542481Y-26838985D01*
X24661015Y-26957519D01*
X24754147Y-27096900D01*
X24818297Y-27251772D01*
X24851000Y-27416184D01*
X24851000Y-27583816D01*
X24818297Y-27748228D01*
X24754147Y-27903100D01*
X24661015Y-28042481D01*
X24542481Y-28161015D01*
X24403100Y-28254147D01*
X24248228Y-28318297D01*
X24083816Y-28351000D01*
X23916184Y-28351000D01*
X23751772Y-28318297D01*
X23596900Y-28254147D01*
X23457519Y-28161015D01*
X23338985Y-28042481D01*
X23245853Y-27903100D01*
X23181703Y-27748228D01*
X23149000Y-27583816D01*
X23149000Y-27416184D01*
X23181703Y-27251772D01*
X23245853Y-27096900D01*
X23338985Y-26957519D01*
X23457519Y-26838985D01*
X23596900Y-26745853D01*
X23751772Y-26681703D01*
X23916184Y-26649000D01*
X24083816Y-26649000D01*
X24248228Y-26681703D01*
X24248228Y-26681703D01*
G37*
G36*
X31701000Y-26651000D02*
X29099000Y-26651000D01*
X29099000Y-25549000D01*
X31701000Y-25549000D01*
X31701000Y-26651000D01*
X31701000Y-26651000D01*
G37*
G36*
X46901000Y-26651000D02*
X44299000Y-26651000D01*
X44299000Y-25549000D01*
X46901000Y-25549000D01*
X46901000Y-26651000D01*
X46901000Y-26651000D01*
G37*
G36*
X31701000Y-24651000D02*
X29099000Y-24651000D01*
X29099000Y-23549000D01*
X31701000Y-23549000D01*
X31701000Y-24651000D01*
X31701000Y-24651000D01*
G37*
G36*
X46901000Y-24651000D02*
X44299000Y-24651000D01*
X44299000Y-23549000D01*
X46901000Y-23549000D01*
X46901000Y-24651000D01*
X46901000Y-24651000D01*
G37*
G36*
X27364499Y-22303445D02*
X27401993Y-22314819D01*
X27436557Y-22333294D01*
X27466847Y-22358153D01*
X27491706Y-22388443D01*
X27510181Y-22423007D01*
X27521555Y-22460501D01*
X27526000Y-22505638D01*
X27526000Y-23244362D01*
X27521555Y-23289499D01*
X27510181Y-23326993D01*
X27491706Y-23361557D01*
X27466847Y-23391847D01*
X27436557Y-23416706D01*
X27401993Y-23435181D01*
X27364499Y-23446555D01*
X27319362Y-23451000D01*
X26680638Y-23451000D01*
X26635501Y-23446555D01*
X26598007Y-23435181D01*
X26563443Y-23416706D01*
X26533153Y-23391847D01*
X26508294Y-23361557D01*
X26489819Y-23326993D01*
X26478445Y-23289499D01*
X26474000Y-23244362D01*
X26474000Y-22505638D01*
X26478445Y-22460501D01*
X26489819Y-22423007D01*
X26508294Y-22388443D01*
X26533153Y-22358153D01*
X26563443Y-22333294D01*
X26598007Y-22314819D01*
X26635501Y-22303445D01*
X26680638Y-22299000D01*
X27319362Y-22299000D01*
X27364499Y-22303445D01*
X27364499Y-22303445D01*
G37*
G36*
X23364499Y-22303445D02*
X23401993Y-22314819D01*
X23436557Y-22333294D01*
X23466847Y-22358153D01*
X23491706Y-22388443D01*
X23510181Y-22423007D01*
X23521555Y-22460501D01*
X23526000Y-22505638D01*
X23526000Y-23244362D01*
X23521555Y-23289499D01*
X23510181Y-23326993D01*
X23491706Y-23361557D01*
X23466847Y-23391847D01*
X23436557Y-23416706D01*
X23401993Y-23435181D01*
X23364499Y-23446555D01*
X23319362Y-23451000D01*
X22680638Y-23451000D01*
X22635501Y-23446555D01*
X22598007Y-23435181D01*
X22563443Y-23416706D01*
X22533153Y-23391847D01*
X22508294Y-23361557D01*
X22489819Y-23326993D01*
X22478445Y-23289499D01*
X22474000Y-23244362D01*
X22474000Y-22505638D01*
X22478445Y-22460501D01*
X22489819Y-22423007D01*
X22508294Y-22388443D01*
X22533153Y-22358153D01*
X22563443Y-22333294D01*
X22598007Y-22314819D01*
X22635501Y-22303445D01*
X22680638Y-22299000D01*
X23319362Y-22299000D01*
X23364499Y-22303445D01*
X23364499Y-22303445D01*
G37*
G36*
X46901000Y-22651000D02*
X44299000Y-22651000D01*
X44299000Y-21549000D01*
X46901000Y-21549000D01*
X46901000Y-22651000D01*
X46901000Y-22651000D01*
G37*
G36*
X31701000Y-22651000D02*
X29099000Y-22651000D01*
X29099000Y-21549000D01*
X31701000Y-21549000D01*
X31701000Y-22651000D01*
X31701000Y-22651000D01*
G37*
G36*
X27364499Y-20553445D02*
X27401993Y-20564819D01*
X27436557Y-20583294D01*
X27466847Y-20608153D01*
X27491706Y-20638443D01*
X27510181Y-20673007D01*
X27521555Y-20710501D01*
X27526000Y-20755638D01*
X27526000Y-21494362D01*
X27521555Y-21539499D01*
X27510181Y-21576993D01*
X27491706Y-21611557D01*
X27466847Y-21641847D01*
X27436557Y-21666706D01*
X27401993Y-21685181D01*
X27364499Y-21696555D01*
X27319362Y-21701000D01*
X26680638Y-21701000D01*
X26635501Y-21696555D01*
X26598007Y-21685181D01*
X26563443Y-21666706D01*
X26533153Y-21641847D01*
X26508294Y-21611557D01*
X26489819Y-21576993D01*
X26478445Y-21539499D01*
X26474000Y-21494362D01*
X26474000Y-20755638D01*
X26478445Y-20710501D01*
X26489819Y-20673007D01*
X26508294Y-20638443D01*
X26533153Y-20608153D01*
X26563443Y-20583294D01*
X26598007Y-20564819D01*
X26635501Y-20553445D01*
X26680638Y-20549000D01*
X27319362Y-20549000D01*
X27364499Y-20553445D01*
X27364499Y-20553445D01*
G37*
G36*
X23364499Y-20553445D02*
X23401993Y-20564819D01*
X23436557Y-20583294D01*
X23466847Y-20608153D01*
X23491706Y-20638443D01*
X23510181Y-20673007D01*
X23521555Y-20710501D01*
X23526000Y-20755638D01*
X23526000Y-21494362D01*
X23521555Y-21539499D01*
X23510181Y-21576993D01*
X23491706Y-21611557D01*
X23466847Y-21641847D01*
X23436557Y-21666706D01*
X23401993Y-21685181D01*
X23364499Y-21696555D01*
X23319362Y-21701000D01*
X22680638Y-21701000D01*
X22635501Y-21696555D01*
X22598007Y-21685181D01*
X22563443Y-21666706D01*
X22533153Y-21641847D01*
X22508294Y-21611557D01*
X22489819Y-21576993D01*
X22478445Y-21539499D01*
X22474000Y-21494362D01*
X22474000Y-20755638D01*
X22478445Y-20710501D01*
X22489819Y-20673007D01*
X22508294Y-20638443D01*
X22533153Y-20608153D01*
X22563443Y-20583294D01*
X22598007Y-20564819D01*
X22635501Y-20553445D01*
X22680638Y-20549000D01*
X23319362Y-20549000D01*
X23364499Y-20553445D01*
X23364499Y-20553445D01*
G37*
G36*
X31701000Y-20651000D02*
X29099000Y-20651000D01*
X29099000Y-19549000D01*
X31701000Y-19549000D01*
X31701000Y-20651000D01*
X31701000Y-20651000D01*
G37*
G36*
X46901000Y-20651000D02*
X44299000Y-20651000D01*
X44299000Y-19549000D01*
X46901000Y-19549000D01*
X46901000Y-20651000D01*
X46901000Y-20651000D01*
G37*
M02*
